<?xml version="1.0" encoding="utf-8" standalone="no"?>
<!DOCTYPE svg PUBLIC "-//W3C//DTD SVG 1.1//EN"
  "http://www.w3.org/Graphics/SVG/1.1/DTD/svg11.dtd">
<svg xmlns:xlink="http://www.w3.org/1999/xlink" width="720pt" height="288pt" viewBox="0 0 720 288" xmlns="http://www.w3.org/2000/svg" version="1.1">
 <metadata>
  <rdf:RDF xmlns:dc="http://purl.org/dc/elements/1.1/" xmlns:cc="http://creativecommons.org/ns#" xmlns:rdf="http://www.w3.org/1999/02/22-rdf-syntax-ns#">
   <cc:Work>
    <dc:type rdf:resource="http://purl.org/dc/dcmitype/StillImage"/>
    <dc:date>2025-01-06T16:17:23.836776</dc:date>
    <dc:format>image/svg+xml</dc:format>
    <dc:creator>
     <cc:Agent>
      <dc:title>Matplotlib v3.6.0, https://matplotlib.org/</dc:title>
     </cc:Agent>
    </dc:creator>
   </cc:Work>
  </rdf:RDF>
 </metadata>
 <defs>
  <style type="text/css">*{stroke-linejoin: round; stroke-linecap: butt}</style>
 </defs>
 <g id="figure_1">
  <g id="patch_1">
   <path d="M 0 288 
L 720 288 
L 720 0 
L 0 0 
z
" style="fill: #ffffff"/>
  </g>
  <g id="axes_1">
   <g id="patch_2">
    <path d="M 90 256.32 
L 648 256.32 
L 648 34.56 
L 90 34.56 
z
" style="fill: #ffffff"/>
   </g>
   <g id="matplotlib.axis_1">
    <g id="xtick_1">
     <g id="line2d_1">
      <defs>
       <path id="mfd8bafc106" d="M 0 0 
L 0 3.5 
" style="stroke: #000000; stroke-width: 0.8"/>
      </defs>
      <g>
       <use xlink:href="#mfd8bafc106" x="115.363636" y="256.32" style="stroke: #000000; stroke-width: 0.8"/>
      </g>
     </g>
     <g id="text_1">
      <!-- 0 -->
      <g transform="translate(112.182386 270.918437) scale(0.1 -0.1)">
       <defs>
        <path id="DejaVuSans-30" d="M 2034 4250 
Q 1547 4250 1301 3770 
Q 1056 3291 1056 2328 
Q 1056 1369 1301 889 
Q 1547 409 2034 409 
Q 2525 409 2770 889 
Q 3016 1369 3016 2328 
Q 3016 3291 2770 3770 
Q 2525 4250 2034 4250 
z
M 2034 4750 
Q 2819 4750 3233 4129 
Q 3647 3509 3647 2328 
Q 3647 1150 3233 529 
Q 2819 -91 2034 -91 
Q 1250 -91 836 529 
Q 422 1150 422 2328 
Q 422 3509 836 4129 
Q 1250 4750 2034 4750 
z
" transform="scale(0.015625)"/>
       </defs>
       <use xlink:href="#DejaVuSans-30"/>
      </g>
     </g>
    </g>
    <g id="xtick_2">
     <g id="line2d_2">
      <g>
       <use xlink:href="#mfd8bafc106" x="200.191852" y="256.32" style="stroke: #000000; stroke-width: 0.8"/>
      </g>
     </g>
     <g id="text_2">
      <!-- 50 -->
      <g transform="translate(193.829352 270.918437) scale(0.1 -0.1)">
       <defs>
        <path id="DejaVuSans-35" d="M 691 4666 
L 3169 4666 
L 3169 4134 
L 1269 4134 
L 1269 2991 
Q 1406 3038 1543 3061 
Q 1681 3084 1819 3084 
Q 2600 3084 3056 2656 
Q 3513 2228 3513 1497 
Q 3513 744 3044 326 
Q 2575 -91 1722 -91 
Q 1428 -91 1123 -41 
Q 819 9 494 109 
L 494 744 
Q 775 591 1075 516 
Q 1375 441 1709 441 
Q 2250 441 2565 725 
Q 2881 1009 2881 1497 
Q 2881 1984 2565 2268 
Q 2250 2553 1709 2553 
Q 1456 2553 1204 2497 
Q 953 2441 691 2322 
L 691 4666 
z
" transform="scale(0.015625)"/>
       </defs>
       <use xlink:href="#DejaVuSans-35"/>
       <use xlink:href="#DejaVuSans-30" x="63.623047"/>
      </g>
     </g>
    </g>
    <g id="xtick_3">
     <g id="line2d_3">
      <g>
       <use xlink:href="#mfd8bafc106" x="285.020067" y="256.32" style="stroke: #000000; stroke-width: 0.8"/>
      </g>
     </g>
     <g id="text_3">
      <!-- 100 -->
      <g transform="translate(275.476317 270.918437) scale(0.1 -0.1)">
       <defs>
        <path id="DejaVuSans-31" d="M 794 531 
L 1825 531 
L 1825 4091 
L 703 3866 
L 703 4441 
L 1819 4666 
L 2450 4666 
L 2450 531 
L 3481 531 
L 3481 0 
L 794 0 
L 794 531 
z
" transform="scale(0.015625)"/>
       </defs>
       <use xlink:href="#DejaVuSans-31"/>
       <use xlink:href="#DejaVuSans-30" x="63.623047"/>
       <use xlink:href="#DejaVuSans-30" x="127.246094"/>
      </g>
     </g>
    </g>
    <g id="xtick_4">
     <g id="line2d_4">
      <g>
       <use xlink:href="#mfd8bafc106" x="369.848282" y="256.32" style="stroke: #000000; stroke-width: 0.8"/>
      </g>
     </g>
     <g id="text_4">
      <!-- 150 -->
      <g transform="translate(360.304532 270.918437) scale(0.1 -0.1)">
       <use xlink:href="#DejaVuSans-31"/>
       <use xlink:href="#DejaVuSans-35" x="63.623047"/>
       <use xlink:href="#DejaVuSans-30" x="127.246094"/>
      </g>
     </g>
    </g>
    <g id="xtick_5">
     <g id="line2d_5">
      <g>
       <use xlink:href="#mfd8bafc106" x="454.676497" y="256.32" style="stroke: #000000; stroke-width: 0.8"/>
      </g>
     </g>
     <g id="text_5">
      <!-- 200 -->
      <g transform="translate(445.132747 270.918437) scale(0.1 -0.1)">
       <defs>
        <path id="DejaVuSans-32" d="M 1228 531 
L 3431 531 
L 3431 0 
L 469 0 
L 469 531 
Q 828 903 1448 1529 
Q 2069 2156 2228 2338 
Q 2531 2678 2651 2914 
Q 2772 3150 2772 3378 
Q 2772 3750 2511 3984 
Q 2250 4219 1831 4219 
Q 1534 4219 1204 4116 
Q 875 4013 500 3803 
L 500 4441 
Q 881 4594 1212 4672 
Q 1544 4750 1819 4750 
Q 2544 4750 2975 4387 
Q 3406 4025 3406 3419 
Q 3406 3131 3298 2873 
Q 3191 2616 2906 2266 
Q 2828 2175 2409 1742 
Q 1991 1309 1228 531 
z
" transform="scale(0.015625)"/>
       </defs>
       <use xlink:href="#DejaVuSans-32"/>
       <use xlink:href="#DejaVuSans-30" x="63.623047"/>
       <use xlink:href="#DejaVuSans-30" x="127.246094"/>
      </g>
     </g>
    </g>
    <g id="xtick_6">
     <g id="line2d_6">
      <g>
       <use xlink:href="#mfd8bafc106" x="539.504713" y="256.32" style="stroke: #000000; stroke-width: 0.8"/>
      </g>
     </g>
     <g id="text_6">
      <!-- 250 -->
      <g transform="translate(529.960963 270.918437) scale(0.1 -0.1)">
       <use xlink:href="#DejaVuSans-32"/>
       <use xlink:href="#DejaVuSans-35" x="63.623047"/>
       <use xlink:href="#DejaVuSans-30" x="127.246094"/>
      </g>
     </g>
    </g>
    <g id="xtick_7">
     <g id="line2d_7">
      <g>
       <use xlink:href="#mfd8bafc106" x="624.332928" y="256.32" style="stroke: #000000; stroke-width: 0.8"/>
      </g>
     </g>
     <g id="text_7">
      <!-- 300 -->
      <g transform="translate(614.789178 270.918437) scale(0.1 -0.1)">
       <defs>
        <path id="DejaVuSans-33" d="M 2597 2516 
Q 3050 2419 3304 2112 
Q 3559 1806 3559 1356 
Q 3559 666 3084 287 
Q 2609 -91 1734 -91 
Q 1441 -91 1130 -33 
Q 819 25 488 141 
L 488 750 
Q 750 597 1062 519 
Q 1375 441 1716 441 
Q 2309 441 2620 675 
Q 2931 909 2931 1356 
Q 2931 1769 2642 2001 
Q 2353 2234 1838 2234 
L 1294 2234 
L 1294 2753 
L 1863 2753 
Q 2328 2753 2575 2939 
Q 2822 3125 2822 3475 
Q 2822 3834 2567 4026 
Q 2313 4219 1838 4219 
Q 1578 4219 1281 4162 
Q 984 4106 628 3988 
L 628 4550 
Q 988 4650 1302 4700 
Q 1616 4750 1894 4750 
Q 2613 4750 3031 4423 
Q 3450 4097 3450 3541 
Q 3450 3153 3228 2886 
Q 3006 2619 2597 2516 
z
" transform="scale(0.015625)"/>
       </defs>
       <use xlink:href="#DejaVuSans-33"/>
       <use xlink:href="#DejaVuSans-30" x="63.623047"/>
       <use xlink:href="#DejaVuSans-30" x="127.246094"/>
      </g>
     </g>
    </g>
    <g id="text_8">
     <!-- Timestep -->
     <g transform="translate(345.950781 284.596563) scale(0.1 -0.1)">
      <defs>
       <path id="DejaVuSans-54" d="M -19 4666 
L 3928 4666 
L 3928 4134 
L 2272 4134 
L 2272 0 
L 1638 0 
L 1638 4134 
L -19 4134 
L -19 4666 
z
" transform="scale(0.015625)"/>
       <path id="DejaVuSans-69" d="M 603 3500 
L 1178 3500 
L 1178 0 
L 603 0 
L 603 3500 
z
M 603 4863 
L 1178 4863 
L 1178 4134 
L 603 4134 
L 603 4863 
z
" transform="scale(0.015625)"/>
       <path id="DejaVuSans-6d" d="M 3328 2828 
Q 3544 3216 3844 3400 
Q 4144 3584 4550 3584 
Q 5097 3584 5394 3201 
Q 5691 2819 5691 2113 
L 5691 0 
L 5113 0 
L 5113 2094 
Q 5113 2597 4934 2840 
Q 4756 3084 4391 3084 
Q 3944 3084 3684 2787 
Q 3425 2491 3425 1978 
L 3425 0 
L 2847 0 
L 2847 2094 
Q 2847 2600 2669 2842 
Q 2491 3084 2119 3084 
Q 1678 3084 1418 2786 
Q 1159 2488 1159 1978 
L 1159 0 
L 581 0 
L 581 3500 
L 1159 3500 
L 1159 2956 
Q 1356 3278 1631 3431 
Q 1906 3584 2284 3584 
Q 2666 3584 2933 3390 
Q 3200 3197 3328 2828 
z
" transform="scale(0.015625)"/>
       <path id="DejaVuSans-65" d="M 3597 1894 
L 3597 1613 
L 953 1613 
Q 991 1019 1311 708 
Q 1631 397 2203 397 
Q 2534 397 2845 478 
Q 3156 559 3463 722 
L 3463 178 
Q 3153 47 2828 -22 
Q 2503 -91 2169 -91 
Q 1331 -91 842 396 
Q 353 884 353 1716 
Q 353 2575 817 3079 
Q 1281 3584 2069 3584 
Q 2775 3584 3186 3129 
Q 3597 2675 3597 1894 
z
M 3022 2063 
Q 3016 2534 2758 2815 
Q 2500 3097 2075 3097 
Q 1594 3097 1305 2825 
Q 1016 2553 972 2059 
L 3022 2063 
z
" transform="scale(0.015625)"/>
       <path id="DejaVuSans-73" d="M 2834 3397 
L 2834 2853 
Q 2591 2978 2328 3040 
Q 2066 3103 1784 3103 
Q 1356 3103 1142 2972 
Q 928 2841 928 2578 
Q 928 2378 1081 2264 
Q 1234 2150 1697 2047 
L 1894 2003 
Q 2506 1872 2764 1633 
Q 3022 1394 3022 966 
Q 3022 478 2636 193 
Q 2250 -91 1575 -91 
Q 1294 -91 989 -36 
Q 684 19 347 128 
L 347 722 
Q 666 556 975 473 
Q 1284 391 1588 391 
Q 1994 391 2212 530 
Q 2431 669 2431 922 
Q 2431 1156 2273 1281 
Q 2116 1406 1581 1522 
L 1381 1569 
Q 847 1681 609 1914 
Q 372 2147 372 2553 
Q 372 3047 722 3315 
Q 1072 3584 1716 3584 
Q 2034 3584 2315 3537 
Q 2597 3491 2834 3397 
z
" transform="scale(0.015625)"/>
       <path id="DejaVuSans-74" d="M 1172 4494 
L 1172 3500 
L 2356 3500 
L 2356 3053 
L 1172 3053 
L 1172 1153 
Q 1172 725 1289 603 
Q 1406 481 1766 481 
L 2356 481 
L 2356 0 
L 1766 0 
Q 1100 0 847 248 
Q 594 497 594 1153 
L 594 3053 
L 172 3053 
L 172 3500 
L 594 3500 
L 594 4494 
L 1172 4494 
z
" transform="scale(0.015625)"/>
       <path id="DejaVuSans-70" d="M 1159 525 
L 1159 -1331 
L 581 -1331 
L 581 3500 
L 1159 3500 
L 1159 2969 
Q 1341 3281 1617 3432 
Q 1894 3584 2278 3584 
Q 2916 3584 3314 3078 
Q 3713 2572 3713 1747 
Q 3713 922 3314 415 
Q 2916 -91 2278 -91 
Q 1894 -91 1617 61 
Q 1341 213 1159 525 
z
M 3116 1747 
Q 3116 2381 2855 2742 
Q 2594 3103 2138 3103 
Q 1681 3103 1420 2742 
Q 1159 2381 1159 1747 
Q 1159 1113 1420 752 
Q 1681 391 2138 391 
Q 2594 391 2855 752 
Q 3116 1113 3116 1747 
z
" transform="scale(0.015625)"/>
      </defs>
      <use xlink:href="#DejaVuSans-54"/>
      <use xlink:href="#DejaVuSans-69" x="57.958984"/>
      <use xlink:href="#DejaVuSans-6d" x="85.742188"/>
      <use xlink:href="#DejaVuSans-65" x="183.154297"/>
      <use xlink:href="#DejaVuSans-73" x="244.677734"/>
      <use xlink:href="#DejaVuSans-74" x="296.777344"/>
      <use xlink:href="#DejaVuSans-65" x="335.986328"/>
      <use xlink:href="#DejaVuSans-70" x="397.509766"/>
     </g>
    </g>
   </g>
   <g id="matplotlib.axis_2">
    <g id="ytick_1">
     <g id="line2d_8">
      <defs>
       <path id="m2943b2adc5" d="M 0 0 
L -3.5 0 
" style="stroke: #000000; stroke-width: 0.8"/>
      </defs>
      <g>
       <use xlink:href="#m2943b2adc5" x="90" y="246.29754" style="stroke: #000000; stroke-width: 0.8"/>
      </g>
     </g>
     <g id="text_9">
      <!-- 0 -->
      <g transform="translate(76.6375 250.096759) scale(0.1 -0.1)">
       <use xlink:href="#DejaVuSans-30"/>
      </g>
     </g>
    </g>
    <g id="ytick_2">
     <g id="line2d_9">
      <g>
       <use xlink:href="#m2943b2adc5" x="90" y="211.424792" style="stroke: #000000; stroke-width: 0.8"/>
      </g>
     </g>
     <g id="text_10">
      <!-- 100 -->
      <g transform="translate(63.9125 215.224011) scale(0.1 -0.1)">
       <use xlink:href="#DejaVuSans-31"/>
       <use xlink:href="#DejaVuSans-30" x="63.623047"/>
       <use xlink:href="#DejaVuSans-30" x="127.246094"/>
      </g>
     </g>
    </g>
    <g id="ytick_3">
     <g id="line2d_10">
      <g>
       <use xlink:href="#m2943b2adc5" x="90" y="176.552044" style="stroke: #000000; stroke-width: 0.8"/>
      </g>
     </g>
     <g id="text_11">
      <!-- 200 -->
      <g transform="translate(63.9125 180.351263) scale(0.1 -0.1)">
       <use xlink:href="#DejaVuSans-32"/>
       <use xlink:href="#DejaVuSans-30" x="63.623047"/>
       <use xlink:href="#DejaVuSans-30" x="127.246094"/>
      </g>
     </g>
    </g>
    <g id="ytick_4">
     <g id="line2d_11">
      <g>
       <use xlink:href="#m2943b2adc5" x="90" y="141.679296" style="stroke: #000000; stroke-width: 0.8"/>
      </g>
     </g>
     <g id="text_12">
      <!-- 300 -->
      <g transform="translate(63.9125 145.478515) scale(0.1 -0.1)">
       <use xlink:href="#DejaVuSans-33"/>
       <use xlink:href="#DejaVuSans-30" x="63.623047"/>
       <use xlink:href="#DejaVuSans-30" x="127.246094"/>
      </g>
     </g>
    </g>
    <g id="ytick_5">
     <g id="line2d_12">
      <g>
       <use xlink:href="#m2943b2adc5" x="90" y="106.806548" style="stroke: #000000; stroke-width: 0.8"/>
      </g>
     </g>
     <g id="text_13">
      <!-- 400 -->
      <g transform="translate(63.9125 110.605767) scale(0.1 -0.1)">
       <defs>
        <path id="DejaVuSans-34" d="M 2419 4116 
L 825 1625 
L 2419 1625 
L 2419 4116 
z
M 2253 4666 
L 3047 4666 
L 3047 1625 
L 3713 1625 
L 3713 1100 
L 3047 1100 
L 3047 0 
L 2419 0 
L 2419 1100 
L 313 1100 
L 313 1709 
L 2253 4666 
z
" transform="scale(0.015625)"/>
       </defs>
       <use xlink:href="#DejaVuSans-34"/>
       <use xlink:href="#DejaVuSans-30" x="63.623047"/>
       <use xlink:href="#DejaVuSans-30" x="127.246094"/>
      </g>
     </g>
    </g>
    <g id="ytick_6">
     <g id="line2d_13">
      <g>
       <use xlink:href="#m2943b2adc5" x="90" y="71.9338" style="stroke: #000000; stroke-width: 0.8"/>
      </g>
     </g>
     <g id="text_14">
      <!-- 500 -->
      <g transform="translate(63.9125 75.733019) scale(0.1 -0.1)">
       <use xlink:href="#DejaVuSans-35"/>
       <use xlink:href="#DejaVuSans-30" x="63.623047"/>
       <use xlink:href="#DejaVuSans-30" x="127.246094"/>
      </g>
     </g>
    </g>
    <g id="ytick_7">
     <g id="line2d_14">
      <g>
       <use xlink:href="#m2943b2adc5" x="90" y="37.061052" style="stroke: #000000; stroke-width: 0.8"/>
      </g>
     </g>
     <g id="text_15">
      <!-- 600 -->
      <g transform="translate(63.9125 40.860271) scale(0.1 -0.1)">
       <defs>
        <path id="DejaVuSans-36" d="M 2113 2584 
Q 1688 2584 1439 2293 
Q 1191 2003 1191 1497 
Q 1191 994 1439 701 
Q 1688 409 2113 409 
Q 2538 409 2786 701 
Q 3034 994 3034 1497 
Q 3034 2003 2786 2293 
Q 2538 2584 2113 2584 
z
M 3366 4563 
L 3366 3988 
Q 3128 4100 2886 4159 
Q 2644 4219 2406 4219 
Q 1781 4219 1451 3797 
Q 1122 3375 1075 2522 
Q 1259 2794 1537 2939 
Q 1816 3084 2150 3084 
Q 2853 3084 3261 2657 
Q 3669 2231 3669 1497 
Q 3669 778 3244 343 
Q 2819 -91 2113 -91 
Q 1303 -91 875 529 
Q 447 1150 447 2328 
Q 447 3434 972 4092 
Q 1497 4750 2381 4750 
Q 2619 4750 2861 4703 
Q 3103 4656 3366 4563 
z
" transform="scale(0.015625)"/>
       </defs>
       <use xlink:href="#DejaVuSans-36"/>
       <use xlink:href="#DejaVuSans-30" x="63.623047"/>
       <use xlink:href="#DejaVuSans-30" x="127.246094"/>
      </g>
     </g>
    </g>
    <g id="text_16">
     <!-- Q_LE [W/m²] -->
     <g transform="translate(57.554687 176.815) rotate(-90) scale(0.1 -0.1)">
      <defs>
       <path id="DejaVuSans-51" d="M 2522 4238 
Q 1834 4238 1429 3725 
Q 1025 3213 1025 2328 
Q 1025 1447 1429 934 
Q 1834 422 2522 422 
Q 3209 422 3611 934 
Q 4013 1447 4013 2328 
Q 4013 3213 3611 3725 
Q 3209 4238 2522 4238 
z
M 3406 84 
L 4238 -825 
L 3475 -825 
L 2784 -78 
Q 2681 -84 2626 -87 
Q 2572 -91 2522 -91 
Q 1538 -91 948 567 
Q 359 1225 359 2328 
Q 359 3434 948 4092 
Q 1538 4750 2522 4750 
Q 3503 4750 4090 4092 
Q 4678 3434 4678 2328 
Q 4678 1516 4351 937 
Q 4025 359 3406 84 
z
" transform="scale(0.015625)"/>
       <path id="DejaVuSans-5f" d="M 3263 -1063 
L 3263 -1509 
L -63 -1509 
L -63 -1063 
L 3263 -1063 
z
" transform="scale(0.015625)"/>
       <path id="DejaVuSans-4c" d="M 628 4666 
L 1259 4666 
L 1259 531 
L 3531 531 
L 3531 0 
L 628 0 
L 628 4666 
z
" transform="scale(0.015625)"/>
       <path id="DejaVuSans-45" d="M 628 4666 
L 3578 4666 
L 3578 4134 
L 1259 4134 
L 1259 2753 
L 3481 2753 
L 3481 2222 
L 1259 2222 
L 1259 531 
L 3634 531 
L 3634 0 
L 628 0 
L 628 4666 
z
" transform="scale(0.015625)"/>
       <path id="DejaVuSans-20" transform="scale(0.015625)"/>
       <path id="DejaVuSans-5b" d="M 550 4863 
L 1875 4863 
L 1875 4416 
L 1125 4416 
L 1125 -397 
L 1875 -397 
L 1875 -844 
L 550 -844 
L 550 4863 
z
" transform="scale(0.015625)"/>
       <path id="DejaVuSans-57" d="M 213 4666 
L 850 4666 
L 1831 722 
L 2809 4666 
L 3519 4666 
L 4500 722 
L 5478 4666 
L 6119 4666 
L 4947 0 
L 4153 0 
L 3169 4050 
L 2175 0 
L 1381 0 
L 213 4666 
z
" transform="scale(0.015625)"/>
       <path id="DejaVuSans-2f" d="M 1625 4666 
L 2156 4666 
L 531 -594 
L 0 -594 
L 1625 4666 
z
" transform="scale(0.015625)"/>
       <path id="DejaVuSans-b2" d="M 838 2444 
L 2163 2444 
L 2163 2088 
L 294 2088 
L 294 2431 
Q 400 2528 597 2703 
Q 1672 3656 1672 3950 
Q 1672 4156 1509 4282 
Q 1347 4409 1081 4409 
Q 919 4409 728 4354 
Q 538 4300 313 4191 
L 313 4575 
Q 553 4663 761 4706 
Q 969 4750 1147 4750 
Q 1600 4750 1872 4544 
Q 2144 4338 2144 4000 
Q 2144 3566 1109 2678 
Q 934 2528 838 2444 
z
" transform="scale(0.015625)"/>
       <path id="DejaVuSans-5d" d="M 1947 4863 
L 1947 -844 
L 622 -844 
L 622 -397 
L 1369 -397 
L 1369 4416 
L 622 4416 
L 622 4863 
L 1947 4863 
z
" transform="scale(0.015625)"/>
      </defs>
      <use xlink:href="#DejaVuSans-51"/>
      <use xlink:href="#DejaVuSans-5f" x="78.710938"/>
      <use xlink:href="#DejaVuSans-4c" x="128.710938"/>
      <use xlink:href="#DejaVuSans-45" x="184.423828"/>
      <use xlink:href="#DejaVuSans-20" x="247.607422"/>
      <use xlink:href="#DejaVuSans-5b" x="279.394531"/>
      <use xlink:href="#DejaVuSans-57" x="318.408203"/>
      <use xlink:href="#DejaVuSans-2f" x="417.285156"/>
      <use xlink:href="#DejaVuSans-6d" x="450.976562"/>
      <use xlink:href="#DejaVuSans-b2" x="548.388672"/>
      <use xlink:href="#DejaVuSans-5d" x="588.476562"/>
     </g>
    </g>
   </g>
   <g id="line2d_15">
    <path d="M 115.363636 150.223119 
L 117.060201 158.365908 
L 118.756765 147.171754 
L 120.453329 185.444595 
L 122.149894 220.524836 
L 123.846458 220.833461 
L 125.543022 225.741799 
L 127.239587 232.315311 
L 128.936151 242.03609 
L 130.632715 241.169502 
L 132.329279 243.657673 
L 134.025844 245.115354 
L 135.722408 240.967241 
L 137.418972 245.596598 
L 139.115537 239.235617 
L 140.812101 230.60524 
L 142.508665 230.001505 
L 144.20523 230.587367 
L 145.901794 238.11465 
L 147.598358 229.012863 
L 149.294922 198.277767 
L 150.991487 160.963927 
L 152.688051 138.593056 
L 154.384615 135.210405 
L 156.08118 140.563364 
L 157.777744 122.656216 
L 159.474308 146.212753 
L 161.170873 152.123688 
L 162.867437 179.446483 
L 164.564001 210.594822 
L 166.260566 231.342363 
L 167.95713 238.365733 
L 169.653694 239.704847 
L 171.350258 231.012814 
L 173.046823 236.107723 
L 174.743387 239.957674 
L 178.136516 241.554846 
L 179.83308 245.891273 
L 181.529644 245.483261 
L 183.226209 245.300179 
L 184.922773 245.352489 
L 186.619337 246.24 
L 188.315901 226.274829 
L 190.012466 201.259212 
L 191.70903 165.999898 
L 193.405594 154.825102 
L 195.102159 156.128467 
L 196.798723 209.437464 
L 198.495287 231.312075 
L 200.191852 233.201288 
L 201.888416 233.165283 
L 203.58498 227.875959 
L 205.281545 232.695773 
L 206.978109 233.0445 
L 208.674673 233.541141 
L 210.371237 233.638907 
L 212.067802 232.971042 
L 213.764366 236.746487 
L 215.46093 209.682897 
L 217.157495 219.408906 
L 218.854059 225.594532 
L 220.550623 219.002641 
L 222.247188 219.734969 
L 223.943752 223.271065 
L 225.640316 220.176109 
L 227.336881 210.713388 
L 229.033445 197.667494 
L 230.730009 163.370144 
L 232.426573 90.834834 
L 234.123138 122.499285 
L 235.819702 135.140656 
L 237.516266 139.185897 
L 239.212831 161.521887 
L 240.909395 170.606239 
L 242.605959 197.358867 
L 244.302524 219.443763 
L 245.999088 224.559613 
L 247.695652 218.022715 
L 249.392216 224.552638 
L 251.088781 234.527988 
L 252.785345 237.4294 
L 254.481909 231.406876 
L 256.178474 240.349993 
L 257.875038 232.909892 
L 259.571602 230.315359 
L 261.268167 233.631758 
L 262.964731 228.568235 
L 264.661295 238.65169 
L 266.35786 238.048391 
L 268.054424 226.857727 
L 269.750988 182.480411 
L 271.447552 171.408314 
L 273.144117 155.087872 
L 274.840681 172.088331 
L 276.537245 111.130767 
L 278.23381 141.955837 
L 279.930374 159.324909 
L 281.626938 178.783898 
L 283.323503 196.900295 
L 285.020067 218.090717 
L 286.716631 232.126999 
L 288.413196 240.892264 
L 290.10976 243.805882 
L 291.806324 236.193161 
L 293.502888 232.676244 
L 295.199453 241.868701 
L 296.896017 237.231271 
L 298.592581 235.645241 
L 300.289146 240.787646 
L 301.98571 237.167854 
L 303.682274 237.593302 
L 305.378839 239.220116 
L 307.075403 245.029916 
L 308.771967 230.41126 
L 310.468531 188.461085 
L 312.165096 177.121514 
L 313.86166 191.076541 
L 315.558224 121.505409 
L 317.254789 161.678819 
L 318.951353 220.182909 
L 320.647917 162.484028 
L 322.344482 154.356936 
L 324.041046 201.465136 
L 325.73761 244.091839 
L 327.434175 230.888615 
L 329.130739 234.405584 
L 330.827303 233.589666 
L 332.523867 232.960701 
L 334.220432 232.642226 
L 335.916996 232.624633 
L 339.310125 232.079537 
L 344.399818 232.33179 
L 346.096382 232.770837 
L 347.792946 232.824943 
L 351.186075 228.062145 
L 352.882639 222.742184 
L 354.579203 198.326589 
L 356.275768 105.045478 
L 357.972332 119.273555 
L 359.668896 136.675054 
L 361.365461 138.052532 
L 363.062025 199.149932 
L 364.758589 211.927623 
L 366.455154 227.277682 
L 368.151718 224.56861 
L 369.848282 234.312422 
L 371.544846 233.283257 
L 373.241411 225.962229 
L 374.937975 221.5623 
L 376.634539 214.035017 
L 378.331104 218.728889 
L 380.027668 229.290101 
L 381.724232 241.117193 
L 383.420797 235.399806 
L 385.117361 242.147683 
L 386.813925 235.0999 
L 388.51049 233.352776 
L 390.207054 229.644059 
L 393.600182 139.116147 
L 395.296747 128.63689 
L 396.993311 129.229721 
L 398.689875 142.934717 
L 400.38644 117.965827 
L 403.779568 145.375809 
L 405.476133 191.390399 
L 407.172697 211.583464 
L 408.869261 224.566588 
L 410.565825 216.242463 
L 412.26239 231.675397 
L 413.958954 235.603812 
L 415.655518 241.223555 
L 417.352083 232.029791 
L 419.048647 236.89236 
L 420.745211 242.571387 
L 422.441776 239.403198 
L 424.13834 242.330765 
L 427.531469 240.619943 
L 429.228033 231.989235 
L 430.924597 229.72472 
L 432.621161 212.208556 
L 434.317726 153.222178 
L 436.01429 168.932346 
L 437.710854 147.241504 
L 439.407419 135.053474 
L 441.103983 161.556762 
L 442.800547 171.187917 
L 444.497112 184.171215 
L 446.193676 162.94435 
L 449.586804 223.168191 
L 451.283369 223.159472 
L 452.979933 226.137604 
L 454.676497 232.09387 
L 456.373062 231.648719 
L 458.069626 236.320447 
L 461.462755 230.35895 
L 463.159319 231.148434 
L 464.855883 231.108715 
L 466.552448 234.038409 
L 468.249012 231.422656 
L 469.945576 230.690189 
L 471.64214 232.58732 
L 473.338705 230.889016 
L 475.035269 170.519058 
L 476.731833 181.488457 
L 478.428398 165.034794 
L 480.124962 144.365023 
L 481.821526 141.604491 
L 483.518091 147.433299 
L 485.214655 168.927643 
L 486.911219 194.988743 
L 488.607784 214.762462 
L 490.304348 230.511537 
L 492.000912 236.862439 
L 493.697476 230.543166 
L 495.394041 213.234164 
L 497.090605 214.704765 
L 498.787169 210.711645 
L 500.483734 226.482845 
L 502.180298 217.806506 
L 503.876862 228.261425 
L 505.573427 226.468895 
L 507.269991 226.41833 
L 508.966555 226.700799 
L 510.663119 225.468048 
L 512.359684 215.621729 
L 514.056248 209.05524 
L 515.752812 176.098697 
L 517.449377 115.716531 
L 519.145941 167.136402 
L 520.842505 120.232556 
L 522.53907 116.117576 
L 524.235634 148.584096 
L 525.932198 162.56807 
L 527.628763 181.643467 
L 529.325327 207.95844 
L 531.021891 221.244959 
L 532.718455 232.147922 
L 534.41502 232.911636 
L 536.111584 235.875819 
L 537.808148 234.997026 
L 539.504713 229.563852 
L 541.201277 241.528692 
L 542.897841 232.008624 
L 544.594406 216.871916 
L 546.29097 209.288836 
L 547.987534 220.763714 
L 549.684099 228.430487 
L 551.380663 240.899239 
L 553.077227 237.479966 
L 554.773791 197.475693 
L 556.470356 100.424839 
L 558.16692 134.628026 
L 559.863484 159.882869 
L 561.560049 127.712765 
L 563.256613 88.393741 
L 564.953177 110.468186 
L 566.649742 162.23678 
L 568.346306 167.676931 
L 570.04287 185.671265 
L 571.739434 229.0024 
L 573.435999 238.592407 
L 575.132563 239.261963 
L 576.829127 226.800187 
L 578.525692 243.60362 
L 580.222256 242.079681 
L 581.91882 230.573418 
L 583.615385 230.601317 
L 585.311949 237.100533 
L 587.008513 232.779974 
L 588.705078 234.109514 
L 590.401642 232.600257 
L 592.098206 227.88921 
L 593.79477 231.231955 
L 595.491335 135.18861 
L 597.187899 119.761772 
L 598.884463 133.832928 
L 600.581028 117.372986 
L 602.277592 146.648663 
L 603.974156 156.203793 
L 605.670721 139.761295 
L 607.367285 189.26316 
L 609.063849 209.761363 
L 610.760413 233.389393 
L 612.456978 233.110411 
L 614.153542 236.717996 
L 615.850106 238.634254 
L 617.546671 227.763355 
L 619.243235 221.421797 
L 620.939799 219.171772 
L 622.636364 235.048289 
L 622.636364 235.048289 
" clip-path="url(#p9a66512e77)" style="fill: none; stroke: #1f77b4; stroke-opacity: 0.6; stroke-width: 1.5; stroke-linecap: square"/>
   </g>
   <g id="line2d_16">
    <path d="M 115.363636 143.818732 
L 117.060201 148.347017 
L 118.756765 143.597276 
L 120.453329 162.311622 
L 122.149894 163.387374 
L 123.846458 233.473097 
L 125.543022 230.994957 
L 128.936151 237.07745 
L 130.632715 238.420266 
L 132.329279 238.780475 
L 134.025844 240.618166 
L 135.722408 239.812246 
L 137.418972 242.33559 
L 139.115537 243.813412 
L 140.812101 228.036811 
L 142.508665 224.451193 
L 144.20523 227.860054 
L 145.901794 217.488365 
L 147.598358 214.967418 
L 150.991487 161.355239 
L 152.688051 139.741085 
L 154.384615 134.377963 
L 156.08118 124.504255 
L 157.777744 112.811625 
L 159.474308 119.358928 
L 161.170873 133.754866 
L 162.867437 166.80343 
L 164.564001 224.445215 
L 166.260566 234.670686 
L 167.95713 238.95212 
L 169.653694 240.003378 
L 171.350258 238.15431 
L 173.046823 238.033417 
L 174.743387 238.597691 
L 176.439951 241.663575 
L 179.83308 243.735468 
L 181.529644 244.521742 
L 183.226209 245.139219 
L 184.922773 245.294294 
L 186.619337 245.046826 
L 188.315901 244.207347 
L 190.012466 199.925363 
L 191.70903 188.392214 
L 193.405594 113.032453 
L 195.102159 149.098631 
L 196.798723 198.636232 
L 198.495287 205.163722 
L 200.191852 225.902236 
L 201.888416 232.340194 
L 203.58498 243.758663 
L 205.281545 245.35658 
L 206.978109 237.921486 
L 208.674673 240.649235 
L 210.371237 240.037406 
L 212.067802 243.684072 
L 213.764366 244.490279 
L 215.46093 237.503344 
L 217.157495 232.543834 
L 218.854059 228.247694 
L 220.550623 225.772324 
L 222.247188 227.176323 
L 223.943752 216.862753 
L 225.640316 207.944956 
L 227.336881 201.941792 
L 229.033445 182.319696 
L 230.730009 179.96146 
L 232.426573 156.919766 
L 234.123138 144.297093 
L 235.819702 129.992104 
L 237.516266 127.244811 
L 239.212831 140.800081 
L 240.909395 152.79507 
L 242.605959 186.818156 
L 244.302524 242.054198 
L 245.999088 205.073598 
L 247.695652 231.767656 
L 249.392216 239.193887 
L 251.088781 238.240717 
L 252.785345 239.715259 
L 256.178474 239.627475 
L 257.875038 238.568427 
L 259.571602 237.26137 
L 261.268167 238.616791 
L 262.964731 241.093042 
L 264.661295 241.59621 
L 266.35786 241.446388 
L 268.054424 228.329006 
L 269.750988 185.663677 
L 271.447552 162.631785 
L 273.144117 145.578354 
L 274.840681 140.013284 
L 278.23381 135.861353 
L 279.930374 129.416398 
L 281.626938 145.554941 
L 283.323503 171.426187 
L 285.020067 214.517082 
L 286.716631 239.408698 
L 288.413196 243.290366 
L 290.10976 244.379394 
L 291.806324 243.970135 
L 293.502888 242.07886 
L 295.199453 240.949913 
L 296.896017 242.525607 
L 298.592581 225.182093 
L 300.289146 230.140081 
L 301.98571 234.077179 
L 303.682274 239.684781 
L 305.378839 243.485723 
L 307.075403 243.260334 
L 308.771967 236.371473 
L 310.468531 199.418187 
L 313.86166 115.420759 
L 315.558224 139.375032 
L 317.254789 151.069556 
L 318.951353 197.934818 
L 320.647917 232.08382 
L 322.344482 160.470245 
L 324.041046 166.829201 
L 325.73761 241.632639 
L 327.434175 244.965528 
L 329.130739 227.419204 
L 330.827303 241.023862 
L 332.523867 245.8647 
L 334.220432 240.325468 
L 335.916996 238.975249 
L 337.61356 243.551137 
L 339.310125 240.314251 
L 341.006689 243.694245 
L 342.703253 242.881422 
L 344.399818 244.64356 
L 346.096382 239.629691 
L 347.792946 228.793035 
L 349.48951 237.414884 
L 351.186075 230.71874 
L 352.882639 208.156661 
L 354.579203 175.225287 
L 356.275768 75.104019 
L 357.972332 165.511767 
L 359.668896 179.858506 
L 361.365461 169.071745 
L 363.062025 236.828831 
L 364.758589 183.663273 
L 366.455154 222.655604 
L 368.151718 237.483834 
L 369.848282 233.78775 
L 371.544846 232.017286 
L 373.241411 236.540971 
L 374.937975 229.420895 
L 376.634539 226.871872 
L 378.331104 227.955366 
L 380.027668 234.308512 
L 381.724232 237.404707 
L 383.420797 231.887728 
L 385.117361 242.678823 
L 386.813925 241.3059 
L 388.51049 230.525034 
L 390.207054 218.707865 
L 391.903618 164.476679 
L 393.600182 176.124521 
L 395.296747 162.361061 
L 396.993311 152.325126 
L 398.689875 151.253125 
L 400.38644 159.093225 
L 402.083004 162.804542 
L 403.779568 158.073995 
L 405.476133 183.844325 
L 407.172697 227.496619 
L 408.869261 236.983731 
L 410.565825 242.861212 
L 412.26239 242.37207 
L 415.655518 243.607323 
L 417.352083 244.206612 
L 419.048647 232.114583 
L 420.745211 236.617248 
L 422.441776 238.211114 
L 424.13834 241.374251 
L 425.834904 239.341301 
L 427.531469 242.345997 
L 429.228033 243.224411 
L 430.924597 235.917014 
L 432.621161 196.387835 
L 434.317726 119.354671 
L 436.01429 170.448414 
L 437.710854 146.075733 
L 439.407419 156.924097 
L 441.103983 159.958105 
L 442.800547 235.695317 
L 444.497112 164.550947 
L 446.193676 143.001902 
L 447.89024 197.373904 
L 449.586804 223.073514 
L 451.283369 223.649234 
L 452.979933 222.01595 
L 454.676497 225.194935 
L 456.373062 227.527743 
L 458.069626 226.880435 
L 459.76619 231.829302 
L 463.159319 234.417981 
L 464.855883 229.594591 
L 466.552448 234.510528 
L 468.249012 237.103916 
L 469.945576 231.626869 
L 471.64214 223.070926 
L 473.338705 199.70661 
L 475.035269 158.292646 
L 476.731833 230.681989 
L 478.428398 86.203286 
L 480.124962 133.756228 
L 481.821526 172.791762 
L 483.518091 181.925989 
L 485.214655 222.205857 
L 486.911219 192.336379 
L 488.607784 200.125231 
L 490.304348 206.730032 
L 492.000912 231.612654 
L 493.697476 231.12948 
L 495.394041 231.721333 
L 497.090605 222.131629 
L 498.787169 215.652628 
L 500.483734 221.403617 
L 502.180298 219.125818 
L 503.876862 215.505906 
L 505.573427 219.661361 
L 507.269991 227.839232 
L 508.966555 228.108604 
L 510.663119 224.411568 
L 512.359684 230.453189 
L 514.056248 225.096832 
L 515.752812 133.136782 
L 517.449377 153.283829 
L 519.145941 163.838358 
L 520.842505 151.520546 
L 522.53907 146.275043 
L 524.235634 145.801534 
L 525.932198 163.33934 
L 529.325327 222.363621 
L 531.021891 234.306883 
L 532.718455 233.844756 
L 534.41502 234.048663 
L 536.111584 236.832568 
L 537.808148 236.166214 
L 539.504713 232.883973 
L 541.201277 236.057639 
L 542.897841 243.839843 
L 544.594406 208.582676 
L 546.29097 212.075937 
L 547.987534 211.552042 
L 549.684099 212.402504 
L 551.380663 215.458821 
L 553.077227 186.441668 
L 554.773791 137.514733 
L 556.470356 150.271489 
L 558.16692 150.850686 
L 559.863484 85.976019 
L 561.560049 125.357811 
L 563.256613 123.153957 
L 564.953177 119.327086 
L 566.649742 130.304041 
L 568.346306 179.107504 
L 570.04287 188.5909 
L 571.739434 231.54176 
L 573.435999 238.570595 
L 575.132563 240.469858 
L 576.829127 244.929508 
L 578.525692 245.539399 
L 580.222256 245.982201 
L 583.615385 244.804911 
L 585.311949 245.118674 
L 587.008513 227.697938 
L 588.705078 235.294759 
L 590.401642 229.173762 
L 592.098206 222.162125 
L 593.79477 213.062669 
L 595.491335 164.20157 
L 597.187899 74.73671 
L 598.884463 167.25392 
L 600.581028 182.83777 
L 602.277592 146.574922 
L 603.974156 152.742103 
L 605.670721 149.230755 
L 609.063849 225.185529 
L 610.760413 238.930992 
L 612.456978 242.411824 
L 614.153542 242.569809 
L 615.850106 242.307994 
L 617.546671 243.519484 
L 619.243235 215.054945 
L 620.939799 219.563688 
L 622.636364 221.185085 
L 622.636364 221.185085 
" clip-path="url(#p9a66512e77)" style="fill: none; stroke: #ff7f0e; stroke-opacity: 0.8; stroke-width: 1.8; stroke-linecap: square"/>
   </g>
   <g id="line2d_17">
    <path d="M 115.363636 186.940346 
L 117.060201 187.937606 
L 118.756765 206.028567 
L 120.453329 221.355168 
L 122.149894 221.622932 
L 123.846458 244.090044 
L 125.543022 244.027269 
L 130.632715 244.454318 
L 135.722408 244.556207 
L 139.115537 244.883832 
L 140.812101 228.486997 
L 142.508665 226.126875 
L 144.20523 230.285129 
L 145.901794 221.963451 
L 147.598358 217.547661 
L 149.294922 210.637218 
L 152.688051 183.991195 
L 154.384615 179.354395 
L 156.08118 172.347152 
L 157.777744 163.840306 
L 159.474308 166.859015 
L 161.170873 173.372566 
L 162.867437 184.37816 
L 164.564001 241.092648 
L 166.260566 244.1277 
L 167.95713 244.42262 
L 169.653694 244.529685 
L 171.350258 244.402986 
L 174.743387 244.461304 
L 176.439951 244.664737 
L 181.529644 245.001983 
L 184.922773 245.231402 
L 186.619337 244.323925 
L 188.315901 240.970497 
L 190.012466 185.119004 
L 191.70903 159.339127 
L 193.405594 83.432718 
L 195.102159 122.714068 
L 196.798723 189.974109 
L 198.495287 201.945216 
L 200.191852 221.714115 
L 201.888416 228.605941 
L 203.58498 243.563368 
L 205.281545 245.194083 
L 206.978109 237.718225 
L 208.674673 240.452527 
L 210.371237 239.850927 
L 212.067802 243.497472 
L 213.764366 244.266866 
L 215.46093 237.121864 
L 217.157495 232.195978 
L 218.854059 228.1708 
L 220.550623 225.918509 
L 222.247188 227.67562 
L 225.640316 210.592555 
L 227.336881 199.444607 
L 229.033445 196.505933 
L 230.730009 206.527035 
L 232.426573 192.404687 
L 234.123138 186.679865 
L 235.819702 176.944799 
L 237.516266 173.877257 
L 239.212831 180.433074 
L 240.909395 185.93155 
L 242.605959 216.817462 
L 244.302524 243.507266 
L 245.999088 207.261296 
L 247.695652 235.727238 
L 249.392216 244.511285 
L 251.088781 244.434069 
L 252.785345 244.550892 
L 261.268167 244.455699 
L 262.964731 244.623547 
L 264.661295 244.660501 
L 266.35786 243.39848 
L 268.054424 233.587404 
L 269.750988 209.663268 
L 271.447552 199.068997 
L 273.144117 186.229657 
L 274.840681 181.201779 
L 276.537245 180.543036 
L 278.23381 179.209308 
L 279.930374 175.298783 
L 281.626938 182.792151 
L 283.323503 191.293198 
L 285.020067 232.830431 
L 286.716631 244.439305 
L 290.10976 244.944455 
L 291.806324 244.903207 
L 293.502888 244.694553 
L 295.199453 244.640107 
L 296.896017 244.742121 
L 298.592581 226.182093 
L 300.289146 231.331611 
L 301.98571 235.223304 
L 303.682274 241.147413 
L 305.378839 244.879042 
L 307.075403 243.774694 
L 308.771967 234.312523 
L 310.468531 208.179449 
L 312.165096 210.024713 
L 313.86166 150.159106 
L 315.558224 180.059725 
L 317.254789 193.931237 
L 318.951353 221.484994 
L 320.647917 203.427518 
L 322.344482 143.441834 
L 324.041046 147.165581 
L 325.73761 238.471807 
L 327.434175 245.100104 
L 329.130739 227.003446 
L 330.827303 240.752201 
L 332.523867 245.641961 
L 334.220432 240.120745 
L 335.916996 238.760621 
L 337.61356 243.347039 
L 339.310125 240.116329 
L 341.006689 243.521649 
L 342.703253 242.709931 
L 344.399818 244.476226 
L 346.096382 239.370748 
L 347.792946 228.230796 
L 349.48951 236.926451 
L 351.186075 228.431623 
L 352.882639 202.575566 
L 354.579203 157.709745 
L 356.275768 51.413921 
L 357.972332 176.108946 
L 359.668896 197.352008 
L 361.365461 189.01919 
L 363.062025 219.047097 
L 364.758589 171.661649 
L 366.455154 219.961565 
L 368.151718 237.167179 
L 369.848282 233.405897 
L 371.544846 231.65812 
L 373.241411 236.154518 
L 374.937975 229.1859 
L 376.634539 226.993181 
L 378.331104 228.325444 
L 380.027668 234.462849 
L 381.724232 237.252416 
L 383.420797 231.645824 
L 385.117361 242.414421 
L 386.813925 241.245779 
L 388.51049 230.146979 
L 390.207054 214.009843 
L 391.903618 158.579648 
L 393.600182 190.537577 
L 395.296747 189.896436 
L 396.993311 187.30526 
L 398.689875 191.352571 
L 400.38644 194.315898 
L 402.083004 200.518587 
L 403.779568 191.371456 
L 405.476133 199.401569 
L 407.172697 239.056972 
L 408.869261 244.291135 
L 410.565825 244.72058 
L 413.958954 244.773438 
L 417.352083 244.948341 
L 419.048647 232.306354 
L 420.745211 236.641223 
L 422.441776 238.395202 
L 424.13834 241.647476 
L 425.834904 239.22218 
L 427.531469 241.962814 
L 429.228033 242.511266 
L 430.924597 233.211441 
L 432.621161 185.563102 
L 434.317726 101.696469 
L 436.01429 188.155645 
L 437.710854 185.005408 
L 439.407419 191.898629 
L 441.103983 204.314931 
L 442.800547 211.73795 
L 444.497112 145.23052 
L 446.193676 119.087889 
L 447.89024 196.560693 
L 449.586804 224.651496 
L 451.283369 225.883177 
L 452.979933 226.000397 
L 454.676497 228.087637 
L 456.373062 228.988536 
L 458.069626 229.555416 
L 459.76619 232.767542 
L 461.462755 233.972993 
L 463.159319 234.668581 
L 464.855883 230.324328 
L 466.552448 234.584875 
L 468.249012 236.759299 
L 469.945576 230.716793 
L 471.64214 219.458343 
L 473.338705 189.226247 
L 475.035269 137.183513 
L 476.731833 219.303196 
L 478.428398 60.451015 
L 480.124962 105.091698 
L 481.821526 153.450956 
L 483.518091 194.459229 
L 485.214655 210.600382 
L 486.911219 179.841255 
L 488.607784 197.383083 
L 490.304348 206.643206 
L 492.000912 231.199999 
L 493.697476 230.820185 
L 495.394041 231.336173 
L 497.090605 222.086197 
L 498.787169 216.028784 
L 500.483734 222.125441 
L 502.180298 220.422688 
L 503.876862 217.180868 
L 505.573427 221.195451 
L 507.269991 229.030312 
L 508.966555 229.202089 
L 510.663119 224.947046 
L 512.359684 227.966549 
L 514.056248 234.09395 
L 515.752812 164.9421 
L 517.449377 190.798926 
L 519.145941 195.084002 
L 520.842505 189.947562 
L 522.53907 186.975508 
L 524.235634 186.16426 
L 527.628763 207.716567 
L 529.325327 237.417051 
L 531.021891 244.121661 
L 534.41502 244.17432 
L 536.111584 244.344239 
L 537.808148 244.302495 
L 539.504713 244.139549 
L 541.201277 244.308486 
L 542.897841 243.646527 
L 544.594406 209.12412 
L 546.29097 214.98092 
L 549.684099 220.265414 
L 551.380663 221.681377 
L 553.077227 205.281761 
L 554.773791 156.341143 
L 556.470356 184.574165 
L 558.16692 187.167533 
L 559.863484 132.799112 
L 561.560049 173.542572 
L 563.256613 172.035247 
L 564.953177 167.267654 
L 566.649742 170.211085 
L 568.346306 183.022414 
L 570.04287 226.409914 
L 571.739434 244.023303 
L 573.435999 244.412019 
L 575.132563 244.58376 
L 576.829127 245.065769 
L 580.222256 245.599026 
L 581.91882 245.260207 
L 583.615385 245.076773 
L 585.311949 245.160215 
L 587.008513 227.292359 
L 588.705078 235.022329 
L 592.098206 221.19079 
L 593.79477 209.978951 
L 595.491335 134.739887 
L 597.187899 44.64 
L 598.884463 148.542569 
L 600.581028 199.427175 
L 602.277592 183.65585 
L 603.974156 186.557904 
L 605.670721 183.349255 
L 607.367285 199.065123 
L 609.063849 235.98874 
L 610.760413 244.422475 
L 612.456978 244.667819 
L 617.546671 244.810171 
L 619.243235 214.669305 
L 620.939799 219.972127 
L 622.636364 222.273364 
L 622.636364 222.273364 
" clip-path="url(#p9a66512e77)" style="fill: none; stroke: #2ca02c; stroke-opacity: 0.6; stroke-width: 1.5; stroke-linecap: square"/>
   </g>
   <g id="patch_3">
    <path d="M 90 256.32 
L 90 34.56 
" style="fill: none; stroke: #000000; stroke-width: 0.8; stroke-linejoin: miter; stroke-linecap: square"/>
   </g>
   <g id="patch_4">
    <path d="M 648 256.32 
L 648 34.56 
" style="fill: none; stroke: #000000; stroke-width: 0.8; stroke-linejoin: miter; stroke-linecap: square"/>
   </g>
   <g id="patch_5">
    <path d="M 90 256.32 
L 648 256.32 
" style="fill: none; stroke: #000000; stroke-width: 0.8; stroke-linejoin: miter; stroke-linecap: square"/>
   </g>
   <g id="patch_6">
    <path d="M 90 34.56 
L 648 34.56 
" style="fill: none; stroke: #000000; stroke-width: 0.8; stroke-linejoin: miter; stroke-linecap: square"/>
   </g>
   <g id="legend_1">
    <g id="patch_7">
     <path d="M 97 86.594375 
L 208.684375 86.594375 
Q 210.684375 86.594375 210.684375 84.594375 
L 210.684375 41.56 
Q 210.684375 39.56 208.684375 39.56 
L 97 39.56 
Q 95 39.56 95 41.56 
L 95 84.594375 
Q 95 86.594375 97 86.594375 
z
" style="fill: #ffffff; opacity: 0.8; stroke: #cccccc; stroke-linejoin: miter"/>
    </g>
    <g id="line2d_18">
     <path d="M 99 47.658438 
L 109 47.658438 
L 119 47.658438 
" style="fill: none; stroke: #1f77b4; stroke-opacity: 0.6; stroke-width: 1.5; stroke-linecap: square"/>
    </g>
    <g id="text_17">
     <!-- Observed -->
     <g transform="translate(127 51.158438) scale(0.1 -0.1)">
      <defs>
       <path id="DejaVuSans-4f" d="M 2522 4238 
Q 1834 4238 1429 3725 
Q 1025 3213 1025 2328 
Q 1025 1447 1429 934 
Q 1834 422 2522 422 
Q 3209 422 3611 934 
Q 4013 1447 4013 2328 
Q 4013 3213 3611 3725 
Q 3209 4238 2522 4238 
z
M 2522 4750 
Q 3503 4750 4090 4092 
Q 4678 3434 4678 2328 
Q 4678 1225 4090 567 
Q 3503 -91 2522 -91 
Q 1538 -91 948 565 
Q 359 1222 359 2328 
Q 359 3434 948 4092 
Q 1538 4750 2522 4750 
z
" transform="scale(0.015625)"/>
       <path id="DejaVuSans-62" d="M 3116 1747 
Q 3116 2381 2855 2742 
Q 2594 3103 2138 3103 
Q 1681 3103 1420 2742 
Q 1159 2381 1159 1747 
Q 1159 1113 1420 752 
Q 1681 391 2138 391 
Q 2594 391 2855 752 
Q 3116 1113 3116 1747 
z
M 1159 2969 
Q 1341 3281 1617 3432 
Q 1894 3584 2278 3584 
Q 2916 3584 3314 3078 
Q 3713 2572 3713 1747 
Q 3713 922 3314 415 
Q 2916 -91 2278 -91 
Q 1894 -91 1617 61 
Q 1341 213 1159 525 
L 1159 0 
L 581 0 
L 581 4863 
L 1159 4863 
L 1159 2969 
z
" transform="scale(0.015625)"/>
       <path id="DejaVuSans-72" d="M 2631 2963 
Q 2534 3019 2420 3045 
Q 2306 3072 2169 3072 
Q 1681 3072 1420 2755 
Q 1159 2438 1159 1844 
L 1159 0 
L 581 0 
L 581 3500 
L 1159 3500 
L 1159 2956 
Q 1341 3275 1631 3429 
Q 1922 3584 2338 3584 
Q 2397 3584 2469 3576 
Q 2541 3569 2628 3553 
L 2631 2963 
z
" transform="scale(0.015625)"/>
       <path id="DejaVuSans-76" d="M 191 3500 
L 800 3500 
L 1894 563 
L 2988 3500 
L 3597 3500 
L 2284 0 
L 1503 0 
L 191 3500 
z
" transform="scale(0.015625)"/>
       <path id="DejaVuSans-64" d="M 2906 2969 
L 2906 4863 
L 3481 4863 
L 3481 0 
L 2906 0 
L 2906 525 
Q 2725 213 2448 61 
Q 2172 -91 1784 -91 
Q 1150 -91 751 415 
Q 353 922 353 1747 
Q 353 2572 751 3078 
Q 1150 3584 1784 3584 
Q 2172 3584 2448 3432 
Q 2725 3281 2906 2969 
z
M 947 1747 
Q 947 1113 1208 752 
Q 1469 391 1925 391 
Q 2381 391 2643 752 
Q 2906 1113 2906 1747 
Q 2906 2381 2643 2742 
Q 2381 3103 1925 3103 
Q 1469 3103 1208 2742 
Q 947 2381 947 1747 
z
" transform="scale(0.015625)"/>
      </defs>
      <use xlink:href="#DejaVuSans-4f"/>
      <use xlink:href="#DejaVuSans-62" x="78.710938"/>
      <use xlink:href="#DejaVuSans-73" x="142.1875"/>
      <use xlink:href="#DejaVuSans-65" x="194.287109"/>
      <use xlink:href="#DejaVuSans-72" x="255.810547"/>
      <use xlink:href="#DejaVuSans-76" x="296.923828"/>
      <use xlink:href="#DejaVuSans-65" x="356.103516"/>
      <use xlink:href="#DejaVuSans-64" x="417.626953"/>
     </g>
    </g>
    <g id="line2d_19">
     <path d="M 99 62.336563 
L 109 62.336563 
L 119 62.336563 
" style="fill: none; stroke: #ff7f0e; stroke-opacity: 0.8; stroke-width: 1.8; stroke-linecap: square"/>
    </g>
    <g id="text_18">
     <!-- Hybrid Model -->
     <g transform="translate(127 65.836563) scale(0.1 -0.1)">
      <defs>
       <path id="DejaVuSans-48" d="M 628 4666 
L 1259 4666 
L 1259 2753 
L 3553 2753 
L 3553 4666 
L 4184 4666 
L 4184 0 
L 3553 0 
L 3553 2222 
L 1259 2222 
L 1259 0 
L 628 0 
L 628 4666 
z
" transform="scale(0.015625)"/>
       <path id="DejaVuSans-79" d="M 2059 -325 
Q 1816 -950 1584 -1140 
Q 1353 -1331 966 -1331 
L 506 -1331 
L 506 -850 
L 844 -850 
Q 1081 -850 1212 -737 
Q 1344 -625 1503 -206 
L 1606 56 
L 191 3500 
L 800 3500 
L 1894 763 
L 2988 3500 
L 3597 3500 
L 2059 -325 
z
" transform="scale(0.015625)"/>
       <path id="DejaVuSans-4d" d="M 628 4666 
L 1569 4666 
L 2759 1491 
L 3956 4666 
L 4897 4666 
L 4897 0 
L 4281 0 
L 4281 4097 
L 3078 897 
L 2444 897 
L 1241 4097 
L 1241 0 
L 628 0 
L 628 4666 
z
" transform="scale(0.015625)"/>
       <path id="DejaVuSans-6f" d="M 1959 3097 
Q 1497 3097 1228 2736 
Q 959 2375 959 1747 
Q 959 1119 1226 758 
Q 1494 397 1959 397 
Q 2419 397 2687 759 
Q 2956 1122 2956 1747 
Q 2956 2369 2687 2733 
Q 2419 3097 1959 3097 
z
M 1959 3584 
Q 2709 3584 3137 3096 
Q 3566 2609 3566 1747 
Q 3566 888 3137 398 
Q 2709 -91 1959 -91 
Q 1206 -91 779 398 
Q 353 888 353 1747 
Q 353 2609 779 3096 
Q 1206 3584 1959 3584 
z
" transform="scale(0.015625)"/>
       <path id="DejaVuSans-6c" d="M 603 4863 
L 1178 4863 
L 1178 0 
L 603 0 
L 603 4863 
z
" transform="scale(0.015625)"/>
      </defs>
      <use xlink:href="#DejaVuSans-48"/>
      <use xlink:href="#DejaVuSans-79" x="75.195312"/>
      <use xlink:href="#DejaVuSans-62" x="134.375"/>
      <use xlink:href="#DejaVuSans-72" x="197.851562"/>
      <use xlink:href="#DejaVuSans-69" x="238.964844"/>
      <use xlink:href="#DejaVuSans-64" x="266.748047"/>
      <use xlink:href="#DejaVuSans-20" x="330.224609"/>
      <use xlink:href="#DejaVuSans-4d" x="362.011719"/>
      <use xlink:href="#DejaVuSans-6f" x="448.291016"/>
      <use xlink:href="#DejaVuSans-64" x="509.472656"/>
      <use xlink:href="#DejaVuSans-65" x="572.949219"/>
      <use xlink:href="#DejaVuSans-6c" x="634.472656"/>
     </g>
    </g>
    <g id="line2d_20">
     <path d="M 99 77.014688 
L 109 77.014688 
L 119 77.014688 
" style="fill: none; stroke: #2ca02c; stroke-opacity: 0.6; stroke-width: 1.5; stroke-linecap: square"/>
    </g>
    <g id="text_19">
     <!-- Empirical Model -->
     <g transform="translate(127 80.514688) scale(0.1 -0.1)">
      <defs>
       <path id="DejaVuSans-63" d="M 3122 3366 
L 3122 2828 
Q 2878 2963 2633 3030 
Q 2388 3097 2138 3097 
Q 1578 3097 1268 2742 
Q 959 2388 959 1747 
Q 959 1106 1268 751 
Q 1578 397 2138 397 
Q 2388 397 2633 464 
Q 2878 531 3122 666 
L 3122 134 
Q 2881 22 2623 -34 
Q 2366 -91 2075 -91 
Q 1284 -91 818 406 
Q 353 903 353 1747 
Q 353 2603 823 3093 
Q 1294 3584 2113 3584 
Q 2378 3584 2631 3529 
Q 2884 3475 3122 3366 
z
" transform="scale(0.015625)"/>
       <path id="DejaVuSans-61" d="M 2194 1759 
Q 1497 1759 1228 1600 
Q 959 1441 959 1056 
Q 959 750 1161 570 
Q 1363 391 1709 391 
Q 2188 391 2477 730 
Q 2766 1069 2766 1631 
L 2766 1759 
L 2194 1759 
z
M 3341 1997 
L 3341 0 
L 2766 0 
L 2766 531 
Q 2569 213 2275 61 
Q 1981 -91 1556 -91 
Q 1019 -91 701 211 
Q 384 513 384 1019 
Q 384 1609 779 1909 
Q 1175 2209 1959 2209 
L 2766 2209 
L 2766 2266 
Q 2766 2663 2505 2880 
Q 2244 3097 1772 3097 
Q 1472 3097 1187 3025 
Q 903 2953 641 2809 
L 641 3341 
Q 956 3463 1253 3523 
Q 1550 3584 1831 3584 
Q 2591 3584 2966 3190 
Q 3341 2797 3341 1997 
z
" transform="scale(0.015625)"/>
      </defs>
      <use xlink:href="#DejaVuSans-45"/>
      <use xlink:href="#DejaVuSans-6d" x="63.183594"/>
      <use xlink:href="#DejaVuSans-70" x="160.595703"/>
      <use xlink:href="#DejaVuSans-69" x="224.072266"/>
      <use xlink:href="#DejaVuSans-72" x="251.855469"/>
      <use xlink:href="#DejaVuSans-69" x="292.96875"/>
      <use xlink:href="#DejaVuSans-63" x="320.751953"/>
      <use xlink:href="#DejaVuSans-61" x="375.732422"/>
      <use xlink:href="#DejaVuSans-6c" x="437.011719"/>
      <use xlink:href="#DejaVuSans-20" x="464.794922"/>
      <use xlink:href="#DejaVuSans-4d" x="496.582031"/>
      <use xlink:href="#DejaVuSans-6f" x="582.861328"/>
      <use xlink:href="#DejaVuSans-64" x="644.042969"/>
      <use xlink:href="#DejaVuSans-65" x="707.519531"/>
      <use xlink:href="#DejaVuSans-6c" x="769.042969"/>
     </g>
    </g>
   </g>
  </g>
 </g>
 <defs>
  <clipPath id="p9a66512e77">
   <rect x="90" y="34.56" width="558" height="221.76"/>
  </clipPath>
 </defs>
</svg>
