<?xml version="1.0" encoding="utf-8" standalone="no"?>
<!DOCTYPE svg PUBLIC "-//W3C//DTD SVG 1.1//EN"
  "http://www.w3.org/Graphics/SVG/1.1/DTD/svg11.dtd">
<svg xmlns:xlink="http://www.w3.org/1999/xlink" width="720pt" height="288pt" viewBox="0 0 720 288" xmlns="http://www.w3.org/2000/svg" version="1.1">
 <metadata>
  <rdf:RDF xmlns:dc="http://purl.org/dc/elements/1.1/" xmlns:cc="http://creativecommons.org/ns#" xmlns:rdf="http://www.w3.org/1999/02/22-rdf-syntax-ns#">
   <cc:Work>
    <dc:type rdf:resource="http://purl.org/dc/dcmitype/StillImage"/>
    <dc:date>2025-01-06T16:20:00.429520</dc:date>
    <dc:format>image/svg+xml</dc:format>
    <dc:creator>
     <cc:Agent>
      <dc:title>Matplotlib v3.6.0, https://matplotlib.org/</dc:title>
     </cc:Agent>
    </dc:creator>
   </cc:Work>
  </rdf:RDF>
 </metadata>
 <defs>
  <style type="text/css">*{stroke-linejoin: round; stroke-linecap: butt}</style>
 </defs>
 <g id="figure_1">
  <g id="patch_1">
   <path d="M 0 288 
L 720 288 
L 720 0 
L 0 0 
z
" style="fill: #ffffff"/>
  </g>
  <g id="axes_1">
   <g id="patch_2">
    <path d="M 90 256.32 
L 648 256.32 
L 648 34.56 
L 90 34.56 
z
" style="fill: #ffffff"/>
   </g>
   <g id="matplotlib.axis_1">
    <g id="xtick_1">
     <g id="line2d_1">
      <defs>
       <path id="m1f5ca99336" d="M 0 0 
L 0 3.5 
" style="stroke: #000000; stroke-width: 0.8"/>
      </defs>
      <g>
       <use xlink:href="#m1f5ca99336" x="115.363636" y="256.32" style="stroke: #000000; stroke-width: 0.8"/>
      </g>
     </g>
     <g id="text_1">
      <!-- 0 -->
      <g transform="translate(112.182386 270.918437) scale(0.1 -0.1)">
       <defs>
        <path id="DejaVuSans-30" d="M 2034 4250 
Q 1547 4250 1301 3770 
Q 1056 3291 1056 2328 
Q 1056 1369 1301 889 
Q 1547 409 2034 409 
Q 2525 409 2770 889 
Q 3016 1369 3016 2328 
Q 3016 3291 2770 3770 
Q 2525 4250 2034 4250 
z
M 2034 4750 
Q 2819 4750 3233 4129 
Q 3647 3509 3647 2328 
Q 3647 1150 3233 529 
Q 2819 -91 2034 -91 
Q 1250 -91 836 529 
Q 422 1150 422 2328 
Q 422 3509 836 4129 
Q 1250 4750 2034 4750 
z
" transform="scale(0.015625)"/>
       </defs>
       <use xlink:href="#DejaVuSans-30"/>
      </g>
     </g>
    </g>
    <g id="xtick_2">
     <g id="line2d_2">
      <g>
       <use xlink:href="#m1f5ca99336" x="200.191852" y="256.32" style="stroke: #000000; stroke-width: 0.8"/>
      </g>
     </g>
     <g id="text_2">
      <!-- 50 -->
      <g transform="translate(193.829352 270.918437) scale(0.1 -0.1)">
       <defs>
        <path id="DejaVuSans-35" d="M 691 4666 
L 3169 4666 
L 3169 4134 
L 1269 4134 
L 1269 2991 
Q 1406 3038 1543 3061 
Q 1681 3084 1819 3084 
Q 2600 3084 3056 2656 
Q 3513 2228 3513 1497 
Q 3513 744 3044 326 
Q 2575 -91 1722 -91 
Q 1428 -91 1123 -41 
Q 819 9 494 109 
L 494 744 
Q 775 591 1075 516 
Q 1375 441 1709 441 
Q 2250 441 2565 725 
Q 2881 1009 2881 1497 
Q 2881 1984 2565 2268 
Q 2250 2553 1709 2553 
Q 1456 2553 1204 2497 
Q 953 2441 691 2322 
L 691 4666 
z
" transform="scale(0.015625)"/>
       </defs>
       <use xlink:href="#DejaVuSans-35"/>
       <use xlink:href="#DejaVuSans-30" x="63.623047"/>
      </g>
     </g>
    </g>
    <g id="xtick_3">
     <g id="line2d_3">
      <g>
       <use xlink:href="#m1f5ca99336" x="285.020067" y="256.32" style="stroke: #000000; stroke-width: 0.8"/>
      </g>
     </g>
     <g id="text_3">
      <!-- 100 -->
      <g transform="translate(275.476317 270.918437) scale(0.1 -0.1)">
       <defs>
        <path id="DejaVuSans-31" d="M 794 531 
L 1825 531 
L 1825 4091 
L 703 3866 
L 703 4441 
L 1819 4666 
L 2450 4666 
L 2450 531 
L 3481 531 
L 3481 0 
L 794 0 
L 794 531 
z
" transform="scale(0.015625)"/>
       </defs>
       <use xlink:href="#DejaVuSans-31"/>
       <use xlink:href="#DejaVuSans-30" x="63.623047"/>
       <use xlink:href="#DejaVuSans-30" x="127.246094"/>
      </g>
     </g>
    </g>
    <g id="xtick_4">
     <g id="line2d_4">
      <g>
       <use xlink:href="#m1f5ca99336" x="369.848282" y="256.32" style="stroke: #000000; stroke-width: 0.8"/>
      </g>
     </g>
     <g id="text_4">
      <!-- 150 -->
      <g transform="translate(360.304532 270.918437) scale(0.1 -0.1)">
       <use xlink:href="#DejaVuSans-31"/>
       <use xlink:href="#DejaVuSans-35" x="63.623047"/>
       <use xlink:href="#DejaVuSans-30" x="127.246094"/>
      </g>
     </g>
    </g>
    <g id="xtick_5">
     <g id="line2d_5">
      <g>
       <use xlink:href="#m1f5ca99336" x="454.676497" y="256.32" style="stroke: #000000; stroke-width: 0.8"/>
      </g>
     </g>
     <g id="text_5">
      <!-- 200 -->
      <g transform="translate(445.132747 270.918437) scale(0.1 -0.1)">
       <defs>
        <path id="DejaVuSans-32" d="M 1228 531 
L 3431 531 
L 3431 0 
L 469 0 
L 469 531 
Q 828 903 1448 1529 
Q 2069 2156 2228 2338 
Q 2531 2678 2651 2914 
Q 2772 3150 2772 3378 
Q 2772 3750 2511 3984 
Q 2250 4219 1831 4219 
Q 1534 4219 1204 4116 
Q 875 4013 500 3803 
L 500 4441 
Q 881 4594 1212 4672 
Q 1544 4750 1819 4750 
Q 2544 4750 2975 4387 
Q 3406 4025 3406 3419 
Q 3406 3131 3298 2873 
Q 3191 2616 2906 2266 
Q 2828 2175 2409 1742 
Q 1991 1309 1228 531 
z
" transform="scale(0.015625)"/>
       </defs>
       <use xlink:href="#DejaVuSans-32"/>
       <use xlink:href="#DejaVuSans-30" x="63.623047"/>
       <use xlink:href="#DejaVuSans-30" x="127.246094"/>
      </g>
     </g>
    </g>
    <g id="xtick_6">
     <g id="line2d_6">
      <g>
       <use xlink:href="#m1f5ca99336" x="539.504713" y="256.32" style="stroke: #000000; stroke-width: 0.8"/>
      </g>
     </g>
     <g id="text_6">
      <!-- 250 -->
      <g transform="translate(529.960963 270.918437) scale(0.1 -0.1)">
       <use xlink:href="#DejaVuSans-32"/>
       <use xlink:href="#DejaVuSans-35" x="63.623047"/>
       <use xlink:href="#DejaVuSans-30" x="127.246094"/>
      </g>
     </g>
    </g>
    <g id="xtick_7">
     <g id="line2d_7">
      <g>
       <use xlink:href="#m1f5ca99336" x="624.332928" y="256.32" style="stroke: #000000; stroke-width: 0.8"/>
      </g>
     </g>
     <g id="text_7">
      <!-- 300 -->
      <g transform="translate(614.789178 270.918437) scale(0.1 -0.1)">
       <defs>
        <path id="DejaVuSans-33" d="M 2597 2516 
Q 3050 2419 3304 2112 
Q 3559 1806 3559 1356 
Q 3559 666 3084 287 
Q 2609 -91 1734 -91 
Q 1441 -91 1130 -33 
Q 819 25 488 141 
L 488 750 
Q 750 597 1062 519 
Q 1375 441 1716 441 
Q 2309 441 2620 675 
Q 2931 909 2931 1356 
Q 2931 1769 2642 2001 
Q 2353 2234 1838 2234 
L 1294 2234 
L 1294 2753 
L 1863 2753 
Q 2328 2753 2575 2939 
Q 2822 3125 2822 3475 
Q 2822 3834 2567 4026 
Q 2313 4219 1838 4219 
Q 1578 4219 1281 4162 
Q 984 4106 628 3988 
L 628 4550 
Q 988 4650 1302 4700 
Q 1616 4750 1894 4750 
Q 2613 4750 3031 4423 
Q 3450 4097 3450 3541 
Q 3450 3153 3228 2886 
Q 3006 2619 2597 2516 
z
" transform="scale(0.015625)"/>
       </defs>
       <use xlink:href="#DejaVuSans-33"/>
       <use xlink:href="#DejaVuSans-30" x="63.623047"/>
       <use xlink:href="#DejaVuSans-30" x="127.246094"/>
      </g>
     </g>
    </g>
    <g id="text_8">
     <!-- Timestep -->
     <g transform="translate(345.950781 284.596563) scale(0.1 -0.1)">
      <defs>
       <path id="DejaVuSans-54" d="M -19 4666 
L 3928 4666 
L 3928 4134 
L 2272 4134 
L 2272 0 
L 1638 0 
L 1638 4134 
L -19 4134 
L -19 4666 
z
" transform="scale(0.015625)"/>
       <path id="DejaVuSans-69" d="M 603 3500 
L 1178 3500 
L 1178 0 
L 603 0 
L 603 3500 
z
M 603 4863 
L 1178 4863 
L 1178 4134 
L 603 4134 
L 603 4863 
z
" transform="scale(0.015625)"/>
       <path id="DejaVuSans-6d" d="M 3328 2828 
Q 3544 3216 3844 3400 
Q 4144 3584 4550 3584 
Q 5097 3584 5394 3201 
Q 5691 2819 5691 2113 
L 5691 0 
L 5113 0 
L 5113 2094 
Q 5113 2597 4934 2840 
Q 4756 3084 4391 3084 
Q 3944 3084 3684 2787 
Q 3425 2491 3425 1978 
L 3425 0 
L 2847 0 
L 2847 2094 
Q 2847 2600 2669 2842 
Q 2491 3084 2119 3084 
Q 1678 3084 1418 2786 
Q 1159 2488 1159 1978 
L 1159 0 
L 581 0 
L 581 3500 
L 1159 3500 
L 1159 2956 
Q 1356 3278 1631 3431 
Q 1906 3584 2284 3584 
Q 2666 3584 2933 3390 
Q 3200 3197 3328 2828 
z
" transform="scale(0.015625)"/>
       <path id="DejaVuSans-65" d="M 3597 1894 
L 3597 1613 
L 953 1613 
Q 991 1019 1311 708 
Q 1631 397 2203 397 
Q 2534 397 2845 478 
Q 3156 559 3463 722 
L 3463 178 
Q 3153 47 2828 -22 
Q 2503 -91 2169 -91 
Q 1331 -91 842 396 
Q 353 884 353 1716 
Q 353 2575 817 3079 
Q 1281 3584 2069 3584 
Q 2775 3584 3186 3129 
Q 3597 2675 3597 1894 
z
M 3022 2063 
Q 3016 2534 2758 2815 
Q 2500 3097 2075 3097 
Q 1594 3097 1305 2825 
Q 1016 2553 972 2059 
L 3022 2063 
z
" transform="scale(0.015625)"/>
       <path id="DejaVuSans-73" d="M 2834 3397 
L 2834 2853 
Q 2591 2978 2328 3040 
Q 2066 3103 1784 3103 
Q 1356 3103 1142 2972 
Q 928 2841 928 2578 
Q 928 2378 1081 2264 
Q 1234 2150 1697 2047 
L 1894 2003 
Q 2506 1872 2764 1633 
Q 3022 1394 3022 966 
Q 3022 478 2636 193 
Q 2250 -91 1575 -91 
Q 1294 -91 989 -36 
Q 684 19 347 128 
L 347 722 
Q 666 556 975 473 
Q 1284 391 1588 391 
Q 1994 391 2212 530 
Q 2431 669 2431 922 
Q 2431 1156 2273 1281 
Q 2116 1406 1581 1522 
L 1381 1569 
Q 847 1681 609 1914 
Q 372 2147 372 2553 
Q 372 3047 722 3315 
Q 1072 3584 1716 3584 
Q 2034 3584 2315 3537 
Q 2597 3491 2834 3397 
z
" transform="scale(0.015625)"/>
       <path id="DejaVuSans-74" d="M 1172 4494 
L 1172 3500 
L 2356 3500 
L 2356 3053 
L 1172 3053 
L 1172 1153 
Q 1172 725 1289 603 
Q 1406 481 1766 481 
L 2356 481 
L 2356 0 
L 1766 0 
Q 1100 0 847 248 
Q 594 497 594 1153 
L 594 3053 
L 172 3053 
L 172 3500 
L 594 3500 
L 594 4494 
L 1172 4494 
z
" transform="scale(0.015625)"/>
       <path id="DejaVuSans-70" d="M 1159 525 
L 1159 -1331 
L 581 -1331 
L 581 3500 
L 1159 3500 
L 1159 2969 
Q 1341 3281 1617 3432 
Q 1894 3584 2278 3584 
Q 2916 3584 3314 3078 
Q 3713 2572 3713 1747 
Q 3713 922 3314 415 
Q 2916 -91 2278 -91 
Q 1894 -91 1617 61 
Q 1341 213 1159 525 
z
M 3116 1747 
Q 3116 2381 2855 2742 
Q 2594 3103 2138 3103 
Q 1681 3103 1420 2742 
Q 1159 2381 1159 1747 
Q 1159 1113 1420 752 
Q 1681 391 2138 391 
Q 2594 391 2855 752 
Q 3116 1113 3116 1747 
z
" transform="scale(0.015625)"/>
      </defs>
      <use xlink:href="#DejaVuSans-54"/>
      <use xlink:href="#DejaVuSans-69" x="57.958984"/>
      <use xlink:href="#DejaVuSans-6d" x="85.742188"/>
      <use xlink:href="#DejaVuSans-65" x="183.154297"/>
      <use xlink:href="#DejaVuSans-73" x="244.677734"/>
      <use xlink:href="#DejaVuSans-74" x="296.777344"/>
      <use xlink:href="#DejaVuSans-65" x="335.986328"/>
      <use xlink:href="#DejaVuSans-70" x="397.509766"/>
     </g>
    </g>
   </g>
   <g id="matplotlib.axis_2">
    <g id="ytick_1">
     <g id="line2d_8">
      <defs>
       <path id="m62701562a1" d="M 0 0 
L -3.5 0 
" style="stroke: #000000; stroke-width: 0.8"/>
      </defs>
      <g>
       <use xlink:href="#m62701562a1" x="90" y="238.944033" style="stroke: #000000; stroke-width: 0.8"/>
      </g>
     </g>
     <g id="text_9">
      <!-- 0 -->
      <g transform="translate(76.6375 242.743252) scale(0.1 -0.1)">
       <use xlink:href="#DejaVuSans-30"/>
      </g>
     </g>
    </g>
    <g id="ytick_2">
     <g id="line2d_9">
      <g>
       <use xlink:href="#m62701562a1" x="90" y="190.31464" style="stroke: #000000; stroke-width: 0.8"/>
      </g>
     </g>
     <g id="text_10">
      <!-- 50 -->
      <g transform="translate(70.275 194.113858) scale(0.1 -0.1)">
       <use xlink:href="#DejaVuSans-35"/>
       <use xlink:href="#DejaVuSans-30" x="63.623047"/>
      </g>
     </g>
    </g>
    <g id="ytick_3">
     <g id="line2d_10">
      <g>
       <use xlink:href="#m62701562a1" x="90" y="141.685246" style="stroke: #000000; stroke-width: 0.8"/>
      </g>
     </g>
     <g id="text_11">
      <!-- 100 -->
      <g transform="translate(63.9125 145.484465) scale(0.1 -0.1)">
       <use xlink:href="#DejaVuSans-31"/>
       <use xlink:href="#DejaVuSans-30" x="63.623047"/>
       <use xlink:href="#DejaVuSans-30" x="127.246094"/>
      </g>
     </g>
    </g>
    <g id="ytick_4">
     <g id="line2d_11">
      <g>
       <use xlink:href="#m62701562a1" x="90" y="93.055853" style="stroke: #000000; stroke-width: 0.8"/>
      </g>
     </g>
     <g id="text_12">
      <!-- 150 -->
      <g transform="translate(63.9125 96.855072) scale(0.1 -0.1)">
       <use xlink:href="#DejaVuSans-31"/>
       <use xlink:href="#DejaVuSans-35" x="63.623047"/>
       <use xlink:href="#DejaVuSans-30" x="127.246094"/>
      </g>
     </g>
    </g>
    <g id="ytick_5">
     <g id="line2d_12">
      <g>
       <use xlink:href="#m62701562a1" x="90" y="44.42646" style="stroke: #000000; stroke-width: 0.8"/>
      </g>
     </g>
     <g id="text_13">
      <!-- 200 -->
      <g transform="translate(63.9125 48.225679) scale(0.1 -0.1)">
       <use xlink:href="#DejaVuSans-32"/>
       <use xlink:href="#DejaVuSans-30" x="63.623047"/>
       <use xlink:href="#DejaVuSans-30" x="127.246094"/>
      </g>
     </g>
    </g>
    <g id="text_14">
     <!-- Q_LE [W/m²] -->
     <g transform="translate(57.554687 176.815) rotate(-90) scale(0.1 -0.1)">
      <defs>
       <path id="DejaVuSans-51" d="M 2522 4238 
Q 1834 4238 1429 3725 
Q 1025 3213 1025 2328 
Q 1025 1447 1429 934 
Q 1834 422 2522 422 
Q 3209 422 3611 934 
Q 4013 1447 4013 2328 
Q 4013 3213 3611 3725 
Q 3209 4238 2522 4238 
z
M 3406 84 
L 4238 -825 
L 3475 -825 
L 2784 -78 
Q 2681 -84 2626 -87 
Q 2572 -91 2522 -91 
Q 1538 -91 948 567 
Q 359 1225 359 2328 
Q 359 3434 948 4092 
Q 1538 4750 2522 4750 
Q 3503 4750 4090 4092 
Q 4678 3434 4678 2328 
Q 4678 1516 4351 937 
Q 4025 359 3406 84 
z
" transform="scale(0.015625)"/>
       <path id="DejaVuSans-5f" d="M 3263 -1063 
L 3263 -1509 
L -63 -1509 
L -63 -1063 
L 3263 -1063 
z
" transform="scale(0.015625)"/>
       <path id="DejaVuSans-4c" d="M 628 4666 
L 1259 4666 
L 1259 531 
L 3531 531 
L 3531 0 
L 628 0 
L 628 4666 
z
" transform="scale(0.015625)"/>
       <path id="DejaVuSans-45" d="M 628 4666 
L 3578 4666 
L 3578 4134 
L 1259 4134 
L 1259 2753 
L 3481 2753 
L 3481 2222 
L 1259 2222 
L 1259 531 
L 3634 531 
L 3634 0 
L 628 0 
L 628 4666 
z
" transform="scale(0.015625)"/>
       <path id="DejaVuSans-20" transform="scale(0.015625)"/>
       <path id="DejaVuSans-5b" d="M 550 4863 
L 1875 4863 
L 1875 4416 
L 1125 4416 
L 1125 -397 
L 1875 -397 
L 1875 -844 
L 550 -844 
L 550 4863 
z
" transform="scale(0.015625)"/>
       <path id="DejaVuSans-57" d="M 213 4666 
L 850 4666 
L 1831 722 
L 2809 4666 
L 3519 4666 
L 4500 722 
L 5478 4666 
L 6119 4666 
L 4947 0 
L 4153 0 
L 3169 4050 
L 2175 0 
L 1381 0 
L 213 4666 
z
" transform="scale(0.015625)"/>
       <path id="DejaVuSans-2f" d="M 1625 4666 
L 2156 4666 
L 531 -594 
L 0 -594 
L 1625 4666 
z
" transform="scale(0.015625)"/>
       <path id="DejaVuSans-b2" d="M 838 2444 
L 2163 2444 
L 2163 2088 
L 294 2088 
L 294 2431 
Q 400 2528 597 2703 
Q 1672 3656 1672 3950 
Q 1672 4156 1509 4282 
Q 1347 4409 1081 4409 
Q 919 4409 728 4354 
Q 538 4300 313 4191 
L 313 4575 
Q 553 4663 761 4706 
Q 969 4750 1147 4750 
Q 1600 4750 1872 4544 
Q 2144 4338 2144 4000 
Q 2144 3566 1109 2678 
Q 934 2528 838 2444 
z
" transform="scale(0.015625)"/>
       <path id="DejaVuSans-5d" d="M 1947 4863 
L 1947 -844 
L 622 -844 
L 622 -397 
L 1369 -397 
L 1369 4416 
L 622 4416 
L 622 4863 
L 1947 4863 
z
" transform="scale(0.015625)"/>
      </defs>
      <use xlink:href="#DejaVuSans-51"/>
      <use xlink:href="#DejaVuSans-5f" x="78.710938"/>
      <use xlink:href="#DejaVuSans-4c" x="128.710938"/>
      <use xlink:href="#DejaVuSans-45" x="184.423828"/>
      <use xlink:href="#DejaVuSans-20" x="247.607422"/>
      <use xlink:href="#DejaVuSans-5b" x="279.394531"/>
      <use xlink:href="#DejaVuSans-57" x="318.408203"/>
      <use xlink:href="#DejaVuSans-2f" x="417.285156"/>
      <use xlink:href="#DejaVuSans-6d" x="450.976562"/>
      <use xlink:href="#DejaVuSans-b2" x="548.388672"/>
      <use xlink:href="#DejaVuSans-5d" x="588.476562"/>
     </g>
    </g>
   </g>
   <g id="line2d_13">
    <path d="M 115.363636 199.06297 
L 117.060201 200.119054 
L 118.756765 204.731797 
L 120.453329 213.245295 
L 122.149894 224.935364 
L 123.846458 225.371667 
L 125.543022 222.189068 
L 127.239587 228.46897 
L 128.936151 227.316745 
L 130.632715 233.878406 
L 132.329279 237.404159 
L 134.025844 230.637159 
L 135.722408 228.692081 
L 137.418972 226.021306 
L 139.115537 222.793336 
L 140.812101 220.645472 
L 142.508665 215.261518 
L 144.20523 202.685958 
L 145.901794 208.394514 
L 147.598358 216.985674 
L 149.294922 190.071493 
L 150.991487 207.085217 
L 152.688051 194.436128 
L 154.384615 204.355063 
L 156.08118 197.637642 
L 157.777744 199.170052 
L 159.474308 215.845071 
L 161.170873 225.862726 
L 162.867437 202.572358 
L 164.564001 232.097014 
L 166.260566 230.213841 
L 167.95713 230.576617 
L 169.653694 232.010113 
L 171.350258 224.132784 
L 173.046823 233.514503 
L 174.743387 232.964368 
L 176.439951 232.061237 
L 178.136516 224.279255 
L 179.83308 208.741288 
L 181.529644 203.059965 
L 183.226209 221.48608 
L 184.922773 208.178647 
L 186.619337 205.823135 
L 188.315901 209.912285 
L 190.012466 191.206161 
L 191.70903 165.075987 
L 193.405594 165.270502 
L 195.102159 167.458825 
L 198.495287 210.495838 
L 200.191852 221.520705 
L 201.888416 213.788048 
L 203.58498 181.119161 
L 205.281545 214.894853 
L 206.978109 215.033592 
L 208.674673 153.939852 
L 210.371237 213.119637 
L 212.067802 213.665356 
L 213.764366 224.036546 
L 215.46093 235.992229 
L 217.157495 235.734493 
L 218.854059 221.482579 
L 220.550623 214.737099 
L 222.247188 183.211636 
L 223.943752 168.021124 
L 225.640316 189.417913 
L 227.336881 182.731371 
L 229.033445 184.770888 
L 230.730009 180.074359 
L 232.426573 200.725367 
L 234.123138 189.882907 
L 237.516266 193.135146 
L 239.212831 190.270437 
L 240.909395 200.552731 
L 242.605959 215.167906 
L 244.302524 223.80084 
L 245.999088 218.67822 
L 247.695652 218.120246 
L 249.392216 213.362442 
L 251.088781 212.83389 
L 252.785345 213.233916 
L 254.481909 214.773862 
L 256.178474 214.131079 
L 257.875038 213.294508 
L 259.571602 207.18053 
L 261.268167 194.82453 
L 262.964731 184.942552 
L 264.661295 184.086477 
L 266.35786 189.920984 
L 268.054424 186.221648 
L 269.750988 176.945593 
L 271.447552 153.372492 
L 273.144117 186.805203 
L 274.840681 137.551748 
L 276.537245 175.336785 
L 278.23381 184.046311 
L 279.930374 200.846017 
L 281.626938 209.064335 
L 283.323503 208.206366 
L 285.020067 213.494132 
L 286.716631 220.651893 
L 290.10976 212.172092 
L 293.502888 213.690108 
L 295.199453 214.223815 
L 296.896017 214.433894 
L 298.592581 214.382396 
L 300.289146 204.659483 
L 301.98571 206.710138 
L 303.682274 202.932363 
L 305.378839 184.9532 
L 307.075403 187.024375 
L 308.771967 180.734651 
L 310.468531 156.359167 
L 312.165096 170.376588 
L 313.86166 175.904338 
L 315.558224 176.818135 
L 317.254789 181.041404 
L 318.951353 182.635231 
L 320.647917 202.812392 
L 322.344482 182.922973 
L 324.041046 198.216478 
L 325.73761 201.683511 
L 327.434175 223.53863 
L 329.130739 212.362817 
L 330.827303 215.727679 
L 332.523867 216.110976 
L 334.220432 218.172279 
L 335.916996 225.449279 
L 337.61356 226.024467 
L 339.310125 224.952238 
L 341.006689 204.777896 
L 342.703253 191.785193 
L 344.399818 179.946026 
L 346.096382 180.254434 
L 347.792946 182.631194 
L 349.48951 181.502554 
L 351.186075 176.931101 
L 352.882639 147.958435 
L 354.579203 191.017041 
L 356.275768 173.646918 
L 357.972332 161.850253 
L 359.668896 164.855546 
L 363.062025 207.325203 
L 364.758589 187.579236 
L 366.455154 212.061705 
L 368.151718 218.275227 
L 369.848282 234.971011 
L 371.544846 225.166597 
L 373.241411 228.319094 
L 374.937975 228.896422 
L 376.634539 227.374322 
L 378.331104 218.353472 
L 380.027668 227.798419 
L 383.420797 206.665349 
L 385.117361 215.94233 
L 386.813925 190.100669 
L 388.51049 173.488867 
L 390.207054 163.568473 
L 391.903618 156.371322 
L 393.600182 147.90981 
L 395.296747 110.076141 
L 396.993311 149.32006 
L 398.689875 160.407563 
L 400.38644 198.776155 
L 402.083004 166.24309 
L 403.779568 216.260852 
L 405.476133 227.131953 
L 407.172697 224.257956 
L 408.869261 223.96618 
L 410.565825 218.262195 
L 412.26239 201.4994 
L 413.958954 216.456634 
L 415.655518 229.27651 
L 417.352083 215.097152 
L 419.048647 191.384485 
L 420.745211 202.958282 
L 422.441776 208.842438 
L 424.13834 211.711573 
L 425.834904 201.304882 
L 427.531469 194.107734 
L 429.228033 180.491504 
L 430.924597 202.909653 
L 432.621161 153.793962 
L 434.317726 181.558091 
L 436.01429 160.553452 
L 437.710854 164.443804 
L 439.407419 170.911515 
L 441.103983 201.395965 
L 442.800547 215.564285 
L 444.497112 212.934796 
L 446.193676 216.946769 
L 447.89024 219.186542 
L 449.586804 187.903887 
L 451.283369 225.101433 
L 452.979933 226.410293 
L 454.676497 228.444947 
L 456.373062 226.078738 
L 458.069626 188.410605 
L 459.76619 226.057244 
L 461.462755 220.310221 
L 463.159319 218.234817 
L 464.855883 218.230003 
L 466.552448 211.648647 
L 468.249012 212.057425 
L 469.945576 209.733037 
L 471.64214 206.403433 
L 473.338705 188.466721 
L 475.035269 158.36513 
L 476.731833 140.226365 
L 478.428398 152.675492 
L 480.124962 182.98478 
L 481.821526 196.74004 
L 483.518091 206.101005 
L 485.214655 185.820602 
L 486.911219 200.095762 
L 488.607784 203.683734 
L 490.304348 189.342052 
L 492.000912 207.58148 
L 493.697476 206.897262 
L 495.394041 206.459597 
L 497.090605 209.912285 
L 498.787169 218.130653 
L 500.483734 215.067001 
L 502.180298 201.742547 
L 503.876862 196.685089 
L 505.573427 195.323469 
L 507.269991 200.562166 
L 508.966555 180.180372 
L 510.663119 175.28816 
L 512.359684 179.129879 
L 514.056248 183.518683 
L 515.752812 158.965992 
L 517.449377 182.019049 
L 519.145941 113.480198 
L 520.842505 118.829431 
L 522.53907 149.854986 
L 524.235634 165.951311 
L 525.932198 163.617106 
L 527.628763 192.891999 
L 529.325327 205.623805 
L 531.021891 192.697481 
L 532.718455 210.544466 
L 534.41502 213.51086 
L 536.111584 215.94233 
L 537.808148 215.504665 
L 539.504713 216.5891 
L 541.201277 220.886432 
L 542.897841 221.045595 
L 544.594406 210.285954 
L 546.29097 208.161627 
L 547.987534 206.265082 
L 549.684099 204.8062 
L 551.380663 192.113926 
L 553.077227 169.452633 
L 554.773791 152.675492 
L 556.470356 144.943414 
L 558.16692 142.17154 
L 559.863484 138.961997 
L 561.560049 157.246652 
L 563.256613 173.829278 
L 564.953177 179.227136 
L 566.649742 176.463818 
L 570.04287 204.514421 
L 571.739434 217.936135 
L 573.435999 217.924075 
L 575.132563 220.976152 
L 576.829127 221.475333 
L 578.525692 219.2005 
L 580.222256 222.314678 
L 581.91882 225.968251 
L 583.615385 226.981202 
L 585.311949 224.646991 
L 587.008513 218.276541 
L 588.705078 215.261518 
L 590.401642 217.741618 
L 592.098206 203.493204 
L 593.79477 195.49586 
L 595.491335 188.174945 
L 597.187899 188.320835 
L 598.884463 159.678122 
L 600.581028 175.9163 
L 602.277592 175.434042 
L 603.974156 190.120121 
L 605.670721 187.73728 
L 607.367285 202.180212 
L 609.063849 182.412363 
L 610.760413 195.541183 
L 612.456978 230.394985 
L 614.153542 229.456438 
L 615.850106 227.805373 
L 617.546671 233.020973 
L 619.243235 232.865359 
L 620.939799 231.396751 
L 622.636364 231.139016 
L 622.636364 231.139016 
" clip-path="url(#p8f1094b153)" style="fill: none; stroke: #1f77b4; stroke-opacity: 0.6; stroke-width: 1.5; stroke-linecap: square"/>
   </g>
   <g id="line2d_14">
    <path d="M 115.363636 179.260056 
L 117.060201 180.089374 
L 118.756765 178.386176 
L 122.149894 204.290073 
L 123.846458 214.665829 
L 125.543022 221.529783 
L 127.239587 223.611223 
L 128.936151 224.529566 
L 130.632715 225.275665 
L 132.329279 226.361996 
L 134.025844 228.175461 
L 135.722408 227.007072 
L 137.418972 222.225755 
L 139.115537 218.559792 
L 140.812101 226.795235 
L 142.508665 223.71086 
L 144.20523 203.400982 
L 145.901794 199.648016 
L 147.598358 192.252588 
L 149.294922 194.42732 
L 150.991487 195.865362 
L 152.688051 196.042584 
L 154.384615 186.855646 
L 156.08118 192.105797 
L 157.777744 196.901316 
L 159.474308 206.395274 
L 161.170873 214.642216 
L 162.867437 212.180457 
L 164.564001 226.028407 
L 166.260566 230.881887 
L 167.95713 231.790308 
L 169.653694 231.566099 
L 171.350258 231.169407 
L 173.046823 231.13722 
L 174.743387 232.666947 
L 176.439951 236.275297 
L 178.136516 235.860169 
L 179.83308 231.929973 
L 181.529644 215.915482 
L 183.226209 209.973402 
L 184.922773 202.11908 
L 186.619337 186.118781 
L 188.315901 178.142287 
L 190.012466 154.977033 
L 193.405594 126.390413 
L 195.102159 131.370073 
L 196.798723 145.973576 
L 198.495287 124.78116 
L 200.191852 159.774318 
L 201.888416 223.104132 
L 203.58498 192.270797 
L 205.281545 218.508153 
L 206.978109 217.677715 
L 208.674673 219.283026 
L 210.371237 227.9767 
L 212.067802 231.225652 
L 213.764366 231.532339 
L 215.46093 234.240676 
L 217.157495 235.984817 
L 218.854059 228.785801 
L 220.550623 219.308984 
L 222.247188 229.992225 
L 223.943752 211.802981 
L 225.640316 176.557551 
L 227.336881 151.428926 
L 229.033445 116.354746 
L 230.730009 120.651223 
L 232.426573 154.084109 
L 234.123138 113.550646 
L 235.819702 114.975922 
L 237.516266 146.995657 
L 239.212831 154.841458 
L 240.909395 164.642229 
L 242.605959 178.65023 
L 244.302524 195.853368 
L 245.999088 223.145158 
L 247.695652 227.834094 
L 249.392216 230.79411 
L 251.088781 230.839247 
L 252.785345 229.858696 
L 254.481909 227.967904 
L 256.178474 225.907767 
L 257.875038 233.38542 
L 259.571602 234.257699 
L 261.268167 232.8555 
L 262.964731 228.162319 
L 264.661295 210.466901 
L 266.35786 180.841057 
L 268.054424 155.799665 
L 269.750988 113.253435 
L 271.447552 119.545323 
L 273.144117 168.886935 
L 274.840681 175.600553 
L 276.537245 172.542153 
L 278.23381 177.583631 
L 279.930374 180.501974 
L 281.626938 188.564605 
L 285.020067 217.556733 
L 286.716631 223.116158 
L 288.413196 225.609025 
L 290.10976 229.815501 
L 291.806324 230.566441 
L 293.502888 230.186354 
L 295.199453 230.325014 
L 296.896017 230.934709 
L 298.592581 235.996006 
L 300.289146 234.174562 
L 301.98571 226.601274 
L 303.682274 212.576739 
L 305.378839 146.865209 
L 307.075403 127.330419 
L 308.771967 146.607444 
L 310.468531 68.66317 
L 312.165096 92.142345 
L 313.86166 149.613145 
L 315.558224 164.882898 
L 317.254789 168.01458 
L 318.951353 166.983631 
L 320.647917 169.893611 
L 322.344482 167.364921 
L 324.041046 174.303522 
L 325.73761 203.714781 
L 327.434175 225.332576 
L 329.130739 233.567294 
L 330.827303 235.500526 
L 332.523867 234.330648 
L 334.220432 233.928854 
L 335.916996 232.943996 
L 337.61356 237.938777 
L 339.310125 235.74592 
L 341.006689 234.847775 
L 342.703253 227.869449 
L 344.399818 204.73832 
L 346.096382 171.434702 
L 347.792946 153.277624 
L 349.48951 165.937954 
L 351.186075 150.278601 
L 352.882639 137.5153 
L 354.579203 147.155222 
L 356.275768 134.178291 
L 357.972332 116.943247 
L 359.668896 111.574884 
L 361.365461 122.248463 
L 363.062025 151.732088 
L 364.758589 166.368366 
L 366.455154 192.42555 
L 368.151718 208.80549 
L 369.848282 230.999494 
L 371.544846 235.243447 
L 373.241411 230.253558 
L 374.937975 234.649461 
L 376.634539 234.24985 
L 378.331104 237.777491 
L 380.027668 233.40703 
L 381.724232 231.236404 
L 383.420797 212.422492 
L 385.117361 186.369604 
L 386.813925 162.081031 
L 388.51049 141.949096 
L 390.207054 126.433339 
L 391.903618 120.099349 
L 393.600182 109.470217 
L 395.296747 106.794206 
L 396.993311 108.757442 
L 398.689875 111.697437 
L 400.38644 120.025525 
L 402.083004 130.120636 
L 403.779568 145.340057 
L 405.476133 148.180954 
L 407.172697 193.848923 
L 408.869261 210.678118 
L 410.565825 221.57204 
L 412.26239 226.604782 
L 415.655518 228.397534 
L 417.352083 228.459994 
L 419.048647 227.048821 
L 420.745211 231.452749 
L 424.13834 218.007695 
L 425.834904 207.308159 
L 427.531469 144.28293 
L 429.228033 136.224961 
L 430.924597 205.840113 
L 432.621161 160.094591 
L 434.317726 164.368778 
L 436.01429 224.573406 
L 437.710854 157.414996 
L 439.407419 160.189222 
L 441.103983 232.972944 
L 442.800547 177.973217 
L 444.497112 191.105179 
L 446.193676 239.675057 
L 447.89024 230.318508 
L 449.586804 234.976015 
L 451.283369 234.101021 
L 452.979933 236.815587 
L 454.676497 237.250356 
L 456.373062 237.457042 
L 458.069626 236.20895 
L 459.76619 231.963673 
L 461.462755 246.24 
L 463.159319 233.071952 
L 464.855883 228.313259 
L 466.552448 227.426325 
L 468.249012 225.707193 
L 469.945576 219.992627 
L 471.64214 236.293036 
L 473.338705 231.430169 
L 475.035269 230.079236 
L 476.731833 230.923672 
L 478.428398 221.552018 
L 480.124962 224.452263 
L 481.821526 233.034898 
L 483.518091 188.166909 
L 485.214655 189.929543 
L 486.911219 234.465798 
L 488.607784 200.709373 
L 490.304348 206.891849 
L 492.000912 218.574408 
L 493.697476 211.999493 
L 495.394041 212.521705 
L 497.090605 220.675242 
L 498.787169 224.729584 
L 500.483734 226.957094 
L 502.180298 224.367509 
L 503.876862 234.234582 
L 505.573427 230.09846 
L 507.269991 236.470585 
L 508.966555 232.530653 
L 510.663119 219.976076 
L 512.359684 221.39206 
L 514.056248 218.714199 
L 515.752812 216.951717 
L 517.449377 211.58763 
L 519.145941 207.75599 
L 520.842505 196.691779 
L 522.53907 193.204681 
L 524.235634 200.55311 
L 525.932198 209.246348 
L 527.628763 219.949805 
L 529.325327 219.819466 
L 531.021891 221.452574 
L 532.718455 224.568416 
L 534.41502 226.861225 
L 536.111584 227.032089 
L 537.808148 227.958379 
L 539.504713 228.051497 
L 541.201277 232.857389 
L 542.897841 231.351728 
L 544.594406 230.957772 
L 547.987534 229.072513 
L 549.684099 228.606365 
L 551.380663 208.668876 
L 553.077227 199.494124 
L 554.773791 197.100549 
L 556.470356 192.487049 
L 558.16692 185.871353 
L 559.863484 176.728543 
L 561.560049 173.576485 
L 563.256613 180.051649 
L 564.953177 185.001439 
L 566.649742 190.628776 
L 568.346306 204.06853 
L 571.739434 221.7514 
L 573.435999 222.740547 
L 575.132563 226.315045 
L 576.829127 227.002765 
L 578.525692 235.472106 
L 580.222256 235.348749 
L 581.91882 233.354204 
L 583.615385 232.987858 
L 585.311949 231.406819 
L 587.008513 229.289304 
L 588.705078 228.826677 
L 590.401642 228.020859 
L 592.098206 211.210564 
L 593.79477 206.137795 
L 595.491335 198.162537 
L 597.187899 187.991932 
L 598.884463 176.333711 
L 600.581028 171.544767 
L 602.277592 166.20912 
L 603.974156 157.055284 
L 605.670721 174.83899 
L 607.367285 183.353163 
L 609.063849 188.823109 
L 610.760413 198.537753 
L 612.456978 216.939041 
L 614.153542 226.973121 
L 615.850106 231.766846 
L 617.546671 230.551052 
L 619.243235 228.716814 
L 620.939799 235.535067 
L 622.636364 233.242441 
L 622.636364 233.242441 
" clip-path="url(#p8f1094b153)" style="fill: none; stroke: #ff7f0e; stroke-opacity: 0.8; stroke-width: 1.8; stroke-linecap: square"/>
   </g>
   <g id="line2d_15">
    <path d="M 115.363636 174.325122 
L 117.060201 176.692073 
L 118.756765 175.292108 
L 120.453329 188.619148 
L 122.149894 198.291033 
L 125.543022 222.409136 
L 127.239587 225.23062 
L 128.936151 226.384357 
L 132.329279 230.28721 
L 134.025844 231.072105 
L 135.722408 227.431119 
L 137.418972 220.488196 
L 139.115537 217.52537 
L 140.812101 225.783081 
L 142.508665 222.46278 
L 144.20523 201.500257 
L 145.901794 197.977253 
L 147.598358 190.827932 
L 149.294922 193.377814 
L 150.991487 194.737498 
L 152.688051 195.670095 
L 154.384615 186.310161 
L 156.08118 191.504211 
L 157.777744 198.125268 
L 159.474308 207.313319 
L 161.170873 214.69146 
L 162.867437 211.849977 
L 164.564001 224.613031 
L 166.260566 231.414331 
L 167.95713 234.071016 
L 169.653694 235.041679 
L 171.350258 235.649146 
L 173.046823 236.078838 
L 174.743387 238.34607 
L 176.439951 236.909325 
L 178.136516 235.802564 
L 179.83308 231.591278 
L 181.529644 213.742115 
L 183.226209 207.580642 
L 184.922773 200.016937 
L 186.619337 185.251227 
L 188.315901 178.208788 
L 190.012466 157.821381 
L 191.70903 142.225983 
L 193.405594 122.788539 
L 195.102159 126.664369 
L 196.798723 140.986985 
L 198.495287 124.879122 
L 200.191852 152.145374 
L 201.888416 214.970091 
L 203.58498 188.94181 
L 205.281545 218.726798 
L 210.371237 234.362146 
L 212.067802 236.269144 
L 213.764366 236.220623 
L 215.46093 238.00756 
L 217.157495 235.994493 
L 218.854059 227.70194 
L 220.550623 217.137574 
L 222.247188 225.71279 
L 225.640316 193.865043 
L 227.336881 182.115349 
L 229.033445 140.038387 
L 230.730009 129.848089 
L 232.426573 165.049601 
L 234.123138 119.429389 
L 235.819702 113.158367 
L 237.516266 143.43892 
L 240.909395 167.551326 
L 242.605959 176.227795 
L 244.302524 195.565265 
L 245.999088 217.344406 
L 247.695652 228.321303 
L 249.392216 232.282503 
L 251.088781 232.891655 
L 254.481909 233.511797 
L 256.178474 234.306746 
L 257.875038 233.460834 
L 259.571602 233.750624 
L 261.268167 232.189942 
L 262.964731 227.765869 
L 264.661295 215.292343 
L 266.35786 197.289773 
L 268.054424 176.787022 
L 269.750988 131.466811 
L 271.447552 141.790555 
L 273.144117 180.22125 
L 274.840681 189.248723 
L 276.537245 179.386442 
L 278.23381 181.793814 
L 279.930374 182.415877 
L 281.626938 187.888546 
L 283.323503 195.850607 
L 285.020067 204.900823 
L 286.716631 219.203104 
L 288.413196 227.008949 
L 290.10976 231.225587 
L 291.806324 232.539712 
L 296.896017 234.303719 
L 298.592581 235.782362 
L 301.98571 228.982303 
L 303.682274 216.831726 
L 305.378839 155.585205 
L 307.075403 139.612821 
L 308.771967 156.540318 
L 310.468531 70.468058 
L 312.165096 91.495581 
L 313.86166 149.551475 
L 315.558224 166.397476 
L 317.254789 167.859481 
L 318.951353 164.855598 
L 320.647917 167.920112 
L 322.344482 168.021755 
L 324.041046 170.976494 
L 325.73761 199.859998 
L 327.434175 218.878615 
L 329.130739 232.293001 
L 330.827303 237.494791 
L 332.523867 237.777609 
L 334.220432 238.293812 
L 335.916996 238.518772 
L 337.61356 238.216098 
L 339.310125 236.447306 
L 341.006689 235.212566 
L 342.703253 229.988652 
L 344.399818 212.219574 
L 346.096382 186.508259 
L 347.792946 165.044065 
L 349.48951 174.664079 
L 351.186075 156.567699 
L 352.882639 140.000113 
L 354.579203 145.617151 
L 356.275768 126.174432 
L 357.972332 95.507817 
L 359.668896 82.359761 
L 361.365461 91.252493 
L 363.062025 131.612998 
L 364.758589 146.190106 
L 366.455154 178.136236 
L 368.151718 202.418254 
L 369.848282 223.766823 
L 371.544846 236.665452 
L 373.241411 233.249984 
L 374.937975 237.958166 
L 376.634539 238.218379 
L 378.331104 237.824716 
L 380.027668 233.607196 
L 381.724232 231.840649 
L 383.420797 217.640452 
L 386.813925 167.116016 
L 388.51049 136.847143 
L 390.207054 104.443825 
L 391.903618 89.425314 
L 393.600182 67.678116 
L 395.296747 52.708282 
L 396.993311 47.703957 
L 398.689875 44.64 
L 400.38644 54.113827 
L 402.083004 67.280345 
L 403.779568 106.378939 
L 405.476133 150.495718 
L 407.172697 178.337663 
L 408.869261 210.169304 
L 410.565825 223.649601 
L 412.26239 229.34339 
L 413.958954 230.388961 
L 415.655518 231.697564 
L 417.352083 234.305724 
L 419.048647 234.392572 
L 420.745211 232.930452 
L 422.441776 223.220548 
L 424.13834 217.77203 
L 425.834904 211.475573 
L 427.531469 150.441847 
L 429.228033 145.295721 
L 430.924597 209.439648 
L 432.621161 161.137627 
L 434.317726 162.798726 
L 436.01429 223.536531 
L 437.710854 156.640692 
L 439.407419 159.009876 
L 441.103983 231.567426 
L 442.800547 176.553766 
L 444.497112 189.923681 
L 446.193676 239.210327 
L 447.89024 230.403484 
L 449.586804 236.137096 
L 451.283369 239.866669 
L 452.979933 241.402115 
L 454.676497 241.622403 
L 456.373062 241.626651 
L 458.069626 240.836565 
L 459.76619 239.645026 
L 461.462755 246.095862 
L 463.159319 232.950374 
L 464.855883 228.010299 
L 466.552448 226.702009 
L 468.249012 224.830608 
L 469.945576 218.95045 
L 471.64214 235.145529 
L 473.338705 229.759076 
L 475.035269 227.687369 
L 476.731833 228.218009 
L 478.428398 219.235197 
L 480.124962 221.981503 
L 481.821526 230.86158 
L 483.518091 186.310951 
L 485.214655 188.40819 
L 486.911219 233.16993 
L 488.607784 199.945387 
L 490.304348 206.767986 
L 492.000912 224.363991 
L 493.697476 220.679392 
L 495.394041 220.869562 
L 497.090605 229.368594 
L 498.787169 233.150028 
L 500.483734 231.064717 
L 502.180298 224.995321 
L 503.876862 233.557299 
L 505.573427 228.315117 
L 507.269991 235.848724 
L 508.966555 232.293126 
L 510.663119 220.11318 
L 512.359684 221.830647 
L 514.056248 219.229628 
L 515.752812 217.69147 
L 517.449377 214.201256 
L 519.145941 211.202847 
L 520.842505 204.736216 
L 522.53907 202.124353 
L 524.235634 206.640031 
L 525.932198 210.772406 
L 527.628763 217.610441 
L 529.325327 218.257051 
L 531.021891 217.679216 
L 532.718455 223.41562 
L 534.41502 228.639885 
L 536.111584 229.155985 
L 537.808148 230.401505 
L 539.504713 231.283935 
L 541.201277 232.521057 
L 542.897841 232.140739 
L 544.594406 232.042938 
L 549.684099 226.215465 
L 551.380663 205.058552 
L 553.077227 194.386168 
L 554.773791 191.559054 
L 556.470356 187.198955 
L 558.16692 180.520109 
L 559.863484 171.222958 
L 561.560049 168.79108 
L 563.256613 176.25033 
L 564.953177 181.484019 
L 566.649742 187.724822 
L 568.346306 201.566305 
L 570.04287 208.390998 
L 571.739434 219.720814 
L 573.435999 223.973811 
L 575.132563 227.864798 
L 576.829127 228.792951 
L 578.525692 237.313037 
L 580.222256 237.360618 
L 581.91882 235.390191 
L 583.615385 234.440046 
L 587.008513 227.592493 
L 588.705078 225.995477 
L 590.401642 223.339497 
L 592.098206 205.748484 
L 593.79477 200.178453 
L 595.491335 190.904468 
L 597.187899 178.838319 
L 598.884463 165.67193 
L 600.581028 160.640781 
L 602.277592 154.754344 
L 603.974156 142.665024 
L 605.670721 163.45455 
L 607.367285 174.497457 
L 609.063849 180.970604 
L 610.760413 192.74684 
L 612.456978 212.716913 
L 614.153542 223.948267 
L 615.850106 233.01899 
L 617.546671 232.181216 
L 619.243235 230.500024 
L 620.939799 237.467032 
L 622.636364 233.989136 
L 622.636364 233.989136 
" clip-path="url(#p8f1094b153)" style="fill: none; stroke: #2ca02c; stroke-opacity: 0.6; stroke-width: 1.5; stroke-linecap: square"/>
   </g>
   <g id="patch_3">
    <path d="M 90 256.32 
L 90 34.56 
" style="fill: none; stroke: #000000; stroke-width: 0.8; stroke-linejoin: miter; stroke-linecap: square"/>
   </g>
   <g id="patch_4">
    <path d="M 648 256.32 
L 648 34.56 
" style="fill: none; stroke: #000000; stroke-width: 0.8; stroke-linejoin: miter; stroke-linecap: square"/>
   </g>
   <g id="patch_5">
    <path d="M 90 256.32 
L 648 256.32 
" style="fill: none; stroke: #000000; stroke-width: 0.8; stroke-linejoin: miter; stroke-linecap: square"/>
   </g>
   <g id="patch_6">
    <path d="M 90 34.56 
L 648 34.56 
" style="fill: none; stroke: #000000; stroke-width: 0.8; stroke-linejoin: miter; stroke-linecap: square"/>
   </g>
   <g id="legend_1">
    <g id="patch_7">
     <path d="M 529.315625 86.594375 
L 641 86.594375 
Q 643 86.594375 643 84.594375 
L 643 41.56 
Q 643 39.56 641 39.56 
L 529.315625 39.56 
Q 527.315625 39.56 527.315625 41.56 
L 527.315625 84.594375 
Q 527.315625 86.594375 529.315625 86.594375 
z
" style="fill: #ffffff; opacity: 0.8; stroke: #cccccc; stroke-linejoin: miter"/>
    </g>
    <g id="line2d_16">
     <path d="M 531.315625 47.658438 
L 541.315625 47.658438 
L 551.315625 47.658438 
" style="fill: none; stroke: #1f77b4; stroke-opacity: 0.6; stroke-width: 1.5; stroke-linecap: square"/>
    </g>
    <g id="text_15">
     <!-- Observed -->
     <g transform="translate(559.315625 51.158438) scale(0.1 -0.1)">
      <defs>
       <path id="DejaVuSans-4f" d="M 2522 4238 
Q 1834 4238 1429 3725 
Q 1025 3213 1025 2328 
Q 1025 1447 1429 934 
Q 1834 422 2522 422 
Q 3209 422 3611 934 
Q 4013 1447 4013 2328 
Q 4013 3213 3611 3725 
Q 3209 4238 2522 4238 
z
M 2522 4750 
Q 3503 4750 4090 4092 
Q 4678 3434 4678 2328 
Q 4678 1225 4090 567 
Q 3503 -91 2522 -91 
Q 1538 -91 948 565 
Q 359 1222 359 2328 
Q 359 3434 948 4092 
Q 1538 4750 2522 4750 
z
" transform="scale(0.015625)"/>
       <path id="DejaVuSans-62" d="M 3116 1747 
Q 3116 2381 2855 2742 
Q 2594 3103 2138 3103 
Q 1681 3103 1420 2742 
Q 1159 2381 1159 1747 
Q 1159 1113 1420 752 
Q 1681 391 2138 391 
Q 2594 391 2855 752 
Q 3116 1113 3116 1747 
z
M 1159 2969 
Q 1341 3281 1617 3432 
Q 1894 3584 2278 3584 
Q 2916 3584 3314 3078 
Q 3713 2572 3713 1747 
Q 3713 922 3314 415 
Q 2916 -91 2278 -91 
Q 1894 -91 1617 61 
Q 1341 213 1159 525 
L 1159 0 
L 581 0 
L 581 4863 
L 1159 4863 
L 1159 2969 
z
" transform="scale(0.015625)"/>
       <path id="DejaVuSans-72" d="M 2631 2963 
Q 2534 3019 2420 3045 
Q 2306 3072 2169 3072 
Q 1681 3072 1420 2755 
Q 1159 2438 1159 1844 
L 1159 0 
L 581 0 
L 581 3500 
L 1159 3500 
L 1159 2956 
Q 1341 3275 1631 3429 
Q 1922 3584 2338 3584 
Q 2397 3584 2469 3576 
Q 2541 3569 2628 3553 
L 2631 2963 
z
" transform="scale(0.015625)"/>
       <path id="DejaVuSans-76" d="M 191 3500 
L 800 3500 
L 1894 563 
L 2988 3500 
L 3597 3500 
L 2284 0 
L 1503 0 
L 191 3500 
z
" transform="scale(0.015625)"/>
       <path id="DejaVuSans-64" d="M 2906 2969 
L 2906 4863 
L 3481 4863 
L 3481 0 
L 2906 0 
L 2906 525 
Q 2725 213 2448 61 
Q 2172 -91 1784 -91 
Q 1150 -91 751 415 
Q 353 922 353 1747 
Q 353 2572 751 3078 
Q 1150 3584 1784 3584 
Q 2172 3584 2448 3432 
Q 2725 3281 2906 2969 
z
M 947 1747 
Q 947 1113 1208 752 
Q 1469 391 1925 391 
Q 2381 391 2643 752 
Q 2906 1113 2906 1747 
Q 2906 2381 2643 2742 
Q 2381 3103 1925 3103 
Q 1469 3103 1208 2742 
Q 947 2381 947 1747 
z
" transform="scale(0.015625)"/>
      </defs>
      <use xlink:href="#DejaVuSans-4f"/>
      <use xlink:href="#DejaVuSans-62" x="78.710938"/>
      <use xlink:href="#DejaVuSans-73" x="142.1875"/>
      <use xlink:href="#DejaVuSans-65" x="194.287109"/>
      <use xlink:href="#DejaVuSans-72" x="255.810547"/>
      <use xlink:href="#DejaVuSans-76" x="296.923828"/>
      <use xlink:href="#DejaVuSans-65" x="356.103516"/>
      <use xlink:href="#DejaVuSans-64" x="417.626953"/>
     </g>
    </g>
    <g id="line2d_17">
     <path d="M 531.315625 62.336563 
L 541.315625 62.336563 
L 551.315625 62.336563 
" style="fill: none; stroke: #ff7f0e; stroke-opacity: 0.8; stroke-width: 1.8; stroke-linecap: square"/>
    </g>
    <g id="text_16">
     <!-- Hybrid Model -->
     <g transform="translate(559.315625 65.836563) scale(0.1 -0.1)">
      <defs>
       <path id="DejaVuSans-48" d="M 628 4666 
L 1259 4666 
L 1259 2753 
L 3553 2753 
L 3553 4666 
L 4184 4666 
L 4184 0 
L 3553 0 
L 3553 2222 
L 1259 2222 
L 1259 0 
L 628 0 
L 628 4666 
z
" transform="scale(0.015625)"/>
       <path id="DejaVuSans-79" d="M 2059 -325 
Q 1816 -950 1584 -1140 
Q 1353 -1331 966 -1331 
L 506 -1331 
L 506 -850 
L 844 -850 
Q 1081 -850 1212 -737 
Q 1344 -625 1503 -206 
L 1606 56 
L 191 3500 
L 800 3500 
L 1894 763 
L 2988 3500 
L 3597 3500 
L 2059 -325 
z
" transform="scale(0.015625)"/>
       <path id="DejaVuSans-4d" d="M 628 4666 
L 1569 4666 
L 2759 1491 
L 3956 4666 
L 4897 4666 
L 4897 0 
L 4281 0 
L 4281 4097 
L 3078 897 
L 2444 897 
L 1241 4097 
L 1241 0 
L 628 0 
L 628 4666 
z
" transform="scale(0.015625)"/>
       <path id="DejaVuSans-6f" d="M 1959 3097 
Q 1497 3097 1228 2736 
Q 959 2375 959 1747 
Q 959 1119 1226 758 
Q 1494 397 1959 397 
Q 2419 397 2687 759 
Q 2956 1122 2956 1747 
Q 2956 2369 2687 2733 
Q 2419 3097 1959 3097 
z
M 1959 3584 
Q 2709 3584 3137 3096 
Q 3566 2609 3566 1747 
Q 3566 888 3137 398 
Q 2709 -91 1959 -91 
Q 1206 -91 779 398 
Q 353 888 353 1747 
Q 353 2609 779 3096 
Q 1206 3584 1959 3584 
z
" transform="scale(0.015625)"/>
       <path id="DejaVuSans-6c" d="M 603 4863 
L 1178 4863 
L 1178 0 
L 603 0 
L 603 4863 
z
" transform="scale(0.015625)"/>
      </defs>
      <use xlink:href="#DejaVuSans-48"/>
      <use xlink:href="#DejaVuSans-79" x="75.195312"/>
      <use xlink:href="#DejaVuSans-62" x="134.375"/>
      <use xlink:href="#DejaVuSans-72" x="197.851562"/>
      <use xlink:href="#DejaVuSans-69" x="238.964844"/>
      <use xlink:href="#DejaVuSans-64" x="266.748047"/>
      <use xlink:href="#DejaVuSans-20" x="330.224609"/>
      <use xlink:href="#DejaVuSans-4d" x="362.011719"/>
      <use xlink:href="#DejaVuSans-6f" x="448.291016"/>
      <use xlink:href="#DejaVuSans-64" x="509.472656"/>
      <use xlink:href="#DejaVuSans-65" x="572.949219"/>
      <use xlink:href="#DejaVuSans-6c" x="634.472656"/>
     </g>
    </g>
    <g id="line2d_18">
     <path d="M 531.315625 77.014688 
L 541.315625 77.014688 
L 551.315625 77.014688 
" style="fill: none; stroke: #2ca02c; stroke-opacity: 0.6; stroke-width: 1.5; stroke-linecap: square"/>
    </g>
    <g id="text_17">
     <!-- Empirical Model -->
     <g transform="translate(559.315625 80.514688) scale(0.1 -0.1)">
      <defs>
       <path id="DejaVuSans-63" d="M 3122 3366 
L 3122 2828 
Q 2878 2963 2633 3030 
Q 2388 3097 2138 3097 
Q 1578 3097 1268 2742 
Q 959 2388 959 1747 
Q 959 1106 1268 751 
Q 1578 397 2138 397 
Q 2388 397 2633 464 
Q 2878 531 3122 666 
L 3122 134 
Q 2881 22 2623 -34 
Q 2366 -91 2075 -91 
Q 1284 -91 818 406 
Q 353 903 353 1747 
Q 353 2603 823 3093 
Q 1294 3584 2113 3584 
Q 2378 3584 2631 3529 
Q 2884 3475 3122 3366 
z
" transform="scale(0.015625)"/>
       <path id="DejaVuSans-61" d="M 2194 1759 
Q 1497 1759 1228 1600 
Q 959 1441 959 1056 
Q 959 750 1161 570 
Q 1363 391 1709 391 
Q 2188 391 2477 730 
Q 2766 1069 2766 1631 
L 2766 1759 
L 2194 1759 
z
M 3341 1997 
L 3341 0 
L 2766 0 
L 2766 531 
Q 2569 213 2275 61 
Q 1981 -91 1556 -91 
Q 1019 -91 701 211 
Q 384 513 384 1019 
Q 384 1609 779 1909 
Q 1175 2209 1959 2209 
L 2766 2209 
L 2766 2266 
Q 2766 2663 2505 2880 
Q 2244 3097 1772 3097 
Q 1472 3097 1187 3025 
Q 903 2953 641 2809 
L 641 3341 
Q 956 3463 1253 3523 
Q 1550 3584 1831 3584 
Q 2591 3584 2966 3190 
Q 3341 2797 3341 1997 
z
" transform="scale(0.015625)"/>
      </defs>
      <use xlink:href="#DejaVuSans-45"/>
      <use xlink:href="#DejaVuSans-6d" x="63.183594"/>
      <use xlink:href="#DejaVuSans-70" x="160.595703"/>
      <use xlink:href="#DejaVuSans-69" x="224.072266"/>
      <use xlink:href="#DejaVuSans-72" x="251.855469"/>
      <use xlink:href="#DejaVuSans-69" x="292.96875"/>
      <use xlink:href="#DejaVuSans-63" x="320.751953"/>
      <use xlink:href="#DejaVuSans-61" x="375.732422"/>
      <use xlink:href="#DejaVuSans-6c" x="437.011719"/>
      <use xlink:href="#DejaVuSans-20" x="464.794922"/>
      <use xlink:href="#DejaVuSans-4d" x="496.582031"/>
      <use xlink:href="#DejaVuSans-6f" x="582.861328"/>
      <use xlink:href="#DejaVuSans-64" x="644.042969"/>
      <use xlink:href="#DejaVuSans-65" x="707.519531"/>
      <use xlink:href="#DejaVuSans-6c" x="769.042969"/>
     </g>
    </g>
   </g>
  </g>
 </g>
 <defs>
  <clipPath id="p8f1094b153">
   <rect x="90" y="34.56" width="558" height="221.76"/>
  </clipPath>
 </defs>
</svg>
