<?xml version="1.0" encoding="utf-8" standalone="no"?>
<!DOCTYPE svg PUBLIC "-//W3C//DTD SVG 1.1//EN"
  "http://www.w3.org/Graphics/SVG/1.1/DTD/svg11.dtd">
<svg xmlns:xlink="http://www.w3.org/1999/xlink" width="720pt" height="288pt" viewBox="0 0 720 288" xmlns="http://www.w3.org/2000/svg" version="1.1">
 <metadata>
  <rdf:RDF xmlns:dc="http://purl.org/dc/elements/1.1/" xmlns:cc="http://creativecommons.org/ns#" xmlns:rdf="http://www.w3.org/1999/02/22-rdf-syntax-ns#">
   <cc:Work>
    <dc:type rdf:resource="http://purl.org/dc/dcmitype/StillImage"/>
    <dc:date>2025-01-06T16:19:14.343531</dc:date>
    <dc:format>image/svg+xml</dc:format>
    <dc:creator>
     <cc:Agent>
      <dc:title>Matplotlib v3.6.0, https://matplotlib.org/</dc:title>
     </cc:Agent>
    </dc:creator>
   </cc:Work>
  </rdf:RDF>
 </metadata>
 <defs>
  <style type="text/css">*{stroke-linejoin: round; stroke-linecap: butt}</style>
 </defs>
 <g id="figure_1">
  <g id="patch_1">
   <path d="M 0 288 
L 720 288 
L 720 0 
L 0 0 
z
" style="fill: #ffffff"/>
  </g>
  <g id="axes_1">
   <g id="patch_2">
    <path d="M 90 256.32 
L 648 256.32 
L 648 34.56 
L 90 34.56 
z
" style="fill: #ffffff"/>
   </g>
   <g id="matplotlib.axis_1">
    <g id="xtick_1">
     <g id="line2d_1">
      <defs>
       <path id="m7e3a875346" d="M 0 0 
L 0 3.5 
" style="stroke: #000000; stroke-width: 0.8"/>
      </defs>
      <g>
       <use xlink:href="#m7e3a875346" x="115.363636" y="256.32" style="stroke: #000000; stroke-width: 0.8"/>
      </g>
     </g>
     <g id="text_1">
      <!-- 0 -->
      <g transform="translate(112.182386 270.918437) scale(0.1 -0.1)">
       <defs>
        <path id="DejaVuSans-30" d="M 2034 4250 
Q 1547 4250 1301 3770 
Q 1056 3291 1056 2328 
Q 1056 1369 1301 889 
Q 1547 409 2034 409 
Q 2525 409 2770 889 
Q 3016 1369 3016 2328 
Q 3016 3291 2770 3770 
Q 2525 4250 2034 4250 
z
M 2034 4750 
Q 2819 4750 3233 4129 
Q 3647 3509 3647 2328 
Q 3647 1150 3233 529 
Q 2819 -91 2034 -91 
Q 1250 -91 836 529 
Q 422 1150 422 2328 
Q 422 3509 836 4129 
Q 1250 4750 2034 4750 
z
" transform="scale(0.015625)"/>
       </defs>
       <use xlink:href="#DejaVuSans-30"/>
      </g>
     </g>
    </g>
    <g id="xtick_2">
     <g id="line2d_2">
      <g>
       <use xlink:href="#m7e3a875346" x="200.191852" y="256.32" style="stroke: #000000; stroke-width: 0.8"/>
      </g>
     </g>
     <g id="text_2">
      <!-- 50 -->
      <g transform="translate(193.829352 270.918437) scale(0.1 -0.1)">
       <defs>
        <path id="DejaVuSans-35" d="M 691 4666 
L 3169 4666 
L 3169 4134 
L 1269 4134 
L 1269 2991 
Q 1406 3038 1543 3061 
Q 1681 3084 1819 3084 
Q 2600 3084 3056 2656 
Q 3513 2228 3513 1497 
Q 3513 744 3044 326 
Q 2575 -91 1722 -91 
Q 1428 -91 1123 -41 
Q 819 9 494 109 
L 494 744 
Q 775 591 1075 516 
Q 1375 441 1709 441 
Q 2250 441 2565 725 
Q 2881 1009 2881 1497 
Q 2881 1984 2565 2268 
Q 2250 2553 1709 2553 
Q 1456 2553 1204 2497 
Q 953 2441 691 2322 
L 691 4666 
z
" transform="scale(0.015625)"/>
       </defs>
       <use xlink:href="#DejaVuSans-35"/>
       <use xlink:href="#DejaVuSans-30" x="63.623047"/>
      </g>
     </g>
    </g>
    <g id="xtick_3">
     <g id="line2d_3">
      <g>
       <use xlink:href="#m7e3a875346" x="285.020067" y="256.32" style="stroke: #000000; stroke-width: 0.8"/>
      </g>
     </g>
     <g id="text_3">
      <!-- 100 -->
      <g transform="translate(275.476317 270.918437) scale(0.1 -0.1)">
       <defs>
        <path id="DejaVuSans-31" d="M 794 531 
L 1825 531 
L 1825 4091 
L 703 3866 
L 703 4441 
L 1819 4666 
L 2450 4666 
L 2450 531 
L 3481 531 
L 3481 0 
L 794 0 
L 794 531 
z
" transform="scale(0.015625)"/>
       </defs>
       <use xlink:href="#DejaVuSans-31"/>
       <use xlink:href="#DejaVuSans-30" x="63.623047"/>
       <use xlink:href="#DejaVuSans-30" x="127.246094"/>
      </g>
     </g>
    </g>
    <g id="xtick_4">
     <g id="line2d_4">
      <g>
       <use xlink:href="#m7e3a875346" x="369.848282" y="256.32" style="stroke: #000000; stroke-width: 0.8"/>
      </g>
     </g>
     <g id="text_4">
      <!-- 150 -->
      <g transform="translate(360.304532 270.918437) scale(0.1 -0.1)">
       <use xlink:href="#DejaVuSans-31"/>
       <use xlink:href="#DejaVuSans-35" x="63.623047"/>
       <use xlink:href="#DejaVuSans-30" x="127.246094"/>
      </g>
     </g>
    </g>
    <g id="xtick_5">
     <g id="line2d_5">
      <g>
       <use xlink:href="#m7e3a875346" x="454.676497" y="256.32" style="stroke: #000000; stroke-width: 0.8"/>
      </g>
     </g>
     <g id="text_5">
      <!-- 200 -->
      <g transform="translate(445.132747 270.918437) scale(0.1 -0.1)">
       <defs>
        <path id="DejaVuSans-32" d="M 1228 531 
L 3431 531 
L 3431 0 
L 469 0 
L 469 531 
Q 828 903 1448 1529 
Q 2069 2156 2228 2338 
Q 2531 2678 2651 2914 
Q 2772 3150 2772 3378 
Q 2772 3750 2511 3984 
Q 2250 4219 1831 4219 
Q 1534 4219 1204 4116 
Q 875 4013 500 3803 
L 500 4441 
Q 881 4594 1212 4672 
Q 1544 4750 1819 4750 
Q 2544 4750 2975 4387 
Q 3406 4025 3406 3419 
Q 3406 3131 3298 2873 
Q 3191 2616 2906 2266 
Q 2828 2175 2409 1742 
Q 1991 1309 1228 531 
z
" transform="scale(0.015625)"/>
       </defs>
       <use xlink:href="#DejaVuSans-32"/>
       <use xlink:href="#DejaVuSans-30" x="63.623047"/>
       <use xlink:href="#DejaVuSans-30" x="127.246094"/>
      </g>
     </g>
    </g>
    <g id="xtick_6">
     <g id="line2d_6">
      <g>
       <use xlink:href="#m7e3a875346" x="539.504713" y="256.32" style="stroke: #000000; stroke-width: 0.8"/>
      </g>
     </g>
     <g id="text_6">
      <!-- 250 -->
      <g transform="translate(529.960963 270.918437) scale(0.1 -0.1)">
       <use xlink:href="#DejaVuSans-32"/>
       <use xlink:href="#DejaVuSans-35" x="63.623047"/>
       <use xlink:href="#DejaVuSans-30" x="127.246094"/>
      </g>
     </g>
    </g>
    <g id="xtick_7">
     <g id="line2d_7">
      <g>
       <use xlink:href="#m7e3a875346" x="624.332928" y="256.32" style="stroke: #000000; stroke-width: 0.8"/>
      </g>
     </g>
     <g id="text_7">
      <!-- 300 -->
      <g transform="translate(614.789178 270.918437) scale(0.1 -0.1)">
       <defs>
        <path id="DejaVuSans-33" d="M 2597 2516 
Q 3050 2419 3304 2112 
Q 3559 1806 3559 1356 
Q 3559 666 3084 287 
Q 2609 -91 1734 -91 
Q 1441 -91 1130 -33 
Q 819 25 488 141 
L 488 750 
Q 750 597 1062 519 
Q 1375 441 1716 441 
Q 2309 441 2620 675 
Q 2931 909 2931 1356 
Q 2931 1769 2642 2001 
Q 2353 2234 1838 2234 
L 1294 2234 
L 1294 2753 
L 1863 2753 
Q 2328 2753 2575 2939 
Q 2822 3125 2822 3475 
Q 2822 3834 2567 4026 
Q 2313 4219 1838 4219 
Q 1578 4219 1281 4162 
Q 984 4106 628 3988 
L 628 4550 
Q 988 4650 1302 4700 
Q 1616 4750 1894 4750 
Q 2613 4750 3031 4423 
Q 3450 4097 3450 3541 
Q 3450 3153 3228 2886 
Q 3006 2619 2597 2516 
z
" transform="scale(0.015625)"/>
       </defs>
       <use xlink:href="#DejaVuSans-33"/>
       <use xlink:href="#DejaVuSans-30" x="63.623047"/>
       <use xlink:href="#DejaVuSans-30" x="127.246094"/>
      </g>
     </g>
    </g>
    <g id="text_8">
     <!-- Timestep -->
     <g transform="translate(345.950781 284.596563) scale(0.1 -0.1)">
      <defs>
       <path id="DejaVuSans-54" d="M -19 4666 
L 3928 4666 
L 3928 4134 
L 2272 4134 
L 2272 0 
L 1638 0 
L 1638 4134 
L -19 4134 
L -19 4666 
z
" transform="scale(0.015625)"/>
       <path id="DejaVuSans-69" d="M 603 3500 
L 1178 3500 
L 1178 0 
L 603 0 
L 603 3500 
z
M 603 4863 
L 1178 4863 
L 1178 4134 
L 603 4134 
L 603 4863 
z
" transform="scale(0.015625)"/>
       <path id="DejaVuSans-6d" d="M 3328 2828 
Q 3544 3216 3844 3400 
Q 4144 3584 4550 3584 
Q 5097 3584 5394 3201 
Q 5691 2819 5691 2113 
L 5691 0 
L 5113 0 
L 5113 2094 
Q 5113 2597 4934 2840 
Q 4756 3084 4391 3084 
Q 3944 3084 3684 2787 
Q 3425 2491 3425 1978 
L 3425 0 
L 2847 0 
L 2847 2094 
Q 2847 2600 2669 2842 
Q 2491 3084 2119 3084 
Q 1678 3084 1418 2786 
Q 1159 2488 1159 1978 
L 1159 0 
L 581 0 
L 581 3500 
L 1159 3500 
L 1159 2956 
Q 1356 3278 1631 3431 
Q 1906 3584 2284 3584 
Q 2666 3584 2933 3390 
Q 3200 3197 3328 2828 
z
" transform="scale(0.015625)"/>
       <path id="DejaVuSans-65" d="M 3597 1894 
L 3597 1613 
L 953 1613 
Q 991 1019 1311 708 
Q 1631 397 2203 397 
Q 2534 397 2845 478 
Q 3156 559 3463 722 
L 3463 178 
Q 3153 47 2828 -22 
Q 2503 -91 2169 -91 
Q 1331 -91 842 396 
Q 353 884 353 1716 
Q 353 2575 817 3079 
Q 1281 3584 2069 3584 
Q 2775 3584 3186 3129 
Q 3597 2675 3597 1894 
z
M 3022 2063 
Q 3016 2534 2758 2815 
Q 2500 3097 2075 3097 
Q 1594 3097 1305 2825 
Q 1016 2553 972 2059 
L 3022 2063 
z
" transform="scale(0.015625)"/>
       <path id="DejaVuSans-73" d="M 2834 3397 
L 2834 2853 
Q 2591 2978 2328 3040 
Q 2066 3103 1784 3103 
Q 1356 3103 1142 2972 
Q 928 2841 928 2578 
Q 928 2378 1081 2264 
Q 1234 2150 1697 2047 
L 1894 2003 
Q 2506 1872 2764 1633 
Q 3022 1394 3022 966 
Q 3022 478 2636 193 
Q 2250 -91 1575 -91 
Q 1294 -91 989 -36 
Q 684 19 347 128 
L 347 722 
Q 666 556 975 473 
Q 1284 391 1588 391 
Q 1994 391 2212 530 
Q 2431 669 2431 922 
Q 2431 1156 2273 1281 
Q 2116 1406 1581 1522 
L 1381 1569 
Q 847 1681 609 1914 
Q 372 2147 372 2553 
Q 372 3047 722 3315 
Q 1072 3584 1716 3584 
Q 2034 3584 2315 3537 
Q 2597 3491 2834 3397 
z
" transform="scale(0.015625)"/>
       <path id="DejaVuSans-74" d="M 1172 4494 
L 1172 3500 
L 2356 3500 
L 2356 3053 
L 1172 3053 
L 1172 1153 
Q 1172 725 1289 603 
Q 1406 481 1766 481 
L 2356 481 
L 2356 0 
L 1766 0 
Q 1100 0 847 248 
Q 594 497 594 1153 
L 594 3053 
L 172 3053 
L 172 3500 
L 594 3500 
L 594 4494 
L 1172 4494 
z
" transform="scale(0.015625)"/>
       <path id="DejaVuSans-70" d="M 1159 525 
L 1159 -1331 
L 581 -1331 
L 581 3500 
L 1159 3500 
L 1159 2969 
Q 1341 3281 1617 3432 
Q 1894 3584 2278 3584 
Q 2916 3584 3314 3078 
Q 3713 2572 3713 1747 
Q 3713 922 3314 415 
Q 2916 -91 2278 -91 
Q 1894 -91 1617 61 
Q 1341 213 1159 525 
z
M 3116 1747 
Q 3116 2381 2855 2742 
Q 2594 3103 2138 3103 
Q 1681 3103 1420 2742 
Q 1159 2381 1159 1747 
Q 1159 1113 1420 752 
Q 1681 391 2138 391 
Q 2594 391 2855 752 
Q 3116 1113 3116 1747 
z
" transform="scale(0.015625)"/>
      </defs>
      <use xlink:href="#DejaVuSans-54"/>
      <use xlink:href="#DejaVuSans-69" x="57.958984"/>
      <use xlink:href="#DejaVuSans-6d" x="85.742188"/>
      <use xlink:href="#DejaVuSans-65" x="183.154297"/>
      <use xlink:href="#DejaVuSans-73" x="244.677734"/>
      <use xlink:href="#DejaVuSans-74" x="296.777344"/>
      <use xlink:href="#DejaVuSans-65" x="335.986328"/>
      <use xlink:href="#DejaVuSans-70" x="397.509766"/>
     </g>
    </g>
   </g>
   <g id="matplotlib.axis_2">
    <g id="ytick_1">
     <g id="line2d_8">
      <defs>
       <path id="mb9fec0cfce" d="M 0 0 
L -3.5 0 
" style="stroke: #000000; stroke-width: 0.8"/>
      </defs>
      <g>
       <use xlink:href="#mb9fec0cfce" x="90" y="241.3027" style="stroke: #000000; stroke-width: 0.8"/>
      </g>
     </g>
     <g id="text_9">
      <!-- 0 -->
      <g transform="translate(76.6375 245.101919) scale(0.1 -0.1)">
       <use xlink:href="#DejaVuSans-30"/>
      </g>
     </g>
    </g>
    <g id="ytick_2">
     <g id="line2d_9">
      <g>
       <use xlink:href="#mb9fec0cfce" x="90" y="212.393809" style="stroke: #000000; stroke-width: 0.8"/>
      </g>
     </g>
     <g id="text_10">
      <!-- 50 -->
      <g transform="translate(70.275 216.193028) scale(0.1 -0.1)">
       <use xlink:href="#DejaVuSans-35"/>
       <use xlink:href="#DejaVuSans-30" x="63.623047"/>
      </g>
     </g>
    </g>
    <g id="ytick_3">
     <g id="line2d_10">
      <g>
       <use xlink:href="#mb9fec0cfce" x="90" y="183.484918" style="stroke: #000000; stroke-width: 0.8"/>
      </g>
     </g>
     <g id="text_11">
      <!-- 100 -->
      <g transform="translate(63.9125 187.284137) scale(0.1 -0.1)">
       <use xlink:href="#DejaVuSans-31"/>
       <use xlink:href="#DejaVuSans-30" x="63.623047"/>
       <use xlink:href="#DejaVuSans-30" x="127.246094"/>
      </g>
     </g>
    </g>
    <g id="ytick_4">
     <g id="line2d_11">
      <g>
       <use xlink:href="#mb9fec0cfce" x="90" y="154.576027" style="stroke: #000000; stroke-width: 0.8"/>
      </g>
     </g>
     <g id="text_12">
      <!-- 150 -->
      <g transform="translate(63.9125 158.375246) scale(0.1 -0.1)">
       <use xlink:href="#DejaVuSans-31"/>
       <use xlink:href="#DejaVuSans-35" x="63.623047"/>
       <use xlink:href="#DejaVuSans-30" x="127.246094"/>
      </g>
     </g>
    </g>
    <g id="ytick_5">
     <g id="line2d_12">
      <g>
       <use xlink:href="#mb9fec0cfce" x="90" y="125.667136" style="stroke: #000000; stroke-width: 0.8"/>
      </g>
     </g>
     <g id="text_13">
      <!-- 200 -->
      <g transform="translate(63.9125 129.466355) scale(0.1 -0.1)">
       <use xlink:href="#DejaVuSans-32"/>
       <use xlink:href="#DejaVuSans-30" x="63.623047"/>
       <use xlink:href="#DejaVuSans-30" x="127.246094"/>
      </g>
     </g>
    </g>
    <g id="ytick_6">
     <g id="line2d_13">
      <g>
       <use xlink:href="#mb9fec0cfce" x="90" y="96.758245" style="stroke: #000000; stroke-width: 0.8"/>
      </g>
     </g>
     <g id="text_14">
      <!-- 250 -->
      <g transform="translate(63.9125 100.557464) scale(0.1 -0.1)">
       <use xlink:href="#DejaVuSans-32"/>
       <use xlink:href="#DejaVuSans-35" x="63.623047"/>
       <use xlink:href="#DejaVuSans-30" x="127.246094"/>
      </g>
     </g>
    </g>
    <g id="ytick_7">
     <g id="line2d_14">
      <g>
       <use xlink:href="#mb9fec0cfce" x="90" y="67.849354" style="stroke: #000000; stroke-width: 0.8"/>
      </g>
     </g>
     <g id="text_15">
      <!-- 300 -->
      <g transform="translate(63.9125 71.648573) scale(0.1 -0.1)">
       <use xlink:href="#DejaVuSans-33"/>
       <use xlink:href="#DejaVuSans-30" x="63.623047"/>
       <use xlink:href="#DejaVuSans-30" x="127.246094"/>
      </g>
     </g>
    </g>
    <g id="ytick_8">
     <g id="line2d_15">
      <g>
       <use xlink:href="#mb9fec0cfce" x="90" y="38.940463" style="stroke: #000000; stroke-width: 0.8"/>
      </g>
     </g>
     <g id="text_16">
      <!-- 350 -->
      <g transform="translate(63.9125 42.739682) scale(0.1 -0.1)">
       <use xlink:href="#DejaVuSans-33"/>
       <use xlink:href="#DejaVuSans-35" x="63.623047"/>
       <use xlink:href="#DejaVuSans-30" x="127.246094"/>
      </g>
     </g>
    </g>
    <g id="text_17">
     <!-- Q_LE [W/m²] -->
     <g transform="translate(57.554687 176.815) rotate(-90) scale(0.1 -0.1)">
      <defs>
       <path id="DejaVuSans-51" d="M 2522 4238 
Q 1834 4238 1429 3725 
Q 1025 3213 1025 2328 
Q 1025 1447 1429 934 
Q 1834 422 2522 422 
Q 3209 422 3611 934 
Q 4013 1447 4013 2328 
Q 4013 3213 3611 3725 
Q 3209 4238 2522 4238 
z
M 3406 84 
L 4238 -825 
L 3475 -825 
L 2784 -78 
Q 2681 -84 2626 -87 
Q 2572 -91 2522 -91 
Q 1538 -91 948 567 
Q 359 1225 359 2328 
Q 359 3434 948 4092 
Q 1538 4750 2522 4750 
Q 3503 4750 4090 4092 
Q 4678 3434 4678 2328 
Q 4678 1516 4351 937 
Q 4025 359 3406 84 
z
" transform="scale(0.015625)"/>
       <path id="DejaVuSans-5f" d="M 3263 -1063 
L 3263 -1509 
L -63 -1509 
L -63 -1063 
L 3263 -1063 
z
" transform="scale(0.015625)"/>
       <path id="DejaVuSans-4c" d="M 628 4666 
L 1259 4666 
L 1259 531 
L 3531 531 
L 3531 0 
L 628 0 
L 628 4666 
z
" transform="scale(0.015625)"/>
       <path id="DejaVuSans-45" d="M 628 4666 
L 3578 4666 
L 3578 4134 
L 1259 4134 
L 1259 2753 
L 3481 2753 
L 3481 2222 
L 1259 2222 
L 1259 531 
L 3634 531 
L 3634 0 
L 628 0 
L 628 4666 
z
" transform="scale(0.015625)"/>
       <path id="DejaVuSans-20" transform="scale(0.015625)"/>
       <path id="DejaVuSans-5b" d="M 550 4863 
L 1875 4863 
L 1875 4416 
L 1125 4416 
L 1125 -397 
L 1875 -397 
L 1875 -844 
L 550 -844 
L 550 4863 
z
" transform="scale(0.015625)"/>
       <path id="DejaVuSans-57" d="M 213 4666 
L 850 4666 
L 1831 722 
L 2809 4666 
L 3519 4666 
L 4500 722 
L 5478 4666 
L 6119 4666 
L 4947 0 
L 4153 0 
L 3169 4050 
L 2175 0 
L 1381 0 
L 213 4666 
z
" transform="scale(0.015625)"/>
       <path id="DejaVuSans-2f" d="M 1625 4666 
L 2156 4666 
L 531 -594 
L 0 -594 
L 1625 4666 
z
" transform="scale(0.015625)"/>
       <path id="DejaVuSans-b2" d="M 838 2444 
L 2163 2444 
L 2163 2088 
L 294 2088 
L 294 2431 
Q 400 2528 597 2703 
Q 1672 3656 1672 3950 
Q 1672 4156 1509 4282 
Q 1347 4409 1081 4409 
Q 919 4409 728 4354 
Q 538 4300 313 4191 
L 313 4575 
Q 553 4663 761 4706 
Q 969 4750 1147 4750 
Q 1600 4750 1872 4544 
Q 2144 4338 2144 4000 
Q 2144 3566 1109 2678 
Q 934 2528 838 2444 
z
" transform="scale(0.015625)"/>
       <path id="DejaVuSans-5d" d="M 1947 4863 
L 1947 -844 
L 622 -844 
L 622 -397 
L 1369 -397 
L 1369 4416 
L 622 4416 
L 622 4863 
L 1947 4863 
z
" transform="scale(0.015625)"/>
      </defs>
      <use xlink:href="#DejaVuSans-51"/>
      <use xlink:href="#DejaVuSans-5f" x="78.710938"/>
      <use xlink:href="#DejaVuSans-4c" x="128.710938"/>
      <use xlink:href="#DejaVuSans-45" x="184.423828"/>
      <use xlink:href="#DejaVuSans-20" x="247.607422"/>
      <use xlink:href="#DejaVuSans-5b" x="279.394531"/>
      <use xlink:href="#DejaVuSans-57" x="318.408203"/>
      <use xlink:href="#DejaVuSans-2f" x="417.285156"/>
      <use xlink:href="#DejaVuSans-6d" x="450.976562"/>
      <use xlink:href="#DejaVuSans-b2" x="548.388672"/>
      <use xlink:href="#DejaVuSans-5d" x="588.476562"/>
     </g>
    </g>
   </g>
   <g id="line2d_16">
    <path d="M 115.363636 239.546707 
L 117.060201 232.03052 
L 118.756765 225.580281 
L 120.453329 211.93173 
L 122.149894 212.094486 
L 123.846458 219.583912 
L 125.543022 218.471006 
L 127.239587 182.489644 
L 130.632715 239.040686 
L 132.329279 239.649403 
L 134.025844 241.076775 
L 135.722408 241.208325 
L 137.418972 228.729538 
L 139.115537 240.065741 
L 140.812101 239.648181 
L 144.20523 239.51099 
L 145.901794 239.480087 
L 147.598358 239.167218 
L 149.294922 239.14512 
L 150.991487 237.006573 
L 152.688051 231.482292 
L 154.384615 230.390519 
L 156.08118 234.55744 
L 157.777744 226.332896 
L 159.474308 229.014542 
L 161.170873 231.978253 
L 162.867437 232.405324 
L 164.564001 237.48193 
L 166.260566 239.762845 
L 167.95713 238.370428 
L 169.653694 239.857883 
L 171.350258 238.546541 
L 173.046823 238.561328 
L 174.743387 238.263124 
L 178.136516 238.525865 
L 179.83308 239.449455 
L 181.529644 240.193983 
L 184.922773 239.449455 
L 186.619337 239.257757 
L 188.315901 239.433107 
L 190.012466 238.697399 
L 191.70903 235.254116 
L 193.405594 234.807364 
L 195.102159 233.682808 
L 196.798723 221.053929 
L 198.495287 224.952351 
L 200.191852 213.240811 
L 201.888416 223.40269 
L 203.58498 223.00129 
L 205.281545 233.924862 
L 206.978109 239.87866 
L 210.371237 239.346759 
L 212.067802 239.324696 
L 213.764366 238.976925 
L 223.943752 239.012896 
L 225.640316 239.425576 
L 229.033445 238.984996 
L 230.730009 236.605283 
L 234.123138 209.85373 
L 235.819702 206.068774 
L 237.516266 175.592358 
L 239.212831 182.589147 
L 240.909395 192.523688 
L 242.605959 201.119862 
L 244.302524 212.635776 
L 245.999088 223.354326 
L 247.695652 240.088353 
L 249.392216 217.979889 
L 251.088781 218.628352 
L 252.785345 240.051717 
L 254.481909 239.211382 
L 256.178474 239.135106 
L 257.875038 239.306943 
L 259.571602 235.65867 
L 261.268167 239.339101 
L 262.964731 234.596167 
L 264.661295 225.095885 
L 266.35786 207.008255 
L 268.054424 208.394639 
L 269.750988 192.319329 
L 271.447552 159.007474 
L 274.840681 187.92865 
L 276.537245 182.757657 
L 278.23381 212.262244 
L 279.930374 233.075707 
L 281.626938 240.571007 
L 283.323503 238.992619 
L 285.020067 240.272983 
L 286.716631 240.706665 
L 288.413196 239.2631 
L 290.10976 239.454774 
L 293.502888 238.964734 
L 295.199453 238.869433 
L 296.896017 210.240155 
L 298.592581 240.301004 
L 300.289146 239.744262 
L 301.98571 240.819812 
L 303.682274 239.244511 
L 305.378839 228.287888 
L 307.075403 207.147743 
L 308.771967 200.593198 
L 310.468531 181.762961 
L 312.165096 178.470093 
L 313.86166 174.851364 
L 315.558224 202.05252 
L 317.254789 199.46075 
L 318.951353 226.029208 
L 320.647917 239.851153 
L 322.344482 241.21737 
L 324.041046 238.891717 
L 325.73761 238.987542 
L 327.434175 236.571835 
L 329.130739 239.492055 
L 330.827303 239.773032 
L 332.523867 239.269538 
L 334.220432 239.703628 
L 335.916996 238.821389 
L 337.61356 236.567106 
L 339.310125 230.163729 
L 341.006689 210.762104 
L 342.703253 183.321613 
L 344.399818 149.12063 
L 346.096382 129.953747 
L 347.792946 141.362349 
L 349.48951 164.008417 
L 351.186075 166.709954 
L 352.882639 229.071187 
L 354.579203 232.742026 
L 356.275768 239.051325 
L 364.758589 238.854779 
L 368.151718 238.536347 
L 369.848282 239.161551 
L 371.544846 238.878851 
L 373.241411 224.55264 
L 374.937975 231.932375 
L 376.634539 228.875981 
L 378.331104 219.964325 
L 380.027668 183.830725 
L 381.724232 144.574705 
L 383.420797 150.224087 
L 385.117361 145.750716 
L 386.813925 154.199633 
L 388.51049 186.060816 
L 390.207054 201.129055 
L 391.903618 239.43204 
L 395.296747 239.3784 
L 400.38644 239.41118 
L 402.083004 239.698838 
L 410.565825 239.600614 
L 412.26239 239.557551 
L 413.958954 235.189461 
L 417.352083 209.784695 
L 419.048647 183.980996 
L 420.745211 149.115716 
L 422.441776 133.415298 
L 424.13834 138.580742 
L 425.834904 141.843393 
L 427.531469 183.364428 
L 429.228033 216.070963 
L 430.924597 234.335973 
L 432.621161 239.130203 
L 436.01429 238.95304 
L 451.283369 238.759625 
L 452.979933 236.219175 
L 454.676497 227.944219 
L 456.373062 222.67066 
L 458.069626 221.388695 
L 459.76619 207.899373 
L 461.462755 214.142941 
L 463.159319 178.844462 
L 464.855883 200.971731 
L 466.552448 228.995549 
L 468.249012 184.922846 
L 469.945576 238.683728 
L 475.035269 238.683728 
L 476.731833 238.081223 
L 478.428398 240.423508 
L 480.124962 238.180317 
L 481.821526 238.29778 
L 483.518091 238.814373 
L 485.214655 237.590587 
L 486.911219 232.077295 
L 488.607784 227.752438 
L 490.304348 225.136963 
L 492.000912 206.325139 
L 495.394041 165.467166 
L 497.090605 171.317454 
L 498.787169 198.792987 
L 500.483734 231.383314 
L 502.180298 237.902043 
L 503.876862 237.866936 
L 505.573427 238.245669 
L 510.663119 237.93197 
L 512.359684 237.92752 
L 514.056248 237.730714 
L 519.145941 237.570897 
L 520.842505 238.78146 
L 522.53907 237.920513 
L 524.235634 237.590524 
L 525.932198 231.124304 
L 529.325327 212.613661 
L 531.021891 193.846675 
L 532.718455 149.642151 
L 534.41502 149.392956 
L 536.111584 160.485579 
L 537.808148 186.008345 
L 539.504713 214.889254 
L 541.201277 240.32056 
L 542.897841 237.491687 
L 544.594406 237.517063 
L 546.29097 237.848475 
L 556.470356 237.903477 
L 558.16692 238.307357 
L 563.256613 238.319106 
L 564.953177 235.252575 
L 566.649742 225.517492 
L 568.346306 206.130177 
L 570.04287 208.051838 
L 571.739434 160.448004 
L 573.435999 148.039731 
L 575.132563 152.585365 
L 576.829127 156.420989 
L 578.525692 195.558024 
L 580.222256 220.466038 
L 581.91882 237.672934 
L 583.615385 238.296727 
L 593.79477 238.009379 
L 595.491335 237.724554 
L 603.974156 237.616068 
L 605.670721 233.563992 
L 607.367285 228.983379 
L 609.063849 233.307657 
L 610.760413 215.481713 
L 612.456978 205.321942 
L 614.153542 198.866009 
L 615.850106 158.442591 
L 617.546671 191.295321 
L 619.243235 204.115198 
L 620.939799 228.533239 
L 622.636364 239.222339 
L 622.636364 239.222339 
" clip-path="url(#p1e938c37b7)" style="fill: none; stroke: #1f77b4; stroke-opacity: 0.6; stroke-width: 1.5; stroke-linecap: square"/>
   </g>
   <g id="line2d_17">
    <path d="M 115.363636 240.967246 
L 117.060201 239.320347 
L 118.756765 229.286357 
L 120.453329 214.381498 
L 122.149894 201.288685 
L 123.846458 226.411936 
L 125.543022 206.734325 
L 127.239587 220.033692 
L 128.936151 228.69353 
L 130.632715 234.299052 
L 132.329279 236.420937 
L 134.025844 238.927146 
L 135.722408 236.844076 
L 137.418972 229.191058 
L 139.115537 235.652341 
L 140.812101 231.515303 
L 142.508665 233.884383 
L 144.20523 235.872854 
L 145.901794 235.234448 
L 147.598358 233.575099 
L 149.294922 222.256006 
L 150.991487 230.895291 
L 152.688051 225.295729 
L 154.384615 206.180191 
L 156.08118 211.256163 
L 157.777744 203.618164 
L 159.474308 205.045858 
L 162.867437 215.248013 
L 164.564001 221.256087 
L 166.260566 223.625285 
L 167.95713 235.258762 
L 169.653694 235.401885 
L 171.350258 236.982041 
L 173.046823 236.621431 
L 174.743387 235.030526 
L 176.439951 235.241891 
L 179.83308 234.710223 
L 181.529644 233.735926 
L 183.226209 235.939258 
L 184.922773 238.93239 
L 186.619337 238.712611 
L 188.315901 238.349093 
L 190.012466 233.344793 
L 191.70903 230.597559 
L 193.405594 229.843383 
L 195.102159 225.65395 
L 196.798723 215.565741 
L 198.495287 214.694138 
L 200.191852 186.688302 
L 201.888416 205.055619 
L 205.281545 231.019868 
L 206.978109 232.333748 
L 208.674673 237.728839 
L 210.371237 239.062095 
L 212.067802 239.455572 
L 213.764366 240.055379 
L 215.46093 239.870731 
L 217.157495 239.91817 
L 218.854059 239.49112 
L 220.550623 238.756425 
L 223.943752 239.679353 
L 225.640316 239.379339 
L 227.336881 239.724089 
L 229.033445 240.196682 
L 230.730009 237.655094 
L 232.426573 225.975345 
L 234.123138 194.614678 
L 237.516266 143.603159 
L 239.212831 133.51349 
L 240.909395 152.583195 
L 242.605959 212.591691 
L 244.302524 221.16737 
L 245.999088 237.076086 
L 247.695652 240.282558 
L 249.392216 241.080276 
L 251.088781 240.98604 
L 252.785345 241.01833 
L 254.481909 239.230656 
L 256.178474 240.471085 
L 257.875038 241.262887 
L 259.571602 240.121564 
L 261.268167 239.238053 
L 262.964731 235.521737 
L 264.661295 228.367026 
L 266.35786 210.658351 
L 268.054424 201.612697 
L 269.750988 174.666123 
L 273.144117 203.996287 
L 274.840681 208.608125 
L 276.537245 211.286219 
L 278.23381 220.019074 
L 279.930374 237.116821 
L 281.626938 240.9271 
L 285.020067 241.194692 
L 286.716631 241.073366 
L 288.413196 241.623172 
L 290.10976 241.318856 
L 291.806324 241.407025 
L 295.199453 241.385124 
L 303.682274 241.470942 
L 305.378839 238.016048 
L 307.075403 220.607234 
L 308.771967 205.195892 
L 310.468531 203.093444 
L 312.165096 193.124262 
L 313.86166 198.928801 
L 315.558224 205.875852 
L 317.254789 209.709553 
L 318.951353 230.227766 
L 320.647917 238.784697 
L 322.344482 240.601337 
L 324.041046 241.302536 
L 330.827303 241.542396 
L 334.220432 241.015911 
L 335.916996 240.836604 
L 337.61356 239.261781 
L 339.310125 238.994848 
L 341.006689 221.266246 
L 342.703253 207.265838 
L 344.399818 194.996582 
L 346.096382 194.241292 
L 347.792946 163.616558 
L 349.48951 195.185308 
L 351.186075 172.579324 
L 352.882639 211.942211 
L 354.579203 239.177438 
L 356.275768 241.207761 
L 357.972332 241.327424 
L 359.668896 241.273423 
L 363.062025 241.347906 
L 364.758589 241.11731 
L 368.151718 240.812668 
L 369.848282 239.569133 
L 371.544846 231.000971 
L 373.241411 240.333049 
L 374.937975 239.499193 
L 376.634539 233.833792 
L 378.331104 229.468598 
L 380.027668 220.849393 
L 381.724232 190.148211 
L 383.420797 148.3265 
L 385.117361 150.845732 
L 386.813925 150.049441 
L 388.51049 183.62027 
L 390.207054 191.232974 
L 391.903618 234.173161 
L 393.600182 241.36082 
L 395.296747 241.622852 
L 396.993311 241.30886 
L 398.689875 241.458142 
L 400.38644 242.216786 
L 402.083004 241.314379 
L 403.779568 241.457863 
L 405.476133 241.345049 
L 408.869261 241.671922 
L 410.565825 241.512086 
L 412.26239 240.182352 
L 413.958954 232.160258 
L 415.655518 215.298384 
L 417.352083 200.751165 
L 419.048647 207.757912 
L 420.745211 211.591327 
L 422.441776 187.292752 
L 424.13834 183.504168 
L 425.834904 177.581657 
L 427.531469 203.636924 
L 429.228033 175.17625 
L 430.924597 230.340957 
L 432.621161 241.280797 
L 446.193676 241.446458 
L 447.89024 241.326051 
L 449.586804 241.858639 
L 452.979933 241.335589 
L 454.676497 228.507721 
L 456.373062 218.602516 
L 458.069626 210.804817 
L 459.76619 197.534112 
L 461.462755 202.30609 
L 463.159319 211.716264 
L 464.855883 206.303484 
L 466.552448 225.009864 
L 468.249012 238.156908 
L 469.945576 241.248107 
L 475.035269 241.34648 
L 476.731833 240.805126 
L 481.821526 241.052467 
L 483.518091 241.316183 
L 485.214655 241.728548 
L 486.911219 241.763499 
L 488.607784 231.264505 
L 490.304348 213.570021 
L 492.000912 188.645488 
L 493.697476 179.699643 
L 495.394041 165.346565 
L 497.090605 174.284898 
L 498.787169 190.409249 
L 500.483734 197.922636 
L 502.180298 234.714028 
L 503.876862 240.898688 
L 505.573427 241.203637 
L 508.966555 241.188995 
L 512.359684 241.300523 
L 515.752812 240.88686 
L 517.449377 241.252685 
L 519.145941 241.182246 
L 520.842505 240.923711 
L 524.235634 241.118496 
L 525.932198 239.629815 
L 527.628763 220.562293 
L 529.325327 192.943537 
L 531.021891 169.620856 
L 532.718455 180.008599 
L 534.41502 171.840183 
L 536.111584 192.470433 
L 537.808148 202.463127 
L 539.504713 208.255673 
L 541.201277 238.602761 
L 542.897841 241.318427 
L 544.594406 241.536625 
L 546.29097 241.33822 
L 551.380663 241.30662 
L 559.863484 241.339595 
L 561.560049 241.796605 
L 563.256613 242.844755 
L 564.953177 242.206432 
L 566.649742 240.91133 
L 568.346306 231.710636 
L 570.04287 205.594492 
L 571.739434 167.278092 
L 573.435999 172.455944 
L 575.132563 168.530787 
L 576.829127 191.617595 
L 578.525692 191.797711 
L 580.222256 206.260063 
L 581.91882 237.435691 
L 583.615385 241.26568 
L 593.79477 241.354113 
L 595.491335 241.42497 
L 597.187899 241.323512 
L 598.884463 241.414825 
L 600.581028 241.362245 
L 602.277592 241.914756 
L 603.974156 241.55715 
L 605.670721 241.664048 
L 607.367285 244.612751 
L 609.063849 240.741181 
L 610.760413 202.199314 
L 612.456978 171.400983 
L 614.153542 183.742467 
L 615.850106 153.173106 
L 617.546671 170.576557 
L 619.243235 195.295728 
L 620.939799 194.390009 
L 622.636364 239.813496 
L 622.636364 239.813496 
" clip-path="url(#p1e938c37b7)" style="fill: none; stroke: #ff7f0e; stroke-opacity: 0.8; stroke-width: 1.8; stroke-linecap: square"/>
   </g>
   <g id="line2d_18">
    <path d="M 115.363636 240.800717 
L 117.060201 235.690319 
L 118.756765 220.637 
L 120.453329 200.626414 
L 122.149894 191.734261 
L 123.846458 217.922112 
L 125.543022 189.756139 
L 127.239587 211.151601 
L 128.936151 226.587055 
L 130.632715 233.977891 
L 134.025844 238.797485 
L 135.722408 236.648816 
L 137.418972 228.664122 
L 139.115537 235.174278 
L 140.812101 231.122165 
L 142.508665 233.527454 
L 144.20523 235.582058 
L 145.901794 234.97737 
L 147.598358 233.31967 
L 149.294922 229.668901 
L 150.991487 228.232072 
L 152.688051 217.739164 
L 154.384615 197.038219 
L 156.08118 203.818174 
L 157.777744 192.649344 
L 159.474308 195.271431 
L 161.170873 201.504955 
L 162.867437 206.052874 
L 164.564001 216.039822 
L 166.260566 229.589071 
L 167.95713 235.065025 
L 169.653694 235.255031 
L 171.350258 236.811731 
L 173.046823 236.472423 
L 174.743387 234.912248 
L 176.439951 235.145825 
L 179.83308 234.585885 
L 181.529644 233.617979 
L 183.226209 235.837034 
L 184.922773 238.83141 
L 186.619337 238.606462 
L 188.315901 238.244807 
L 191.70903 226.367041 
L 193.405594 224.157665 
L 195.102159 218.894174 
L 196.798723 202.598734 
L 198.495287 201.954817 
L 200.191852 177.771808 
L 201.888416 189.974328 
L 203.58498 208.532948 
L 205.281545 228.784053 
L 206.978109 232.019132 
L 208.674673 237.575854 
L 210.371237 238.93667 
L 212.067802 239.332261 
L 213.764366 239.927724 
L 215.46093 239.739267 
L 217.157495 239.79184 
L 218.854059 239.403017 
L 220.550623 238.618013 
L 223.943752 239.54354 
L 225.640316 239.243036 
L 227.336881 239.596965 
L 229.033445 240.099768 
L 230.730009 235.722709 
L 232.426573 217.648444 
L 234.123138 171.641792 
L 235.819702 152.723681 
L 237.516266 92.683969 
L 239.212831 73.735253 
L 240.909395 125.111367 
L 242.605959 212.07942 
L 244.302524 217.220907 
L 245.999088 235.186079 
L 247.695652 239.799563 
L 249.392216 241.002887 
L 252.785345 240.993344 
L 254.481909 239.079546 
L 256.178474 240.373874 
L 257.875038 241.258705 
L 259.571602 239.96088 
L 261.268167 239.035638 
L 262.964731 231.271607 
L 264.661295 220.727667 
L 266.35786 189.671243 
L 268.054424 166.426061 
L 269.750988 130.801702 
L 271.447552 97.823361 
L 273.144117 130.252311 
L 274.840681 148.920434 
L 276.537245 154.598242 
L 278.23381 211.978956 
L 279.930374 236.012713 
L 281.626938 240.785527 
L 285.020067 241.165166 
L 286.716631 241.029163 
L 288.413196 241.646858 
L 290.10976 241.321355 
L 291.806324 241.42116 
L 295.199453 241.398138 
L 296.896017 241.420826 
L 298.592581 241.3303 
L 300.289146 241.572125 
L 301.98571 241.557443 
L 303.682274 241.422501 
L 305.378839 233.495588 
L 307.075403 205.784866 
L 308.771967 191.339957 
L 310.468531 159.392435 
L 312.165096 123.240538 
L 313.86166 112.951803 
L 315.558224 158.877433 
L 317.254789 161.503512 
L 318.951353 222.004705 
L 320.647917 237.500064 
L 322.344482 240.279533 
L 324.041046 241.301801 
L 330.827303 241.578273 
L 334.220432 240.928177 
L 335.916996 240.699887 
L 337.61356 240.228297 
L 339.310125 234.062909 
L 341.006689 204.699441 
L 342.703253 162.442707 
L 344.399818 98.746561 
L 346.096382 72.824987 
L 347.792946 73.199563 
L 349.48951 86.99913 
L 351.186075 108.092598 
L 352.882639 205.392898 
L 354.579203 236.863393 
L 356.275768 241.161942 
L 357.972332 241.332412 
L 359.668896 241.261642 
L 361.365461 241.374798 
L 363.062025 241.355169 
L 364.758589 241.059315 
L 368.151718 240.664692 
L 369.848282 239.047824 
L 371.544846 229.785217 
L 373.241411 240.159163 
L 374.937975 238.141875 
L 376.634539 225.391043 
L 378.331104 213.567926 
L 380.027668 171.126222 
L 381.724232 99.627626 
L 383.420797 44.64 
L 385.117361 66.850441 
L 386.813925 84.208321 
L 388.51049 110.542832 
L 390.207054 166.350692 
L 391.903618 228.179297 
L 393.600182 241.370162 
L 395.296747 241.661226 
L 396.993311 241.309998 
L 398.689875 241.479251 
L 400.38644 242.302691 
L 402.083004 241.316484 
L 403.779568 241.497283 
L 405.476133 241.351701 
L 408.869261 241.713062 
L 410.565825 241.377174 
L 412.26239 239.504362 
L 413.958954 226.307622 
L 415.655518 200.813107 
L 417.352083 167.170821 
L 419.048647 145.127157 
L 420.745211 119.394794 
L 422.441776 95.681105 
L 424.13834 95.480962 
L 425.834904 110.212622 
L 427.531469 159.152195 
L 429.228033 153.428088 
L 430.924597 221.639072 
L 432.621161 241.258109 
L 439.407419 241.300121 
L 444.497112 241.386721 
L 446.193676 241.454227 
L 447.89024 241.329544 
L 449.586804 241.917453 
L 452.979933 241.270144 
L 454.676497 218.26274 
L 456.373062 201.526367 
L 459.76619 170.794953 
L 461.462755 169.710936 
L 463.159319 160.371436 
L 464.855883 159.932394 
L 466.552448 202.021183 
L 468.249012 235.855465 
L 469.945576 241.18955 
L 475.035269 241.290556 
L 476.731833 240.732342 
L 481.821526 241.018078 
L 485.214655 241.675064 
L 486.911219 241.471391 
L 488.607784 223.241311 
L 490.304348 199.244728 
L 492.000912 159.419607 
L 493.697476 115.270743 
L 495.394041 112.926333 
L 497.090605 105.624474 
L 498.787169 130.928505 
L 500.483734 186.772109 
L 502.180298 233.652824 
L 503.876862 240.750267 
L 505.573427 241.08363 
L 508.966555 241.044203 
L 512.359684 241.236721 
L 514.056248 240.891637 
L 515.752812 240.725742 
L 517.449377 241.189775 
L 519.145941 241.103986 
L 520.842505 240.849392 
L 522.53907 240.968587 
L 524.235634 240.380638 
L 525.932198 237.223796 
L 527.628763 212.651164 
L 529.325327 162.928542 
L 531.021891 95.858662 
L 532.718455 109.313304 
L 534.41502 99.820057 
L 536.111584 105.62622 
L 537.808148 140.762107 
L 539.504713 193.8472 
L 541.201277 237.21771 
L 542.897841 241.259207 
L 544.594406 241.501418 
L 546.29097 241.315358 
L 549.684099 241.29433 
L 559.863484 241.346201 
L 561.560049 241.8756 
L 563.256613 242.984646 
L 564.953177 242.447284 
L 566.649742 239.400464 
L 568.346306 223.063909 
L 570.04287 176.528055 
L 571.739434 91.999041 
L 573.435999 104.027771 
L 575.132563 99.995568 
L 576.829127 107.774766 
L 578.525692 135.556742 
L 580.222256 196.255964 
L 581.91882 236.831796 
L 583.615385 241.180158 
L 595.491335 241.442051 
L 597.187899 241.327092 
L 598.884463 241.430773 
L 600.581028 241.397804 
L 602.277592 241.977774 
L 603.974156 241.588609 
L 605.670721 241.703746 
L 607.367285 246.24 
L 609.063849 239.041113 
L 610.760413 191.990747 
L 612.456978 136.141422 
L 614.153542 154.465987 
L 615.850106 114.87546 
L 617.546671 134.938661 
L 619.243235 147.350772 
L 620.939799 187.263987 
L 622.636364 239.954198 
L 622.636364 239.954198 
" clip-path="url(#p1e938c37b7)" style="fill: none; stroke: #2ca02c; stroke-opacity: 0.6; stroke-width: 1.5; stroke-linecap: square"/>
   </g>
   <g id="patch_3">
    <path d="M 90 256.32 
L 90 34.56 
" style="fill: none; stroke: #000000; stroke-width: 0.8; stroke-linejoin: miter; stroke-linecap: square"/>
   </g>
   <g id="patch_4">
    <path d="M 648 256.32 
L 648 34.56 
" style="fill: none; stroke: #000000; stroke-width: 0.8; stroke-linejoin: miter; stroke-linecap: square"/>
   </g>
   <g id="patch_5">
    <path d="M 90 256.32 
L 648 256.32 
" style="fill: none; stroke: #000000; stroke-width: 0.8; stroke-linejoin: miter; stroke-linecap: square"/>
   </g>
   <g id="patch_6">
    <path d="M 90 34.56 
L 648 34.56 
" style="fill: none; stroke: #000000; stroke-width: 0.8; stroke-linejoin: miter; stroke-linecap: square"/>
   </g>
   <g id="legend_1">
    <g id="patch_7">
     <path d="M 529.315625 86.594375 
L 641 86.594375 
Q 643 86.594375 643 84.594375 
L 643 41.56 
Q 643 39.56 641 39.56 
L 529.315625 39.56 
Q 527.315625 39.56 527.315625 41.56 
L 527.315625 84.594375 
Q 527.315625 86.594375 529.315625 86.594375 
z
" style="fill: #ffffff; opacity: 0.8; stroke: #cccccc; stroke-linejoin: miter"/>
    </g>
    <g id="line2d_19">
     <path d="M 531.315625 47.658438 
L 541.315625 47.658438 
L 551.315625 47.658438 
" style="fill: none; stroke: #1f77b4; stroke-opacity: 0.6; stroke-width: 1.5; stroke-linecap: square"/>
    </g>
    <g id="text_18">
     <!-- Observed -->
     <g transform="translate(559.315625 51.158438) scale(0.1 -0.1)">
      <defs>
       <path id="DejaVuSans-4f" d="M 2522 4238 
Q 1834 4238 1429 3725 
Q 1025 3213 1025 2328 
Q 1025 1447 1429 934 
Q 1834 422 2522 422 
Q 3209 422 3611 934 
Q 4013 1447 4013 2328 
Q 4013 3213 3611 3725 
Q 3209 4238 2522 4238 
z
M 2522 4750 
Q 3503 4750 4090 4092 
Q 4678 3434 4678 2328 
Q 4678 1225 4090 567 
Q 3503 -91 2522 -91 
Q 1538 -91 948 565 
Q 359 1222 359 2328 
Q 359 3434 948 4092 
Q 1538 4750 2522 4750 
z
" transform="scale(0.015625)"/>
       <path id="DejaVuSans-62" d="M 3116 1747 
Q 3116 2381 2855 2742 
Q 2594 3103 2138 3103 
Q 1681 3103 1420 2742 
Q 1159 2381 1159 1747 
Q 1159 1113 1420 752 
Q 1681 391 2138 391 
Q 2594 391 2855 752 
Q 3116 1113 3116 1747 
z
M 1159 2969 
Q 1341 3281 1617 3432 
Q 1894 3584 2278 3584 
Q 2916 3584 3314 3078 
Q 3713 2572 3713 1747 
Q 3713 922 3314 415 
Q 2916 -91 2278 -91 
Q 1894 -91 1617 61 
Q 1341 213 1159 525 
L 1159 0 
L 581 0 
L 581 4863 
L 1159 4863 
L 1159 2969 
z
" transform="scale(0.015625)"/>
       <path id="DejaVuSans-72" d="M 2631 2963 
Q 2534 3019 2420 3045 
Q 2306 3072 2169 3072 
Q 1681 3072 1420 2755 
Q 1159 2438 1159 1844 
L 1159 0 
L 581 0 
L 581 3500 
L 1159 3500 
L 1159 2956 
Q 1341 3275 1631 3429 
Q 1922 3584 2338 3584 
Q 2397 3584 2469 3576 
Q 2541 3569 2628 3553 
L 2631 2963 
z
" transform="scale(0.015625)"/>
       <path id="DejaVuSans-76" d="M 191 3500 
L 800 3500 
L 1894 563 
L 2988 3500 
L 3597 3500 
L 2284 0 
L 1503 0 
L 191 3500 
z
" transform="scale(0.015625)"/>
       <path id="DejaVuSans-64" d="M 2906 2969 
L 2906 4863 
L 3481 4863 
L 3481 0 
L 2906 0 
L 2906 525 
Q 2725 213 2448 61 
Q 2172 -91 1784 -91 
Q 1150 -91 751 415 
Q 353 922 353 1747 
Q 353 2572 751 3078 
Q 1150 3584 1784 3584 
Q 2172 3584 2448 3432 
Q 2725 3281 2906 2969 
z
M 947 1747 
Q 947 1113 1208 752 
Q 1469 391 1925 391 
Q 2381 391 2643 752 
Q 2906 1113 2906 1747 
Q 2906 2381 2643 2742 
Q 2381 3103 1925 3103 
Q 1469 3103 1208 2742 
Q 947 2381 947 1747 
z
" transform="scale(0.015625)"/>
      </defs>
      <use xlink:href="#DejaVuSans-4f"/>
      <use xlink:href="#DejaVuSans-62" x="78.710938"/>
      <use xlink:href="#DejaVuSans-73" x="142.1875"/>
      <use xlink:href="#DejaVuSans-65" x="194.287109"/>
      <use xlink:href="#DejaVuSans-72" x="255.810547"/>
      <use xlink:href="#DejaVuSans-76" x="296.923828"/>
      <use xlink:href="#DejaVuSans-65" x="356.103516"/>
      <use xlink:href="#DejaVuSans-64" x="417.626953"/>
     </g>
    </g>
    <g id="line2d_20">
     <path d="M 531.315625 62.336563 
L 541.315625 62.336563 
L 551.315625 62.336563 
" style="fill: none; stroke: #ff7f0e; stroke-opacity: 0.8; stroke-width: 1.8; stroke-linecap: square"/>
    </g>
    <g id="text_19">
     <!-- Hybrid Model -->
     <g transform="translate(559.315625 65.836563) scale(0.1 -0.1)">
      <defs>
       <path id="DejaVuSans-48" d="M 628 4666 
L 1259 4666 
L 1259 2753 
L 3553 2753 
L 3553 4666 
L 4184 4666 
L 4184 0 
L 3553 0 
L 3553 2222 
L 1259 2222 
L 1259 0 
L 628 0 
L 628 4666 
z
" transform="scale(0.015625)"/>
       <path id="DejaVuSans-79" d="M 2059 -325 
Q 1816 -950 1584 -1140 
Q 1353 -1331 966 -1331 
L 506 -1331 
L 506 -850 
L 844 -850 
Q 1081 -850 1212 -737 
Q 1344 -625 1503 -206 
L 1606 56 
L 191 3500 
L 800 3500 
L 1894 763 
L 2988 3500 
L 3597 3500 
L 2059 -325 
z
" transform="scale(0.015625)"/>
       <path id="DejaVuSans-4d" d="M 628 4666 
L 1569 4666 
L 2759 1491 
L 3956 4666 
L 4897 4666 
L 4897 0 
L 4281 0 
L 4281 4097 
L 3078 897 
L 2444 897 
L 1241 4097 
L 1241 0 
L 628 0 
L 628 4666 
z
" transform="scale(0.015625)"/>
       <path id="DejaVuSans-6f" d="M 1959 3097 
Q 1497 3097 1228 2736 
Q 959 2375 959 1747 
Q 959 1119 1226 758 
Q 1494 397 1959 397 
Q 2419 397 2687 759 
Q 2956 1122 2956 1747 
Q 2956 2369 2687 2733 
Q 2419 3097 1959 3097 
z
M 1959 3584 
Q 2709 3584 3137 3096 
Q 3566 2609 3566 1747 
Q 3566 888 3137 398 
Q 2709 -91 1959 -91 
Q 1206 -91 779 398 
Q 353 888 353 1747 
Q 353 2609 779 3096 
Q 1206 3584 1959 3584 
z
" transform="scale(0.015625)"/>
       <path id="DejaVuSans-6c" d="M 603 4863 
L 1178 4863 
L 1178 0 
L 603 0 
L 603 4863 
z
" transform="scale(0.015625)"/>
      </defs>
      <use xlink:href="#DejaVuSans-48"/>
      <use xlink:href="#DejaVuSans-79" x="75.195312"/>
      <use xlink:href="#DejaVuSans-62" x="134.375"/>
      <use xlink:href="#DejaVuSans-72" x="197.851562"/>
      <use xlink:href="#DejaVuSans-69" x="238.964844"/>
      <use xlink:href="#DejaVuSans-64" x="266.748047"/>
      <use xlink:href="#DejaVuSans-20" x="330.224609"/>
      <use xlink:href="#DejaVuSans-4d" x="362.011719"/>
      <use xlink:href="#DejaVuSans-6f" x="448.291016"/>
      <use xlink:href="#DejaVuSans-64" x="509.472656"/>
      <use xlink:href="#DejaVuSans-65" x="572.949219"/>
      <use xlink:href="#DejaVuSans-6c" x="634.472656"/>
     </g>
    </g>
    <g id="line2d_21">
     <path d="M 531.315625 77.014688 
L 541.315625 77.014688 
L 551.315625 77.014688 
" style="fill: none; stroke: #2ca02c; stroke-opacity: 0.6; stroke-width: 1.5; stroke-linecap: square"/>
    </g>
    <g id="text_20">
     <!-- Empirical Model -->
     <g transform="translate(559.315625 80.514688) scale(0.1 -0.1)">
      <defs>
       <path id="DejaVuSans-63" d="M 3122 3366 
L 3122 2828 
Q 2878 2963 2633 3030 
Q 2388 3097 2138 3097 
Q 1578 3097 1268 2742 
Q 959 2388 959 1747 
Q 959 1106 1268 751 
Q 1578 397 2138 397 
Q 2388 397 2633 464 
Q 2878 531 3122 666 
L 3122 134 
Q 2881 22 2623 -34 
Q 2366 -91 2075 -91 
Q 1284 -91 818 406 
Q 353 903 353 1747 
Q 353 2603 823 3093 
Q 1294 3584 2113 3584 
Q 2378 3584 2631 3529 
Q 2884 3475 3122 3366 
z
" transform="scale(0.015625)"/>
       <path id="DejaVuSans-61" d="M 2194 1759 
Q 1497 1759 1228 1600 
Q 959 1441 959 1056 
Q 959 750 1161 570 
Q 1363 391 1709 391 
Q 2188 391 2477 730 
Q 2766 1069 2766 1631 
L 2766 1759 
L 2194 1759 
z
M 3341 1997 
L 3341 0 
L 2766 0 
L 2766 531 
Q 2569 213 2275 61 
Q 1981 -91 1556 -91 
Q 1019 -91 701 211 
Q 384 513 384 1019 
Q 384 1609 779 1909 
Q 1175 2209 1959 2209 
L 2766 2209 
L 2766 2266 
Q 2766 2663 2505 2880 
Q 2244 3097 1772 3097 
Q 1472 3097 1187 3025 
Q 903 2953 641 2809 
L 641 3341 
Q 956 3463 1253 3523 
Q 1550 3584 1831 3584 
Q 2591 3584 2966 3190 
Q 3341 2797 3341 1997 
z
" transform="scale(0.015625)"/>
      </defs>
      <use xlink:href="#DejaVuSans-45"/>
      <use xlink:href="#DejaVuSans-6d" x="63.183594"/>
      <use xlink:href="#DejaVuSans-70" x="160.595703"/>
      <use xlink:href="#DejaVuSans-69" x="224.072266"/>
      <use xlink:href="#DejaVuSans-72" x="251.855469"/>
      <use xlink:href="#DejaVuSans-69" x="292.96875"/>
      <use xlink:href="#DejaVuSans-63" x="320.751953"/>
      <use xlink:href="#DejaVuSans-61" x="375.732422"/>
      <use xlink:href="#DejaVuSans-6c" x="437.011719"/>
      <use xlink:href="#DejaVuSans-20" x="464.794922"/>
      <use xlink:href="#DejaVuSans-4d" x="496.582031"/>
      <use xlink:href="#DejaVuSans-6f" x="582.861328"/>
      <use xlink:href="#DejaVuSans-64" x="644.042969"/>
      <use xlink:href="#DejaVuSans-65" x="707.519531"/>
      <use xlink:href="#DejaVuSans-6c" x="769.042969"/>
     </g>
    </g>
   </g>
  </g>
 </g>
 <defs>
  <clipPath id="p1e938c37b7">
   <rect x="90" y="34.56" width="558" height="221.76"/>
  </clipPath>
 </defs>
</svg>
