<?xml version="1.0" encoding="utf-8" standalone="no"?>
<!DOCTYPE svg PUBLIC "-//W3C//DTD SVG 1.1//EN"
  "http://www.w3.org/Graphics/SVG/1.1/DTD/svg11.dtd">
<svg xmlns:xlink="http://www.w3.org/1999/xlink" width="720pt" height="288pt" viewBox="0 0 720 288" xmlns="http://www.w3.org/2000/svg" version="1.1">
 <metadata>
  <rdf:RDF xmlns:dc="http://purl.org/dc/elements/1.1/" xmlns:cc="http://creativecommons.org/ns#" xmlns:rdf="http://www.w3.org/1999/02/22-rdf-syntax-ns#">
   <cc:Work>
    <dc:type rdf:resource="http://purl.org/dc/dcmitype/StillImage"/>
    <dc:date>2025-01-06T16:17:17.352676</dc:date>
    <dc:format>image/svg+xml</dc:format>
    <dc:creator>
     <cc:Agent>
      <dc:title>Matplotlib v3.6.0, https://matplotlib.org/</dc:title>
     </cc:Agent>
    </dc:creator>
   </cc:Work>
  </rdf:RDF>
 </metadata>
 <defs>
  <style type="text/css">*{stroke-linejoin: round; stroke-linecap: butt}</style>
 </defs>
 <g id="figure_1">
  <g id="patch_1">
   <path d="M 0 288 
L 720 288 
L 720 0 
L 0 0 
z
" style="fill: #ffffff"/>
  </g>
  <g id="axes_1">
   <g id="patch_2">
    <path d="M 90 256.32 
L 648 256.32 
L 648 34.56 
L 90 34.56 
z
" style="fill: #ffffff"/>
   </g>
   <g id="matplotlib.axis_1">
    <g id="xtick_1">
     <g id="line2d_1">
      <defs>
       <path id="m7a2561e595" d="M 0 0 
L 0 3.5 
" style="stroke: #000000; stroke-width: 0.8"/>
      </defs>
      <g>
       <use xlink:href="#m7a2561e595" x="115.363636" y="256.32" style="stroke: #000000; stroke-width: 0.8"/>
      </g>
     </g>
     <g id="text_1">
      <!-- 0 -->
      <g transform="translate(112.182386 270.918437) scale(0.1 -0.1)">
       <defs>
        <path id="DejaVuSans-30" d="M 2034 4250 
Q 1547 4250 1301 3770 
Q 1056 3291 1056 2328 
Q 1056 1369 1301 889 
Q 1547 409 2034 409 
Q 2525 409 2770 889 
Q 3016 1369 3016 2328 
Q 3016 3291 2770 3770 
Q 2525 4250 2034 4250 
z
M 2034 4750 
Q 2819 4750 3233 4129 
Q 3647 3509 3647 2328 
Q 3647 1150 3233 529 
Q 2819 -91 2034 -91 
Q 1250 -91 836 529 
Q 422 1150 422 2328 
Q 422 3509 836 4129 
Q 1250 4750 2034 4750 
z
" transform="scale(0.015625)"/>
       </defs>
       <use xlink:href="#DejaVuSans-30"/>
      </g>
     </g>
    </g>
    <g id="xtick_2">
     <g id="line2d_2">
      <g>
       <use xlink:href="#m7a2561e595" x="200.191852" y="256.32" style="stroke: #000000; stroke-width: 0.8"/>
      </g>
     </g>
     <g id="text_2">
      <!-- 50 -->
      <g transform="translate(193.829352 270.918437) scale(0.1 -0.1)">
       <defs>
        <path id="DejaVuSans-35" d="M 691 4666 
L 3169 4666 
L 3169 4134 
L 1269 4134 
L 1269 2991 
Q 1406 3038 1543 3061 
Q 1681 3084 1819 3084 
Q 2600 3084 3056 2656 
Q 3513 2228 3513 1497 
Q 3513 744 3044 326 
Q 2575 -91 1722 -91 
Q 1428 -91 1123 -41 
Q 819 9 494 109 
L 494 744 
Q 775 591 1075 516 
Q 1375 441 1709 441 
Q 2250 441 2565 725 
Q 2881 1009 2881 1497 
Q 2881 1984 2565 2268 
Q 2250 2553 1709 2553 
Q 1456 2553 1204 2497 
Q 953 2441 691 2322 
L 691 4666 
z
" transform="scale(0.015625)"/>
       </defs>
       <use xlink:href="#DejaVuSans-35"/>
       <use xlink:href="#DejaVuSans-30" x="63.623047"/>
      </g>
     </g>
    </g>
    <g id="xtick_3">
     <g id="line2d_3">
      <g>
       <use xlink:href="#m7a2561e595" x="285.020067" y="256.32" style="stroke: #000000; stroke-width: 0.8"/>
      </g>
     </g>
     <g id="text_3">
      <!-- 100 -->
      <g transform="translate(275.476317 270.918437) scale(0.1 -0.1)">
       <defs>
        <path id="DejaVuSans-31" d="M 794 531 
L 1825 531 
L 1825 4091 
L 703 3866 
L 703 4441 
L 1819 4666 
L 2450 4666 
L 2450 531 
L 3481 531 
L 3481 0 
L 794 0 
L 794 531 
z
" transform="scale(0.015625)"/>
       </defs>
       <use xlink:href="#DejaVuSans-31"/>
       <use xlink:href="#DejaVuSans-30" x="63.623047"/>
       <use xlink:href="#DejaVuSans-30" x="127.246094"/>
      </g>
     </g>
    </g>
    <g id="xtick_4">
     <g id="line2d_4">
      <g>
       <use xlink:href="#m7a2561e595" x="369.848282" y="256.32" style="stroke: #000000; stroke-width: 0.8"/>
      </g>
     </g>
     <g id="text_4">
      <!-- 150 -->
      <g transform="translate(360.304532 270.918437) scale(0.1 -0.1)">
       <use xlink:href="#DejaVuSans-31"/>
       <use xlink:href="#DejaVuSans-35" x="63.623047"/>
       <use xlink:href="#DejaVuSans-30" x="127.246094"/>
      </g>
     </g>
    </g>
    <g id="xtick_5">
     <g id="line2d_5">
      <g>
       <use xlink:href="#m7a2561e595" x="454.676497" y="256.32" style="stroke: #000000; stroke-width: 0.8"/>
      </g>
     </g>
     <g id="text_5">
      <!-- 200 -->
      <g transform="translate(445.132747 270.918437) scale(0.1 -0.1)">
       <defs>
        <path id="DejaVuSans-32" d="M 1228 531 
L 3431 531 
L 3431 0 
L 469 0 
L 469 531 
Q 828 903 1448 1529 
Q 2069 2156 2228 2338 
Q 2531 2678 2651 2914 
Q 2772 3150 2772 3378 
Q 2772 3750 2511 3984 
Q 2250 4219 1831 4219 
Q 1534 4219 1204 4116 
Q 875 4013 500 3803 
L 500 4441 
Q 881 4594 1212 4672 
Q 1544 4750 1819 4750 
Q 2544 4750 2975 4387 
Q 3406 4025 3406 3419 
Q 3406 3131 3298 2873 
Q 3191 2616 2906 2266 
Q 2828 2175 2409 1742 
Q 1991 1309 1228 531 
z
" transform="scale(0.015625)"/>
       </defs>
       <use xlink:href="#DejaVuSans-32"/>
       <use xlink:href="#DejaVuSans-30" x="63.623047"/>
       <use xlink:href="#DejaVuSans-30" x="127.246094"/>
      </g>
     </g>
    </g>
    <g id="xtick_6">
     <g id="line2d_6">
      <g>
       <use xlink:href="#m7a2561e595" x="539.504713" y="256.32" style="stroke: #000000; stroke-width: 0.8"/>
      </g>
     </g>
     <g id="text_6">
      <!-- 250 -->
      <g transform="translate(529.960963 270.918437) scale(0.1 -0.1)">
       <use xlink:href="#DejaVuSans-32"/>
       <use xlink:href="#DejaVuSans-35" x="63.623047"/>
       <use xlink:href="#DejaVuSans-30" x="127.246094"/>
      </g>
     </g>
    </g>
    <g id="xtick_7">
     <g id="line2d_7">
      <g>
       <use xlink:href="#m7a2561e595" x="624.332928" y="256.32" style="stroke: #000000; stroke-width: 0.8"/>
      </g>
     </g>
     <g id="text_7">
      <!-- 300 -->
      <g transform="translate(614.789178 270.918437) scale(0.1 -0.1)">
       <defs>
        <path id="DejaVuSans-33" d="M 2597 2516 
Q 3050 2419 3304 2112 
Q 3559 1806 3559 1356 
Q 3559 666 3084 287 
Q 2609 -91 1734 -91 
Q 1441 -91 1130 -33 
Q 819 25 488 141 
L 488 750 
Q 750 597 1062 519 
Q 1375 441 1716 441 
Q 2309 441 2620 675 
Q 2931 909 2931 1356 
Q 2931 1769 2642 2001 
Q 2353 2234 1838 2234 
L 1294 2234 
L 1294 2753 
L 1863 2753 
Q 2328 2753 2575 2939 
Q 2822 3125 2822 3475 
Q 2822 3834 2567 4026 
Q 2313 4219 1838 4219 
Q 1578 4219 1281 4162 
Q 984 4106 628 3988 
L 628 4550 
Q 988 4650 1302 4700 
Q 1616 4750 1894 4750 
Q 2613 4750 3031 4423 
Q 3450 4097 3450 3541 
Q 3450 3153 3228 2886 
Q 3006 2619 2597 2516 
z
" transform="scale(0.015625)"/>
       </defs>
       <use xlink:href="#DejaVuSans-33"/>
       <use xlink:href="#DejaVuSans-30" x="63.623047"/>
       <use xlink:href="#DejaVuSans-30" x="127.246094"/>
      </g>
     </g>
    </g>
    <g id="text_8">
     <!-- Timestep -->
     <g transform="translate(345.950781 284.596563) scale(0.1 -0.1)">
      <defs>
       <path id="DejaVuSans-54" d="M -19 4666 
L 3928 4666 
L 3928 4134 
L 2272 4134 
L 2272 0 
L 1638 0 
L 1638 4134 
L -19 4134 
L -19 4666 
z
" transform="scale(0.015625)"/>
       <path id="DejaVuSans-69" d="M 603 3500 
L 1178 3500 
L 1178 0 
L 603 0 
L 603 3500 
z
M 603 4863 
L 1178 4863 
L 1178 4134 
L 603 4134 
L 603 4863 
z
" transform="scale(0.015625)"/>
       <path id="DejaVuSans-6d" d="M 3328 2828 
Q 3544 3216 3844 3400 
Q 4144 3584 4550 3584 
Q 5097 3584 5394 3201 
Q 5691 2819 5691 2113 
L 5691 0 
L 5113 0 
L 5113 2094 
Q 5113 2597 4934 2840 
Q 4756 3084 4391 3084 
Q 3944 3084 3684 2787 
Q 3425 2491 3425 1978 
L 3425 0 
L 2847 0 
L 2847 2094 
Q 2847 2600 2669 2842 
Q 2491 3084 2119 3084 
Q 1678 3084 1418 2786 
Q 1159 2488 1159 1978 
L 1159 0 
L 581 0 
L 581 3500 
L 1159 3500 
L 1159 2956 
Q 1356 3278 1631 3431 
Q 1906 3584 2284 3584 
Q 2666 3584 2933 3390 
Q 3200 3197 3328 2828 
z
" transform="scale(0.015625)"/>
       <path id="DejaVuSans-65" d="M 3597 1894 
L 3597 1613 
L 953 1613 
Q 991 1019 1311 708 
Q 1631 397 2203 397 
Q 2534 397 2845 478 
Q 3156 559 3463 722 
L 3463 178 
Q 3153 47 2828 -22 
Q 2503 -91 2169 -91 
Q 1331 -91 842 396 
Q 353 884 353 1716 
Q 353 2575 817 3079 
Q 1281 3584 2069 3584 
Q 2775 3584 3186 3129 
Q 3597 2675 3597 1894 
z
M 3022 2063 
Q 3016 2534 2758 2815 
Q 2500 3097 2075 3097 
Q 1594 3097 1305 2825 
Q 1016 2553 972 2059 
L 3022 2063 
z
" transform="scale(0.015625)"/>
       <path id="DejaVuSans-73" d="M 2834 3397 
L 2834 2853 
Q 2591 2978 2328 3040 
Q 2066 3103 1784 3103 
Q 1356 3103 1142 2972 
Q 928 2841 928 2578 
Q 928 2378 1081 2264 
Q 1234 2150 1697 2047 
L 1894 2003 
Q 2506 1872 2764 1633 
Q 3022 1394 3022 966 
Q 3022 478 2636 193 
Q 2250 -91 1575 -91 
Q 1294 -91 989 -36 
Q 684 19 347 128 
L 347 722 
Q 666 556 975 473 
Q 1284 391 1588 391 
Q 1994 391 2212 530 
Q 2431 669 2431 922 
Q 2431 1156 2273 1281 
Q 2116 1406 1581 1522 
L 1381 1569 
Q 847 1681 609 1914 
Q 372 2147 372 2553 
Q 372 3047 722 3315 
Q 1072 3584 1716 3584 
Q 2034 3584 2315 3537 
Q 2597 3491 2834 3397 
z
" transform="scale(0.015625)"/>
       <path id="DejaVuSans-74" d="M 1172 4494 
L 1172 3500 
L 2356 3500 
L 2356 3053 
L 1172 3053 
L 1172 1153 
Q 1172 725 1289 603 
Q 1406 481 1766 481 
L 2356 481 
L 2356 0 
L 1766 0 
Q 1100 0 847 248 
Q 594 497 594 1153 
L 594 3053 
L 172 3053 
L 172 3500 
L 594 3500 
L 594 4494 
L 1172 4494 
z
" transform="scale(0.015625)"/>
       <path id="DejaVuSans-70" d="M 1159 525 
L 1159 -1331 
L 581 -1331 
L 581 3500 
L 1159 3500 
L 1159 2969 
Q 1341 3281 1617 3432 
Q 1894 3584 2278 3584 
Q 2916 3584 3314 3078 
Q 3713 2572 3713 1747 
Q 3713 922 3314 415 
Q 2916 -91 2278 -91 
Q 1894 -91 1617 61 
Q 1341 213 1159 525 
z
M 3116 1747 
Q 3116 2381 2855 2742 
Q 2594 3103 2138 3103 
Q 1681 3103 1420 2742 
Q 1159 2381 1159 1747 
Q 1159 1113 1420 752 
Q 1681 391 2138 391 
Q 2594 391 2855 752 
Q 3116 1113 3116 1747 
z
" transform="scale(0.015625)"/>
      </defs>
      <use xlink:href="#DejaVuSans-54"/>
      <use xlink:href="#DejaVuSans-69" x="57.958984"/>
      <use xlink:href="#DejaVuSans-6d" x="85.742188"/>
      <use xlink:href="#DejaVuSans-65" x="183.154297"/>
      <use xlink:href="#DejaVuSans-73" x="244.677734"/>
      <use xlink:href="#DejaVuSans-74" x="296.777344"/>
      <use xlink:href="#DejaVuSans-65" x="335.986328"/>
      <use xlink:href="#DejaVuSans-70" x="397.509766"/>
     </g>
    </g>
   </g>
   <g id="matplotlib.axis_2">
    <g id="ytick_1">
     <g id="line2d_8">
      <defs>
       <path id="m1df0b96bc5" d="M 0 0 
L -3.5 0 
" style="stroke: #000000; stroke-width: 0.8"/>
      </defs>
      <g>
       <use xlink:href="#m1df0b96bc5" x="90" y="246.421931" style="stroke: #000000; stroke-width: 0.8"/>
      </g>
     </g>
     <g id="text_9">
      <!-- 0 -->
      <g transform="translate(76.6375 250.221149) scale(0.1 -0.1)">
       <use xlink:href="#DejaVuSans-30"/>
      </g>
     </g>
    </g>
    <g id="ytick_2">
     <g id="line2d_9">
      <g>
       <use xlink:href="#m1df0b96bc5" x="90" y="210.035823" style="stroke: #000000; stroke-width: 0.8"/>
      </g>
     </g>
     <g id="text_10">
      <!-- 200 -->
      <g transform="translate(63.9125 213.835042) scale(0.1 -0.1)">
       <use xlink:href="#DejaVuSans-32"/>
       <use xlink:href="#DejaVuSans-30" x="63.623047"/>
       <use xlink:href="#DejaVuSans-30" x="127.246094"/>
      </g>
     </g>
    </g>
    <g id="ytick_3">
     <g id="line2d_10">
      <g>
       <use xlink:href="#m1df0b96bc5" x="90" y="173.649716" style="stroke: #000000; stroke-width: 0.8"/>
      </g>
     </g>
     <g id="text_11">
      <!-- 400 -->
      <g transform="translate(63.9125 177.448934) scale(0.1 -0.1)">
       <defs>
        <path id="DejaVuSans-34" d="M 2419 4116 
L 825 1625 
L 2419 1625 
L 2419 4116 
z
M 2253 4666 
L 3047 4666 
L 3047 1625 
L 3713 1625 
L 3713 1100 
L 3047 1100 
L 3047 0 
L 2419 0 
L 2419 1100 
L 313 1100 
L 313 1709 
L 2253 4666 
z
" transform="scale(0.015625)"/>
       </defs>
       <use xlink:href="#DejaVuSans-34"/>
       <use xlink:href="#DejaVuSans-30" x="63.623047"/>
       <use xlink:href="#DejaVuSans-30" x="127.246094"/>
      </g>
     </g>
    </g>
    <g id="ytick_4">
     <g id="line2d_11">
      <g>
       <use xlink:href="#m1df0b96bc5" x="90" y="137.263608" style="stroke: #000000; stroke-width: 0.8"/>
      </g>
     </g>
     <g id="text_12">
      <!-- 600 -->
      <g transform="translate(63.9125 141.062827) scale(0.1 -0.1)">
       <defs>
        <path id="DejaVuSans-36" d="M 2113 2584 
Q 1688 2584 1439 2293 
Q 1191 2003 1191 1497 
Q 1191 994 1439 701 
Q 1688 409 2113 409 
Q 2538 409 2786 701 
Q 3034 994 3034 1497 
Q 3034 2003 2786 2293 
Q 2538 2584 2113 2584 
z
M 3366 4563 
L 3366 3988 
Q 3128 4100 2886 4159 
Q 2644 4219 2406 4219 
Q 1781 4219 1451 3797 
Q 1122 3375 1075 2522 
Q 1259 2794 1537 2939 
Q 1816 3084 2150 3084 
Q 2853 3084 3261 2657 
Q 3669 2231 3669 1497 
Q 3669 778 3244 343 
Q 2819 -91 2113 -91 
Q 1303 -91 875 529 
Q 447 1150 447 2328 
Q 447 3434 972 4092 
Q 1497 4750 2381 4750 
Q 2619 4750 2861 4703 
Q 3103 4656 3366 4563 
z
" transform="scale(0.015625)"/>
       </defs>
       <use xlink:href="#DejaVuSans-36"/>
       <use xlink:href="#DejaVuSans-30" x="63.623047"/>
       <use xlink:href="#DejaVuSans-30" x="127.246094"/>
      </g>
     </g>
    </g>
    <g id="ytick_5">
     <g id="line2d_12">
      <g>
       <use xlink:href="#m1df0b96bc5" x="90" y="100.877501" style="stroke: #000000; stroke-width: 0.8"/>
      </g>
     </g>
     <g id="text_13">
      <!-- 800 -->
      <g transform="translate(63.9125 104.676719) scale(0.1 -0.1)">
       <defs>
        <path id="DejaVuSans-38" d="M 2034 2216 
Q 1584 2216 1326 1975 
Q 1069 1734 1069 1313 
Q 1069 891 1326 650 
Q 1584 409 2034 409 
Q 2484 409 2743 651 
Q 3003 894 3003 1313 
Q 3003 1734 2745 1975 
Q 2488 2216 2034 2216 
z
M 1403 2484 
Q 997 2584 770 2862 
Q 544 3141 544 3541 
Q 544 4100 942 4425 
Q 1341 4750 2034 4750 
Q 2731 4750 3128 4425 
Q 3525 4100 3525 3541 
Q 3525 3141 3298 2862 
Q 3072 2584 2669 2484 
Q 3125 2378 3379 2068 
Q 3634 1759 3634 1313 
Q 3634 634 3220 271 
Q 2806 -91 2034 -91 
Q 1263 -91 848 271 
Q 434 634 434 1313 
Q 434 1759 690 2068 
Q 947 2378 1403 2484 
z
M 1172 3481 
Q 1172 3119 1398 2916 
Q 1625 2713 2034 2713 
Q 2441 2713 2670 2916 
Q 2900 3119 2900 3481 
Q 2900 3844 2670 4047 
Q 2441 4250 2034 4250 
Q 1625 4250 1398 4047 
Q 1172 3844 1172 3481 
z
" transform="scale(0.015625)"/>
       </defs>
       <use xlink:href="#DejaVuSans-38"/>
       <use xlink:href="#DejaVuSans-30" x="63.623047"/>
       <use xlink:href="#DejaVuSans-30" x="127.246094"/>
      </g>
     </g>
    </g>
    <g id="ytick_6">
     <g id="line2d_13">
      <g>
       <use xlink:href="#m1df0b96bc5" x="90" y="64.491393" style="stroke: #000000; stroke-width: 0.8"/>
      </g>
     </g>
     <g id="text_14">
      <!-- 1000 -->
      <g transform="translate(57.55 68.290612) scale(0.1 -0.1)">
       <use xlink:href="#DejaVuSans-31"/>
       <use xlink:href="#DejaVuSans-30" x="63.623047"/>
       <use xlink:href="#DejaVuSans-30" x="127.246094"/>
       <use xlink:href="#DejaVuSans-30" x="190.869141"/>
      </g>
     </g>
    </g>
    <g id="text_15">
     <!-- Q_LE [W/m²] -->
     <g transform="translate(51.192187 176.815) rotate(-90) scale(0.1 -0.1)">
      <defs>
       <path id="DejaVuSans-51" d="M 2522 4238 
Q 1834 4238 1429 3725 
Q 1025 3213 1025 2328 
Q 1025 1447 1429 934 
Q 1834 422 2522 422 
Q 3209 422 3611 934 
Q 4013 1447 4013 2328 
Q 4013 3213 3611 3725 
Q 3209 4238 2522 4238 
z
M 3406 84 
L 4238 -825 
L 3475 -825 
L 2784 -78 
Q 2681 -84 2626 -87 
Q 2572 -91 2522 -91 
Q 1538 -91 948 567 
Q 359 1225 359 2328 
Q 359 3434 948 4092 
Q 1538 4750 2522 4750 
Q 3503 4750 4090 4092 
Q 4678 3434 4678 2328 
Q 4678 1516 4351 937 
Q 4025 359 3406 84 
z
" transform="scale(0.015625)"/>
       <path id="DejaVuSans-5f" d="M 3263 -1063 
L 3263 -1509 
L -63 -1509 
L -63 -1063 
L 3263 -1063 
z
" transform="scale(0.015625)"/>
       <path id="DejaVuSans-4c" d="M 628 4666 
L 1259 4666 
L 1259 531 
L 3531 531 
L 3531 0 
L 628 0 
L 628 4666 
z
" transform="scale(0.015625)"/>
       <path id="DejaVuSans-45" d="M 628 4666 
L 3578 4666 
L 3578 4134 
L 1259 4134 
L 1259 2753 
L 3481 2753 
L 3481 2222 
L 1259 2222 
L 1259 531 
L 3634 531 
L 3634 0 
L 628 0 
L 628 4666 
z
" transform="scale(0.015625)"/>
       <path id="DejaVuSans-20" transform="scale(0.015625)"/>
       <path id="DejaVuSans-5b" d="M 550 4863 
L 1875 4863 
L 1875 4416 
L 1125 4416 
L 1125 -397 
L 1875 -397 
L 1875 -844 
L 550 -844 
L 550 4863 
z
" transform="scale(0.015625)"/>
       <path id="DejaVuSans-57" d="M 213 4666 
L 850 4666 
L 1831 722 
L 2809 4666 
L 3519 4666 
L 4500 722 
L 5478 4666 
L 6119 4666 
L 4947 0 
L 4153 0 
L 3169 4050 
L 2175 0 
L 1381 0 
L 213 4666 
z
" transform="scale(0.015625)"/>
       <path id="DejaVuSans-2f" d="M 1625 4666 
L 2156 4666 
L 531 -594 
L 0 -594 
L 1625 4666 
z
" transform="scale(0.015625)"/>
       <path id="DejaVuSans-b2" d="M 838 2444 
L 2163 2444 
L 2163 2088 
L 294 2088 
L 294 2431 
Q 400 2528 597 2703 
Q 1672 3656 1672 3950 
Q 1672 4156 1509 4282 
Q 1347 4409 1081 4409 
Q 919 4409 728 4354 
Q 538 4300 313 4191 
L 313 4575 
Q 553 4663 761 4706 
Q 969 4750 1147 4750 
Q 1600 4750 1872 4544 
Q 2144 4338 2144 4000 
Q 2144 3566 1109 2678 
Q 934 2528 838 2444 
z
" transform="scale(0.015625)"/>
       <path id="DejaVuSans-5d" d="M 1947 4863 
L 1947 -844 
L 622 -844 
L 622 -397 
L 1369 -397 
L 1369 4416 
L 622 4416 
L 622 4863 
L 1947 4863 
z
" transform="scale(0.015625)"/>
      </defs>
      <use xlink:href="#DejaVuSans-51"/>
      <use xlink:href="#DejaVuSans-5f" x="78.710938"/>
      <use xlink:href="#DejaVuSans-4c" x="128.710938"/>
      <use xlink:href="#DejaVuSans-45" x="184.423828"/>
      <use xlink:href="#DejaVuSans-20" x="247.607422"/>
      <use xlink:href="#DejaVuSans-5b" x="279.394531"/>
      <use xlink:href="#DejaVuSans-57" x="318.408203"/>
      <use xlink:href="#DejaVuSans-2f" x="417.285156"/>
      <use xlink:href="#DejaVuSans-6d" x="450.976562"/>
      <use xlink:href="#DejaVuSans-b2" x="548.388672"/>
      <use xlink:href="#DejaVuSans-5d" x="588.476562"/>
     </g>
    </g>
   </g>
   <g id="line2d_14">
    <path d="M 115.363636 219.879266 
L 117.060201 216.494357 
L 118.756765 209.12617 
L 120.453329 208.94424 
L 122.149894 211.036441 
L 123.846458 222.770961 
L 125.543022 232.959071 
L 127.239587 237.78023 
L 128.936151 237.507334 
L 130.632715 243.147181 
L 132.329279 245.057452 
L 134.025844 243.546191 
L 135.722408 242.725711 
L 137.418972 242.208355 
L 139.115537 241.830568 
L 140.812101 242.255639 
L 142.508665 242.886202 
L 147.598358 242.869873 
L 149.294922 242.667639 
L 150.991487 233.595855 
L 152.688051 229.979958 
L 154.384615 223.87264 
L 156.08118 201.848949 
L 157.777744 193.116283 
L 159.474308 182.200451 
L 161.170873 206.636996 
L 162.867437 237.987931 
L 164.564001 234.839023 
L 166.260566 243.182357 
L 167.95713 242.896863 
L 171.350258 243.038323 
L 176.439951 242.576183 
L 179.83308 242.171906 
L 181.529644 242.320507 
L 183.226209 242.320507 
L 184.922773 243.074236 
L 186.619337 243.684012 
L 188.315901 243.900601 
L 190.012466 243.589436 
L 191.70903 243.960817 
L 193.405594 241.801477 
L 196.798723 235.522017 
L 198.495287 230.290759 
L 200.191852 231.275512 
L 201.888416 229.922559 
L 203.58498 231.538775 
L 205.281545 221.497447 
L 206.978109 236.181261 
L 208.674673 242.248626 
L 210.371237 242.453553 
L 217.157495 242.748844 
L 218.854059 243.017037 
L 227.336881 242.093412 
L 230.730009 242.259178 
L 232.426573 242.049466 
L 234.123138 243.545154 
L 235.819702 242.290807 
L 237.516266 239.802688 
L 240.909395 227.96899 
L 242.605959 224.734982 
L 244.302524 235.524291 
L 245.999088 233.704986 
L 247.695652 222.913502 
L 249.392216 227.865016 
L 251.088781 235.778994 
L 252.785345 235.869959 
L 254.481909 240.534113 
L 257.875038 242.996833 
L 259.571602 243.676735 
L 261.268167 243.310445 
L 262.964731 242.467279 
L 264.661295 241.311083 
L 266.35786 241.347624 
L 268.054424 241.687279 
L 269.750988 241.719026 
L 271.447552 241.031738 
L 273.144117 243.874903 
L 274.840681 239.873696 
L 276.537245 234.367732 
L 278.23381 230.651155 
L 279.930374 229.163336 
L 281.626938 228.583641 
L 283.323503 216.698393 
L 285.020067 214.402156 
L 286.716631 205.66949 
L 288.413196 203.850185 
L 290.10976 218.859454 
L 291.806324 217.494975 
L 293.502888 230.412043 
L 295.199453 231.744921 
L 296.896017 229.502391 
L 298.592581 238.221748 
L 300.289146 233.690695 
L 301.98571 240.718081 
L 303.682274 241.151994 
L 305.378839 241.711903 
L 307.075403 241.673371 
L 310.468531 241.797884 
L 312.165096 243.562492 
L 313.86166 235.324168 
L 315.558224 234.687411 
L 317.254789 230.321078 
L 318.951353 226.864398 
L 320.647917 222.043239 
L 322.344482 209.944858 
L 324.041046 207.579761 
L 325.73761 217.206889 
L 327.434175 218.796779 
L 329.130739 213.654241 
L 330.827303 221.770343 
L 332.523867 226.773433 
L 334.220432 241.23691 
L 335.916996 236.870577 
L 337.61356 239.053744 
L 339.310125 243.056216 
L 341.006689 239.357104 
L 342.703253 239.756833 
L 344.399818 240.704618 
L 346.096382 240.697459 
L 347.792946 240.828231 
L 349.48951 241.244942 
L 351.186075 241.461822 
L 352.882639 243.088953 
L 354.579203 237.946996 
L 356.275768 229.966314 
L 357.972332 229.775286 
L 359.668896 220.769725 
L 361.365461 232.518254 
L 363.062025 216.130496 
L 364.758589 220.67876 
L 366.455154 229.411425 
L 368.151718 230.775904 
L 369.848282 223.225787 
L 371.544846 220.86069 
L 373.241411 224.408336 
L 374.937975 234.32355 
L 376.634539 238.144091 
L 378.331104 237.598299 
L 380.027668 238.235056 
L 381.724232 241.23691 
L 383.420797 242.874285 
L 386.813925 244.056834 
L 388.51049 245.148417 
L 390.207054 243.783938 
L 391.903618 243.874903 
L 393.600182 242.510424 
L 396.993311 231.867488 
L 398.689875 223.589648 
L 402.083004 191.296978 
L 403.779568 190.29636 
L 405.476133 181.927555 
L 407.172697 176.287708 
L 408.869261 186.384853 
L 410.565825 224.463915 
L 412.26239 220.042003 
L 413.958954 233.413897 
L 415.655518 234.518715 
L 417.352083 236.909992 
L 419.048647 240.054362 
L 422.441776 239.417605 
L 424.13834 243.329111 
L 425.834904 244.420695 
L 427.531469 244.420695 
L 429.228033 243.874903 
L 430.924597 242.874285 
L 432.621161 244.69359 
L 434.317726 243.602007 
L 436.01429 238.053126 
L 437.710854 226.500537 
L 439.407419 208.034587 
L 441.103983 209.762927 
L 442.800547 197.300685 
L 444.497112 196.300068 
L 446.193676 189.295742 
L 447.89024 183.655895 
L 449.586804 204.850803 
L 451.283369 223.407718 
L 452.979933 224.408336 
L 454.676497 218.131732 
L 456.373062 236.961543 
L 458.069626 241.23691 
L 459.76619 235.688029 
L 461.462755 240.222184 
L 463.159319 241.446249 
L 464.855883 240.236292 
L 466.552448 239.50857 
L 468.249012 245.785174 
L 469.945576 245.876139 
L 471.64214 246.24 
L 473.338705 244.294071 
L 475.035269 242.863087 
L 476.731833 240.600153 
L 478.428398 231.230731 
L 480.124962 224.863162 
L 481.821526 208.034587 
L 483.518091 184.019756 
L 485.214655 198.574199 
L 486.911219 198.75613 
L 488.607784 185.970413 
L 492.000912 201.212192 
L 493.697476 210.126788 
L 495.394041 225.86378 
L 497.090605 237.689265 
L 498.787169 240.964014 
L 500.483734 244.784556 
L 502.180298 239.963396 
L 503.876862 237.437527 
L 505.573427 232.125738 
L 507.269991 241.250864 
L 508.966555 241.980724 
L 510.663119 242.862942 
L 512.359684 243.150301 
L 514.056248 243.303759 
L 515.752812 243.198986 
L 519.145941 236.415751 
L 520.842505 231.0488 
L 522.53907 227.501155 
L 524.235634 214.493121 
L 525.932198 206.579143 
L 527.628763 204.759837 
L 529.325327 210.217754 
L 531.021891 209.162556 
L 532.718455 190.944487 
L 534.41502 195.026554 
L 536.111584 206.033351 
L 537.808148 231.594592 
L 539.504713 238.962779 
L 541.201277 240.964014 
L 542.897841 228.046946 
L 544.594406 237.168061 
L 546.29097 230.412043 
L 547.987534 233.777758 
L 549.684099 241.712668 
L 551.380663 237.876981 
L 553.077227 241.707828 
L 554.773791 242.444429 
L 558.16692 230.412043 
L 559.863484 229.32046 
L 561.560049 215.766635 
L 563.256613 208.307483 
L 564.953177 203.122463 
L 566.649742 187.931263 
L 568.346306 195.020097 
L 570.04287 177.561222 
L 571.739434 189.113811 
L 573.435999 207.501804 
L 575.132563 217.040149 
L 576.829127 227.683085 
L 578.525692 232.77714 
L 580.222256 222.072148 
L 581.91882 242.010115 
L 583.615385 238.871813 
L 585.311949 239.781466 
L 587.008513 239.599535 
L 588.705078 242.78332 
L 590.401642 242.692355 
L 592.098206 242.874285 
L 593.79477 243.238146 
L 595.491335 241.964632 
L 597.187899 236.961543 
L 598.884463 229.411425 
L 600.581028 217.676906 
L 602.277592 188.295124 
L 603.974156 189.113811 
L 605.670721 177.743153 
L 607.367285 168.191799 
L 609.063849 165.553807 
L 610.760413 160.004925 
L 614.153542 182.746242 
L 615.850106 205.760455 
L 617.546671 232.276831 
L 619.243235 234.232585 
L 620.939799 242.692355 
L 622.636364 243.602007 
L 622.636364 243.602007 
" clip-path="url(#p10dca81881)" style="fill: none; stroke: #1f77b4; stroke-opacity: 0.6; stroke-width: 1.5; stroke-linecap: square"/>
   </g>
   <g id="line2d_15">
    <path d="M 115.363636 235.052699 
L 117.060201 230.547335 
L 118.756765 229.3028 
L 120.453329 225.989082 
L 122.149894 220.012429 
L 123.846458 227.42464 
L 125.543022 228.664772 
L 127.239587 228.39351 
L 128.936151 239.113937 
L 130.632715 245.810004 
L 132.329279 245.920933 
L 134.025844 245.89747 
L 135.722408 237.858013 
L 137.418972 239.650358 
L 139.115537 240.62525 
L 140.812101 241.064154 
L 142.508665 240.243222 
L 144.20523 241.863405 
L 145.901794 242.820491 
L 147.598358 243.534134 
L 149.294922 242.747003 
L 150.991487 234.199812 
L 152.688051 230.822683 
L 154.384615 230.407761 
L 156.08118 224.681681 
L 157.777744 222.763254 
L 159.474308 221.606137 
L 161.170873 227.495171 
L 162.867437 236.1735 
L 164.564001 210.971365 
L 166.260566 233.178726 
L 167.95713 235.312572 
L 169.653694 238.264278 
L 171.350258 240.076005 
L 173.046823 240.973507 
L 174.743387 240.964626 
L 176.439951 241.162284 
L 178.136516 241.506715 
L 179.83308 242.139649 
L 181.529644 242.222185 
L 183.226209 242.153756 
L 184.922773 241.158681 
L 186.619337 240.953705 
L 188.315901 241.265411 
L 190.012466 241.017401 
L 191.70903 241.218785 
L 193.405594 240.272567 
L 195.102159 234.595852 
L 196.798723 230.485746 
L 198.495287 225.967561 
L 200.191852 223.744594 
L 201.888416 223.459703 
L 203.58498 223.995033 
L 205.281545 218.594428 
L 206.978109 225.688939 
L 208.674673 236.176851 
L 210.371237 239.744684 
L 212.067802 241.843189 
L 213.764366 242.614082 
L 215.46093 243.240208 
L 217.157495 243.338169 
L 218.854059 244.403609 
L 220.550623 242.618527 
L 225.640316 243.576355 
L 227.336881 243.295208 
L 229.033445 243.603119 
L 230.730009 243.569799 
L 232.426573 243.100068 
L 234.123138 242.872778 
L 235.819702 241.805707 
L 237.516266 239.905272 
L 239.212831 233.560951 
L 240.909395 224.138473 
L 242.605959 216.798894 
L 244.302524 224.193594 
L 245.999088 226.235029 
L 247.695652 218.109229 
L 249.392216 219.480071 
L 251.088781 229.236661 
L 252.785345 237.92371 
L 254.481909 241.204462 
L 256.178474 243.866316 
L 257.875038 243.4933 
L 259.571602 243.281411 
L 261.268167 243.801084 
L 262.964731 244.172216 
L 264.661295 244.90631 
L 266.35786 244.595675 
L 268.054424 243.718616 
L 269.750988 243.799258 
L 271.447552 243.561874 
L 273.144117 242.655635 
L 274.840681 239.949964 
L 276.537245 233.716406 
L 278.23381 228.677247 
L 281.626938 220.783055 
L 283.323503 209.207936 
L 285.020067 192.06171 
L 286.716631 201.083667 
L 290.10976 210.729769 
L 291.806324 206.997287 
L 293.502888 236.196547 
L 296.896017 239.457884 
L 298.592581 241.594318 
L 300.289146 241.925746 
L 301.98571 243.079141 
L 305.378839 242.48876 
L 307.075403 243.493375 
L 308.771967 243.227427 
L 310.468531 243.750072 
L 312.165096 242.895646 
L 313.86166 239.214233 
L 315.558224 230.955277 
L 317.254789 226.067658 
L 318.951353 222.265522 
L 322.344482 198.753531 
L 324.041046 201.015193 
L 325.73761 207.801869 
L 327.434175 209.340134 
L 329.130739 216.675999 
L 330.827303 213.777791 
L 332.523867 226.570236 
L 334.220432 244.174576 
L 335.916996 241.101343 
L 337.61356 241.595739 
L 339.310125 244.211555 
L 341.006689 243.205754 
L 342.703253 242.873093 
L 344.399818 243.882708 
L 346.096382 244.218554 
L 347.792946 244.229666 
L 349.48951 244.673208 
L 351.186075 244.635339 
L 352.882639 243.80871 
L 354.579203 241.083917 
L 356.275768 231.042122 
L 359.668896 205.947613 
L 361.365461 212.979808 
L 363.062025 202.639951 
L 364.758589 205.899921 
L 366.455154 211.138577 
L 368.151718 213.167723 
L 369.848282 212.561686 
L 371.544846 209.770922 
L 373.241411 218.371537 
L 374.937975 238.716218 
L 376.634539 242.910784 
L 378.331104 243.1745 
L 380.027668 244.433621 
L 381.724232 244.565062 
L 383.420797 245.334574 
L 385.117361 245.321918 
L 386.813925 245.639295 
L 388.51049 245.626906 
L 390.207054 244.984373 
L 391.903618 244.116225 
L 393.600182 242.520013 
L 395.296747 234.356277 
L 396.993311 221.442179 
L 398.689875 205.363576 
L 400.38644 192.601977 
L 402.083004 192.704719 
L 403.779568 177.45963 
L 405.476133 198.393751 
L 407.172697 204.046348 
L 408.869261 198.629354 
L 410.565825 204.005418 
L 412.26239 207.488174 
L 413.958954 206.014444 
L 415.655518 235.953128 
L 417.352083 237.184352 
L 419.048647 239.763237 
L 420.745211 241.538311 
L 422.441776 241.863725 
L 424.13834 243.348713 
L 425.834904 244.242667 
L 427.531469 244.533018 
L 429.228033 243.887649 
L 430.924597 243.472797 
L 432.621161 244.745124 
L 434.317726 243.551636 
L 436.01429 233.342284 
L 439.407419 207.158619 
L 441.103983 190.567712 
L 442.800547 200.089217 
L 444.497112 202.014934 
L 446.193676 194.564315 
L 447.89024 200.920067 
L 449.586804 203.608864 
L 451.283369 207.481322 
L 452.979933 209.47385 
L 454.676497 231.16146 
L 456.373062 237.42102 
L 458.069626 240.529345 
L 459.76619 237.750623 
L 461.462755 236.498714 
L 463.159319 238.865372 
L 464.855883 239.820698 
L 466.552448 239.124722 
L 468.249012 242.15465 
L 469.945576 243.29689 
L 473.338705 244.251466 
L 475.035269 242.09791 
L 478.428398 224.859502 
L 480.124962 210.479978 
L 481.821526 191.027369 
L 483.518091 202.438885 
L 485.214655 200.964988 
L 486.911219 208.976359 
L 488.607784 206.301286 
L 490.304348 204.402486 
L 492.000912 208.526748 
L 493.697476 214.987698 
L 495.394041 225.317842 
L 497.090605 238.95105 
L 498.787169 242.127899 
L 500.483734 245.559929 
L 502.180298 242.957086 
L 503.876862 242.784909 
L 505.573427 240.535086 
L 507.269991 241.321231 
L 508.966555 241.397374 
L 510.663119 241.057421 
L 514.056248 241.981258 
L 515.752812 239.284082 
L 517.449377 238.420956 
L 519.145941 229.348319 
L 520.842505 217.189008 
L 522.53907 196.082698 
L 524.235634 186.31392 
L 525.932198 181.725831 
L 527.628763 181.628731 
L 529.325327 182.40565 
L 531.021891 191.945794 
L 532.718455 196.471538 
L 534.41502 197.00909 
L 536.111584 208.738702 
L 537.808148 239.887319 
L 539.504713 245.590297 
L 541.201277 245.446331 
L 542.897841 238.394364 
L 544.594406 238.824908 
L 546.29097 238.542172 
L 547.987534 240.045402 
L 549.684099 240.901947 
L 551.380663 239.928917 
L 553.077227 239.386295 
L 554.773791 239.429356 
L 556.470356 235.883989 
L 558.16692 227.947139 
L 561.560049 214.80708 
L 563.256613 207.371841 
L 564.953177 203.596308 
L 568.346306 208.989503 
L 570.04287 191.444369 
L 571.739434 210.364745 
L 573.435999 210.520145 
L 575.132563 218.746922 
L 576.829127 237.082703 
L 578.525692 240.30988 
L 580.222256 240.209355 
L 581.91882 240.306591 
L 583.615385 243.507118 
L 585.311949 243.875086 
L 587.008513 244.975047 
L 588.705078 245.421778 
L 590.401642 244.77965 
L 592.098206 244.506694 
L 593.79477 244.635161 
L 595.491335 243.402499 
L 598.884463 225.166333 
L 600.581028 217.731977 
L 602.277592 203.305479 
L 603.974156 211.267594 
L 605.670721 202.668441 
L 607.367285 211.69663 
L 609.063849 204.680454 
L 610.760413 210.382828 
L 612.456978 210.347775 
L 614.153542 215.958423 
L 615.850106 221.984151 
L 617.546671 235.741142 
L 619.243235 239.402697 
L 620.939799 242.467771 
L 622.636364 243.758546 
L 622.636364 243.758546 
" clip-path="url(#p10dca81881)" style="fill: none; stroke: #ff7f0e; stroke-opacity: 0.8; stroke-width: 1.8; stroke-linecap: square"/>
   </g>
   <g id="line2d_16">
    <path d="M 115.363636 159.149372 
L 117.060201 158.254827 
L 118.756765 116.533754 
L 120.453329 98.091878 
L 122.149894 88.649124 
L 123.846458 116.148562 
L 125.543022 169.244413 
L 127.239587 201.991512 
L 128.936151 231.139538 
L 130.632715 244.319499 
L 132.329279 244.888934 
L 134.025844 244.768133 
L 135.722408 235.466177 
L 137.418972 238.036309 
L 139.115537 239.308375 
L 140.812101 239.767659 
L 142.508665 238.925971 
L 144.20523 240.875426 
L 145.901794 242.023671 
L 147.598358 242.893762 
L 149.294922 239.039093 
L 150.991487 214.194777 
L 154.384615 186.130301 
L 156.08118 135.853502 
L 157.777744 105.631935 
L 159.474308 71.265052 
L 161.170873 62.838506 
L 162.867437 199.551332 
L 164.564001 180.25327 
L 166.260566 223.877176 
L 167.95713 233.332513 
L 169.653694 235.682624 
L 171.350258 238.85339 
L 173.046823 239.907425 
L 176.439951 240.309287 
L 178.136516 240.688768 
L 179.83308 241.324862 
L 183.226209 241.412793 
L 184.922773 240.032367 
L 186.619337 239.979426 
L 188.315901 240.386688 
L 190.012466 239.962145 
L 191.70903 236.799199 
L 193.405594 232.273905 
L 195.102159 216.405338 
L 196.798723 206.54226 
L 198.495287 190.34101 
L 200.191852 195.899402 
L 201.888416 206.154645 
L 203.58498 189.58269 
L 205.281545 163.856658 
L 206.978109 202.024897 
L 208.674673 226.858749 
L 210.371237 237.13033 
L 212.067802 240.736129 
L 213.764366 241.654403 
L 215.46093 242.427025 
L 217.157495 242.612385 
L 218.854059 243.974862 
L 220.550623 241.889986 
L 223.943752 242.881684 
L 225.640316 243.103909 
L 227.336881 242.794682 
L 229.033445 243.121055 
L 230.730009 242.605613 
L 232.426573 242.48215 
L 234.123138 240.019374 
L 235.819702 237.004251 
L 237.516266 228.509186 
L 239.212831 213.831355 
L 242.605959 158.692686 
L 244.302524 194.292175 
L 245.999088 205.606072 
L 247.695652 188.523603 
L 249.392216 194.208727 
L 251.088781 223.482381 
L 252.785345 236.627653 
L 254.481909 240.089701 
L 256.178474 241.298837 
L 257.875038 241.276156 
L 259.571602 242.221196 
L 261.268167 242.933515 
L 262.964731 243.50832 
L 264.661295 244.521896 
L 266.35786 244.118148 
L 268.054424 243.089741 
L 269.750988 243.277498 
L 271.447552 242.701194 
L 273.144117 238.782821 
L 274.840681 231.517676 
L 276.537245 217.266782 
L 278.23381 199.867351 
L 279.930374 189.359013 
L 281.626938 174.251039 
L 283.323503 138.732666 
L 285.020067 85.830499 
L 286.716631 114.578656 
L 288.413196 139.468816 
L 290.10976 173.34399 
L 291.806324 211.699076 
L 293.502888 234.806837 
L 295.199453 236.783197 
L 296.896017 238.574601 
L 298.592581 240.933844 
L 300.289146 241.348738 
L 301.98571 242.574427 
L 305.378839 241.888239 
L 307.075403 242.853059 
L 308.771967 242.679586 
L 310.468531 243.219267 
L 312.165096 241.923783 
L 313.86166 229.633864 
L 315.558224 214.853057 
L 317.254789 195.392658 
L 318.951353 184.653915 
L 322.344482 104.827683 
L 324.041046 116.636645 
L 325.73761 150.084026 
L 327.434175 164.8192 
L 329.130739 178.351866 
L 330.827303 196.263635 
L 332.523867 224.941983 
L 334.220432 243.129528 
L 335.916996 239.803669 
L 337.61356 240.462419 
L 339.310125 243.414941 
L 341.006689 242.454443 
L 342.703253 241.781341 
L 344.399818 242.083747 
L 346.096382 243.29236 
L 347.792946 243.373111 
L 349.48951 244.010753 
L 351.186075 243.998012 
L 352.882639 242.908071 
L 354.579203 233.587448 
L 356.275768 213.334894 
L 357.972332 179.260758 
L 359.668896 156.023224 
L 361.365461 170.988188 
L 363.062025 117.252704 
L 364.758589 149.979969 
L 366.455154 176.74872 
L 368.151718 180.303472 
L 369.848282 167.98041 
L 371.544846 178.66085 
L 373.241411 216.017375 
L 374.937975 237.390867 
L 376.634539 242.115112 
L 378.331104 242.589288 
L 380.027668 243.963935 
L 381.724232 244.156744 
L 383.420797 245.089006 
L 385.117361 245.035779 
L 386.813925 245.338864 
L 388.51049 245.327922 
L 390.207054 244.627052 
L 391.903618 243.641183 
L 393.600182 239.83717 
L 395.296747 222.153322 
L 396.993311 179.420303 
L 398.689875 139.861759 
L 400.38644 112.995203 
L 402.083004 98.530726 
L 403.779568 58.395987 
L 405.476133 81.563449 
L 407.172697 86.661579 
L 408.869261 114.144528 
L 410.565825 186.44335 
L 412.26239 177.876136 
L 413.958954 211.766859 
L 415.655518 234.24725 
L 417.352083 235.691324 
L 419.048647 238.568833 
L 420.745211 240.532214 
L 422.441776 241.017373 
L 424.13834 242.558769 
L 425.834904 243.559781 
L 427.531469 243.943575 
L 429.228033 243.280803 
L 430.924597 242.785056 
L 432.621161 244.197815 
L 434.317726 242.091241 
L 436.01429 220.656557 
L 437.710854 178.286579 
L 441.103983 78.752431 
L 442.800547 68.791068 
L 444.497112 97.244775 
L 446.193676 93.47096 
L 447.89024 98.036213 
L 452.979933 199.085723 
L 454.676497 223.911862 
L 456.373062 235.236405 
L 458.069626 238.855144 
L 459.76619 236.21204 
L 461.462755 235.137593 
L 463.159319 237.311054 
L 464.855883 238.508313 
L 466.552448 237.843775 
L 468.249012 241.033899 
L 469.945576 242.269355 
L 473.338705 243.433001 
L 475.035269 239.669526 
L 476.731833 224.283791 
L 478.428398 185.060843 
L 480.124962 134.724376 
L 481.821526 107.454294 
L 483.518091 44.64 
L 485.214655 48.933934 
L 486.911219 70.417716 
L 488.607784 63.22533 
L 490.304348 81.498112 
L 492.000912 116.399416 
L 493.697476 147.264902 
L 495.394041 200.632952 
L 497.090605 236.532193 
L 500.483734 244.930014 
L 502.180298 241.883523 
L 503.876862 241.707254 
L 505.573427 239.25882 
L 507.269991 240.230549 
L 508.966555 238.57785 
L 510.663119 238.529567 
L 512.359684 238.668577 
L 514.056248 240.386173 
L 515.752812 237.785638 
L 517.449377 226.398585 
L 519.145941 208.92496 
L 520.842505 169.120579 
L 524.235634 80.648311 
L 525.932198 68.494154 
L 527.628763 65.438145 
L 529.325327 101.68655 
L 531.021891 82.245055 
L 532.718455 89.724717 
L 536.111584 184.544128 
L 537.808148 237.950641 
L 539.504713 244.822542 
L 541.201277 244.762754 
L 542.897841 237.248177 
L 544.594406 237.829191 
L 546.29097 237.661995 
L 547.987534 239.246311 
L 549.684099 240.249839 
L 551.380663 239.277364 
L 553.077227 238.690795 
L 554.773791 238.684689 
L 556.470356 224.471939 
L 558.16692 202.288302 
L 559.863484 174.888951 
L 561.560049 145.233674 
L 563.256613 111.90936 
L 564.953177 89.859877 
L 566.649742 96.355921 
L 568.346306 86.406772 
L 570.04287 83.393281 
L 573.435999 157.170478 
L 575.132563 210.759284 
L 576.829127 235.35151 
L 578.525692 239.070012 
L 580.222256 239.286602 
L 581.91882 239.364748 
L 583.615385 242.809241 
L 585.311949 243.297781 
L 587.008513 244.508354 
L 588.705078 245.026457 
L 590.401642 244.341273 
L 592.098206 244.056179 
L 593.79477 244.184648 
L 595.491335 242.532979 
L 597.187899 223.287401 
L 600.581028 152.639626 
L 602.277592 92.989017 
L 603.974156 102.278102 
L 605.670721 54.324092 
L 607.367285 46.721652 
L 609.063849 48.224378 
L 610.760413 71.991353 
L 614.153542 135.309165 
L 615.850106 187.403599 
L 617.546671 233.328694 
L 619.243235 237.606049 
L 620.939799 241.173215 
L 622.636364 242.741935 
L 622.636364 242.741935 
" clip-path="url(#p10dca81881)" style="fill: none; stroke: #2ca02c; stroke-opacity: 0.6; stroke-width: 1.5; stroke-linecap: square"/>
   </g>
   <g id="patch_3">
    <path d="M 90 256.32 
L 90 34.56 
" style="fill: none; stroke: #000000; stroke-width: 0.8; stroke-linejoin: miter; stroke-linecap: square"/>
   </g>
   <g id="patch_4">
    <path d="M 648 256.32 
L 648 34.56 
" style="fill: none; stroke: #000000; stroke-width: 0.8; stroke-linejoin: miter; stroke-linecap: square"/>
   </g>
   <g id="patch_5">
    <path d="M 90 256.32 
L 648 256.32 
" style="fill: none; stroke: #000000; stroke-width: 0.8; stroke-linejoin: miter; stroke-linecap: square"/>
   </g>
   <g id="patch_6">
    <path d="M 90 34.56 
L 648 34.56 
" style="fill: none; stroke: #000000; stroke-width: 0.8; stroke-linejoin: miter; stroke-linecap: square"/>
   </g>
   <g id="legend_1">
    <g id="patch_7">
     <path d="M 97 86.594375 
L 208.684375 86.594375 
Q 210.684375 86.594375 210.684375 84.594375 
L 210.684375 41.56 
Q 210.684375 39.56 208.684375 39.56 
L 97 39.56 
Q 95 39.56 95 41.56 
L 95 84.594375 
Q 95 86.594375 97 86.594375 
z
" style="fill: #ffffff; opacity: 0.8; stroke: #cccccc; stroke-linejoin: miter"/>
    </g>
    <g id="line2d_17">
     <path d="M 99 47.658438 
L 109 47.658438 
L 119 47.658438 
" style="fill: none; stroke: #1f77b4; stroke-opacity: 0.6; stroke-width: 1.5; stroke-linecap: square"/>
    </g>
    <g id="text_16">
     <!-- Observed -->
     <g transform="translate(127 51.158438) scale(0.1 -0.1)">
      <defs>
       <path id="DejaVuSans-4f" d="M 2522 4238 
Q 1834 4238 1429 3725 
Q 1025 3213 1025 2328 
Q 1025 1447 1429 934 
Q 1834 422 2522 422 
Q 3209 422 3611 934 
Q 4013 1447 4013 2328 
Q 4013 3213 3611 3725 
Q 3209 4238 2522 4238 
z
M 2522 4750 
Q 3503 4750 4090 4092 
Q 4678 3434 4678 2328 
Q 4678 1225 4090 567 
Q 3503 -91 2522 -91 
Q 1538 -91 948 565 
Q 359 1222 359 2328 
Q 359 3434 948 4092 
Q 1538 4750 2522 4750 
z
" transform="scale(0.015625)"/>
       <path id="DejaVuSans-62" d="M 3116 1747 
Q 3116 2381 2855 2742 
Q 2594 3103 2138 3103 
Q 1681 3103 1420 2742 
Q 1159 2381 1159 1747 
Q 1159 1113 1420 752 
Q 1681 391 2138 391 
Q 2594 391 2855 752 
Q 3116 1113 3116 1747 
z
M 1159 2969 
Q 1341 3281 1617 3432 
Q 1894 3584 2278 3584 
Q 2916 3584 3314 3078 
Q 3713 2572 3713 1747 
Q 3713 922 3314 415 
Q 2916 -91 2278 -91 
Q 1894 -91 1617 61 
Q 1341 213 1159 525 
L 1159 0 
L 581 0 
L 581 4863 
L 1159 4863 
L 1159 2969 
z
" transform="scale(0.015625)"/>
       <path id="DejaVuSans-72" d="M 2631 2963 
Q 2534 3019 2420 3045 
Q 2306 3072 2169 3072 
Q 1681 3072 1420 2755 
Q 1159 2438 1159 1844 
L 1159 0 
L 581 0 
L 581 3500 
L 1159 3500 
L 1159 2956 
Q 1341 3275 1631 3429 
Q 1922 3584 2338 3584 
Q 2397 3584 2469 3576 
Q 2541 3569 2628 3553 
L 2631 2963 
z
" transform="scale(0.015625)"/>
       <path id="DejaVuSans-76" d="M 191 3500 
L 800 3500 
L 1894 563 
L 2988 3500 
L 3597 3500 
L 2284 0 
L 1503 0 
L 191 3500 
z
" transform="scale(0.015625)"/>
       <path id="DejaVuSans-64" d="M 2906 2969 
L 2906 4863 
L 3481 4863 
L 3481 0 
L 2906 0 
L 2906 525 
Q 2725 213 2448 61 
Q 2172 -91 1784 -91 
Q 1150 -91 751 415 
Q 353 922 353 1747 
Q 353 2572 751 3078 
Q 1150 3584 1784 3584 
Q 2172 3584 2448 3432 
Q 2725 3281 2906 2969 
z
M 947 1747 
Q 947 1113 1208 752 
Q 1469 391 1925 391 
Q 2381 391 2643 752 
Q 2906 1113 2906 1747 
Q 2906 2381 2643 2742 
Q 2381 3103 1925 3103 
Q 1469 3103 1208 2742 
Q 947 2381 947 1747 
z
" transform="scale(0.015625)"/>
      </defs>
      <use xlink:href="#DejaVuSans-4f"/>
      <use xlink:href="#DejaVuSans-62" x="78.710938"/>
      <use xlink:href="#DejaVuSans-73" x="142.1875"/>
      <use xlink:href="#DejaVuSans-65" x="194.287109"/>
      <use xlink:href="#DejaVuSans-72" x="255.810547"/>
      <use xlink:href="#DejaVuSans-76" x="296.923828"/>
      <use xlink:href="#DejaVuSans-65" x="356.103516"/>
      <use xlink:href="#DejaVuSans-64" x="417.626953"/>
     </g>
    </g>
    <g id="line2d_18">
     <path d="M 99 62.336563 
L 109 62.336563 
L 119 62.336563 
" style="fill: none; stroke: #ff7f0e; stroke-opacity: 0.8; stroke-width: 1.8; stroke-linecap: square"/>
    </g>
    <g id="text_17">
     <!-- Hybrid Model -->
     <g transform="translate(127 65.836563) scale(0.1 -0.1)">
      <defs>
       <path id="DejaVuSans-48" d="M 628 4666 
L 1259 4666 
L 1259 2753 
L 3553 2753 
L 3553 4666 
L 4184 4666 
L 4184 0 
L 3553 0 
L 3553 2222 
L 1259 2222 
L 1259 0 
L 628 0 
L 628 4666 
z
" transform="scale(0.015625)"/>
       <path id="DejaVuSans-79" d="M 2059 -325 
Q 1816 -950 1584 -1140 
Q 1353 -1331 966 -1331 
L 506 -1331 
L 506 -850 
L 844 -850 
Q 1081 -850 1212 -737 
Q 1344 -625 1503 -206 
L 1606 56 
L 191 3500 
L 800 3500 
L 1894 763 
L 2988 3500 
L 3597 3500 
L 2059 -325 
z
" transform="scale(0.015625)"/>
       <path id="DejaVuSans-4d" d="M 628 4666 
L 1569 4666 
L 2759 1491 
L 3956 4666 
L 4897 4666 
L 4897 0 
L 4281 0 
L 4281 4097 
L 3078 897 
L 2444 897 
L 1241 4097 
L 1241 0 
L 628 0 
L 628 4666 
z
" transform="scale(0.015625)"/>
       <path id="DejaVuSans-6f" d="M 1959 3097 
Q 1497 3097 1228 2736 
Q 959 2375 959 1747 
Q 959 1119 1226 758 
Q 1494 397 1959 397 
Q 2419 397 2687 759 
Q 2956 1122 2956 1747 
Q 2956 2369 2687 2733 
Q 2419 3097 1959 3097 
z
M 1959 3584 
Q 2709 3584 3137 3096 
Q 3566 2609 3566 1747 
Q 3566 888 3137 398 
Q 2709 -91 1959 -91 
Q 1206 -91 779 398 
Q 353 888 353 1747 
Q 353 2609 779 3096 
Q 1206 3584 1959 3584 
z
" transform="scale(0.015625)"/>
       <path id="DejaVuSans-6c" d="M 603 4863 
L 1178 4863 
L 1178 0 
L 603 0 
L 603 4863 
z
" transform="scale(0.015625)"/>
      </defs>
      <use xlink:href="#DejaVuSans-48"/>
      <use xlink:href="#DejaVuSans-79" x="75.195312"/>
      <use xlink:href="#DejaVuSans-62" x="134.375"/>
      <use xlink:href="#DejaVuSans-72" x="197.851562"/>
      <use xlink:href="#DejaVuSans-69" x="238.964844"/>
      <use xlink:href="#DejaVuSans-64" x="266.748047"/>
      <use xlink:href="#DejaVuSans-20" x="330.224609"/>
      <use xlink:href="#DejaVuSans-4d" x="362.011719"/>
      <use xlink:href="#DejaVuSans-6f" x="448.291016"/>
      <use xlink:href="#DejaVuSans-64" x="509.472656"/>
      <use xlink:href="#DejaVuSans-65" x="572.949219"/>
      <use xlink:href="#DejaVuSans-6c" x="634.472656"/>
     </g>
    </g>
    <g id="line2d_19">
     <path d="M 99 77.014688 
L 109 77.014688 
L 119 77.014688 
" style="fill: none; stroke: #2ca02c; stroke-opacity: 0.6; stroke-width: 1.5; stroke-linecap: square"/>
    </g>
    <g id="text_18">
     <!-- Empirical Model -->
     <g transform="translate(127 80.514688) scale(0.1 -0.1)">
      <defs>
       <path id="DejaVuSans-63" d="M 3122 3366 
L 3122 2828 
Q 2878 2963 2633 3030 
Q 2388 3097 2138 3097 
Q 1578 3097 1268 2742 
Q 959 2388 959 1747 
Q 959 1106 1268 751 
Q 1578 397 2138 397 
Q 2388 397 2633 464 
Q 2878 531 3122 666 
L 3122 134 
Q 2881 22 2623 -34 
Q 2366 -91 2075 -91 
Q 1284 -91 818 406 
Q 353 903 353 1747 
Q 353 2603 823 3093 
Q 1294 3584 2113 3584 
Q 2378 3584 2631 3529 
Q 2884 3475 3122 3366 
z
" transform="scale(0.015625)"/>
       <path id="DejaVuSans-61" d="M 2194 1759 
Q 1497 1759 1228 1600 
Q 959 1441 959 1056 
Q 959 750 1161 570 
Q 1363 391 1709 391 
Q 2188 391 2477 730 
Q 2766 1069 2766 1631 
L 2766 1759 
L 2194 1759 
z
M 3341 1997 
L 3341 0 
L 2766 0 
L 2766 531 
Q 2569 213 2275 61 
Q 1981 -91 1556 -91 
Q 1019 -91 701 211 
Q 384 513 384 1019 
Q 384 1609 779 1909 
Q 1175 2209 1959 2209 
L 2766 2209 
L 2766 2266 
Q 2766 2663 2505 2880 
Q 2244 3097 1772 3097 
Q 1472 3097 1187 3025 
Q 903 2953 641 2809 
L 641 3341 
Q 956 3463 1253 3523 
Q 1550 3584 1831 3584 
Q 2591 3584 2966 3190 
Q 3341 2797 3341 1997 
z
" transform="scale(0.015625)"/>
      </defs>
      <use xlink:href="#DejaVuSans-45"/>
      <use xlink:href="#DejaVuSans-6d" x="63.183594"/>
      <use xlink:href="#DejaVuSans-70" x="160.595703"/>
      <use xlink:href="#DejaVuSans-69" x="224.072266"/>
      <use xlink:href="#DejaVuSans-72" x="251.855469"/>
      <use xlink:href="#DejaVuSans-69" x="292.96875"/>
      <use xlink:href="#DejaVuSans-63" x="320.751953"/>
      <use xlink:href="#DejaVuSans-61" x="375.732422"/>
      <use xlink:href="#DejaVuSans-6c" x="437.011719"/>
      <use xlink:href="#DejaVuSans-20" x="464.794922"/>
      <use xlink:href="#DejaVuSans-4d" x="496.582031"/>
      <use xlink:href="#DejaVuSans-6f" x="582.861328"/>
      <use xlink:href="#DejaVuSans-64" x="644.042969"/>
      <use xlink:href="#DejaVuSans-65" x="707.519531"/>
      <use xlink:href="#DejaVuSans-6c" x="769.042969"/>
     </g>
    </g>
   </g>
  </g>
 </g>
 <defs>
  <clipPath id="p10dca81881">
   <rect x="90" y="34.56" width="558" height="221.76"/>
  </clipPath>
 </defs>
</svg>
