<?xml version="1.0" encoding="utf-8" standalone="no"?>
<!DOCTYPE svg PUBLIC "-//W3C//DTD SVG 1.1//EN"
  "http://www.w3.org/Graphics/SVG/1.1/DTD/svg11.dtd">
<svg xmlns:xlink="http://www.w3.org/1999/xlink" width="720pt" height="288pt" viewBox="0 0 720 288" xmlns="http://www.w3.org/2000/svg" version="1.1">
 <metadata>
  <rdf:RDF xmlns:dc="http://purl.org/dc/elements/1.1/" xmlns:cc="http://creativecommons.org/ns#" xmlns:rdf="http://www.w3.org/1999/02/22-rdf-syntax-ns#">
   <cc:Work>
    <dc:type rdf:resource="http://purl.org/dc/dcmitype/StillImage"/>
    <dc:date>2025-01-06T16:16:55.956737</dc:date>
    <dc:format>image/svg+xml</dc:format>
    <dc:creator>
     <cc:Agent>
      <dc:title>Matplotlib v3.6.0, https://matplotlib.org/</dc:title>
     </cc:Agent>
    </dc:creator>
   </cc:Work>
  </rdf:RDF>
 </metadata>
 <defs>
  <style type="text/css">*{stroke-linejoin: round; stroke-linecap: butt}</style>
 </defs>
 <g id="figure_1">
  <g id="patch_1">
   <path d="M 0 288 
L 720 288 
L 720 0 
L 0 0 
z
" style="fill: #ffffff"/>
  </g>
  <g id="axes_1">
   <g id="patch_2">
    <path d="M 90 256.32 
L 648 256.32 
L 648 34.56 
L 90 34.56 
z
" style="fill: #ffffff"/>
   </g>
   <g id="matplotlib.axis_1">
    <g id="xtick_1">
     <g id="line2d_1">
      <defs>
       <path id="ma897532a54" d="M 0 0 
L 0 3.5 
" style="stroke: #000000; stroke-width: 0.8"/>
      </defs>
      <g>
       <use xlink:href="#ma897532a54" x="115.363636" y="256.32" style="stroke: #000000; stroke-width: 0.8"/>
      </g>
     </g>
     <g id="text_1">
      <!-- 0 -->
      <g transform="translate(112.182386 270.918437) scale(0.1 -0.1)">
       <defs>
        <path id="DejaVuSans-30" d="M 2034 4250 
Q 1547 4250 1301 3770 
Q 1056 3291 1056 2328 
Q 1056 1369 1301 889 
Q 1547 409 2034 409 
Q 2525 409 2770 889 
Q 3016 1369 3016 2328 
Q 3016 3291 2770 3770 
Q 2525 4250 2034 4250 
z
M 2034 4750 
Q 2819 4750 3233 4129 
Q 3647 3509 3647 2328 
Q 3647 1150 3233 529 
Q 2819 -91 2034 -91 
Q 1250 -91 836 529 
Q 422 1150 422 2328 
Q 422 3509 836 4129 
Q 1250 4750 2034 4750 
z
" transform="scale(0.015625)"/>
       </defs>
       <use xlink:href="#DejaVuSans-30"/>
      </g>
     </g>
    </g>
    <g id="xtick_2">
     <g id="line2d_2">
      <g>
       <use xlink:href="#ma897532a54" x="200.191852" y="256.32" style="stroke: #000000; stroke-width: 0.8"/>
      </g>
     </g>
     <g id="text_2">
      <!-- 50 -->
      <g transform="translate(193.829352 270.918437) scale(0.1 -0.1)">
       <defs>
        <path id="DejaVuSans-35" d="M 691 4666 
L 3169 4666 
L 3169 4134 
L 1269 4134 
L 1269 2991 
Q 1406 3038 1543 3061 
Q 1681 3084 1819 3084 
Q 2600 3084 3056 2656 
Q 3513 2228 3513 1497 
Q 3513 744 3044 326 
Q 2575 -91 1722 -91 
Q 1428 -91 1123 -41 
Q 819 9 494 109 
L 494 744 
Q 775 591 1075 516 
Q 1375 441 1709 441 
Q 2250 441 2565 725 
Q 2881 1009 2881 1497 
Q 2881 1984 2565 2268 
Q 2250 2553 1709 2553 
Q 1456 2553 1204 2497 
Q 953 2441 691 2322 
L 691 4666 
z
" transform="scale(0.015625)"/>
       </defs>
       <use xlink:href="#DejaVuSans-35"/>
       <use xlink:href="#DejaVuSans-30" x="63.623047"/>
      </g>
     </g>
    </g>
    <g id="xtick_3">
     <g id="line2d_3">
      <g>
       <use xlink:href="#ma897532a54" x="285.020067" y="256.32" style="stroke: #000000; stroke-width: 0.8"/>
      </g>
     </g>
     <g id="text_3">
      <!-- 100 -->
      <g transform="translate(275.476317 270.918437) scale(0.1 -0.1)">
       <defs>
        <path id="DejaVuSans-31" d="M 794 531 
L 1825 531 
L 1825 4091 
L 703 3866 
L 703 4441 
L 1819 4666 
L 2450 4666 
L 2450 531 
L 3481 531 
L 3481 0 
L 794 0 
L 794 531 
z
" transform="scale(0.015625)"/>
       </defs>
       <use xlink:href="#DejaVuSans-31"/>
       <use xlink:href="#DejaVuSans-30" x="63.623047"/>
       <use xlink:href="#DejaVuSans-30" x="127.246094"/>
      </g>
     </g>
    </g>
    <g id="xtick_4">
     <g id="line2d_4">
      <g>
       <use xlink:href="#ma897532a54" x="369.848282" y="256.32" style="stroke: #000000; stroke-width: 0.8"/>
      </g>
     </g>
     <g id="text_4">
      <!-- 150 -->
      <g transform="translate(360.304532 270.918437) scale(0.1 -0.1)">
       <use xlink:href="#DejaVuSans-31"/>
       <use xlink:href="#DejaVuSans-35" x="63.623047"/>
       <use xlink:href="#DejaVuSans-30" x="127.246094"/>
      </g>
     </g>
    </g>
    <g id="xtick_5">
     <g id="line2d_5">
      <g>
       <use xlink:href="#ma897532a54" x="454.676497" y="256.32" style="stroke: #000000; stroke-width: 0.8"/>
      </g>
     </g>
     <g id="text_5">
      <!-- 200 -->
      <g transform="translate(445.132747 270.918437) scale(0.1 -0.1)">
       <defs>
        <path id="DejaVuSans-32" d="M 1228 531 
L 3431 531 
L 3431 0 
L 469 0 
L 469 531 
Q 828 903 1448 1529 
Q 2069 2156 2228 2338 
Q 2531 2678 2651 2914 
Q 2772 3150 2772 3378 
Q 2772 3750 2511 3984 
Q 2250 4219 1831 4219 
Q 1534 4219 1204 4116 
Q 875 4013 500 3803 
L 500 4441 
Q 881 4594 1212 4672 
Q 1544 4750 1819 4750 
Q 2544 4750 2975 4387 
Q 3406 4025 3406 3419 
Q 3406 3131 3298 2873 
Q 3191 2616 2906 2266 
Q 2828 2175 2409 1742 
Q 1991 1309 1228 531 
z
" transform="scale(0.015625)"/>
       </defs>
       <use xlink:href="#DejaVuSans-32"/>
       <use xlink:href="#DejaVuSans-30" x="63.623047"/>
       <use xlink:href="#DejaVuSans-30" x="127.246094"/>
      </g>
     </g>
    </g>
    <g id="xtick_6">
     <g id="line2d_6">
      <g>
       <use xlink:href="#ma897532a54" x="539.504713" y="256.32" style="stroke: #000000; stroke-width: 0.8"/>
      </g>
     </g>
     <g id="text_6">
      <!-- 250 -->
      <g transform="translate(529.960963 270.918437) scale(0.1 -0.1)">
       <use xlink:href="#DejaVuSans-32"/>
       <use xlink:href="#DejaVuSans-35" x="63.623047"/>
       <use xlink:href="#DejaVuSans-30" x="127.246094"/>
      </g>
     </g>
    </g>
    <g id="xtick_7">
     <g id="line2d_7">
      <g>
       <use xlink:href="#ma897532a54" x="624.332928" y="256.32" style="stroke: #000000; stroke-width: 0.8"/>
      </g>
     </g>
     <g id="text_7">
      <!-- 300 -->
      <g transform="translate(614.789178 270.918437) scale(0.1 -0.1)">
       <defs>
        <path id="DejaVuSans-33" d="M 2597 2516 
Q 3050 2419 3304 2112 
Q 3559 1806 3559 1356 
Q 3559 666 3084 287 
Q 2609 -91 1734 -91 
Q 1441 -91 1130 -33 
Q 819 25 488 141 
L 488 750 
Q 750 597 1062 519 
Q 1375 441 1716 441 
Q 2309 441 2620 675 
Q 2931 909 2931 1356 
Q 2931 1769 2642 2001 
Q 2353 2234 1838 2234 
L 1294 2234 
L 1294 2753 
L 1863 2753 
Q 2328 2753 2575 2939 
Q 2822 3125 2822 3475 
Q 2822 3834 2567 4026 
Q 2313 4219 1838 4219 
Q 1578 4219 1281 4162 
Q 984 4106 628 3988 
L 628 4550 
Q 988 4650 1302 4700 
Q 1616 4750 1894 4750 
Q 2613 4750 3031 4423 
Q 3450 4097 3450 3541 
Q 3450 3153 3228 2886 
Q 3006 2619 2597 2516 
z
" transform="scale(0.015625)"/>
       </defs>
       <use xlink:href="#DejaVuSans-33"/>
       <use xlink:href="#DejaVuSans-30" x="63.623047"/>
       <use xlink:href="#DejaVuSans-30" x="127.246094"/>
      </g>
     </g>
    </g>
    <g id="text_8">
     <!-- Timestep -->
     <g transform="translate(345.950781 284.596563) scale(0.1 -0.1)">
      <defs>
       <path id="DejaVuSans-54" d="M -19 4666 
L 3928 4666 
L 3928 4134 
L 2272 4134 
L 2272 0 
L 1638 0 
L 1638 4134 
L -19 4134 
L -19 4666 
z
" transform="scale(0.015625)"/>
       <path id="DejaVuSans-69" d="M 603 3500 
L 1178 3500 
L 1178 0 
L 603 0 
L 603 3500 
z
M 603 4863 
L 1178 4863 
L 1178 4134 
L 603 4134 
L 603 4863 
z
" transform="scale(0.015625)"/>
       <path id="DejaVuSans-6d" d="M 3328 2828 
Q 3544 3216 3844 3400 
Q 4144 3584 4550 3584 
Q 5097 3584 5394 3201 
Q 5691 2819 5691 2113 
L 5691 0 
L 5113 0 
L 5113 2094 
Q 5113 2597 4934 2840 
Q 4756 3084 4391 3084 
Q 3944 3084 3684 2787 
Q 3425 2491 3425 1978 
L 3425 0 
L 2847 0 
L 2847 2094 
Q 2847 2600 2669 2842 
Q 2491 3084 2119 3084 
Q 1678 3084 1418 2786 
Q 1159 2488 1159 1978 
L 1159 0 
L 581 0 
L 581 3500 
L 1159 3500 
L 1159 2956 
Q 1356 3278 1631 3431 
Q 1906 3584 2284 3584 
Q 2666 3584 2933 3390 
Q 3200 3197 3328 2828 
z
" transform="scale(0.015625)"/>
       <path id="DejaVuSans-65" d="M 3597 1894 
L 3597 1613 
L 953 1613 
Q 991 1019 1311 708 
Q 1631 397 2203 397 
Q 2534 397 2845 478 
Q 3156 559 3463 722 
L 3463 178 
Q 3153 47 2828 -22 
Q 2503 -91 2169 -91 
Q 1331 -91 842 396 
Q 353 884 353 1716 
Q 353 2575 817 3079 
Q 1281 3584 2069 3584 
Q 2775 3584 3186 3129 
Q 3597 2675 3597 1894 
z
M 3022 2063 
Q 3016 2534 2758 2815 
Q 2500 3097 2075 3097 
Q 1594 3097 1305 2825 
Q 1016 2553 972 2059 
L 3022 2063 
z
" transform="scale(0.015625)"/>
       <path id="DejaVuSans-73" d="M 2834 3397 
L 2834 2853 
Q 2591 2978 2328 3040 
Q 2066 3103 1784 3103 
Q 1356 3103 1142 2972 
Q 928 2841 928 2578 
Q 928 2378 1081 2264 
Q 1234 2150 1697 2047 
L 1894 2003 
Q 2506 1872 2764 1633 
Q 3022 1394 3022 966 
Q 3022 478 2636 193 
Q 2250 -91 1575 -91 
Q 1294 -91 989 -36 
Q 684 19 347 128 
L 347 722 
Q 666 556 975 473 
Q 1284 391 1588 391 
Q 1994 391 2212 530 
Q 2431 669 2431 922 
Q 2431 1156 2273 1281 
Q 2116 1406 1581 1522 
L 1381 1569 
Q 847 1681 609 1914 
Q 372 2147 372 2553 
Q 372 3047 722 3315 
Q 1072 3584 1716 3584 
Q 2034 3584 2315 3537 
Q 2597 3491 2834 3397 
z
" transform="scale(0.015625)"/>
       <path id="DejaVuSans-74" d="M 1172 4494 
L 1172 3500 
L 2356 3500 
L 2356 3053 
L 1172 3053 
L 1172 1153 
Q 1172 725 1289 603 
Q 1406 481 1766 481 
L 2356 481 
L 2356 0 
L 1766 0 
Q 1100 0 847 248 
Q 594 497 594 1153 
L 594 3053 
L 172 3053 
L 172 3500 
L 594 3500 
L 594 4494 
L 1172 4494 
z
" transform="scale(0.015625)"/>
       <path id="DejaVuSans-70" d="M 1159 525 
L 1159 -1331 
L 581 -1331 
L 581 3500 
L 1159 3500 
L 1159 2969 
Q 1341 3281 1617 3432 
Q 1894 3584 2278 3584 
Q 2916 3584 3314 3078 
Q 3713 2572 3713 1747 
Q 3713 922 3314 415 
Q 2916 -91 2278 -91 
Q 1894 -91 1617 61 
Q 1341 213 1159 525 
z
M 3116 1747 
Q 3116 2381 2855 2742 
Q 2594 3103 2138 3103 
Q 1681 3103 1420 2742 
Q 1159 2381 1159 1747 
Q 1159 1113 1420 752 
Q 1681 391 2138 391 
Q 2594 391 2855 752 
Q 3116 1113 3116 1747 
z
" transform="scale(0.015625)"/>
      </defs>
      <use xlink:href="#DejaVuSans-54"/>
      <use xlink:href="#DejaVuSans-69" x="57.958984"/>
      <use xlink:href="#DejaVuSans-6d" x="85.742188"/>
      <use xlink:href="#DejaVuSans-65" x="183.154297"/>
      <use xlink:href="#DejaVuSans-73" x="244.677734"/>
      <use xlink:href="#DejaVuSans-74" x="296.777344"/>
      <use xlink:href="#DejaVuSans-65" x="335.986328"/>
      <use xlink:href="#DejaVuSans-70" x="397.509766"/>
     </g>
    </g>
   </g>
   <g id="matplotlib.axis_2">
    <g id="ytick_1">
     <g id="line2d_8">
      <defs>
       <path id="md0c79febe0" d="M 0 0 
L -3.5 0 
" style="stroke: #000000; stroke-width: 0.8"/>
      </defs>
      <g>
       <use xlink:href="#md0c79febe0" x="90" y="245.676712" style="stroke: #000000; stroke-width: 0.8"/>
      </g>
     </g>
     <g id="text_9">
      <!-- 0 -->
      <g transform="translate(76.6375 249.475931) scale(0.1 -0.1)">
       <use xlink:href="#DejaVuSans-30"/>
      </g>
     </g>
    </g>
    <g id="ytick_2">
     <g id="line2d_9">
      <g>
       <use xlink:href="#md0c79febe0" x="90" y="220.52939" style="stroke: #000000; stroke-width: 0.8"/>
      </g>
     </g>
     <g id="text_10">
      <!-- 25 -->
      <g transform="translate(70.275 224.328608) scale(0.1 -0.1)">
       <use xlink:href="#DejaVuSans-32"/>
       <use xlink:href="#DejaVuSans-35" x="63.623047"/>
      </g>
     </g>
    </g>
    <g id="ytick_3">
     <g id="line2d_10">
      <g>
       <use xlink:href="#md0c79febe0" x="90" y="195.382067" style="stroke: #000000; stroke-width: 0.8"/>
      </g>
     </g>
     <g id="text_11">
      <!-- 50 -->
      <g transform="translate(70.275 199.181286) scale(0.1 -0.1)">
       <use xlink:href="#DejaVuSans-35"/>
       <use xlink:href="#DejaVuSans-30" x="63.623047"/>
      </g>
     </g>
    </g>
    <g id="ytick_4">
     <g id="line2d_11">
      <g>
       <use xlink:href="#md0c79febe0" x="90" y="170.234745" style="stroke: #000000; stroke-width: 0.8"/>
      </g>
     </g>
     <g id="text_12">
      <!-- 75 -->
      <g transform="translate(70.275 174.033963) scale(0.1 -0.1)">
       <defs>
        <path id="DejaVuSans-37" d="M 525 4666 
L 3525 4666 
L 3525 4397 
L 1831 0 
L 1172 0 
L 2766 4134 
L 525 4134 
L 525 4666 
z
" transform="scale(0.015625)"/>
       </defs>
       <use xlink:href="#DejaVuSans-37"/>
       <use xlink:href="#DejaVuSans-35" x="63.623047"/>
      </g>
     </g>
    </g>
    <g id="ytick_5">
     <g id="line2d_12">
      <g>
       <use xlink:href="#md0c79febe0" x="90" y="145.087422" style="stroke: #000000; stroke-width: 0.8"/>
      </g>
     </g>
     <g id="text_13">
      <!-- 100 -->
      <g transform="translate(63.9125 148.886641) scale(0.1 -0.1)">
       <use xlink:href="#DejaVuSans-31"/>
       <use xlink:href="#DejaVuSans-30" x="63.623047"/>
       <use xlink:href="#DejaVuSans-30" x="127.246094"/>
      </g>
     </g>
    </g>
    <g id="ytick_6">
     <g id="line2d_13">
      <g>
       <use xlink:href="#md0c79febe0" x="90" y="119.9401" style="stroke: #000000; stroke-width: 0.8"/>
      </g>
     </g>
     <g id="text_14">
      <!-- 125 -->
      <g transform="translate(63.9125 123.739318) scale(0.1 -0.1)">
       <use xlink:href="#DejaVuSans-31"/>
       <use xlink:href="#DejaVuSans-32" x="63.623047"/>
       <use xlink:href="#DejaVuSans-35" x="127.246094"/>
      </g>
     </g>
    </g>
    <g id="ytick_7">
     <g id="line2d_14">
      <g>
       <use xlink:href="#md0c79febe0" x="90" y="94.792777" style="stroke: #000000; stroke-width: 0.8"/>
      </g>
     </g>
     <g id="text_15">
      <!-- 150 -->
      <g transform="translate(63.9125 98.591996) scale(0.1 -0.1)">
       <use xlink:href="#DejaVuSans-31"/>
       <use xlink:href="#DejaVuSans-35" x="63.623047"/>
       <use xlink:href="#DejaVuSans-30" x="127.246094"/>
      </g>
     </g>
    </g>
    <g id="ytick_8">
     <g id="line2d_15">
      <g>
       <use xlink:href="#md0c79febe0" x="90" y="69.645454" style="stroke: #000000; stroke-width: 0.8"/>
      </g>
     </g>
     <g id="text_16">
      <!-- 175 -->
      <g transform="translate(63.9125 73.444673) scale(0.1 -0.1)">
       <use xlink:href="#DejaVuSans-31"/>
       <use xlink:href="#DejaVuSans-37" x="63.623047"/>
       <use xlink:href="#DejaVuSans-35" x="127.246094"/>
      </g>
     </g>
    </g>
    <g id="ytick_9">
     <g id="line2d_16">
      <g>
       <use xlink:href="#md0c79febe0" x="90" y="44.498132" style="stroke: #000000; stroke-width: 0.8"/>
      </g>
     </g>
     <g id="text_17">
      <!-- 200 -->
      <g transform="translate(63.9125 48.297351) scale(0.1 -0.1)">
       <use xlink:href="#DejaVuSans-32"/>
       <use xlink:href="#DejaVuSans-30" x="63.623047"/>
       <use xlink:href="#DejaVuSans-30" x="127.246094"/>
      </g>
     </g>
    </g>
    <g id="text_18">
     <!-- Q_LE [W/m²] -->
     <g transform="translate(57.554687 176.815) rotate(-90) scale(0.1 -0.1)">
      <defs>
       <path id="DejaVuSans-51" d="M 2522 4238 
Q 1834 4238 1429 3725 
Q 1025 3213 1025 2328 
Q 1025 1447 1429 934 
Q 1834 422 2522 422 
Q 3209 422 3611 934 
Q 4013 1447 4013 2328 
Q 4013 3213 3611 3725 
Q 3209 4238 2522 4238 
z
M 3406 84 
L 4238 -825 
L 3475 -825 
L 2784 -78 
Q 2681 -84 2626 -87 
Q 2572 -91 2522 -91 
Q 1538 -91 948 567 
Q 359 1225 359 2328 
Q 359 3434 948 4092 
Q 1538 4750 2522 4750 
Q 3503 4750 4090 4092 
Q 4678 3434 4678 2328 
Q 4678 1516 4351 937 
Q 4025 359 3406 84 
z
" transform="scale(0.015625)"/>
       <path id="DejaVuSans-5f" d="M 3263 -1063 
L 3263 -1509 
L -63 -1509 
L -63 -1063 
L 3263 -1063 
z
" transform="scale(0.015625)"/>
       <path id="DejaVuSans-4c" d="M 628 4666 
L 1259 4666 
L 1259 531 
L 3531 531 
L 3531 0 
L 628 0 
L 628 4666 
z
" transform="scale(0.015625)"/>
       <path id="DejaVuSans-45" d="M 628 4666 
L 3578 4666 
L 3578 4134 
L 1259 4134 
L 1259 2753 
L 3481 2753 
L 3481 2222 
L 1259 2222 
L 1259 531 
L 3634 531 
L 3634 0 
L 628 0 
L 628 4666 
z
" transform="scale(0.015625)"/>
       <path id="DejaVuSans-20" transform="scale(0.015625)"/>
       <path id="DejaVuSans-5b" d="M 550 4863 
L 1875 4863 
L 1875 4416 
L 1125 4416 
L 1125 -397 
L 1875 -397 
L 1875 -844 
L 550 -844 
L 550 4863 
z
" transform="scale(0.015625)"/>
       <path id="DejaVuSans-57" d="M 213 4666 
L 850 4666 
L 1831 722 
L 2809 4666 
L 3519 4666 
L 4500 722 
L 5478 4666 
L 6119 4666 
L 4947 0 
L 4153 0 
L 3169 4050 
L 2175 0 
L 1381 0 
L 213 4666 
z
" transform="scale(0.015625)"/>
       <path id="DejaVuSans-2f" d="M 1625 4666 
L 2156 4666 
L 531 -594 
L 0 -594 
L 1625 4666 
z
" transform="scale(0.015625)"/>
       <path id="DejaVuSans-b2" d="M 838 2444 
L 2163 2444 
L 2163 2088 
L 294 2088 
L 294 2431 
Q 400 2528 597 2703 
Q 1672 3656 1672 3950 
Q 1672 4156 1509 4282 
Q 1347 4409 1081 4409 
Q 919 4409 728 4354 
Q 538 4300 313 4191 
L 313 4575 
Q 553 4663 761 4706 
Q 969 4750 1147 4750 
Q 1600 4750 1872 4544 
Q 2144 4338 2144 4000 
Q 2144 3566 1109 2678 
Q 934 2528 838 2444 
z
" transform="scale(0.015625)"/>
       <path id="DejaVuSans-5d" d="M 1947 4863 
L 1947 -844 
L 622 -844 
L 622 -397 
L 1369 -397 
L 1369 4416 
L 622 4416 
L 622 4863 
L 1947 4863 
z
" transform="scale(0.015625)"/>
      </defs>
      <use xlink:href="#DejaVuSans-51"/>
      <use xlink:href="#DejaVuSans-5f" x="78.710938"/>
      <use xlink:href="#DejaVuSans-4c" x="128.710938"/>
      <use xlink:href="#DejaVuSans-45" x="184.423828"/>
      <use xlink:href="#DejaVuSans-20" x="247.607422"/>
      <use xlink:href="#DejaVuSans-5b" x="279.394531"/>
      <use xlink:href="#DejaVuSans-57" x="318.408203"/>
      <use xlink:href="#DejaVuSans-2f" x="417.285156"/>
      <use xlink:href="#DejaVuSans-6d" x="450.976562"/>
      <use xlink:href="#DejaVuSans-b2" x="548.388672"/>
      <use xlink:href="#DejaVuSans-5d" x="588.476562"/>
     </g>
    </g>
   </g>
   <g id="line2d_17">
    <path d="M 115.363636 238.301973 
L 117.060201 242.845928 
L 118.756765 242.439291 
L 120.453329 242.290676 
L 122.149894 240.455519 
L 123.846458 239.667257 
L 125.543022 239.802574 
L 127.239587 240.800078 
L 128.936151 240.675634 
L 130.632715 240.760209 
L 132.329279 240.080508 
L 134.025844 240.524056 
L 137.418972 240.406739 
L 139.115537 241.420638 
L 140.812101 242.157299 
L 142.508665 234.358858 
L 145.901794 198.721934 
L 147.598358 227.824778 
L 149.294922 214.582249 
L 150.991487 223.583633 
L 152.688051 226.833773 
L 154.384615 224.682067 
L 156.08118 240.50004 
L 157.777744 234.856574 
L 159.474308 235.387434 
L 161.170873 238.38254 
L 162.867437 239.064913 
L 164.564001 237.502716 
L 166.260566 234.94283 
L 167.95713 239.964261 
L 169.653694 240.295889 
L 171.350258 240.937679 
L 173.046823 241.784535 
L 174.743387 240.526767 
L 176.439951 240.223636 
L 178.136516 241.465531 
L 179.83308 240.432253 
L 181.529644 237.582543 
L 183.226209 224.942318 
L 184.922773 218.36838 
L 186.619337 223.212509 
L 188.315901 227.07886 
L 190.012466 229.276382 
L 191.70903 212.253957 
L 193.405594 218.352235 
L 195.102159 222.924623 
L 196.798723 241.303608 
L 198.495287 244.610263 
L 200.191852 242.278258 
L 201.888416 240.753354 
L 203.58498 240.848245 
L 205.281545 239.474638 
L 206.978109 240.832925 
L 208.674673 240.829128 
L 210.371237 239.579029 
L 212.067802 239.093596 
L 213.764366 240.603944 
L 215.46093 240.603944 
L 217.157495 240.091774 
L 218.854059 240.955911 
L 220.550623 240.813602 
L 222.247188 241.902305 
L 223.943752 222.792748 
L 225.640316 222.812364 
L 227.336881 216.075346 
L 229.033445 206.337196 
L 230.730009 213.827125 
L 232.426573 208.267606 
L 234.123138 216.888158 
L 235.819702 224.91983 
L 237.516266 243.083803 
L 239.212831 239.24959 
L 240.909395 238.324445 
L 242.605959 238.296391 
L 245.999088 238.539374 
L 247.695652 238.44219 
L 249.392216 238.788785 
L 251.088781 238.800619 
L 252.785345 239.074524 
L 254.481909 237.970149 
L 256.178474 238.11785 
L 257.875038 239.55015 
L 259.571602 238.327492 
L 261.268167 238.44219 
L 262.964731 231.246519 
L 264.661295 214.450175 
L 266.35786 212.736133 
L 268.054424 200.865289 
L 269.750988 195.287914 
L 271.447552 220.880395 
L 273.144117 215.730929 
L 274.840681 216.550479 
L 276.537245 226.660191 
L 278.23381 241.140211 
L 279.930374 236.482776 
L 281.626938 236.925283 
L 283.323503 236.375427 
L 285.020067 237.302282 
L 286.716631 237.633306 
L 288.413196 236.483344 
L 290.10976 236.488741 
L 291.806324 238.480881 
L 293.502888 239.759864 
L 295.199453 241.186542 
L 296.896017 241.591992 
L 298.592581 241.846705 
L 300.289146 242.337188 
L 301.98571 242.501113 
L 303.682274 212.352788 
L 305.378839 218.089849 
L 307.075403 206.513579 
L 308.771967 214.500068 
L 310.468531 223.185501 
L 312.165096 216.888158 
L 313.86166 190.461291 
L 315.558224 214.067685 
L 317.254789 230.351356 
L 318.951353 241.357212 
L 320.647917 242.209042 
L 322.344482 243.341859 
L 324.041046 243.834163 
L 325.73761 243.896332 
L 327.434175 243.523966 
L 329.130739 242.034434 
L 335.916996 243.335713 
L 337.61356 243.889085 
L 339.310125 244.58041 
L 341.006689 245.009833 
L 342.703253 243.650575 
L 344.399818 214.089412 
L 346.096382 197.208467 
L 347.792946 206.486723 
L 349.48951 199.063938 
L 351.186075 190.401189 
L 352.882639 206.034623 
L 354.579203 204.809193 
L 356.275768 212.603355 
L 357.972332 239.430283 
L 359.668896 243.149034 
L 361.365461 242.713593 
L 363.062025 240.005709 
L 364.758589 240.064635 
L 366.455154 241.039968 
L 368.151718 242.44513 
L 369.848282 241.872913 
L 371.544846 243.819653 
L 373.241411 239.615171 
L 374.937975 238.899393 
L 376.634539 238.368045 
L 378.331104 238.660619 
L 380.027668 239.156695 
L 381.724232 238.889138 
L 383.420797 238.195847 
L 385.117361 215.326761 
L 386.813925 212.575946 
L 388.51049 197.463713 
L 390.207054 202.788356 
L 391.903618 213.908201 
L 393.600182 231.350735 
L 395.296747 242.02774 
L 396.993311 239.756037 
L 400.38644 239.115705 
L 403.779568 239.03456 
L 405.476133 238.912932 
L 407.172697 239.565003 
L 408.869261 238.953505 
L 410.565825 238.912087 
L 412.26239 238.520332 
L 413.958954 242.147314 
L 415.655518 244.041463 
L 417.352083 241.618503 
L 419.048647 238.965877 
L 420.745211 213.851115 
L 422.441776 219.166908 
L 424.13834 205.291016 
L 425.834904 196.198599 
L 427.531469 191.062914 
L 429.228033 198.870402 
L 430.924597 199.457943 
L 432.621161 189.483259 
L 434.317726 237.482329 
L 436.01429 245.61616 
L 437.710854 242.255496 
L 439.407419 239.227752 
L 441.103983 237.027552 
L 442.800547 239.278469 
L 444.497112 239.584824 
L 446.193676 239.38708 
L 447.89024 239.78554 
L 449.586804 239.644488 
L 451.283369 240.266643 
L 452.979933 240.38643 
L 454.676497 241.478231 
L 456.373062 242.236342 
L 458.069626 242.07296 
L 459.76619 241.576471 
L 461.462755 212.744483 
L 463.159319 201.973078 
L 464.855883 194.912466 
L 466.552448 191.408386 
L 468.249012 189.194117 
L 469.945576 193.091196 
L 471.64214 193.87172 
L 473.338705 198.891879 
L 475.035269 233.432883 
L 476.731833 245.121998 
L 478.428398 243.999954 
L 480.124962 240.216248 
L 481.821526 240.299601 
L 483.518091 240.608531 
L 485.214655 241.047829 
L 486.911219 241.269031 
L 488.607784 242.024602 
L 490.304348 242.046374 
L 492.000912 242.389867 
L 493.697476 242.360379 
L 495.394041 242.164285 
L 497.090605 242.414028 
L 498.787169 242.278731 
L 500.483734 218.48974 
L 502.180298 197.639893 
L 503.876862 204.215617 
L 505.573427 176.078527 
L 507.269991 173.471756 
L 508.966555 189.853681 
L 510.663119 196.627411 
L 512.359684 207.482255 
L 514.056248 234.345414 
L 515.752812 244.605903 
L 517.449377 245.129405 
L 519.145941 241.124312 
L 520.842505 240.327781 
L 522.53907 234.902487 
L 524.235634 235.696037 
L 525.932198 239.99908 
L 527.628763 240.239997 
L 531.021891 242.765719 
L 532.718455 242.054844 
L 534.41502 242.892979 
L 537.808148 243.349383 
L 539.504713 241.933352 
L 541.201277 216.201837 
L 542.897841 213.563933 
L 544.594406 202.390122 
L 546.29097 188.379143 
L 547.987534 190.628166 
L 549.684099 194.405747 
L 551.380663 196.106361 
L 553.077227 202.833822 
L 554.773791 235.571915 
L 556.470356 244.093125 
L 558.16692 245.263309 
L 559.863484 244.628532 
L 561.560049 244.168783 
L 563.256613 240.109573 
L 564.953177 242.170436 
L 566.649742 240.037118 
L 568.346306 238.344608 
L 570.04287 243.77991 
L 571.739434 243.813436 
L 573.435999 243.176575 
L 575.132563 243.828253 
L 576.829127 244.130569 
L 580.222256 243.528004 
L 581.91882 218.389956 
L 583.615385 205.94344 
L 585.311949 192.300062 
L 587.008513 181.761674 
L 588.705078 178.72941 
L 590.401642 186.538809 
L 592.098206 195.813193 
L 593.79477 196.730213 
L 595.491335 228.356972 
L 597.187899 243.122091 
L 598.884463 240.148279 
L 600.581028 237.817269 
L 602.277592 237.127261 
L 603.974156 238.371093 
L 607.367285 241.559663 
L 609.063849 243.139885 
L 610.760413 243.448594 
L 612.456978 243.446034 
L 614.153542 243.883497 
L 615.850106 243.663941 
L 617.546671 244.439846 
L 619.243235 244.352168 
L 620.939799 243.527687 
L 622.636364 214.842724 
L 622.636364 214.842724 
" clip-path="url(#p03abf62f3f)" style="fill: none; stroke: #1f77b4; stroke-opacity: 0.6; stroke-width: 1.5; stroke-linecap: square"/>
   </g>
   <g id="line2d_18">
    <path d="M 115.363636 242.755565 
L 117.060201 242.925124 
L 123.846458 242.908761 
L 127.239587 243.148395 
L 130.632715 243.01449 
L 139.115537 243.157139 
L 140.812101 239.262912 
L 142.508665 214.98262 
L 144.20523 214.560011 
L 145.901794 208.562904 
L 147.598358 207.483809 
L 149.294922 207.676988 
L 150.991487 206.613756 
L 152.688051 207.317955 
L 154.384615 199.147612 
L 156.08118 241.453886 
L 157.777744 241.676342 
L 159.474308 241.52301 
L 161.170873 241.934114 
L 162.867437 242.026165 
L 164.564001 241.718319 
L 166.260566 241.691461 
L 169.653694 242.564371 
L 171.350258 242.320712 
L 173.046823 242.203662 
L 176.439951 242.52517 
L 179.83308 242.23807 
L 181.529644 232.607765 
L 183.226209 203.686505 
L 184.922773 210.795719 
L 186.619337 207.781428 
L 188.315901 207.498076 
L 190.012466 208.838786 
L 193.405594 204.01659 
L 195.102159 196.119005 
L 196.798723 242.097351 
L 198.495287 242.661753 
L 203.58498 242.661225 
L 206.978109 242.380053 
L 208.674673 242.553601 
L 210.371237 242.961015 
L 212.067802 243.215356 
L 215.46093 243.08272 
L 217.157495 243.374999 
L 220.550623 243.695675 
L 222.247188 240.520275 
L 223.943752 215.856834 
L 225.640316 219.671752 
L 227.336881 214.976893 
L 229.033445 213.212001 
L 230.730009 212.304489 
L 232.426573 209.84878 
L 234.123138 211.01354 
L 235.819702 193.457761 
L 237.516266 243.633921 
L 239.212831 243.759512 
L 244.302524 243.602638 
L 249.392216 243.466113 
L 251.088781 243.246914 
L 256.178474 243.46355 
L 257.875038 243.679152 
L 259.571602 243.579583 
L 261.268167 238.479737 
L 262.964731 213.707599 
L 264.661295 219.265794 
L 266.35786 215.361888 
L 268.054424 210.371024 
L 269.750988 199.243299 
L 271.447552 208.493701 
L 273.144117 209.857663 
L 274.840681 207.817202 
L 276.537245 242.736572 
L 279.930374 243.607695 
L 281.626938 243.292673 
L 283.323503 243.108512 
L 285.020067 243.339362 
L 286.716631 243.29729 
L 290.10976 243.041352 
L 296.896017 243.295731 
L 298.592581 243.231186 
L 300.289146 243.505375 
L 301.98571 239.039852 
L 303.682274 220.695616 
L 305.378839 215.47634 
L 307.075403 209.11299 
L 308.771967 206.254405 
L 310.468531 206.46365 
L 312.165096 204.974967 
L 313.86166 204.665272 
L 315.558224 201.9606 
L 317.254789 242.639849 
L 318.951353 243.35929 
L 320.647917 243.929007 
L 322.344482 243.421686 
L 324.041046 243.518752 
L 325.73761 243.069286 
L 327.434175 243.764568 
L 329.130739 244.189998 
L 330.827303 244.304922 
L 332.523867 244.913183 
L 334.220432 245.0106 
L 335.916996 244.936926 
L 337.61356 244.568118 
L 339.310125 244.444161 
L 341.006689 244.618608 
L 342.703253 243.466736 
L 344.399818 232.911374 
L 346.096382 220.974393 
L 349.48951 188.628064 
L 351.186075 185.491041 
L 352.882639 191.586877 
L 354.579203 200.355735 
L 356.275768 208.335885 
L 357.972332 243.645103 
L 359.668896 244.034185 
L 364.758589 244.419392 
L 366.455154 244.641807 
L 368.151718 244.658272 
L 371.544846 244.258629 
L 373.241411 244.245157 
L 376.634539 244.502767 
L 378.331104 244.580372 
L 381.724232 244.517952 
L 383.420797 243.967472 
L 386.813925 225.140934 
L 388.51049 206.53496 
L 390.207054 202.818746 
L 391.903618 205.748201 
L 393.600182 204.238993 
L 395.296747 235.496467 
L 396.993311 238.598769 
L 398.689875 228.666501 
L 400.38644 230.423186 
L 402.083004 232.012956 
L 403.779568 233.795622 
L 405.476133 234.759851 
L 407.172697 235.566375 
L 408.869261 231.457956 
L 410.565825 230.086085 
L 412.26239 228.422871 
L 413.958954 225.034993 
L 415.655518 226.559981 
L 417.352083 223.171207 
L 419.048647 220.054136 
L 420.745211 196.213986 
L 424.13834 171.326836 
L 425.834904 141.375767 
L 427.531469 157.116074 
L 429.228033 152.334752 
L 430.924597 155.414754 
L 432.621161 161.991821 
L 434.317726 206.57845 
L 436.01429 214.802689 
L 437.710854 221.148342 
L 439.407419 225.195748 
L 441.103983 227.217988 
L 442.800547 227.386459 
L 444.497112 225.849985 
L 446.193676 226.20113 
L 447.89024 227.994525 
L 449.586804 231.336014 
L 451.283369 232.971857 
L 452.979933 233.321909 
L 454.676497 232.531898 
L 458.069626 231.287142 
L 459.76619 226.813456 
L 461.462755 204.419425 
L 463.159319 184.23851 
L 464.855883 156.093689 
L 466.552448 146.229174 
L 468.249012 145.326586 
L 469.945576 151.390921 
L 471.64214 156.311218 
L 473.338705 168.74559 
L 475.035269 225.053845 
L 476.731833 234.554972 
L 478.428398 236.634618 
L 480.124962 241.639702 
L 481.821526 243.906536 
L 483.518091 244.659642 
L 485.214655 244.91961 
L 486.911219 244.998141 
L 488.607784 244.562177 
L 492.000912 244.271487 
L 493.697476 244.173579 
L 495.394041 244.249395 
L 497.090605 243.95195 
L 498.787169 241.230583 
L 502.180298 218.165265 
L 503.876862 187.404442 
L 505.573427 163.692481 
L 507.269991 141.81431 
L 508.966555 144.33179 
L 510.663119 158.252768 
L 512.359684 180.959186 
L 514.056248 230.931371 
L 515.752812 234.698554 
L 517.449377 239.250413 
L 519.145941 241.84413 
L 520.842505 244.728769 
L 522.53907 244.843985 
L 524.235634 244.304255 
L 525.932198 244.670413 
L 529.325327 243.870683 
L 531.021891 241.935307 
L 532.718455 242.022735 
L 534.41502 241.876475 
L 536.111584 241.464312 
L 537.808148 241.193517 
L 539.504713 237.723375 
L 541.201277 224.821049 
L 544.594406 185.100582 
L 546.29097 177.690886 
L 547.987534 172.803865 
L 549.684099 175.636408 
L 551.380663 182.804423 
L 553.077227 193.50525 
L 554.773791 233.323654 
L 556.470356 236.375627 
L 559.863484 243.310669 
L 561.560049 246.070861 
L 563.256613 244.26853 
L 564.953177 243.751503 
L 566.649742 244.912565 
L 568.346306 244.837505 
L 570.04287 242.345282 
L 571.739434 245.736893 
L 573.435999 245.276976 
L 575.132563 241.863349 
L 576.829127 241.551104 
L 578.525692 242.0336 
L 580.222256 242.064946 
L 581.91882 225.926822 
L 583.615385 211.379346 
L 585.311949 189.464519 
L 587.008513 172.643717 
L 588.705078 168.699398 
L 590.401642 173.135865 
L 592.098206 179.197523 
L 593.79477 186.099088 
L 595.491335 232.008457 
L 598.884463 236.747753 
L 600.581028 238.445488 
L 602.277592 239.698551 
L 605.670721 240.785167 
L 607.367285 241.273552 
L 609.063849 242.107476 
L 610.760413 242.171835 
L 612.456978 243.211407 
L 614.153542 243.172457 
L 615.850106 243.863013 
L 620.939799 243.93709 
L 622.636364 235.92451 
L 622.636364 235.92451 
" clip-path="url(#p03abf62f3f)" style="fill: none; stroke: #ff7f0e; stroke-opacity: 0.8; stroke-width: 1.8; stroke-linecap: square"/>
   </g>
   <g id="line2d_19">
    <path d="M 115.363636 240.788298 
L 117.060201 241.210809 
L 123.846458 241.398529 
L 125.543022 241.661863 
L 127.239587 241.781482 
L 130.632715 241.604435 
L 137.418972 241.625939 
L 139.115537 241.65271 
L 140.812101 237.523295 
L 142.508665 194.308621 
L 144.20523 130.20705 
L 145.901794 88.548478 
L 147.598358 100.360137 
L 149.294922 90.955462 
L 152.688051 104.354101 
L 154.384615 142.928081 
L 156.08118 238.606738 
L 157.777744 239.146903 
L 159.474308 238.998674 
L 161.170873 239.819141 
L 162.867437 240.143787 
L 166.260566 239.568376 
L 167.95713 240.463588 
L 169.653694 240.970273 
L 171.350258 240.492286 
L 173.046823 240.257531 
L 174.743387 240.653312 
L 176.439951 240.809273 
L 179.83308 240.24512 
L 181.529644 235.181524 
L 183.226209 191.472034 
L 184.922773 128.163008 
L 186.619337 108.166965 
L 188.315901 129.239559 
L 190.012466 116.285695 
L 191.70903 92.162791 
L 193.405594 95.706547 
L 195.102159 145.260732 
L 196.798723 239.238382 
L 198.495287 240.339297 
L 200.191852 240.584651 
L 203.58498 240.74699 
L 206.978109 240.427544 
L 208.674673 240.615218 
L 210.371237 241.252648 
L 212.067802 241.63578 
L 213.764366 241.445394 
L 215.46093 241.421814 
L 217.157495 241.872762 
L 220.550623 242.481493 
L 222.247188 239.119061 
L 223.943752 206.472882 
L 225.640316 162.465697 
L 227.336881 127.689455 
L 229.033445 110.936716 
L 230.730009 104.287748 
L 232.426573 86.872475 
L 234.123138 124.890349 
L 235.819702 176.465775 
L 237.516266 241.751342 
L 239.212831 242.114089 
L 240.909395 242.185209 
L 244.302524 242.078694 
L 249.392216 242.013928 
L 251.088781 241.694825 
L 256.178474 242.045276 
L 257.875038 242.398173 
L 259.571602 242.25133 
L 261.268167 239.066087 
L 262.964731 200.683139 
L 264.661295 159.514808 
L 266.35786 123.85478 
L 268.054424 91.65943 
L 269.750988 75.577438 
L 271.447552 100.843284 
L 273.144117 101.960501 
L 274.840681 125.698213 
L 276.537245 239.97748 
L 278.23381 241.038969 
L 279.930374 241.831328 
L 281.626938 241.496128 
L 283.323503 241.318652 
L 285.020067 241.801785 
L 286.716631 241.80117 
L 290.10976 241.456407 
L 295.199453 242.110484 
L 298.592581 241.964795 
L 300.289146 242.466313 
L 301.98571 236.769541 
L 303.682274 187.395877 
L 305.378839 158.256513 
L 307.075403 116.747507 
L 308.771967 106.322511 
L 310.468531 110.563298 
L 312.165096 124.485719 
L 313.86166 101.334949 
L 315.558224 128.70534 
L 317.254789 240.278832 
L 318.951353 241.603055 
L 320.647917 242.656042 
L 322.344482 242.588095 
L 324.041046 242.961611 
L 325.73761 242.686385 
L 327.434175 243.442912 
L 329.130739 244.040051 
L 330.827303 244.296855 
L 332.523867 245.056764 
L 335.916996 245.048177 
L 337.61356 244.721687 
L 339.310125 244.685419 
L 341.006689 244.904694 
L 342.703253 240.898885 
L 344.399818 228.656039 
L 346.096382 206.494604 
L 347.792946 163.404309 
L 349.48951 116.082217 
L 351.186075 89.604991 
L 352.882639 88.016369 
L 354.579203 111.262217 
L 356.275768 148.154132 
L 357.972332 241.815963 
L 359.668896 242.756296 
L 361.365461 243.051545 
L 363.062025 243.192275 
L 366.455154 244.116156 
L 368.151718 244.262879 
L 371.544846 243.813851 
L 373.241411 243.859888 
L 378.331104 244.418155 
L 380.027668 244.322669 
L 381.724232 244.472398 
L 383.420797 242.253369 
L 385.117361 227.298734 
L 386.813925 202.48467 
L 388.51049 159.06714 
L 390.207054 142.9926 
L 391.903618 162.083606 
L 393.600182 194.259117 
L 395.296747 222.21797 
L 396.993311 232.007655 
L 398.689875 228.161047 
L 400.38644 230.25311 
L 403.779568 233.798659 
L 405.476133 234.698726 
L 407.172697 235.316191 
L 408.869261 231.081653 
L 410.565825 229.772781 
L 412.26239 228.063781 
L 413.958954 224.5817 
L 415.655518 226.058048 
L 417.352083 222.629266 
L 419.048647 218.170976 
L 420.745211 173.269046 
L 424.13834 117.869091 
L 425.834904 57.05428 
L 427.531469 76.059495 
L 429.228033 63.792547 
L 430.924597 89.384261 
L 432.621161 112.486997 
L 434.317726 204.86174 
L 436.01429 213.671107 
L 437.710854 220.339148 
L 439.407419 224.63727 
L 441.103983 226.863293 
L 442.800547 227.167074 
L 444.497112 225.508017 
L 446.193676 225.894797 
L 447.89024 227.822436 
L 449.586804 231.228644 
L 451.283369 232.938846 
L 452.979933 233.337366 
L 458.069626 231.681184 
L 459.76619 223.214132 
L 461.462755 197.145526 
L 463.159319 152.978899 
L 464.855883 92.627443 
L 466.552448 57.388928 
L 468.249012 44.64 
L 469.945576 59.895173 
L 471.64214 80.015379 
L 473.338705 118.214536 
L 475.035269 222.887037 
L 476.731833 233.739889 
L 478.428398 236.547331 
L 480.124962 241.704964 
L 481.821526 244.012182 
L 483.518091 244.76328 
L 485.214655 245.172511 
L 486.911219 245.284231 
L 488.607784 244.976723 
L 490.304348 245.024981 
L 492.000912 245.215775 
L 493.697476 245.017468 
L 495.394041 245.019975 
L 497.090605 244.681774 
L 498.787169 239.141639 
L 500.483734 226.879643 
L 502.180298 204.145036 
L 503.876862 156.934099 
L 505.573427 123.13369 
L 507.269991 97.590386 
L 508.966555 83.485 
L 510.663119 97.512138 
L 512.359684 140.326092 
L 514.056248 229.003022 
L 517.449377 238.475115 
L 520.842505 244.578501 
L 522.53907 244.857337 
L 524.235634 244.572319 
L 525.932198 244.983157 
L 527.628763 244.621115 
L 529.325327 244.136183 
L 531.021891 242.581684 
L 532.718455 242.340839 
L 534.41502 242.533001 
L 536.111584 242.162357 
L 537.808148 241.641653 
L 539.504713 234.059949 
L 541.201277 220.404029 
L 544.594406 139.811787 
L 546.29097 114.220818 
L 547.987534 94.849368 
L 549.684099 93.509825 
L 551.380663 110.159258 
L 553.077227 143.574316 
L 554.773791 231.520294 
L 559.863484 242.71815 
L 561.560049 245.657503 
L 563.256613 244.216471 
L 564.953177 244.079683 
L 566.649742 245.167735 
L 568.346306 244.948796 
L 570.04287 243.180895 
L 571.739434 246.24 
L 573.435999 245.598871 
L 575.132563 242.441156 
L 576.829127 242.537127 
L 578.525692 242.760549 
L 580.222256 239.85466 
L 581.91882 221.831106 
L 583.615385 191.687334 
L 585.311949 144.718309 
L 587.008513 101.961314 
L 588.705078 83.016711 
L 590.401642 84.245345 
L 592.098206 99.711593 
L 593.79477 125.931805 
L 595.491335 229.863346 
L 597.187899 233.24314 
L 598.884463 236.150453 
L 600.581028 238.226592 
L 602.277592 239.731171 
L 607.367285 241.563373 
L 609.063849 242.467975 
L 610.760413 242.875858 
L 612.456978 244.022679 
L 614.153542 244.399131 
L 615.850106 245.139614 
L 617.546671 245.333057 
L 619.243235 245.354222 
L 620.939799 242.156353 
L 622.636364 233.572483 
L 622.636364 233.572483 
" clip-path="url(#p03abf62f3f)" style="fill: none; stroke: #2ca02c; stroke-opacity: 0.6; stroke-width: 1.5; stroke-linecap: square"/>
   </g>
   <g id="patch_3">
    <path d="M 90 256.32 
L 90 34.56 
" style="fill: none; stroke: #000000; stroke-width: 0.8; stroke-linejoin: miter; stroke-linecap: square"/>
   </g>
   <g id="patch_4">
    <path d="M 648 256.32 
L 648 34.56 
" style="fill: none; stroke: #000000; stroke-width: 0.8; stroke-linejoin: miter; stroke-linecap: square"/>
   </g>
   <g id="patch_5">
    <path d="M 90 256.32 
L 648 256.32 
" style="fill: none; stroke: #000000; stroke-width: 0.8; stroke-linejoin: miter; stroke-linecap: square"/>
   </g>
   <g id="patch_6">
    <path d="M 90 34.56 
L 648 34.56 
" style="fill: none; stroke: #000000; stroke-width: 0.8; stroke-linejoin: miter; stroke-linecap: square"/>
   </g>
   <g id="legend_1">
    <g id="patch_7">
     <path d="M 97 86.594375 
L 208.684375 86.594375 
Q 210.684375 86.594375 210.684375 84.594375 
L 210.684375 41.56 
Q 210.684375 39.56 208.684375 39.56 
L 97 39.56 
Q 95 39.56 95 41.56 
L 95 84.594375 
Q 95 86.594375 97 86.594375 
z
" style="fill: #ffffff; opacity: 0.8; stroke: #cccccc; stroke-linejoin: miter"/>
    </g>
    <g id="line2d_20">
     <path d="M 99 47.658438 
L 109 47.658438 
L 119 47.658438 
" style="fill: none; stroke: #1f77b4; stroke-opacity: 0.6; stroke-width: 1.5; stroke-linecap: square"/>
    </g>
    <g id="text_19">
     <!-- Observed -->
     <g transform="translate(127 51.158438) scale(0.1 -0.1)">
      <defs>
       <path id="DejaVuSans-4f" d="M 2522 4238 
Q 1834 4238 1429 3725 
Q 1025 3213 1025 2328 
Q 1025 1447 1429 934 
Q 1834 422 2522 422 
Q 3209 422 3611 934 
Q 4013 1447 4013 2328 
Q 4013 3213 3611 3725 
Q 3209 4238 2522 4238 
z
M 2522 4750 
Q 3503 4750 4090 4092 
Q 4678 3434 4678 2328 
Q 4678 1225 4090 567 
Q 3503 -91 2522 -91 
Q 1538 -91 948 565 
Q 359 1222 359 2328 
Q 359 3434 948 4092 
Q 1538 4750 2522 4750 
z
" transform="scale(0.015625)"/>
       <path id="DejaVuSans-62" d="M 3116 1747 
Q 3116 2381 2855 2742 
Q 2594 3103 2138 3103 
Q 1681 3103 1420 2742 
Q 1159 2381 1159 1747 
Q 1159 1113 1420 752 
Q 1681 391 2138 391 
Q 2594 391 2855 752 
Q 3116 1113 3116 1747 
z
M 1159 2969 
Q 1341 3281 1617 3432 
Q 1894 3584 2278 3584 
Q 2916 3584 3314 3078 
Q 3713 2572 3713 1747 
Q 3713 922 3314 415 
Q 2916 -91 2278 -91 
Q 1894 -91 1617 61 
Q 1341 213 1159 525 
L 1159 0 
L 581 0 
L 581 4863 
L 1159 4863 
L 1159 2969 
z
" transform="scale(0.015625)"/>
       <path id="DejaVuSans-72" d="M 2631 2963 
Q 2534 3019 2420 3045 
Q 2306 3072 2169 3072 
Q 1681 3072 1420 2755 
Q 1159 2438 1159 1844 
L 1159 0 
L 581 0 
L 581 3500 
L 1159 3500 
L 1159 2956 
Q 1341 3275 1631 3429 
Q 1922 3584 2338 3584 
Q 2397 3584 2469 3576 
Q 2541 3569 2628 3553 
L 2631 2963 
z
" transform="scale(0.015625)"/>
       <path id="DejaVuSans-76" d="M 191 3500 
L 800 3500 
L 1894 563 
L 2988 3500 
L 3597 3500 
L 2284 0 
L 1503 0 
L 191 3500 
z
" transform="scale(0.015625)"/>
       <path id="DejaVuSans-64" d="M 2906 2969 
L 2906 4863 
L 3481 4863 
L 3481 0 
L 2906 0 
L 2906 525 
Q 2725 213 2448 61 
Q 2172 -91 1784 -91 
Q 1150 -91 751 415 
Q 353 922 353 1747 
Q 353 2572 751 3078 
Q 1150 3584 1784 3584 
Q 2172 3584 2448 3432 
Q 2725 3281 2906 2969 
z
M 947 1747 
Q 947 1113 1208 752 
Q 1469 391 1925 391 
Q 2381 391 2643 752 
Q 2906 1113 2906 1747 
Q 2906 2381 2643 2742 
Q 2381 3103 1925 3103 
Q 1469 3103 1208 2742 
Q 947 2381 947 1747 
z
" transform="scale(0.015625)"/>
      </defs>
      <use xlink:href="#DejaVuSans-4f"/>
      <use xlink:href="#DejaVuSans-62" x="78.710938"/>
      <use xlink:href="#DejaVuSans-73" x="142.1875"/>
      <use xlink:href="#DejaVuSans-65" x="194.287109"/>
      <use xlink:href="#DejaVuSans-72" x="255.810547"/>
      <use xlink:href="#DejaVuSans-76" x="296.923828"/>
      <use xlink:href="#DejaVuSans-65" x="356.103516"/>
      <use xlink:href="#DejaVuSans-64" x="417.626953"/>
     </g>
    </g>
    <g id="line2d_21">
     <path d="M 99 62.336563 
L 109 62.336563 
L 119 62.336563 
" style="fill: none; stroke: #ff7f0e; stroke-opacity: 0.8; stroke-width: 1.8; stroke-linecap: square"/>
    </g>
    <g id="text_20">
     <!-- Hybrid Model -->
     <g transform="translate(127 65.836563) scale(0.1 -0.1)">
      <defs>
       <path id="DejaVuSans-48" d="M 628 4666 
L 1259 4666 
L 1259 2753 
L 3553 2753 
L 3553 4666 
L 4184 4666 
L 4184 0 
L 3553 0 
L 3553 2222 
L 1259 2222 
L 1259 0 
L 628 0 
L 628 4666 
z
" transform="scale(0.015625)"/>
       <path id="DejaVuSans-79" d="M 2059 -325 
Q 1816 -950 1584 -1140 
Q 1353 -1331 966 -1331 
L 506 -1331 
L 506 -850 
L 844 -850 
Q 1081 -850 1212 -737 
Q 1344 -625 1503 -206 
L 1606 56 
L 191 3500 
L 800 3500 
L 1894 763 
L 2988 3500 
L 3597 3500 
L 2059 -325 
z
" transform="scale(0.015625)"/>
       <path id="DejaVuSans-4d" d="M 628 4666 
L 1569 4666 
L 2759 1491 
L 3956 4666 
L 4897 4666 
L 4897 0 
L 4281 0 
L 4281 4097 
L 3078 897 
L 2444 897 
L 1241 4097 
L 1241 0 
L 628 0 
L 628 4666 
z
" transform="scale(0.015625)"/>
       <path id="DejaVuSans-6f" d="M 1959 3097 
Q 1497 3097 1228 2736 
Q 959 2375 959 1747 
Q 959 1119 1226 758 
Q 1494 397 1959 397 
Q 2419 397 2687 759 
Q 2956 1122 2956 1747 
Q 2956 2369 2687 2733 
Q 2419 3097 1959 3097 
z
M 1959 3584 
Q 2709 3584 3137 3096 
Q 3566 2609 3566 1747 
Q 3566 888 3137 398 
Q 2709 -91 1959 -91 
Q 1206 -91 779 398 
Q 353 888 353 1747 
Q 353 2609 779 3096 
Q 1206 3584 1959 3584 
z
" transform="scale(0.015625)"/>
       <path id="DejaVuSans-6c" d="M 603 4863 
L 1178 4863 
L 1178 0 
L 603 0 
L 603 4863 
z
" transform="scale(0.015625)"/>
      </defs>
      <use xlink:href="#DejaVuSans-48"/>
      <use xlink:href="#DejaVuSans-79" x="75.195312"/>
      <use xlink:href="#DejaVuSans-62" x="134.375"/>
      <use xlink:href="#DejaVuSans-72" x="197.851562"/>
      <use xlink:href="#DejaVuSans-69" x="238.964844"/>
      <use xlink:href="#DejaVuSans-64" x="266.748047"/>
      <use xlink:href="#DejaVuSans-20" x="330.224609"/>
      <use xlink:href="#DejaVuSans-4d" x="362.011719"/>
      <use xlink:href="#DejaVuSans-6f" x="448.291016"/>
      <use xlink:href="#DejaVuSans-64" x="509.472656"/>
      <use xlink:href="#DejaVuSans-65" x="572.949219"/>
      <use xlink:href="#DejaVuSans-6c" x="634.472656"/>
     </g>
    </g>
    <g id="line2d_22">
     <path d="M 99 77.014688 
L 109 77.014688 
L 119 77.014688 
" style="fill: none; stroke: #2ca02c; stroke-opacity: 0.6; stroke-width: 1.5; stroke-linecap: square"/>
    </g>
    <g id="text_21">
     <!-- Empirical Model -->
     <g transform="translate(127 80.514688) scale(0.1 -0.1)">
      <defs>
       <path id="DejaVuSans-63" d="M 3122 3366 
L 3122 2828 
Q 2878 2963 2633 3030 
Q 2388 3097 2138 3097 
Q 1578 3097 1268 2742 
Q 959 2388 959 1747 
Q 959 1106 1268 751 
Q 1578 397 2138 397 
Q 2388 397 2633 464 
Q 2878 531 3122 666 
L 3122 134 
Q 2881 22 2623 -34 
Q 2366 -91 2075 -91 
Q 1284 -91 818 406 
Q 353 903 353 1747 
Q 353 2603 823 3093 
Q 1294 3584 2113 3584 
Q 2378 3584 2631 3529 
Q 2884 3475 3122 3366 
z
" transform="scale(0.015625)"/>
       <path id="DejaVuSans-61" d="M 2194 1759 
Q 1497 1759 1228 1600 
Q 959 1441 959 1056 
Q 959 750 1161 570 
Q 1363 391 1709 391 
Q 2188 391 2477 730 
Q 2766 1069 2766 1631 
L 2766 1759 
L 2194 1759 
z
M 3341 1997 
L 3341 0 
L 2766 0 
L 2766 531 
Q 2569 213 2275 61 
Q 1981 -91 1556 -91 
Q 1019 -91 701 211 
Q 384 513 384 1019 
Q 384 1609 779 1909 
Q 1175 2209 1959 2209 
L 2766 2209 
L 2766 2266 
Q 2766 2663 2505 2880 
Q 2244 3097 1772 3097 
Q 1472 3097 1187 3025 
Q 903 2953 641 2809 
L 641 3341 
Q 956 3463 1253 3523 
Q 1550 3584 1831 3584 
Q 2591 3584 2966 3190 
Q 3341 2797 3341 1997 
z
" transform="scale(0.015625)"/>
      </defs>
      <use xlink:href="#DejaVuSans-45"/>
      <use xlink:href="#DejaVuSans-6d" x="63.183594"/>
      <use xlink:href="#DejaVuSans-70" x="160.595703"/>
      <use xlink:href="#DejaVuSans-69" x="224.072266"/>
      <use xlink:href="#DejaVuSans-72" x="251.855469"/>
      <use xlink:href="#DejaVuSans-69" x="292.96875"/>
      <use xlink:href="#DejaVuSans-63" x="320.751953"/>
      <use xlink:href="#DejaVuSans-61" x="375.732422"/>
      <use xlink:href="#DejaVuSans-6c" x="437.011719"/>
      <use xlink:href="#DejaVuSans-20" x="464.794922"/>
      <use xlink:href="#DejaVuSans-4d" x="496.582031"/>
      <use xlink:href="#DejaVuSans-6f" x="582.861328"/>
      <use xlink:href="#DejaVuSans-64" x="644.042969"/>
      <use xlink:href="#DejaVuSans-65" x="707.519531"/>
      <use xlink:href="#DejaVuSans-6c" x="769.042969"/>
     </g>
    </g>
   </g>
  </g>
 </g>
 <defs>
  <clipPath id="p03abf62f3f">
   <rect x="90" y="34.56" width="558" height="221.76"/>
  </clipPath>
 </defs>
</svg>
