<?xml version="1.0" encoding="utf-8" standalone="no"?>
<!DOCTYPE svg PUBLIC "-//W3C//DTD SVG 1.1//EN"
  "http://www.w3.org/Graphics/SVG/1.1/DTD/svg11.dtd">
<svg xmlns:xlink="http://www.w3.org/1999/xlink" width="720pt" height="288pt" viewBox="0 0 720 288" xmlns="http://www.w3.org/2000/svg" version="1.1">
 <metadata>
  <rdf:RDF xmlns:dc="http://purl.org/dc/elements/1.1/" xmlns:cc="http://creativecommons.org/ns#" xmlns:rdf="http://www.w3.org/1999/02/22-rdf-syntax-ns#">
   <cc:Work>
    <dc:type rdf:resource="http://purl.org/dc/dcmitype/StillImage"/>
    <dc:date>2025-01-06T16:15:28.770073</dc:date>
    <dc:format>image/svg+xml</dc:format>
    <dc:creator>
     <cc:Agent>
      <dc:title>Matplotlib v3.6.0, https://matplotlib.org/</dc:title>
     </cc:Agent>
    </dc:creator>
   </cc:Work>
  </rdf:RDF>
 </metadata>
 <defs>
  <style type="text/css">*{stroke-linejoin: round; stroke-linecap: butt}</style>
 </defs>
 <g id="figure_1">
  <g id="patch_1">
   <path d="M 0 288 
L 720 288 
L 720 0 
L 0 0 
z
" style="fill: #ffffff"/>
  </g>
  <g id="axes_1">
   <g id="patch_2">
    <path d="M 90 256.32 
L 648 256.32 
L 648 34.56 
L 90 34.56 
z
" style="fill: #ffffff"/>
   </g>
   <g id="matplotlib.axis_1">
    <g id="xtick_1">
     <g id="line2d_1">
      <defs>
       <path id="m286bc0cd98" d="M 0 0 
L 0 3.5 
" style="stroke: #000000; stroke-width: 0.8"/>
      </defs>
      <g>
       <use xlink:href="#m286bc0cd98" x="115.363636" y="256.32" style="stroke: #000000; stroke-width: 0.8"/>
      </g>
     </g>
     <g id="text_1">
      <!-- 0 -->
      <g transform="translate(112.182386 270.918437) scale(0.1 -0.1)">
       <defs>
        <path id="DejaVuSans-30" d="M 2034 4250 
Q 1547 4250 1301 3770 
Q 1056 3291 1056 2328 
Q 1056 1369 1301 889 
Q 1547 409 2034 409 
Q 2525 409 2770 889 
Q 3016 1369 3016 2328 
Q 3016 3291 2770 3770 
Q 2525 4250 2034 4250 
z
M 2034 4750 
Q 2819 4750 3233 4129 
Q 3647 3509 3647 2328 
Q 3647 1150 3233 529 
Q 2819 -91 2034 -91 
Q 1250 -91 836 529 
Q 422 1150 422 2328 
Q 422 3509 836 4129 
Q 1250 4750 2034 4750 
z
" transform="scale(0.015625)"/>
       </defs>
       <use xlink:href="#DejaVuSans-30"/>
      </g>
     </g>
    </g>
    <g id="xtick_2">
     <g id="line2d_2">
      <g>
       <use xlink:href="#m286bc0cd98" x="200.191852" y="256.32" style="stroke: #000000; stroke-width: 0.8"/>
      </g>
     </g>
     <g id="text_2">
      <!-- 50 -->
      <g transform="translate(193.829352 270.918437) scale(0.1 -0.1)">
       <defs>
        <path id="DejaVuSans-35" d="M 691 4666 
L 3169 4666 
L 3169 4134 
L 1269 4134 
L 1269 2991 
Q 1406 3038 1543 3061 
Q 1681 3084 1819 3084 
Q 2600 3084 3056 2656 
Q 3513 2228 3513 1497 
Q 3513 744 3044 326 
Q 2575 -91 1722 -91 
Q 1428 -91 1123 -41 
Q 819 9 494 109 
L 494 744 
Q 775 591 1075 516 
Q 1375 441 1709 441 
Q 2250 441 2565 725 
Q 2881 1009 2881 1497 
Q 2881 1984 2565 2268 
Q 2250 2553 1709 2553 
Q 1456 2553 1204 2497 
Q 953 2441 691 2322 
L 691 4666 
z
" transform="scale(0.015625)"/>
       </defs>
       <use xlink:href="#DejaVuSans-35"/>
       <use xlink:href="#DejaVuSans-30" x="63.623047"/>
      </g>
     </g>
    </g>
    <g id="xtick_3">
     <g id="line2d_3">
      <g>
       <use xlink:href="#m286bc0cd98" x="285.020067" y="256.32" style="stroke: #000000; stroke-width: 0.8"/>
      </g>
     </g>
     <g id="text_3">
      <!-- 100 -->
      <g transform="translate(275.476317 270.918437) scale(0.1 -0.1)">
       <defs>
        <path id="DejaVuSans-31" d="M 794 531 
L 1825 531 
L 1825 4091 
L 703 3866 
L 703 4441 
L 1819 4666 
L 2450 4666 
L 2450 531 
L 3481 531 
L 3481 0 
L 794 0 
L 794 531 
z
" transform="scale(0.015625)"/>
       </defs>
       <use xlink:href="#DejaVuSans-31"/>
       <use xlink:href="#DejaVuSans-30" x="63.623047"/>
       <use xlink:href="#DejaVuSans-30" x="127.246094"/>
      </g>
     </g>
    </g>
    <g id="xtick_4">
     <g id="line2d_4">
      <g>
       <use xlink:href="#m286bc0cd98" x="369.848282" y="256.32" style="stroke: #000000; stroke-width: 0.8"/>
      </g>
     </g>
     <g id="text_4">
      <!-- 150 -->
      <g transform="translate(360.304532 270.918437) scale(0.1 -0.1)">
       <use xlink:href="#DejaVuSans-31"/>
       <use xlink:href="#DejaVuSans-35" x="63.623047"/>
       <use xlink:href="#DejaVuSans-30" x="127.246094"/>
      </g>
     </g>
    </g>
    <g id="xtick_5">
     <g id="line2d_5">
      <g>
       <use xlink:href="#m286bc0cd98" x="454.676497" y="256.32" style="stroke: #000000; stroke-width: 0.8"/>
      </g>
     </g>
     <g id="text_5">
      <!-- 200 -->
      <g transform="translate(445.132747 270.918437) scale(0.1 -0.1)">
       <defs>
        <path id="DejaVuSans-32" d="M 1228 531 
L 3431 531 
L 3431 0 
L 469 0 
L 469 531 
Q 828 903 1448 1529 
Q 2069 2156 2228 2338 
Q 2531 2678 2651 2914 
Q 2772 3150 2772 3378 
Q 2772 3750 2511 3984 
Q 2250 4219 1831 4219 
Q 1534 4219 1204 4116 
Q 875 4013 500 3803 
L 500 4441 
Q 881 4594 1212 4672 
Q 1544 4750 1819 4750 
Q 2544 4750 2975 4387 
Q 3406 4025 3406 3419 
Q 3406 3131 3298 2873 
Q 3191 2616 2906 2266 
Q 2828 2175 2409 1742 
Q 1991 1309 1228 531 
z
" transform="scale(0.015625)"/>
       </defs>
       <use xlink:href="#DejaVuSans-32"/>
       <use xlink:href="#DejaVuSans-30" x="63.623047"/>
       <use xlink:href="#DejaVuSans-30" x="127.246094"/>
      </g>
     </g>
    </g>
    <g id="xtick_6">
     <g id="line2d_6">
      <g>
       <use xlink:href="#m286bc0cd98" x="539.504713" y="256.32" style="stroke: #000000; stroke-width: 0.8"/>
      </g>
     </g>
     <g id="text_6">
      <!-- 250 -->
      <g transform="translate(529.960963 270.918437) scale(0.1 -0.1)">
       <use xlink:href="#DejaVuSans-32"/>
       <use xlink:href="#DejaVuSans-35" x="63.623047"/>
       <use xlink:href="#DejaVuSans-30" x="127.246094"/>
      </g>
     </g>
    </g>
    <g id="xtick_7">
     <g id="line2d_7">
      <g>
       <use xlink:href="#m286bc0cd98" x="624.332928" y="256.32" style="stroke: #000000; stroke-width: 0.8"/>
      </g>
     </g>
     <g id="text_7">
      <!-- 300 -->
      <g transform="translate(614.789178 270.918437) scale(0.1 -0.1)">
       <defs>
        <path id="DejaVuSans-33" d="M 2597 2516 
Q 3050 2419 3304 2112 
Q 3559 1806 3559 1356 
Q 3559 666 3084 287 
Q 2609 -91 1734 -91 
Q 1441 -91 1130 -33 
Q 819 25 488 141 
L 488 750 
Q 750 597 1062 519 
Q 1375 441 1716 441 
Q 2309 441 2620 675 
Q 2931 909 2931 1356 
Q 2931 1769 2642 2001 
Q 2353 2234 1838 2234 
L 1294 2234 
L 1294 2753 
L 1863 2753 
Q 2328 2753 2575 2939 
Q 2822 3125 2822 3475 
Q 2822 3834 2567 4026 
Q 2313 4219 1838 4219 
Q 1578 4219 1281 4162 
Q 984 4106 628 3988 
L 628 4550 
Q 988 4650 1302 4700 
Q 1616 4750 1894 4750 
Q 2613 4750 3031 4423 
Q 3450 4097 3450 3541 
Q 3450 3153 3228 2886 
Q 3006 2619 2597 2516 
z
" transform="scale(0.015625)"/>
       </defs>
       <use xlink:href="#DejaVuSans-33"/>
       <use xlink:href="#DejaVuSans-30" x="63.623047"/>
       <use xlink:href="#DejaVuSans-30" x="127.246094"/>
      </g>
     </g>
    </g>
    <g id="text_8">
     <!-- Timestep -->
     <g transform="translate(345.950781 284.596563) scale(0.1 -0.1)">
      <defs>
       <path id="DejaVuSans-54" d="M -19 4666 
L 3928 4666 
L 3928 4134 
L 2272 4134 
L 2272 0 
L 1638 0 
L 1638 4134 
L -19 4134 
L -19 4666 
z
" transform="scale(0.015625)"/>
       <path id="DejaVuSans-69" d="M 603 3500 
L 1178 3500 
L 1178 0 
L 603 0 
L 603 3500 
z
M 603 4863 
L 1178 4863 
L 1178 4134 
L 603 4134 
L 603 4863 
z
" transform="scale(0.015625)"/>
       <path id="DejaVuSans-6d" d="M 3328 2828 
Q 3544 3216 3844 3400 
Q 4144 3584 4550 3584 
Q 5097 3584 5394 3201 
Q 5691 2819 5691 2113 
L 5691 0 
L 5113 0 
L 5113 2094 
Q 5113 2597 4934 2840 
Q 4756 3084 4391 3084 
Q 3944 3084 3684 2787 
Q 3425 2491 3425 1978 
L 3425 0 
L 2847 0 
L 2847 2094 
Q 2847 2600 2669 2842 
Q 2491 3084 2119 3084 
Q 1678 3084 1418 2786 
Q 1159 2488 1159 1978 
L 1159 0 
L 581 0 
L 581 3500 
L 1159 3500 
L 1159 2956 
Q 1356 3278 1631 3431 
Q 1906 3584 2284 3584 
Q 2666 3584 2933 3390 
Q 3200 3197 3328 2828 
z
" transform="scale(0.015625)"/>
       <path id="DejaVuSans-65" d="M 3597 1894 
L 3597 1613 
L 953 1613 
Q 991 1019 1311 708 
Q 1631 397 2203 397 
Q 2534 397 2845 478 
Q 3156 559 3463 722 
L 3463 178 
Q 3153 47 2828 -22 
Q 2503 -91 2169 -91 
Q 1331 -91 842 396 
Q 353 884 353 1716 
Q 353 2575 817 3079 
Q 1281 3584 2069 3584 
Q 2775 3584 3186 3129 
Q 3597 2675 3597 1894 
z
M 3022 2063 
Q 3016 2534 2758 2815 
Q 2500 3097 2075 3097 
Q 1594 3097 1305 2825 
Q 1016 2553 972 2059 
L 3022 2063 
z
" transform="scale(0.015625)"/>
       <path id="DejaVuSans-73" d="M 2834 3397 
L 2834 2853 
Q 2591 2978 2328 3040 
Q 2066 3103 1784 3103 
Q 1356 3103 1142 2972 
Q 928 2841 928 2578 
Q 928 2378 1081 2264 
Q 1234 2150 1697 2047 
L 1894 2003 
Q 2506 1872 2764 1633 
Q 3022 1394 3022 966 
Q 3022 478 2636 193 
Q 2250 -91 1575 -91 
Q 1294 -91 989 -36 
Q 684 19 347 128 
L 347 722 
Q 666 556 975 473 
Q 1284 391 1588 391 
Q 1994 391 2212 530 
Q 2431 669 2431 922 
Q 2431 1156 2273 1281 
Q 2116 1406 1581 1522 
L 1381 1569 
Q 847 1681 609 1914 
Q 372 2147 372 2553 
Q 372 3047 722 3315 
Q 1072 3584 1716 3584 
Q 2034 3584 2315 3537 
Q 2597 3491 2834 3397 
z
" transform="scale(0.015625)"/>
       <path id="DejaVuSans-74" d="M 1172 4494 
L 1172 3500 
L 2356 3500 
L 2356 3053 
L 1172 3053 
L 1172 1153 
Q 1172 725 1289 603 
Q 1406 481 1766 481 
L 2356 481 
L 2356 0 
L 1766 0 
Q 1100 0 847 248 
Q 594 497 594 1153 
L 594 3053 
L 172 3053 
L 172 3500 
L 594 3500 
L 594 4494 
L 1172 4494 
z
" transform="scale(0.015625)"/>
       <path id="DejaVuSans-70" d="M 1159 525 
L 1159 -1331 
L 581 -1331 
L 581 3500 
L 1159 3500 
L 1159 2969 
Q 1341 3281 1617 3432 
Q 1894 3584 2278 3584 
Q 2916 3584 3314 3078 
Q 3713 2572 3713 1747 
Q 3713 922 3314 415 
Q 2916 -91 2278 -91 
Q 1894 -91 1617 61 
Q 1341 213 1159 525 
z
M 3116 1747 
Q 3116 2381 2855 2742 
Q 2594 3103 2138 3103 
Q 1681 3103 1420 2742 
Q 1159 2381 1159 1747 
Q 1159 1113 1420 752 
Q 1681 391 2138 391 
Q 2594 391 2855 752 
Q 3116 1113 3116 1747 
z
" transform="scale(0.015625)"/>
      </defs>
      <use xlink:href="#DejaVuSans-54"/>
      <use xlink:href="#DejaVuSans-69" x="57.958984"/>
      <use xlink:href="#DejaVuSans-6d" x="85.742188"/>
      <use xlink:href="#DejaVuSans-65" x="183.154297"/>
      <use xlink:href="#DejaVuSans-73" x="244.677734"/>
      <use xlink:href="#DejaVuSans-74" x="296.777344"/>
      <use xlink:href="#DejaVuSans-65" x="335.986328"/>
      <use xlink:href="#DejaVuSans-70" x="397.509766"/>
     </g>
    </g>
   </g>
   <g id="matplotlib.axis_2">
    <g id="ytick_1">
     <g id="line2d_8">
      <defs>
       <path id="m62c68ec9c9" d="M 0 0 
L -3.5 0 
" style="stroke: #000000; stroke-width: 0.8"/>
      </defs>
      <g>
       <use xlink:href="#m62c68ec9c9" x="90" y="246.075717" style="stroke: #000000; stroke-width: 0.8"/>
      </g>
     </g>
     <g id="text_9">
      <!-- 0 -->
      <g transform="translate(76.6375 249.874935) scale(0.1 -0.1)">
       <use xlink:href="#DejaVuSans-30"/>
      </g>
     </g>
    </g>
    <g id="ytick_2">
     <g id="line2d_9">
      <g>
       <use xlink:href="#m62c68ec9c9" x="90" y="213.540344" style="stroke: #000000; stroke-width: 0.8"/>
      </g>
     </g>
     <g id="text_10">
      <!-- 100 -->
      <g transform="translate(63.9125 217.339563) scale(0.1 -0.1)">
       <use xlink:href="#DejaVuSans-31"/>
       <use xlink:href="#DejaVuSans-30" x="63.623047"/>
       <use xlink:href="#DejaVuSans-30" x="127.246094"/>
      </g>
     </g>
    </g>
    <g id="ytick_3">
     <g id="line2d_10">
      <g>
       <use xlink:href="#m62c68ec9c9" x="90" y="181.004972" style="stroke: #000000; stroke-width: 0.8"/>
      </g>
     </g>
     <g id="text_11">
      <!-- 200 -->
      <g transform="translate(63.9125 184.80419) scale(0.1 -0.1)">
       <use xlink:href="#DejaVuSans-32"/>
       <use xlink:href="#DejaVuSans-30" x="63.623047"/>
       <use xlink:href="#DejaVuSans-30" x="127.246094"/>
      </g>
     </g>
    </g>
    <g id="ytick_4">
     <g id="line2d_11">
      <g>
       <use xlink:href="#m62c68ec9c9" x="90" y="148.469599" style="stroke: #000000; stroke-width: 0.8"/>
      </g>
     </g>
     <g id="text_12">
      <!-- 300 -->
      <g transform="translate(63.9125 152.268818) scale(0.1 -0.1)">
       <use xlink:href="#DejaVuSans-33"/>
       <use xlink:href="#DejaVuSans-30" x="63.623047"/>
       <use xlink:href="#DejaVuSans-30" x="127.246094"/>
      </g>
     </g>
    </g>
    <g id="ytick_5">
     <g id="line2d_12">
      <g>
       <use xlink:href="#m62c68ec9c9" x="90" y="115.934227" style="stroke: #000000; stroke-width: 0.8"/>
      </g>
     </g>
     <g id="text_13">
      <!-- 400 -->
      <g transform="translate(63.9125 119.733446) scale(0.1 -0.1)">
       <defs>
        <path id="DejaVuSans-34" d="M 2419 4116 
L 825 1625 
L 2419 1625 
L 2419 4116 
z
M 2253 4666 
L 3047 4666 
L 3047 1625 
L 3713 1625 
L 3713 1100 
L 3047 1100 
L 3047 0 
L 2419 0 
L 2419 1100 
L 313 1100 
L 313 1709 
L 2253 4666 
z
" transform="scale(0.015625)"/>
       </defs>
       <use xlink:href="#DejaVuSans-34"/>
       <use xlink:href="#DejaVuSans-30" x="63.623047"/>
       <use xlink:href="#DejaVuSans-30" x="127.246094"/>
      </g>
     </g>
    </g>
    <g id="ytick_6">
     <g id="line2d_13">
      <g>
       <use xlink:href="#m62c68ec9c9" x="90" y="83.398855" style="stroke: #000000; stroke-width: 0.8"/>
      </g>
     </g>
     <g id="text_14">
      <!-- 500 -->
      <g transform="translate(63.9125 87.198073) scale(0.1 -0.1)">
       <use xlink:href="#DejaVuSans-35"/>
       <use xlink:href="#DejaVuSans-30" x="63.623047"/>
       <use xlink:href="#DejaVuSans-30" x="127.246094"/>
      </g>
     </g>
    </g>
    <g id="ytick_7">
     <g id="line2d_14">
      <g>
       <use xlink:href="#m62c68ec9c9" x="90" y="50.863482" style="stroke: #000000; stroke-width: 0.8"/>
      </g>
     </g>
     <g id="text_15">
      <!-- 600 -->
      <g transform="translate(63.9125 54.662701) scale(0.1 -0.1)">
       <defs>
        <path id="DejaVuSans-36" d="M 2113 2584 
Q 1688 2584 1439 2293 
Q 1191 2003 1191 1497 
Q 1191 994 1439 701 
Q 1688 409 2113 409 
Q 2538 409 2786 701 
Q 3034 994 3034 1497 
Q 3034 2003 2786 2293 
Q 2538 2584 2113 2584 
z
M 3366 4563 
L 3366 3988 
Q 3128 4100 2886 4159 
Q 2644 4219 2406 4219 
Q 1781 4219 1451 3797 
Q 1122 3375 1075 2522 
Q 1259 2794 1537 2939 
Q 1816 3084 2150 3084 
Q 2853 3084 3261 2657 
Q 3669 2231 3669 1497 
Q 3669 778 3244 343 
Q 2819 -91 2113 -91 
Q 1303 -91 875 529 
Q 447 1150 447 2328 
Q 447 3434 972 4092 
Q 1497 4750 2381 4750 
Q 2619 4750 2861 4703 
Q 3103 4656 3366 4563 
z
" transform="scale(0.015625)"/>
       </defs>
       <use xlink:href="#DejaVuSans-36"/>
       <use xlink:href="#DejaVuSans-30" x="63.623047"/>
       <use xlink:href="#DejaVuSans-30" x="127.246094"/>
      </g>
     </g>
    </g>
    <g id="text_16">
     <!-- Q_LE [W/m²] -->
     <g transform="translate(57.554687 176.815) rotate(-90) scale(0.1 -0.1)">
      <defs>
       <path id="DejaVuSans-51" d="M 2522 4238 
Q 1834 4238 1429 3725 
Q 1025 3213 1025 2328 
Q 1025 1447 1429 934 
Q 1834 422 2522 422 
Q 3209 422 3611 934 
Q 4013 1447 4013 2328 
Q 4013 3213 3611 3725 
Q 3209 4238 2522 4238 
z
M 3406 84 
L 4238 -825 
L 3475 -825 
L 2784 -78 
Q 2681 -84 2626 -87 
Q 2572 -91 2522 -91 
Q 1538 -91 948 567 
Q 359 1225 359 2328 
Q 359 3434 948 4092 
Q 1538 4750 2522 4750 
Q 3503 4750 4090 4092 
Q 4678 3434 4678 2328 
Q 4678 1516 4351 937 
Q 4025 359 3406 84 
z
" transform="scale(0.015625)"/>
       <path id="DejaVuSans-5f" d="M 3263 -1063 
L 3263 -1509 
L -63 -1509 
L -63 -1063 
L 3263 -1063 
z
" transform="scale(0.015625)"/>
       <path id="DejaVuSans-4c" d="M 628 4666 
L 1259 4666 
L 1259 531 
L 3531 531 
L 3531 0 
L 628 0 
L 628 4666 
z
" transform="scale(0.015625)"/>
       <path id="DejaVuSans-45" d="M 628 4666 
L 3578 4666 
L 3578 4134 
L 1259 4134 
L 1259 2753 
L 3481 2753 
L 3481 2222 
L 1259 2222 
L 1259 531 
L 3634 531 
L 3634 0 
L 628 0 
L 628 4666 
z
" transform="scale(0.015625)"/>
       <path id="DejaVuSans-20" transform="scale(0.015625)"/>
       <path id="DejaVuSans-5b" d="M 550 4863 
L 1875 4863 
L 1875 4416 
L 1125 4416 
L 1125 -397 
L 1875 -397 
L 1875 -844 
L 550 -844 
L 550 4863 
z
" transform="scale(0.015625)"/>
       <path id="DejaVuSans-57" d="M 213 4666 
L 850 4666 
L 1831 722 
L 2809 4666 
L 3519 4666 
L 4500 722 
L 5478 4666 
L 6119 4666 
L 4947 0 
L 4153 0 
L 3169 4050 
L 2175 0 
L 1381 0 
L 213 4666 
z
" transform="scale(0.015625)"/>
       <path id="DejaVuSans-2f" d="M 1625 4666 
L 2156 4666 
L 531 -594 
L 0 -594 
L 1625 4666 
z
" transform="scale(0.015625)"/>
       <path id="DejaVuSans-b2" d="M 838 2444 
L 2163 2444 
L 2163 2088 
L 294 2088 
L 294 2431 
Q 400 2528 597 2703 
Q 1672 3656 1672 3950 
Q 1672 4156 1509 4282 
Q 1347 4409 1081 4409 
Q 919 4409 728 4354 
Q 538 4300 313 4191 
L 313 4575 
Q 553 4663 761 4706 
Q 969 4750 1147 4750 
Q 1600 4750 1872 4544 
Q 2144 4338 2144 4000 
Q 2144 3566 1109 2678 
Q 934 2528 838 2444 
z
" transform="scale(0.015625)"/>
       <path id="DejaVuSans-5d" d="M 1947 4863 
L 1947 -844 
L 622 -844 
L 622 -397 
L 1369 -397 
L 1369 4416 
L 622 4416 
L 622 4863 
L 1947 4863 
z
" transform="scale(0.015625)"/>
      </defs>
      <use xlink:href="#DejaVuSans-51"/>
      <use xlink:href="#DejaVuSans-5f" x="78.710938"/>
      <use xlink:href="#DejaVuSans-4c" x="128.710938"/>
      <use xlink:href="#DejaVuSans-45" x="184.423828"/>
      <use xlink:href="#DejaVuSans-20" x="247.607422"/>
      <use xlink:href="#DejaVuSans-5b" x="279.394531"/>
      <use xlink:href="#DejaVuSans-57" x="318.408203"/>
      <use xlink:href="#DejaVuSans-2f" x="417.285156"/>
      <use xlink:href="#DejaVuSans-6d" x="450.976562"/>
      <use xlink:href="#DejaVuSans-b2" x="548.388672"/>
      <use xlink:href="#DejaVuSans-5d" x="588.476562"/>
     </g>
    </g>
   </g>
   <g id="line2d_15">
    <path d="M 115.363636 172.906104 
L 117.060201 186.530941 
L 118.756765 151.948118 
L 120.453329 164.511654 
L 122.149894 167.409415 
L 123.846458 190.03598 
L 125.543022 180.912245 
L 127.239587 224.540017 
L 128.936151 237.074009 
L 130.632715 217.356625 
L 132.329279 234.568199 
L 134.025844 235.456717 
L 135.722408 233.352685 
L 137.418972 244.124637 
L 139.115537 244.479505 
L 140.812101 240.971175 
L 142.508665 241.397398 
L 144.20523 244.366411 
L 145.901794 245.980156 
L 147.598358 236.968479 
L 150.991487 189.85069 
L 152.688051 180.636998 
L 154.384615 150.752765 
L 156.08118 170.847105 
L 157.777744 123.512363 
L 159.474308 136.767599 
L 161.170873 119.235106 
L 162.867437 159.651846 
L 164.564001 162.61923 
L 166.260566 189.74999 
L 167.95713 226.385943 
L 169.653694 242.082793 
L 171.350258 242.100826 
L 173.046823 245.028831 
L 174.743387 244.549085 
L 176.439951 242.62596 
L 178.136516 244.081946 
L 179.83308 245.29993 
L 181.529644 246.02608 
L 183.226209 246.052363 
L 184.922773 245.411948 
L 186.619337 243.475429 
L 188.315901 238.507647 
L 190.012466 226.282351 
L 191.70903 223.630083 
L 193.405594 212.617381 
L 195.102159 220.641645 
L 196.798723 227.606622 
L 198.495287 181.489587 
L 200.191852 218.863082 
L 201.888416 214.551919 
L 203.58498 186.845234 
L 205.281545 205.379008 
L 206.978109 228.674417 
L 208.674673 232.218821 
L 210.371237 242.655564 
L 212.067802 244.999186 
L 213.764366 244.53834 
L 217.157495 244.759775 
L 218.854059 244.331383 
L 220.550623 244.348366 
L 222.247188 240.163161 
L 223.943752 245.747333 
L 225.640316 245.527839 
L 227.336881 244.103697 
L 229.033445 235.200963 
L 230.730009 213.336462 
L 234.123138 186.165569 
L 235.819702 152.144474 
L 237.516266 133.015953 
L 239.212831 124.900002 
L 240.909395 143.340075 
L 242.605959 135.377686 
L 244.302524 188.358777 
L 245.999088 197.545045 
L 247.695652 230.403477 
L 249.392216 237.057871 
L 251.088781 241.789764 
L 252.785345 245.652309 
L 254.481909 245.738743 
L 256.178474 245.991245 
L 257.875038 245.916596 
L 259.571602 245.632235 
L 262.964731 245.344523 
L 264.661295 245.566238 
L 266.35786 245.606341 
L 268.054424 245.43849 
L 269.750988 241.232664 
L 271.447552 233.545629 
L 273.144117 220.500668 
L 274.840681 220.583357 
L 278.23381 208.172497 
L 279.930374 185.480373 
L 281.626938 181.932718 
L 283.323503 163.600012 
L 285.020067 176.279697 
L 286.716631 192.816614 
L 288.413196 202.800285 
L 290.10976 230.889051 
L 291.806324 245.853226 
L 293.502888 242.760689 
L 295.199453 245.493273 
L 296.896017 240.333745 
L 298.592581 213.709366 
L 300.289146 205.750725 
L 303.682274 178.896681 
L 305.378839 155.962654 
L 307.075403 129.521488 
L 308.771967 163.022347 
L 310.468531 169.867137 
L 312.165096 182.275805 
L 313.86166 210.781671 
L 315.558224 216.809579 
L 317.254789 229.452728 
L 318.951353 240.51412 
L 320.647917 243.702222 
L 324.041046 245.104823 
L 325.73761 246.030199 
L 327.434175 245.928705 
L 329.130739 238.456518 
L 330.827303 223.509232 
L 332.523867 212.99785 
L 334.220432 221.248543 
L 337.61356 172.327625 
L 339.310125 168.201978 
L 341.006689 177.858966 
L 342.703253 201.530564 
L 344.399818 228.729726 
L 346.096382 228.439479 
L 347.792946 224.527784 
L 349.48951 223.123914 
L 351.186075 243.991832 
L 352.882639 243.732171 
L 354.579203 233.393736 
L 356.275768 239.278979 
L 357.972332 240.901357 
L 359.668896 222.843492 
L 363.062025 173.438219 
L 364.758589 179.065702 
L 366.455154 156.267842 
L 368.151718 146.925142 
L 369.848282 147.025028 
L 371.544846 155.816251 
L 373.241411 167.013297 
L 374.937975 207.845629 
L 376.634539 208.792782 
L 378.331104 232.504025 
L 380.027668 243.0662 
L 381.724232 244.591058 
L 383.420797 245.644974 
L 385.117361 245.444244 
L 386.813925 243.195358 
L 390.207054 190.278531 
L 393.600182 159.074177 
L 395.296747 153.712999 
L 396.993311 139.553281 
L 398.689875 144.600652 
L 400.38644 141.020947 
L 402.083004 160.819706 
L 403.779568 174.29195 
L 405.476133 217.242007 
L 407.172697 238.774275 
L 408.869261 243.907491 
L 410.565825 244.652746 
L 412.26239 244.773482 
L 413.958954 243.770374 
L 415.655518 243.701129 
L 417.352083 242.074114 
L 419.048647 243.892009 
L 422.441776 246.003756 
L 424.13834 245.826632 
L 425.834904 239.919373 
L 427.531469 221.035891 
L 429.228033 200.771675 
L 430.924597 174.071198 
L 432.621161 155.78843 
L 434.317726 152.297222 
L 436.01429 151.441868 
L 437.710854 165.147557 
L 439.407419 152.00652 
L 441.103983 213.397384 
L 442.800547 203.302634 
L 444.497112 223.71754 
L 447.89024 241.713005 
L 449.586804 242.740296 
L 451.283369 242.612071 
L 452.979933 245.132863 
L 454.676497 240.723412 
L 456.373062 245.401078 
L 458.069626 245.736876 
L 459.76619 244.75335 
L 461.462755 245.063596 
L 463.159319 239.143307 
L 464.855883 238.713563 
L 466.552448 240.267632 
L 468.249012 212.627923 
L 469.945576 193.732485 
L 471.64214 206.755255 
L 473.338705 221.977839 
L 475.035269 232.094307 
L 476.731833 237.738088 
L 478.428398 233.686784 
L 480.124962 235.709231 
L 481.821526 240.939064 
L 483.518091 244.844965 
L 485.214655 245.803252 
L 486.911219 243.643133 
L 488.607784 244.611587 
L 490.304348 245.994482 
L 492.000912 242.666771 
L 493.697476 238.389258 
L 495.394041 204.26332 
L 497.090605 177.260152 
L 498.787169 188.55204 
L 500.483734 158.881733 
L 502.180298 154.442602 
L 503.876862 190.283783 
L 505.573427 221.115067 
L 507.269991 190.158961 
L 508.966555 205.093998 
L 510.663119 238.836059 
L 512.359684 239.12621 
L 514.056248 244.283816 
L 515.752812 245.512602 
L 517.449377 246.071455 
L 519.145941 245.699946 
L 520.842505 234.573763 
L 522.53907 232.680245 
L 524.235634 243.70759 
L 525.932198 198.030132 
L 527.628763 238.450482 
L 529.325327 228.447369 
L 531.021891 204.354145 
L 532.718455 199.5311 
L 534.41502 207.731966 
L 536.111584 208.906754 
L 537.808148 212.428025 
L 539.504713 210.658685 
L 541.201277 176.950739 
L 542.897841 215.806856 
L 544.594406 235.207958 
L 546.29097 242.263742 
L 547.987534 232.986345 
L 549.684099 246.05022 
L 551.380663 246.053653 
L 553.077227 243.688678 
L 554.773791 193.927526 
L 556.470356 244.076444 
L 558.16692 238.78288 
L 559.863484 222.397091 
L 561.560049 199.042255 
L 563.256613 193.560207 
L 564.953177 201.225381 
L 566.649742 210.932423 
L 568.346306 213.228591 
L 570.04287 217.830425 
L 571.739434 224.096902 
L 573.435999 219.720129 
L 575.132563 231.899697 
L 576.829127 240.356958 
L 578.525692 244.359027 
L 581.91882 244.569787 
L 585.311949 245.68096 
L 587.008513 243.91126 
L 588.705078 245.271182 
L 590.401642 225.162419 
L 592.098206 208.644748 
L 593.79477 196.129526 
L 595.491335 203.415497 
L 597.187899 187.597942 
L 600.581028 208.702986 
L 602.277592 194.683168 
L 603.974156 193.471873 
L 605.670721 212.990741 
L 607.367285 228.442764 
L 609.063849 237.803533 
L 610.760413 243.25483 
L 612.456978 242.824267 
L 614.153542 244.426568 
L 615.850106 242.808269 
L 617.546671 245.043592 
L 619.243235 244.637757 
L 620.939799 242.815869 
L 622.636364 242.462052 
L 622.636364 242.462052 
" clip-path="url(#pfd574605d1)" style="fill: none; stroke: #1f77b4; stroke-opacity: 0.6; stroke-width: 1.5; stroke-linecap: square"/>
   </g>
   <g id="line2d_16">
    <path d="M 115.363636 194.061081 
L 117.060201 202.578739 
L 118.756765 195.295698 
L 120.453329 199.520178 
L 122.149894 197.536144 
L 123.846458 211.821869 
L 125.543022 215.918694 
L 127.239587 217.327357 
L 128.936151 238.043841 
L 130.632715 237.596835 
L 132.329279 242.502593 
L 134.025844 244.227899 
L 135.722408 244.884189 
L 137.418972 244.511466 
L 139.115537 244.275632 
L 140.812101 244.346751 
L 142.508665 244.799582 
L 144.20523 245.708817 
L 145.901794 245.275914 
L 147.598358 238.524148 
L 149.294922 221.077449 
L 150.991487 197.137435 
L 152.688051 161.924715 
L 154.384615 159.218356 
L 156.08118 169.520188 
L 157.777744 148.32542 
L 159.474308 163.063146 
L 161.170873 160.822556 
L 162.867437 182.200831 
L 164.564001 189.552293 
L 166.260566 198.574649 
L 167.95713 203.94785 
L 169.653694 235.650646 
L 171.350258 238.550473 
L 173.046823 239.51601 
L 174.743387 239.350775 
L 176.439951 238.890975 
L 178.136516 238.858403 
L 181.529644 239.571061 
L 184.922773 239.553865 
L 186.619337 240.258768 
L 188.315901 231.731985 
L 190.012466 226.994881 
L 191.70903 222.750435 
L 193.405594 216.288597 
L 195.102159 218.620849 
L 196.798723 223.082163 
L 198.495287 217.85037 
L 200.191852 211.750206 
L 203.58498 207.741394 
L 205.281545 215.006384 
L 206.978109 218.895532 
L 208.674673 220.635903 
L 210.371237 240.886776 
L 212.067802 242.895948 
L 213.764366 243.610842 
L 215.46093 243.973739 
L 217.157495 244.194863 
L 218.854059 245.122068 
L 220.550623 245.503359 
L 222.247188 245.214415 
L 223.943752 245.36049 
L 225.640316 245.651027 
L 227.336881 245.593212 
L 229.033445 238.157261 
L 234.123138 192.98145 
L 235.819702 174.458375 
L 237.516266 166.830176 
L 239.212831 169.064412 
L 240.909395 177.106178 
L 242.605959 206.770161 
L 244.302524 218.023477 
L 245.999088 217.770449 
L 247.695652 218.343807 
L 249.392216 237.083664 
L 251.088781 242.770398 
L 252.785345 244.863917 
L 254.481909 244.904062 
L 256.178474 245.277854 
L 257.875038 245.317572 
L 264.661295 245.922253 
L 266.35786 246.23143 
L 269.750988 245.877312 
L 271.447552 242.357697 
L 273.144117 231.297013 
L 274.840681 227.608717 
L 276.537245 225.536996 
L 278.23381 222.131214 
L 279.930374 208.496048 
L 281.626938 201.142067 
L 283.323503 201.915437 
L 285.020067 201.856146 
L 286.716631 202.8717 
L 288.413196 210.692054 
L 290.10976 220.097151 
L 291.806324 242.740931 
L 293.502888 243.960328 
L 295.199453 245.443147 
L 296.896017 238.530968 
L 298.592581 225.367153 
L 300.289146 214.670836 
L 301.98571 209.28394 
L 303.682274 172.690207 
L 305.378839 158.926115 
L 307.075403 152.884185 
L 308.771967 174.023842 
L 310.468531 165.553936 
L 312.165096 183.220044 
L 313.86166 208.96504 
L 315.558224 227.375317 
L 317.254789 230.739819 
L 318.951353 244.996122 
L 320.647917 245.891984 
L 322.344482 246.055472 
L 324.041046 245.997375 
L 325.73761 246.24 
L 327.434175 246.186905 
L 329.130739 244.842425 
L 330.827303 233.395819 
L 332.523867 221.018202 
L 334.220432 220.669436 
L 335.916996 211.630174 
L 337.61356 204.033126 
L 339.310125 199.21578 
L 341.006689 204.948615 
L 342.703253 219.008758 
L 344.399818 225.265987 
L 346.096382 230.419351 
L 347.792946 233.14549 
L 349.48951 233.697753 
L 351.186075 245.248269 
L 354.579203 244.931651 
L 356.275768 244.909637 
L 357.972332 238.950719 
L 359.668896 225.036025 
L 361.365461 223.387353 
L 363.062025 217.241168 
L 364.758589 216.231428 
L 366.455154 205.615318 
L 368.151718 199.260525 
L 369.848282 190.940006 
L 371.544846 200.460411 
L 373.241411 207.854344 
L 374.937975 219.966659 
L 376.634539 223.720784 
L 378.331104 225.549365 
L 380.027668 245.495725 
L 381.724232 245.877493 
L 385.117361 245.648642 
L 386.813925 238.836927 
L 388.51049 220.182488 
L 390.207054 222.800685 
L 391.903618 215.065747 
L 393.600182 210.288907 
L 395.296747 199.661602 
L 396.993311 194.741123 
L 398.689875 199.04016 
L 400.38644 204.22764 
L 402.083004 210.403354 
L 403.779568 213.071918 
L 405.476133 225.77105 
L 407.172697 223.976915 
L 408.869261 245.455893 
L 410.565825 245.924878 
L 413.958954 245.774318 
L 415.655518 246.193063 
L 417.352083 246.180234 
L 419.048647 245.928041 
L 422.441776 245.898514 
L 424.13834 245.924881 
L 425.834904 242.685849 
L 427.531469 235.737929 
L 429.228033 228.024464 
L 430.924597 209.367545 
L 432.621161 187.706476 
L 434.317726 180.982989 
L 436.01429 179.953361 
L 437.710854 202.452591 
L 439.407419 199.515651 
L 441.103983 219.166534 
L 442.800547 226.753892 
L 444.497112 228.440056 
L 446.193676 226.743979 
L 447.89024 244.862632 
L 449.586804 245.714882 
L 451.283369 245.524289 
L 452.979933 245.604454 
L 456.373062 245.968504 
L 459.76619 245.962448 
L 461.462755 245.569284 
L 463.159319 242.872097 
L 466.552448 245.174964 
L 468.249012 227.480943 
L 469.945576 202.687576 
L 471.64214 210.326796 
L 473.338705 224.629879 
L 476.731833 232.42578 
L 478.428398 241.587 
L 480.124962 242.005605 
L 483.518091 245.379456 
L 485.214655 245.909573 
L 486.911219 245.768454 
L 488.607784 246.051137 
L 490.304348 245.962622 
L 492.000912 244.249814 
L 493.697476 240.469434 
L 495.394041 221.968654 
L 497.090605 211.734486 
L 498.787169 212.797697 
L 502.180298 190.44158 
L 503.876862 204.005811 
L 505.573427 222.278596 
L 508.966555 208.745085 
L 510.663119 226.682564 
L 512.359684 233.441945 
L 514.056248 245.285584 
L 515.752812 245.909521 
L 517.449377 246.022667 
L 524.235634 245.567014 
L 525.932198 245.308657 
L 527.628763 241.672439 
L 529.325327 233.670809 
L 531.021891 211.708832 
L 532.718455 206.943362 
L 534.41502 212.880738 
L 536.111584 207.489167 
L 537.808148 201.051991 
L 539.504713 219.465728 
L 541.201277 220.888095 
L 542.897841 220.491362 
L 544.594406 229.482469 
L 546.29097 236.584762 
L 547.987534 225.638238 
L 549.684099 244.319736 
L 551.380663 245.78926 
L 553.077227 245.38442 
L 554.773791 245.464718 
L 556.470356 240.079185 
L 558.16692 236.007275 
L 561.560049 215.513325 
L 563.256613 208.201968 
L 564.953177 212.695135 
L 566.649742 223.818158 
L 568.346306 227.344429 
L 570.04287 228.042861 
L 571.739434 230.680181 
L 573.435999 231.620993 
L 575.132563 231.625085 
L 576.829127 238.284255 
L 578.525692 245.591916 
L 580.222256 245.938476 
L 583.615385 245.912261 
L 587.008513 245.900843 
L 588.705078 242.577124 
L 590.401642 233.131752 
L 592.098206 225.126037 
L 593.79477 213.221293 
L 595.491335 218.335332 
L 597.187899 213.836097 
L 598.884463 214.407638 
L 600.581028 218.502443 
L 602.277592 218.702817 
L 603.974156 219.495857 
L 605.670721 223.903838 
L 607.367285 224.676233 
L 609.063849 236.867271 
L 610.760413 243.072341 
L 612.456978 245.23495 
L 614.153542 245.113952 
L 617.546671 245.162114 
L 619.243235 245.624614 
L 620.939799 245.711412 
L 622.636364 244.675708 
L 622.636364 244.675708 
" clip-path="url(#pfd574605d1)" style="fill: none; stroke: #ff7f0e; stroke-opacity: 0.8; stroke-width: 1.8; stroke-linecap: square"/>
   </g>
   <g id="line2d_17">
    <path d="M 115.363636 126.687918 
L 117.060201 142.798607 
L 118.756765 116.757669 
L 120.453329 125.239385 
L 122.149894 124.172027 
L 123.846458 160.269113 
L 125.543022 167.492441 
L 128.936151 235.670856 
L 130.632715 226.66983 
L 132.329279 240.156998 
L 134.025844 243.79455 
L 135.722408 244.46376 
L 137.418972 244.080165 
L 139.115537 243.85126 
L 140.812101 243.942138 
L 142.508665 244.534648 
L 144.20523 245.545168 
L 145.901794 245.157029 
L 147.598358 226.992649 
L 149.294922 195.739614 
L 152.688051 109.417829 
L 154.384615 73.898343 
L 156.08118 86.357719 
L 157.777744 49.702702 
L 159.474308 62.187774 
L 161.170873 59.710407 
L 162.867437 87.696377 
L 164.564001 107.048371 
L 166.260566 135.456731 
L 167.95713 179.101993 
L 169.653694 232.04301 
L 171.350258 237.081336 
L 173.046823 238.427569 
L 174.743387 238.39798 
L 176.439951 238.064528 
L 178.136516 238.074289 
L 179.83308 238.532881 
L 181.529644 238.815794 
L 184.922773 238.918924 
L 186.619337 239.657372 
L 188.315901 220.682066 
L 190.012466 211.379144 
L 191.70903 204.004798 
L 193.405594 186.427888 
L 195.102159 199.375244 
L 196.798723 204.121722 
L 198.495287 185.92337 
L 200.191852 177.669456 
L 201.888416 172.524492 
L 203.58498 157.025425 
L 205.281545 182.278789 
L 206.978109 201.980313 
L 208.674673 209.222047 
L 210.371237 239.486592 
L 212.067802 242.215962 
L 213.764366 243.140345 
L 215.46093 243.630789 
L 217.157495 243.903178 
L 218.854059 244.973445 
L 220.550623 245.400782 
L 222.247188 245.053299 
L 223.943752 245.245283 
L 225.640316 245.570906 
L 227.336881 245.47868 
L 229.033445 232.66998 
L 232.426573 173.317999 
L 234.123138 156.375651 
L 235.819702 105.637072 
L 237.516266 69.849929 
L 239.212831 62.092157 
L 240.909395 70.682417 
L 242.605959 112.38971 
L 244.302524 159.143918 
L 245.999088 170.399138 
L 247.695652 212.627238 
L 249.392216 231.244713 
L 251.088781 241.618626 
L 252.785345 244.474954 
L 254.481909 244.622027 
L 256.178474 245.128494 
L 259.571602 245.392653 
L 261.268167 245.673703 
L 262.964731 245.6574 
L 264.661295 245.881979 
L 266.35786 246.222037 
L 268.054424 245.995878 
L 269.750988 245.244532 
L 271.447552 238.89255 
L 273.144117 221.750452 
L 274.840681 216.989771 
L 276.537245 197.853192 
L 278.23381 182.138681 
L 279.930374 142.746182 
L 283.323503 130.463999 
L 285.020067 127.646911 
L 286.716631 143.699644 
L 288.413196 171.626334 
L 291.806324 241.046921 
L 293.502888 243.444086 
L 295.199453 245.44418 
L 296.896017 232.668551 
L 298.592581 208.792839 
L 300.289146 177.806918 
L 301.98571 169.553137 
L 303.682274 105.845005 
L 305.378839 67.790772 
L 307.075403 44.64 
L 308.771967 86.472707 
L 310.468531 83.675904 
L 312.165096 122.148455 
L 313.86166 154.825544 
L 315.558224 194.497763 
L 318.951353 244.028883 
L 320.647917 245.572316 
L 322.344482 245.781233 
L 324.041046 245.689685 
L 325.73761 246.031817 
L 327.434175 246.070856 
L 329.130739 242.981284 
L 330.827303 223.041409 
L 332.523867 206.025756 
L 334.220432 199.695529 
L 335.916996 159.236 
L 337.61356 113.551335 
L 339.310125 101.885565 
L 341.006689 114.676857 
L 344.399818 206.325431 
L 346.096382 216.849054 
L 349.48951 223.089865 
L 351.186075 244.278028 
L 352.882639 244.69295 
L 356.275768 244.568774 
L 357.972332 226.720172 
L 359.668896 203.95071 
L 361.365461 173.001353 
L 363.062025 144.568323 
L 364.758589 143.963508 
L 366.455154 111.928627 
L 368.151718 92.774241 
L 369.848282 84.769822 
L 371.544846 98.855897 
L 373.241411 124.780178 
L 374.937975 191.386742 
L 376.634539 195.208894 
L 378.331104 227.978356 
L 380.027668 244.469117 
L 381.724232 245.508916 
L 383.420797 245.451401 
L 385.117361 245.197172 
L 386.813925 228.838639 
L 388.51049 206.327652 
L 390.207054 167.703924 
L 391.903618 137.357888 
L 393.600182 113.584686 
L 395.296747 93.815436 
L 396.993311 82.624442 
L 398.689875 89.531457 
L 400.38644 91.288692 
L 402.083004 111.179503 
L 403.779568 138.395152 
L 407.172697 229.18838 
L 408.869261 244.345706 
L 410.565825 245.590724 
L 412.26239 245.581288 
L 413.958954 245.419317 
L 415.655518 245.920332 
L 419.048647 245.737194 
L 420.745211 245.555239 
L 424.13834 245.634949 
L 425.834904 232.586206 
L 427.531469 205.936511 
L 429.228033 173.46331 
L 430.924597 136.0681 
L 432.621161 95.007701 
L 434.317726 71.612527 
L 436.01429 69.220986 
L 437.710854 108.34358 
L 439.407419 102.141217 
L 441.103983 150.405666 
L 444.497112 198.397644 
L 446.193676 229.789886 
L 447.89024 243.603523 
L 449.586804 245.293198 
L 451.283369 245.059438 
L 452.979933 245.172646 
L 456.373062 245.703533 
L 459.76619 245.71934 
L 461.462755 242.900426 
L 463.159319 229.889895 
L 466.552448 240.076542 
L 468.249012 195.606521 
L 469.945576 147.134932 
L 471.64214 152.007474 
L 473.338705 187.546569 
L 475.035269 216.104975 
L 476.731833 228.540486 
L 478.428398 229.888016 
L 481.821526 240.296099 
L 483.518091 244.615682 
L 485.214655 245.609252 
L 486.911219 245.387838 
L 488.607784 245.8032 
L 490.304348 245.752904 
L 493.697476 226.634435 
L 495.394041 182.902544 
L 497.090605 136.194705 
L 498.787169 141.715382 
L 500.483734 105.792331 
L 502.180298 80.110745 
L 503.876862 105.810174 
L 505.573427 163.072121 
L 507.269991 138.168055 
L 508.966555 153.076639 
L 510.663119 195.208169 
L 512.359684 231.36624 
L 514.056248 244.010841 
L 515.752812 245.528035 
L 517.449377 245.846695 
L 519.145941 245.718758 
L 520.842505 245.440669 
L 524.235634 245.224543 
L 525.932198 244.965365 
L 529.325327 207.922378 
L 531.021891 168.919577 
L 532.718455 139.145844 
L 534.41502 155.869272 
L 536.111584 129.533095 
L 537.808148 112.834629 
L 539.504713 147.449543 
L 541.201277 150.829288 
L 542.897841 156.348317 
L 544.594406 204.06045 
L 546.29097 230.841754 
L 547.987534 224.040851 
L 549.684099 243.103521 
L 551.380663 245.414601 
L 553.077227 244.935647 
L 554.773791 245.03259 
L 556.470356 226.744794 
L 558.16692 205.695445 
L 559.863484 178.708685 
L 561.560049 136.683242 
L 563.256613 110.414513 
L 564.953177 120.086349 
L 566.649742 154.184448 
L 568.346306 175.041828 
L 570.04287 184.785402 
L 571.739434 201.220963 
L 573.435999 214.129427 
L 575.132563 223.914124 
L 576.829127 236.738454 
L 578.525692 244.643739 
L 580.222256 245.57514 
L 581.91882 245.503256 
L 585.311949 245.523829 
L 587.008513 245.525377 
L 588.705078 228.477021 
L 590.401642 195.504381 
L 592.098206 168.07367 
L 593.79477 142.775373 
L 595.491335 149.393593 
L 597.187899 130.197316 
L 598.884463 134.37995 
L 600.581028 149.891135 
L 602.277592 147.294849 
L 603.974156 146.899803 
L 605.670721 164.009876 
L 607.367285 188.746813 
L 609.063849 229.258876 
L 610.760413 241.352272 
L 612.456978 244.654379 
L 615.850106 244.575838 
L 617.546671 244.613843 
L 619.243235 245.068005 
L 620.939799 245.223352 
L 622.636364 238.494255 
L 622.636364 238.494255 
" clip-path="url(#pfd574605d1)" style="fill: none; stroke: #2ca02c; stroke-opacity: 0.6; stroke-width: 1.5; stroke-linecap: square"/>
   </g>
   <g id="patch_3">
    <path d="M 90 256.32 
L 90 34.56 
" style="fill: none; stroke: #000000; stroke-width: 0.8; stroke-linejoin: miter; stroke-linecap: square"/>
   </g>
   <g id="patch_4">
    <path d="M 648 256.32 
L 648 34.56 
" style="fill: none; stroke: #000000; stroke-width: 0.8; stroke-linejoin: miter; stroke-linecap: square"/>
   </g>
   <g id="patch_5">
    <path d="M 90 256.32 
L 648 256.32 
" style="fill: none; stroke: #000000; stroke-width: 0.8; stroke-linejoin: miter; stroke-linecap: square"/>
   </g>
   <g id="patch_6">
    <path d="M 90 34.56 
L 648 34.56 
" style="fill: none; stroke: #000000; stroke-width: 0.8; stroke-linejoin: miter; stroke-linecap: square"/>
   </g>
   <g id="legend_1">
    <g id="patch_7">
     <path d="M 529.315625 86.594375 
L 641 86.594375 
Q 643 86.594375 643 84.594375 
L 643 41.56 
Q 643 39.56 641 39.56 
L 529.315625 39.56 
Q 527.315625 39.56 527.315625 41.56 
L 527.315625 84.594375 
Q 527.315625 86.594375 529.315625 86.594375 
z
" style="fill: #ffffff; opacity: 0.8; stroke: #cccccc; stroke-linejoin: miter"/>
    </g>
    <g id="line2d_18">
     <path d="M 531.315625 47.658438 
L 541.315625 47.658438 
L 551.315625 47.658438 
" style="fill: none; stroke: #1f77b4; stroke-opacity: 0.6; stroke-width: 1.5; stroke-linecap: square"/>
    </g>
    <g id="text_17">
     <!-- Observed -->
     <g transform="translate(559.315625 51.158438) scale(0.1 -0.1)">
      <defs>
       <path id="DejaVuSans-4f" d="M 2522 4238 
Q 1834 4238 1429 3725 
Q 1025 3213 1025 2328 
Q 1025 1447 1429 934 
Q 1834 422 2522 422 
Q 3209 422 3611 934 
Q 4013 1447 4013 2328 
Q 4013 3213 3611 3725 
Q 3209 4238 2522 4238 
z
M 2522 4750 
Q 3503 4750 4090 4092 
Q 4678 3434 4678 2328 
Q 4678 1225 4090 567 
Q 3503 -91 2522 -91 
Q 1538 -91 948 565 
Q 359 1222 359 2328 
Q 359 3434 948 4092 
Q 1538 4750 2522 4750 
z
" transform="scale(0.015625)"/>
       <path id="DejaVuSans-62" d="M 3116 1747 
Q 3116 2381 2855 2742 
Q 2594 3103 2138 3103 
Q 1681 3103 1420 2742 
Q 1159 2381 1159 1747 
Q 1159 1113 1420 752 
Q 1681 391 2138 391 
Q 2594 391 2855 752 
Q 3116 1113 3116 1747 
z
M 1159 2969 
Q 1341 3281 1617 3432 
Q 1894 3584 2278 3584 
Q 2916 3584 3314 3078 
Q 3713 2572 3713 1747 
Q 3713 922 3314 415 
Q 2916 -91 2278 -91 
Q 1894 -91 1617 61 
Q 1341 213 1159 525 
L 1159 0 
L 581 0 
L 581 4863 
L 1159 4863 
L 1159 2969 
z
" transform="scale(0.015625)"/>
       <path id="DejaVuSans-72" d="M 2631 2963 
Q 2534 3019 2420 3045 
Q 2306 3072 2169 3072 
Q 1681 3072 1420 2755 
Q 1159 2438 1159 1844 
L 1159 0 
L 581 0 
L 581 3500 
L 1159 3500 
L 1159 2956 
Q 1341 3275 1631 3429 
Q 1922 3584 2338 3584 
Q 2397 3584 2469 3576 
Q 2541 3569 2628 3553 
L 2631 2963 
z
" transform="scale(0.015625)"/>
       <path id="DejaVuSans-76" d="M 191 3500 
L 800 3500 
L 1894 563 
L 2988 3500 
L 3597 3500 
L 2284 0 
L 1503 0 
L 191 3500 
z
" transform="scale(0.015625)"/>
       <path id="DejaVuSans-64" d="M 2906 2969 
L 2906 4863 
L 3481 4863 
L 3481 0 
L 2906 0 
L 2906 525 
Q 2725 213 2448 61 
Q 2172 -91 1784 -91 
Q 1150 -91 751 415 
Q 353 922 353 1747 
Q 353 2572 751 3078 
Q 1150 3584 1784 3584 
Q 2172 3584 2448 3432 
Q 2725 3281 2906 2969 
z
M 947 1747 
Q 947 1113 1208 752 
Q 1469 391 1925 391 
Q 2381 391 2643 752 
Q 2906 1113 2906 1747 
Q 2906 2381 2643 2742 
Q 2381 3103 1925 3103 
Q 1469 3103 1208 2742 
Q 947 2381 947 1747 
z
" transform="scale(0.015625)"/>
      </defs>
      <use xlink:href="#DejaVuSans-4f"/>
      <use xlink:href="#DejaVuSans-62" x="78.710938"/>
      <use xlink:href="#DejaVuSans-73" x="142.1875"/>
      <use xlink:href="#DejaVuSans-65" x="194.287109"/>
      <use xlink:href="#DejaVuSans-72" x="255.810547"/>
      <use xlink:href="#DejaVuSans-76" x="296.923828"/>
      <use xlink:href="#DejaVuSans-65" x="356.103516"/>
      <use xlink:href="#DejaVuSans-64" x="417.626953"/>
     </g>
    </g>
    <g id="line2d_19">
     <path d="M 531.315625 62.336563 
L 541.315625 62.336563 
L 551.315625 62.336563 
" style="fill: none; stroke: #ff7f0e; stroke-opacity: 0.8; stroke-width: 1.8; stroke-linecap: square"/>
    </g>
    <g id="text_18">
     <!-- Hybrid Model -->
     <g transform="translate(559.315625 65.836563) scale(0.1 -0.1)">
      <defs>
       <path id="DejaVuSans-48" d="M 628 4666 
L 1259 4666 
L 1259 2753 
L 3553 2753 
L 3553 4666 
L 4184 4666 
L 4184 0 
L 3553 0 
L 3553 2222 
L 1259 2222 
L 1259 0 
L 628 0 
L 628 4666 
z
" transform="scale(0.015625)"/>
       <path id="DejaVuSans-79" d="M 2059 -325 
Q 1816 -950 1584 -1140 
Q 1353 -1331 966 -1331 
L 506 -1331 
L 506 -850 
L 844 -850 
Q 1081 -850 1212 -737 
Q 1344 -625 1503 -206 
L 1606 56 
L 191 3500 
L 800 3500 
L 1894 763 
L 2988 3500 
L 3597 3500 
L 2059 -325 
z
" transform="scale(0.015625)"/>
       <path id="DejaVuSans-4d" d="M 628 4666 
L 1569 4666 
L 2759 1491 
L 3956 4666 
L 4897 4666 
L 4897 0 
L 4281 0 
L 4281 4097 
L 3078 897 
L 2444 897 
L 1241 4097 
L 1241 0 
L 628 0 
L 628 4666 
z
" transform="scale(0.015625)"/>
       <path id="DejaVuSans-6f" d="M 1959 3097 
Q 1497 3097 1228 2736 
Q 959 2375 959 1747 
Q 959 1119 1226 758 
Q 1494 397 1959 397 
Q 2419 397 2687 759 
Q 2956 1122 2956 1747 
Q 2956 2369 2687 2733 
Q 2419 3097 1959 3097 
z
M 1959 3584 
Q 2709 3584 3137 3096 
Q 3566 2609 3566 1747 
Q 3566 888 3137 398 
Q 2709 -91 1959 -91 
Q 1206 -91 779 398 
Q 353 888 353 1747 
Q 353 2609 779 3096 
Q 1206 3584 1959 3584 
z
" transform="scale(0.015625)"/>
       <path id="DejaVuSans-6c" d="M 603 4863 
L 1178 4863 
L 1178 0 
L 603 0 
L 603 4863 
z
" transform="scale(0.015625)"/>
      </defs>
      <use xlink:href="#DejaVuSans-48"/>
      <use xlink:href="#DejaVuSans-79" x="75.195312"/>
      <use xlink:href="#DejaVuSans-62" x="134.375"/>
      <use xlink:href="#DejaVuSans-72" x="197.851562"/>
      <use xlink:href="#DejaVuSans-69" x="238.964844"/>
      <use xlink:href="#DejaVuSans-64" x="266.748047"/>
      <use xlink:href="#DejaVuSans-20" x="330.224609"/>
      <use xlink:href="#DejaVuSans-4d" x="362.011719"/>
      <use xlink:href="#DejaVuSans-6f" x="448.291016"/>
      <use xlink:href="#DejaVuSans-64" x="509.472656"/>
      <use xlink:href="#DejaVuSans-65" x="572.949219"/>
      <use xlink:href="#DejaVuSans-6c" x="634.472656"/>
     </g>
    </g>
    <g id="line2d_20">
     <path d="M 531.315625 77.014688 
L 541.315625 77.014688 
L 551.315625 77.014688 
" style="fill: none; stroke: #2ca02c; stroke-opacity: 0.6; stroke-width: 1.5; stroke-linecap: square"/>
    </g>
    <g id="text_19">
     <!-- Empirical Model -->
     <g transform="translate(559.315625 80.514688) scale(0.1 -0.1)">
      <defs>
       <path id="DejaVuSans-63" d="M 3122 3366 
L 3122 2828 
Q 2878 2963 2633 3030 
Q 2388 3097 2138 3097 
Q 1578 3097 1268 2742 
Q 959 2388 959 1747 
Q 959 1106 1268 751 
Q 1578 397 2138 397 
Q 2388 397 2633 464 
Q 2878 531 3122 666 
L 3122 134 
Q 2881 22 2623 -34 
Q 2366 -91 2075 -91 
Q 1284 -91 818 406 
Q 353 903 353 1747 
Q 353 2603 823 3093 
Q 1294 3584 2113 3584 
Q 2378 3584 2631 3529 
Q 2884 3475 3122 3366 
z
" transform="scale(0.015625)"/>
       <path id="DejaVuSans-61" d="M 2194 1759 
Q 1497 1759 1228 1600 
Q 959 1441 959 1056 
Q 959 750 1161 570 
Q 1363 391 1709 391 
Q 2188 391 2477 730 
Q 2766 1069 2766 1631 
L 2766 1759 
L 2194 1759 
z
M 3341 1997 
L 3341 0 
L 2766 0 
L 2766 531 
Q 2569 213 2275 61 
Q 1981 -91 1556 -91 
Q 1019 -91 701 211 
Q 384 513 384 1019 
Q 384 1609 779 1909 
Q 1175 2209 1959 2209 
L 2766 2209 
L 2766 2266 
Q 2766 2663 2505 2880 
Q 2244 3097 1772 3097 
Q 1472 3097 1187 3025 
Q 903 2953 641 2809 
L 641 3341 
Q 956 3463 1253 3523 
Q 1550 3584 1831 3584 
Q 2591 3584 2966 3190 
Q 3341 2797 3341 1997 
z
" transform="scale(0.015625)"/>
      </defs>
      <use xlink:href="#DejaVuSans-45"/>
      <use xlink:href="#DejaVuSans-6d" x="63.183594"/>
      <use xlink:href="#DejaVuSans-70" x="160.595703"/>
      <use xlink:href="#DejaVuSans-69" x="224.072266"/>
      <use xlink:href="#DejaVuSans-72" x="251.855469"/>
      <use xlink:href="#DejaVuSans-69" x="292.96875"/>
      <use xlink:href="#DejaVuSans-63" x="320.751953"/>
      <use xlink:href="#DejaVuSans-61" x="375.732422"/>
      <use xlink:href="#DejaVuSans-6c" x="437.011719"/>
      <use xlink:href="#DejaVuSans-20" x="464.794922"/>
      <use xlink:href="#DejaVuSans-4d" x="496.582031"/>
      <use xlink:href="#DejaVuSans-6f" x="582.861328"/>
      <use xlink:href="#DejaVuSans-64" x="644.042969"/>
      <use xlink:href="#DejaVuSans-65" x="707.519531"/>
      <use xlink:href="#DejaVuSans-6c" x="769.042969"/>
     </g>
    </g>
   </g>
  </g>
 </g>
 <defs>
  <clipPath id="pfd574605d1">
   <rect x="90" y="34.56" width="558" height="221.76"/>
  </clipPath>
 </defs>
</svg>
