<?xml version="1.0" encoding="utf-8" standalone="no"?>
<!DOCTYPE svg PUBLIC "-//W3C//DTD SVG 1.1//EN"
  "http://www.w3.org/Graphics/SVG/1.1/DTD/svg11.dtd">
<svg xmlns:xlink="http://www.w3.org/1999/xlink" width="720pt" height="288pt" viewBox="0 0 720 288" xmlns="http://www.w3.org/2000/svg" version="1.1">
 <metadata>
  <rdf:RDF xmlns:dc="http://purl.org/dc/elements/1.1/" xmlns:cc="http://creativecommons.org/ns#" xmlns:rdf="http://www.w3.org/1999/02/22-rdf-syntax-ns#">
   <cc:Work>
    <dc:type rdf:resource="http://purl.org/dc/dcmitype/StillImage"/>
    <dc:date>2025-01-06T16:16:42.382798</dc:date>
    <dc:format>image/svg+xml</dc:format>
    <dc:creator>
     <cc:Agent>
      <dc:title>Matplotlib v3.6.0, https://matplotlib.org/</dc:title>
     </cc:Agent>
    </dc:creator>
   </cc:Work>
  </rdf:RDF>
 </metadata>
 <defs>
  <style type="text/css">*{stroke-linejoin: round; stroke-linecap: butt}</style>
 </defs>
 <g id="figure_1">
  <g id="patch_1">
   <path d="M 0 288 
L 720 288 
L 720 0 
L 0 0 
z
" style="fill: #ffffff"/>
  </g>
  <g id="axes_1">
   <g id="patch_2">
    <path d="M 90 256.32 
L 648 256.32 
L 648 34.56 
L 90 34.56 
z
" style="fill: #ffffff"/>
   </g>
   <g id="matplotlib.axis_1">
    <g id="xtick_1">
     <g id="line2d_1">
      <defs>
       <path id="mfe199717ae" d="M 0 0 
L 0 3.5 
" style="stroke: #000000; stroke-width: 0.8"/>
      </defs>
      <g>
       <use xlink:href="#mfe199717ae" x="115.363636" y="256.32" style="stroke: #000000; stroke-width: 0.8"/>
      </g>
     </g>
     <g id="text_1">
      <!-- 0 -->
      <g transform="translate(112.182386 270.918437) scale(0.1 -0.1)">
       <defs>
        <path id="DejaVuSans-30" d="M 2034 4250 
Q 1547 4250 1301 3770 
Q 1056 3291 1056 2328 
Q 1056 1369 1301 889 
Q 1547 409 2034 409 
Q 2525 409 2770 889 
Q 3016 1369 3016 2328 
Q 3016 3291 2770 3770 
Q 2525 4250 2034 4250 
z
M 2034 4750 
Q 2819 4750 3233 4129 
Q 3647 3509 3647 2328 
Q 3647 1150 3233 529 
Q 2819 -91 2034 -91 
Q 1250 -91 836 529 
Q 422 1150 422 2328 
Q 422 3509 836 4129 
Q 1250 4750 2034 4750 
z
" transform="scale(0.015625)"/>
       </defs>
       <use xlink:href="#DejaVuSans-30"/>
      </g>
     </g>
    </g>
    <g id="xtick_2">
     <g id="line2d_2">
      <g>
       <use xlink:href="#mfe199717ae" x="200.191852" y="256.32" style="stroke: #000000; stroke-width: 0.8"/>
      </g>
     </g>
     <g id="text_2">
      <!-- 50 -->
      <g transform="translate(193.829352 270.918437) scale(0.1 -0.1)">
       <defs>
        <path id="DejaVuSans-35" d="M 691 4666 
L 3169 4666 
L 3169 4134 
L 1269 4134 
L 1269 2991 
Q 1406 3038 1543 3061 
Q 1681 3084 1819 3084 
Q 2600 3084 3056 2656 
Q 3513 2228 3513 1497 
Q 3513 744 3044 326 
Q 2575 -91 1722 -91 
Q 1428 -91 1123 -41 
Q 819 9 494 109 
L 494 744 
Q 775 591 1075 516 
Q 1375 441 1709 441 
Q 2250 441 2565 725 
Q 2881 1009 2881 1497 
Q 2881 1984 2565 2268 
Q 2250 2553 1709 2553 
Q 1456 2553 1204 2497 
Q 953 2441 691 2322 
L 691 4666 
z
" transform="scale(0.015625)"/>
       </defs>
       <use xlink:href="#DejaVuSans-35"/>
       <use xlink:href="#DejaVuSans-30" x="63.623047"/>
      </g>
     </g>
    </g>
    <g id="xtick_3">
     <g id="line2d_3">
      <g>
       <use xlink:href="#mfe199717ae" x="285.020067" y="256.32" style="stroke: #000000; stroke-width: 0.8"/>
      </g>
     </g>
     <g id="text_3">
      <!-- 100 -->
      <g transform="translate(275.476317 270.918437) scale(0.1 -0.1)">
       <defs>
        <path id="DejaVuSans-31" d="M 794 531 
L 1825 531 
L 1825 4091 
L 703 3866 
L 703 4441 
L 1819 4666 
L 2450 4666 
L 2450 531 
L 3481 531 
L 3481 0 
L 794 0 
L 794 531 
z
" transform="scale(0.015625)"/>
       </defs>
       <use xlink:href="#DejaVuSans-31"/>
       <use xlink:href="#DejaVuSans-30" x="63.623047"/>
       <use xlink:href="#DejaVuSans-30" x="127.246094"/>
      </g>
     </g>
    </g>
    <g id="xtick_4">
     <g id="line2d_4">
      <g>
       <use xlink:href="#mfe199717ae" x="369.848282" y="256.32" style="stroke: #000000; stroke-width: 0.8"/>
      </g>
     </g>
     <g id="text_4">
      <!-- 150 -->
      <g transform="translate(360.304532 270.918437) scale(0.1 -0.1)">
       <use xlink:href="#DejaVuSans-31"/>
       <use xlink:href="#DejaVuSans-35" x="63.623047"/>
       <use xlink:href="#DejaVuSans-30" x="127.246094"/>
      </g>
     </g>
    </g>
    <g id="xtick_5">
     <g id="line2d_5">
      <g>
       <use xlink:href="#mfe199717ae" x="454.676497" y="256.32" style="stroke: #000000; stroke-width: 0.8"/>
      </g>
     </g>
     <g id="text_5">
      <!-- 200 -->
      <g transform="translate(445.132747 270.918437) scale(0.1 -0.1)">
       <defs>
        <path id="DejaVuSans-32" d="M 1228 531 
L 3431 531 
L 3431 0 
L 469 0 
L 469 531 
Q 828 903 1448 1529 
Q 2069 2156 2228 2338 
Q 2531 2678 2651 2914 
Q 2772 3150 2772 3378 
Q 2772 3750 2511 3984 
Q 2250 4219 1831 4219 
Q 1534 4219 1204 4116 
Q 875 4013 500 3803 
L 500 4441 
Q 881 4594 1212 4672 
Q 1544 4750 1819 4750 
Q 2544 4750 2975 4387 
Q 3406 4025 3406 3419 
Q 3406 3131 3298 2873 
Q 3191 2616 2906 2266 
Q 2828 2175 2409 1742 
Q 1991 1309 1228 531 
z
" transform="scale(0.015625)"/>
       </defs>
       <use xlink:href="#DejaVuSans-32"/>
       <use xlink:href="#DejaVuSans-30" x="63.623047"/>
       <use xlink:href="#DejaVuSans-30" x="127.246094"/>
      </g>
     </g>
    </g>
    <g id="xtick_6">
     <g id="line2d_6">
      <g>
       <use xlink:href="#mfe199717ae" x="539.504713" y="256.32" style="stroke: #000000; stroke-width: 0.8"/>
      </g>
     </g>
     <g id="text_6">
      <!-- 250 -->
      <g transform="translate(529.960963 270.918437) scale(0.1 -0.1)">
       <use xlink:href="#DejaVuSans-32"/>
       <use xlink:href="#DejaVuSans-35" x="63.623047"/>
       <use xlink:href="#DejaVuSans-30" x="127.246094"/>
      </g>
     </g>
    </g>
    <g id="xtick_7">
     <g id="line2d_7">
      <g>
       <use xlink:href="#mfe199717ae" x="624.332928" y="256.32" style="stroke: #000000; stroke-width: 0.8"/>
      </g>
     </g>
     <g id="text_7">
      <!-- 300 -->
      <g transform="translate(614.789178 270.918437) scale(0.1 -0.1)">
       <defs>
        <path id="DejaVuSans-33" d="M 2597 2516 
Q 3050 2419 3304 2112 
Q 3559 1806 3559 1356 
Q 3559 666 3084 287 
Q 2609 -91 1734 -91 
Q 1441 -91 1130 -33 
Q 819 25 488 141 
L 488 750 
Q 750 597 1062 519 
Q 1375 441 1716 441 
Q 2309 441 2620 675 
Q 2931 909 2931 1356 
Q 2931 1769 2642 2001 
Q 2353 2234 1838 2234 
L 1294 2234 
L 1294 2753 
L 1863 2753 
Q 2328 2753 2575 2939 
Q 2822 3125 2822 3475 
Q 2822 3834 2567 4026 
Q 2313 4219 1838 4219 
Q 1578 4219 1281 4162 
Q 984 4106 628 3988 
L 628 4550 
Q 988 4650 1302 4700 
Q 1616 4750 1894 4750 
Q 2613 4750 3031 4423 
Q 3450 4097 3450 3541 
Q 3450 3153 3228 2886 
Q 3006 2619 2597 2516 
z
" transform="scale(0.015625)"/>
       </defs>
       <use xlink:href="#DejaVuSans-33"/>
       <use xlink:href="#DejaVuSans-30" x="63.623047"/>
       <use xlink:href="#DejaVuSans-30" x="127.246094"/>
      </g>
     </g>
    </g>
    <g id="text_8">
     <!-- Timestep -->
     <g transform="translate(345.950781 284.596563) scale(0.1 -0.1)">
      <defs>
       <path id="DejaVuSans-54" d="M -19 4666 
L 3928 4666 
L 3928 4134 
L 2272 4134 
L 2272 0 
L 1638 0 
L 1638 4134 
L -19 4134 
L -19 4666 
z
" transform="scale(0.015625)"/>
       <path id="DejaVuSans-69" d="M 603 3500 
L 1178 3500 
L 1178 0 
L 603 0 
L 603 3500 
z
M 603 4863 
L 1178 4863 
L 1178 4134 
L 603 4134 
L 603 4863 
z
" transform="scale(0.015625)"/>
       <path id="DejaVuSans-6d" d="M 3328 2828 
Q 3544 3216 3844 3400 
Q 4144 3584 4550 3584 
Q 5097 3584 5394 3201 
Q 5691 2819 5691 2113 
L 5691 0 
L 5113 0 
L 5113 2094 
Q 5113 2597 4934 2840 
Q 4756 3084 4391 3084 
Q 3944 3084 3684 2787 
Q 3425 2491 3425 1978 
L 3425 0 
L 2847 0 
L 2847 2094 
Q 2847 2600 2669 2842 
Q 2491 3084 2119 3084 
Q 1678 3084 1418 2786 
Q 1159 2488 1159 1978 
L 1159 0 
L 581 0 
L 581 3500 
L 1159 3500 
L 1159 2956 
Q 1356 3278 1631 3431 
Q 1906 3584 2284 3584 
Q 2666 3584 2933 3390 
Q 3200 3197 3328 2828 
z
" transform="scale(0.015625)"/>
       <path id="DejaVuSans-65" d="M 3597 1894 
L 3597 1613 
L 953 1613 
Q 991 1019 1311 708 
Q 1631 397 2203 397 
Q 2534 397 2845 478 
Q 3156 559 3463 722 
L 3463 178 
Q 3153 47 2828 -22 
Q 2503 -91 2169 -91 
Q 1331 -91 842 396 
Q 353 884 353 1716 
Q 353 2575 817 3079 
Q 1281 3584 2069 3584 
Q 2775 3584 3186 3129 
Q 3597 2675 3597 1894 
z
M 3022 2063 
Q 3016 2534 2758 2815 
Q 2500 3097 2075 3097 
Q 1594 3097 1305 2825 
Q 1016 2553 972 2059 
L 3022 2063 
z
" transform="scale(0.015625)"/>
       <path id="DejaVuSans-73" d="M 2834 3397 
L 2834 2853 
Q 2591 2978 2328 3040 
Q 2066 3103 1784 3103 
Q 1356 3103 1142 2972 
Q 928 2841 928 2578 
Q 928 2378 1081 2264 
Q 1234 2150 1697 2047 
L 1894 2003 
Q 2506 1872 2764 1633 
Q 3022 1394 3022 966 
Q 3022 478 2636 193 
Q 2250 -91 1575 -91 
Q 1294 -91 989 -36 
Q 684 19 347 128 
L 347 722 
Q 666 556 975 473 
Q 1284 391 1588 391 
Q 1994 391 2212 530 
Q 2431 669 2431 922 
Q 2431 1156 2273 1281 
Q 2116 1406 1581 1522 
L 1381 1569 
Q 847 1681 609 1914 
Q 372 2147 372 2553 
Q 372 3047 722 3315 
Q 1072 3584 1716 3584 
Q 2034 3584 2315 3537 
Q 2597 3491 2834 3397 
z
" transform="scale(0.015625)"/>
       <path id="DejaVuSans-74" d="M 1172 4494 
L 1172 3500 
L 2356 3500 
L 2356 3053 
L 1172 3053 
L 1172 1153 
Q 1172 725 1289 603 
Q 1406 481 1766 481 
L 2356 481 
L 2356 0 
L 1766 0 
Q 1100 0 847 248 
Q 594 497 594 1153 
L 594 3053 
L 172 3053 
L 172 3500 
L 594 3500 
L 594 4494 
L 1172 4494 
z
" transform="scale(0.015625)"/>
       <path id="DejaVuSans-70" d="M 1159 525 
L 1159 -1331 
L 581 -1331 
L 581 3500 
L 1159 3500 
L 1159 2969 
Q 1341 3281 1617 3432 
Q 1894 3584 2278 3584 
Q 2916 3584 3314 3078 
Q 3713 2572 3713 1747 
Q 3713 922 3314 415 
Q 2916 -91 2278 -91 
Q 1894 -91 1617 61 
Q 1341 213 1159 525 
z
M 3116 1747 
Q 3116 2381 2855 2742 
Q 2594 3103 2138 3103 
Q 1681 3103 1420 2742 
Q 1159 2381 1159 1747 
Q 1159 1113 1420 752 
Q 1681 391 2138 391 
Q 2594 391 2855 752 
Q 3116 1113 3116 1747 
z
" transform="scale(0.015625)"/>
      </defs>
      <use xlink:href="#DejaVuSans-54"/>
      <use xlink:href="#DejaVuSans-69" x="57.958984"/>
      <use xlink:href="#DejaVuSans-6d" x="85.742188"/>
      <use xlink:href="#DejaVuSans-65" x="183.154297"/>
      <use xlink:href="#DejaVuSans-73" x="244.677734"/>
      <use xlink:href="#DejaVuSans-74" x="296.777344"/>
      <use xlink:href="#DejaVuSans-65" x="335.986328"/>
      <use xlink:href="#DejaVuSans-70" x="397.509766"/>
     </g>
    </g>
   </g>
   <g id="matplotlib.axis_2">
    <g id="ytick_1">
     <g id="line2d_8">
      <defs>
       <path id="m7ec64f1cb8" d="M 0 0 
L -3.5 0 
" style="stroke: #000000; stroke-width: 0.8"/>
      </defs>
      <g>
       <use xlink:href="#m7ec64f1cb8" x="90" y="254.579029" style="stroke: #000000; stroke-width: 0.8"/>
      </g>
     </g>
     <g id="text_9">
      <!-- −25 -->
      <g transform="translate(61.895313 258.378248) scale(0.1 -0.1)">
       <defs>
        <path id="DejaVuSans-2212" d="M 678 2272 
L 4684 2272 
L 4684 1741 
L 678 1741 
L 678 2272 
z
" transform="scale(0.015625)"/>
       </defs>
       <use xlink:href="#DejaVuSans-2212"/>
       <use xlink:href="#DejaVuSans-32" x="83.789062"/>
       <use xlink:href="#DejaVuSans-35" x="147.412109"/>
      </g>
     </g>
    </g>
    <g id="ytick_2">
     <g id="line2d_9">
      <g>
       <use xlink:href="#m7ec64f1cb8" x="90" y="228.16029" style="stroke: #000000; stroke-width: 0.8"/>
      </g>
     </g>
     <g id="text_10">
      <!-- 0 -->
      <g transform="translate(76.6375 231.959509) scale(0.1 -0.1)">
       <use xlink:href="#DejaVuSans-30"/>
      </g>
     </g>
    </g>
    <g id="ytick_3">
     <g id="line2d_10">
      <g>
       <use xlink:href="#m7ec64f1cb8" x="90" y="201.741552" style="stroke: #000000; stroke-width: 0.8"/>
      </g>
     </g>
     <g id="text_11">
      <!-- 25 -->
      <g transform="translate(70.275 205.54077) scale(0.1 -0.1)">
       <use xlink:href="#DejaVuSans-32"/>
       <use xlink:href="#DejaVuSans-35" x="63.623047"/>
      </g>
     </g>
    </g>
    <g id="ytick_4">
     <g id="line2d_11">
      <g>
       <use xlink:href="#m7ec64f1cb8" x="90" y="175.322813" style="stroke: #000000; stroke-width: 0.8"/>
      </g>
     </g>
     <g id="text_12">
      <!-- 50 -->
      <g transform="translate(70.275 179.122032) scale(0.1 -0.1)">
       <use xlink:href="#DejaVuSans-35"/>
       <use xlink:href="#DejaVuSans-30" x="63.623047"/>
      </g>
     </g>
    </g>
    <g id="ytick_5">
     <g id="line2d_12">
      <g>
       <use xlink:href="#m7ec64f1cb8" x="90" y="148.904074" style="stroke: #000000; stroke-width: 0.8"/>
      </g>
     </g>
     <g id="text_13">
      <!-- 75 -->
      <g transform="translate(70.275 152.703293) scale(0.1 -0.1)">
       <defs>
        <path id="DejaVuSans-37" d="M 525 4666 
L 3525 4666 
L 3525 4397 
L 1831 0 
L 1172 0 
L 2766 4134 
L 525 4134 
L 525 4666 
z
" transform="scale(0.015625)"/>
       </defs>
       <use xlink:href="#DejaVuSans-37"/>
       <use xlink:href="#DejaVuSans-35" x="63.623047"/>
      </g>
     </g>
    </g>
    <g id="ytick_6">
     <g id="line2d_13">
      <g>
       <use xlink:href="#m7ec64f1cb8" x="90" y="122.485336" style="stroke: #000000; stroke-width: 0.8"/>
      </g>
     </g>
     <g id="text_14">
      <!-- 100 -->
      <g transform="translate(63.9125 126.284554) scale(0.1 -0.1)">
       <use xlink:href="#DejaVuSans-31"/>
       <use xlink:href="#DejaVuSans-30" x="63.623047"/>
       <use xlink:href="#DejaVuSans-30" x="127.246094"/>
      </g>
     </g>
    </g>
    <g id="ytick_7">
     <g id="line2d_14">
      <g>
       <use xlink:href="#m7ec64f1cb8" x="90" y="96.066597" style="stroke: #000000; stroke-width: 0.8"/>
      </g>
     </g>
     <g id="text_15">
      <!-- 125 -->
      <g transform="translate(63.9125 99.865816) scale(0.1 -0.1)">
       <use xlink:href="#DejaVuSans-31"/>
       <use xlink:href="#DejaVuSans-32" x="63.623047"/>
       <use xlink:href="#DejaVuSans-35" x="127.246094"/>
      </g>
     </g>
    </g>
    <g id="ytick_8">
     <g id="line2d_15">
      <g>
       <use xlink:href="#m7ec64f1cb8" x="90" y="69.647858" style="stroke: #000000; stroke-width: 0.8"/>
      </g>
     </g>
     <g id="text_16">
      <!-- 150 -->
      <g transform="translate(63.9125 73.447077) scale(0.1 -0.1)">
       <use xlink:href="#DejaVuSans-31"/>
       <use xlink:href="#DejaVuSans-35" x="63.623047"/>
       <use xlink:href="#DejaVuSans-30" x="127.246094"/>
      </g>
     </g>
    </g>
    <g id="ytick_9">
     <g id="line2d_16">
      <g>
       <use xlink:href="#m7ec64f1cb8" x="90" y="43.229119" style="stroke: #000000; stroke-width: 0.8"/>
      </g>
     </g>
     <g id="text_17">
      <!-- 175 -->
      <g transform="translate(63.9125 47.028338) scale(0.1 -0.1)">
       <use xlink:href="#DejaVuSans-31"/>
       <use xlink:href="#DejaVuSans-37" x="63.623047"/>
       <use xlink:href="#DejaVuSans-35" x="127.246094"/>
      </g>
     </g>
    </g>
    <g id="text_18">
     <!-- Q_LE [W/m²] -->
     <g transform="translate(55.5375 176.815) rotate(-90) scale(0.1 -0.1)">
      <defs>
       <path id="DejaVuSans-51" d="M 2522 4238 
Q 1834 4238 1429 3725 
Q 1025 3213 1025 2328 
Q 1025 1447 1429 934 
Q 1834 422 2522 422 
Q 3209 422 3611 934 
Q 4013 1447 4013 2328 
Q 4013 3213 3611 3725 
Q 3209 4238 2522 4238 
z
M 3406 84 
L 4238 -825 
L 3475 -825 
L 2784 -78 
Q 2681 -84 2626 -87 
Q 2572 -91 2522 -91 
Q 1538 -91 948 567 
Q 359 1225 359 2328 
Q 359 3434 948 4092 
Q 1538 4750 2522 4750 
Q 3503 4750 4090 4092 
Q 4678 3434 4678 2328 
Q 4678 1516 4351 937 
Q 4025 359 3406 84 
z
" transform="scale(0.015625)"/>
       <path id="DejaVuSans-5f" d="M 3263 -1063 
L 3263 -1509 
L -63 -1509 
L -63 -1063 
L 3263 -1063 
z
" transform="scale(0.015625)"/>
       <path id="DejaVuSans-4c" d="M 628 4666 
L 1259 4666 
L 1259 531 
L 3531 531 
L 3531 0 
L 628 0 
L 628 4666 
z
" transform="scale(0.015625)"/>
       <path id="DejaVuSans-45" d="M 628 4666 
L 3578 4666 
L 3578 4134 
L 1259 4134 
L 1259 2753 
L 3481 2753 
L 3481 2222 
L 1259 2222 
L 1259 531 
L 3634 531 
L 3634 0 
L 628 0 
L 628 4666 
z
" transform="scale(0.015625)"/>
       <path id="DejaVuSans-20" transform="scale(0.015625)"/>
       <path id="DejaVuSans-5b" d="M 550 4863 
L 1875 4863 
L 1875 4416 
L 1125 4416 
L 1125 -397 
L 1875 -397 
L 1875 -844 
L 550 -844 
L 550 4863 
z
" transform="scale(0.015625)"/>
       <path id="DejaVuSans-57" d="M 213 4666 
L 850 4666 
L 1831 722 
L 2809 4666 
L 3519 4666 
L 4500 722 
L 5478 4666 
L 6119 4666 
L 4947 0 
L 4153 0 
L 3169 4050 
L 2175 0 
L 1381 0 
L 213 4666 
z
" transform="scale(0.015625)"/>
       <path id="DejaVuSans-2f" d="M 1625 4666 
L 2156 4666 
L 531 -594 
L 0 -594 
L 1625 4666 
z
" transform="scale(0.015625)"/>
       <path id="DejaVuSans-b2" d="M 838 2444 
L 2163 2444 
L 2163 2088 
L 294 2088 
L 294 2431 
Q 400 2528 597 2703 
Q 1672 3656 1672 3950 
Q 1672 4156 1509 4282 
Q 1347 4409 1081 4409 
Q 919 4409 728 4354 
Q 538 4300 313 4191 
L 313 4575 
Q 553 4663 761 4706 
Q 969 4750 1147 4750 
Q 1600 4750 1872 4544 
Q 2144 4338 2144 4000 
Q 2144 3566 1109 2678 
Q 934 2528 838 2444 
z
" transform="scale(0.015625)"/>
       <path id="DejaVuSans-5d" d="M 1947 4863 
L 1947 -844 
L 622 -844 
L 622 -397 
L 1369 -397 
L 1369 4416 
L 622 4416 
L 622 4863 
L 1947 4863 
z
" transform="scale(0.015625)"/>
      </defs>
      <use xlink:href="#DejaVuSans-51"/>
      <use xlink:href="#DejaVuSans-5f" x="78.710938"/>
      <use xlink:href="#DejaVuSans-4c" x="128.710938"/>
      <use xlink:href="#DejaVuSans-45" x="184.423828"/>
      <use xlink:href="#DejaVuSans-20" x="247.607422"/>
      <use xlink:href="#DejaVuSans-5b" x="279.394531"/>
      <use xlink:href="#DejaVuSans-57" x="318.408203"/>
      <use xlink:href="#DejaVuSans-2f" x="417.285156"/>
      <use xlink:href="#DejaVuSans-6d" x="450.976562"/>
      <use xlink:href="#DejaVuSans-b2" x="548.388672"/>
      <use xlink:href="#DejaVuSans-5d" x="588.476562"/>
     </g>
    </g>
   </g>
   <g id="line2d_17">
    <path d="M 115.363636 215.775281 
L 117.060201 217.106975 
L 118.756765 221.906069 
L 120.453329 210.661258 
L 122.149894 212.542826 
L 123.846458 228.139959 
L 125.543022 225.17007 
L 128.936151 227.461942 
L 130.632715 226.874405 
L 132.329279 227.730562 
L 134.025844 226.44612 
L 135.722408 228.129774 
L 137.418972 202.673393 
L 139.115537 170.863381 
L 140.812101 160.17859 
L 142.508665 186.232326 
L 144.20523 227.811856 
L 145.901794 227.385762 
L 147.598358 219.468934 
L 149.294922 224.644871 
L 150.991487 226.417346 
L 152.688051 226.756372 
L 154.384615 219.960701 
L 156.08118 224.127687 
L 157.777744 216.88752 
L 159.474308 224.067705 
L 161.170873 220.440228 
L 162.867437 226.462221 
L 164.564001 227.677821 
L 166.260566 227.931579 
L 167.95713 227.445039 
L 169.653694 218.69426 
L 171.350258 211.643639 
L 173.046823 227.014161 
L 174.743387 199.11936 
L 176.439951 221.741694 
L 178.136516 199.866614 
L 179.83308 197.42726 
L 181.529644 204.426858 
L 183.226209 213.200574 
L 184.922773 197.145483 
L 186.619337 129.175304 
L 188.315901 162.662055 
L 190.012466 204.749658 
L 191.70903 218.274769 
L 193.405594 215.061341 
L 195.102159 226.342163 
L 196.798723 185.928826 
L 198.495287 221.972578 
L 200.191852 223.963172 
L 201.888416 227.523377 
L 203.58498 224.322176 
L 205.281545 227.767037 
L 206.978109 212.719489 
L 210.371237 105.377614 
L 212.067802 163.69413 
L 213.764366 204.827577 
L 215.46093 112.560023 
L 217.157495 158.243729 
L 218.854059 151.122086 
L 220.550623 151.742662 
L 222.247188 192.97349 
L 223.943752 222.671649 
L 225.640316 196.500655 
L 227.336881 212.345875 
L 229.033445 206.305546 
L 230.730009 220.536535 
L 232.426573 214.845188 
L 234.123138 220.843003 
L 235.819702 219.361392 
L 237.516266 206.04844 
L 239.212831 223.905589 
L 240.909395 210.399391 
L 242.605959 198.927111 
L 244.302524 198.481829 
L 245.999088 172.847854 
L 247.695652 170.312024 
L 249.392216 201.394832 
L 251.088781 65.999963 
L 252.785345 182.415573 
L 254.481909 214.557102 
L 256.178474 226.943472 
L 257.875038 227.090173 
L 259.571602 205.55256 
L 261.268167 150.930919 
L 262.964731 124.201546 
L 264.661295 226.05551 
L 266.35786 221.987272 
L 268.054424 185.61978 
L 269.750988 186.892371 
L 271.447552 192.529496 
L 273.144117 189.091315 
L 274.840681 199.718031 
L 276.537245 226.473486 
L 278.23381 184.516906 
L 279.930374 190.455571 
L 281.626938 203.813256 
L 283.323503 225.13302 
L 285.020067 208.084321 
L 286.716631 180.351568 
L 288.413196 208.143234 
L 290.10976 197.970921 
L 291.806324 214.370417 
L 293.502888 200.74007 
L 295.199453 220.007388 
L 296.896017 221.190567 
L 298.592581 227.492282 
L 300.289146 214.868442 
L 301.98571 218.019574 
L 303.682274 226.25216 
L 305.378839 207.946573 
L 307.075403 223.205905 
L 308.771967 225.733571 
L 310.468531 211.125821 
L 312.165096 214.564468 
L 313.86166 175.081027 
L 315.558224 213.665491 
L 317.254789 208.259953 
L 318.951353 212.900458 
L 320.647917 195.006676 
L 322.344482 216.998907 
L 324.041046 220.846019 
L 325.73761 227.013633 
L 327.434175 223.570864 
L 329.130739 217.798347 
L 330.827303 225.948758 
L 332.523867 228.112399 
L 334.220432 228.095159 
L 335.916996 227.856693 
L 337.61356 227.991936 
L 339.310125 226.373982 
L 341.006689 227.159966 
L 342.703253 221.665571 
L 344.399818 225.704325 
L 346.096382 218.675336 
L 347.792946 218.501488 
L 349.48951 210.542427 
L 351.186075 191.071817 
L 352.882639 216.625066 
L 354.579203 226.773101 
L 356.275768 228.145168 
L 357.972332 225.266213 
L 359.668896 227.225521 
L 361.365461 225.910691 
L 363.062025 228.094565 
L 364.758589 215.360597 
L 366.455154 221.7757 
L 368.151718 222.284604 
L 369.848282 212.19645 
L 371.544846 217.83813 
L 373.241411 227.807538 
L 374.937975 227.813391 
L 376.634539 223.766104 
L 378.331104 182.083895 
L 380.027668 216.353017 
L 381.724232 208.266135 
L 383.420797 211.174732 
L 385.117361 226.157359 
L 386.813925 226.829691 
L 388.51049 227.926907 
L 390.207054 228.029301 
L 391.903618 224.67742 
L 393.600182 225.88913 
L 395.296747 217.194525 
L 396.993311 226.469063 
L 398.689875 221.486574 
L 400.38644 226.450372 
L 402.083004 224.750429 
L 403.779568 223.280892 
L 405.476133 223.097414 
L 407.172697 223.279354 
L 408.869261 226.307613 
L 410.565825 226.578331 
L 412.26239 224.130519 
L 413.958954 220.414036 
L 415.655518 225.32944 
L 417.352083 218.569168 
L 419.048647 222.856406 
L 420.745211 227.824417 
L 422.441776 222.01946 
L 424.13834 210.372924 
L 425.834904 192.477716 
L 427.531469 183.691054 
L 429.228033 209.979549 
L 430.924597 224.677223 
L 432.621161 211.894273 
L 434.317726 222.286214 
L 436.01429 214.089247 
L 437.710854 224.412919 
L 439.407419 223.002898 
L 441.103983 226.75335 
L 442.800547 227.222048 
L 444.497112 205.1995 
L 446.193676 218.578895 
L 447.89024 218.668481 
L 449.586804 210.234753 
L 451.283369 210.901668 
L 452.979933 227.611249 
L 454.676497 225.072928 
L 456.373062 226.791677 
L 458.069626 226.491767 
L 459.76619 222.783179 
L 461.462755 224.012274 
L 463.159319 209.108754 
L 464.855883 223.130564 
L 466.552448 221.638978 
L 468.249012 226.122354 
L 469.945576 220.401033 
L 471.64214 214.238936 
L 473.338705 198.401431 
L 475.035269 187.1862 
L 476.731833 208.298259 
L 478.428398 216.622006 
L 480.124962 218.046795 
L 481.821526 227.194675 
L 483.518091 220.407183 
L 485.214655 213.088558 
L 486.911219 220.695047 
L 488.607784 227.011725 
L 490.304348 223.716743 
L 492.000912 226.144451 
L 493.697476 225.64855 
L 495.394041 222.912409 
L 497.090605 219.008359 
L 498.787169 218.387878 
L 500.483734 218.087032 
L 502.180298 218.792776 
L 503.876862 211.275863 
L 505.573427 225.344946 
L 507.269991 217.755952 
L 508.966555 225.372268 
L 510.663119 224.520713 
L 512.359684 197.919183 
L 514.056248 193.626295 
L 515.752812 208.285527 
L 517.449377 210.997711 
L 519.145941 215.571265 
L 520.842505 226.832006 
L 522.53907 224.47801 
L 524.235634 223.239087 
L 525.932198 199.721786 
L 527.628763 218.031763 
L 529.325327 223.146278 
L 531.021891 212.613813 
L 532.718455 226.275694 
L 534.41502 215.902471 
L 536.111584 226.543405 
L 537.808148 226.162521 
L 539.504713 220.953512 
L 541.201277 212.038419 
L 544.594406 222.300805 
L 546.29097 221.715238 
L 547.987534 224.256535 
L 549.684099 225.680528 
L 551.380663 226.48864 
L 553.077227 227.807681 
L 554.773791 225.639776 
L 556.470356 227.858381 
L 558.16692 226.113931 
L 559.863484 227.442546 
L 561.560049 219.639397 
L 563.256613 225.393223 
L 564.953177 221.418376 
L 566.649742 222.564128 
L 568.346306 225.795665 
L 570.04287 217.288594 
L 571.739434 211.122054 
L 573.435999 199.667153 
L 575.132563 225.922053 
L 576.829127 227.005633 
L 578.525692 227.664754 
L 580.222256 227.843197 
L 581.91882 227.351113 
L 583.615385 226.039781 
L 585.311949 227.24822 
L 587.008513 226.775727 
L 588.705078 219.251564 
L 590.401642 208.264815 
L 592.098206 210.612183 
L 593.79477 209.347136 
L 595.491335 224.583346 
L 597.187899 224.416202 
L 598.884463 224.820301 
L 600.581028 227.578016 
L 602.277592 227.349621 
L 603.974156 227.952652 
L 605.670721 224.966297 
L 607.367285 227.964306 
L 609.063849 221.550597 
L 610.760413 226.332045 
L 612.456978 219.287737 
L 614.153542 225.121063 
L 615.850106 225.263681 
L 617.546671 202.893621 
L 619.243235 189.141028 
L 620.939799 196.823386 
L 622.636364 151.434881 
L 622.636364 151.434881 
" clip-path="url(#pe5bd4ecde6)" style="fill: none; stroke: #1f77b4; stroke-opacity: 0.6; stroke-width: 1.5; stroke-linecap: square"/>
   </g>
   <g id="line2d_18">
    <path d="M 115.363636 204.425695 
L 117.060201 191.063961 
L 118.756765 187.416041 
L 120.453329 222.266925 
L 122.149894 222.153269 
L 123.846458 228.697113 
L 125.543022 228.964527 
L 127.239587 234.03529 
L 128.936151 237.373518 
L 132.329279 229.10975 
L 134.025844 227.829645 
L 135.722408 227.925384 
L 137.418972 210.148986 
L 139.115537 198.270317 
L 140.812101 213.255111 
L 142.508665 205.07622 
L 144.20523 223.543816 
L 145.901794 226.431144 
L 147.598358 224.575771 
L 149.294922 223.204433 
L 150.991487 223.382046 
L 152.688051 223.413278 
L 154.384615 211.888201 
L 156.08118 213.797438 
L 157.777744 218.65086 
L 159.474308 224.668805 
L 161.170873 226.047608 
L 162.867437 229.923563 
L 164.564001 235.434202 
L 166.260566 228.982178 
L 167.95713 229.860677 
L 169.653694 230.111916 
L 171.350258 231.524919 
L 173.046823 165.087592 
L 174.743387 130.659246 
L 176.439951 148.986947 
L 178.136516 165.095493 
L 179.83308 194.460868 
L 181.529644 193.770188 
L 183.226209 189.217479 
L 184.922773 157.653903 
L 186.619337 175.860875 
L 188.315901 192.696621 
L 190.012466 201.911944 
L 191.70903 219.363894 
L 193.405594 226.288733 
L 195.102159 223.668612 
L 196.798723 219.553807 
L 198.495287 218.131976 
L 200.191852 222.387774 
L 201.888416 224.776311 
L 203.58498 228.187022 
L 205.281545 233.51292 
L 206.978109 220.534903 
L 208.674673 215.951076 
L 210.371237 197.057386 
L 212.067802 165.095863 
L 213.764366 163.617823 
L 215.46093 155.031959 
L 217.157495 147.674855 
L 218.854059 178.357928 
L 220.550623 44.64 
L 222.247188 173.43926 
L 223.943752 190.328835 
L 225.640316 187.994133 
L 227.336881 190.986207 
L 229.033445 201.104869 
L 230.730009 200.478307 
L 232.426573 187.811859 
L 234.123138 160.950069 
L 235.819702 152.72219 
L 237.516266 190.043234 
L 239.212831 203.972322 
L 240.909395 234.814587 
L 242.605959 236.710585 
L 244.302524 179.527869 
L 245.999088 200.356082 
L 247.695652 215.658113 
L 249.392216 204.607267 
L 251.088781 212.562209 
L 252.785345 204.633742 
L 254.481909 195.889065 
L 256.178474 226.719587 
L 257.875038 226.486214 
L 259.571602 226.631229 
L 261.268167 192.524642 
L 262.964731 140.487753 
L 264.661295 141.513672 
L 266.35786 161.910212 
L 268.054424 207.794688 
L 269.750988 198.884429 
L 271.447552 209.268159 
L 273.144117 227.484925 
L 274.840681 175.165335 
L 276.537245 158.260886 
L 278.23381 160.885889 
L 279.930374 183.835681 
L 281.626938 183.646647 
L 285.020067 151.603046 
L 286.716631 171.639194 
L 288.413196 171.960535 
L 290.10976 191.002276 
L 293.502888 219.641465 
L 295.199453 219.011417 
L 296.896017 222.617244 
L 298.592581 218.535376 
L 300.289146 206.05936 
L 301.98571 180.908121 
L 303.682274 192.839179 
L 305.378839 187.326831 
L 307.075403 191.704596 
L 308.771967 192.479933 
L 310.468531 195.558067 
L 312.165096 181.82542 
L 313.86166 190.42231 
L 315.558224 189.089828 
L 317.254789 192.081362 
L 320.647917 215.036388 
L 322.344482 222.194697 
L 324.041046 224.969651 
L 325.73761 226.717304 
L 327.434175 226.645827 
L 329.130739 225.652676 
L 330.827303 227.961251 
L 332.523867 228.960483 
L 334.220432 227.918393 
L 335.916996 228.250605 
L 337.61356 228.026271 
L 339.310125 227.960654 
L 342.703253 226.590745 
L 344.399818 224.13338 
L 346.096382 202.921903 
L 347.792946 200.679126 
L 349.48951 219.523897 
L 351.186075 211.882323 
L 352.882639 214.814303 
L 354.579203 204.171325 
L 356.275768 221.964145 
L 357.972332 227.095583 
L 359.668896 224.854983 
L 361.365461 224.094947 
L 363.062025 224.82994 
L 364.758589 218.275354 
L 366.455154 223.611683 
L 368.151718 227.42589 
L 369.848282 227.315712 
L 371.544846 227.679661 
L 373.241411 226.165817 
L 374.937975 223.170853 
L 376.634539 220.501944 
L 378.331104 216.098235 
L 380.027668 216.857295 
L 381.724232 216.194577 
L 383.420797 215.13449 
L 385.117361 215.435254 
L 386.813925 224.660533 
L 388.51049 225.136179 
L 390.207054 225.038791 
L 391.903618 217.230427 
L 393.600182 219.211898 
L 395.296747 218.002748 
L 396.993311 219.288357 
L 398.689875 222.743017 
L 400.38644 225.886809 
L 402.083004 244.729754 
L 403.779568 230.915354 
L 405.476133 232.208514 
L 407.172697 227.973705 
L 408.869261 227.133923 
L 410.565825 227.336073 
L 412.26239 228.303474 
L 413.958954 228.772199 
L 415.655518 228.829629 
L 417.352083 226.799537 
L 419.048647 226.975113 
L 420.745211 224.284794 
L 422.441776 222.274735 
L 424.13834 220.03147 
L 425.834904 219.837417 
L 427.531469 217.286229 
L 429.228033 216.53692 
L 430.924597 214.923214 
L 432.621161 217.03556 
L 434.317726 224.071739 
L 437.710854 224.079895 
L 439.407419 224.275311 
L 441.103983 224.096709 
L 442.800547 225.674084 
L 444.497112 216.774939 
L 446.193676 217.122523 
L 449.586804 215.130125 
L 451.283369 224.872884 
L 452.979933 223.84011 
L 459.76619 223.810228 
L 461.462755 223.971132 
L 463.159319 224.586437 
L 464.855883 224.162165 
L 466.552448 223.952611 
L 468.249012 224.093255 
L 469.945576 220.600557 
L 471.64214 218.082012 
L 473.338705 217.837036 
L 476.731833 214.874713 
L 478.428398 216.038059 
L 480.124962 215.96398 
L 481.821526 216.071575 
L 483.518091 224.731646 
L 488.607784 224.433421 
L 490.304348 224.646904 
L 492.000912 224.197914 
L 493.697476 224.379622 
L 497.090605 224.390796 
L 498.787169 224.092887 
L 500.483734 223.97728 
L 502.180298 224.757034 
L 503.876862 224.505894 
L 505.573427 224.595418 
L 507.269991 223.916675 
L 508.966555 220.700513 
L 510.663119 217.933036 
L 512.359684 217.230663 
L 514.056248 216.097359 
L 515.752812 215.311447 
L 517.449377 215.788939 
L 519.145941 216.119841 
L 520.842505 216.026441 
L 522.53907 216.586094 
L 524.235634 224.288346 
L 527.628763 224.238559 
L 529.325327 224.459946 
L 531.021891 224.234248 
L 534.41502 224.31153 
L 536.111584 224.667132 
L 537.808148 224.52417 
L 539.504713 215.369867 
L 541.201277 216.510449 
L 542.897841 216.512193 
L 544.594406 216.099591 
L 546.29097 215.457799 
L 547.987534 215.778257 
L 549.684099 224.797844 
L 551.380663 224.579057 
L 553.077227 224.159502 
L 554.773791 224.498432 
L 556.470356 225.32092 
L 558.16692 224.475187 
L 561.560049 224.639358 
L 563.256613 217.900272 
L 564.953177 215.133213 
L 566.649742 214.673262 
L 568.346306 216.242221 
L 570.04287 213.685313 
L 571.739434 212.305508 
L 573.435999 209.052058 
L 575.132563 211.465764 
L 576.829127 227.339343 
L 578.525692 224.151857 
L 580.222256 226.660186 
L 581.91882 227.20524 
L 583.615385 222.023603 
L 585.311949 219.339182 
L 587.008513 217.806572 
L 588.705078 217.704925 
L 590.401642 217.118402 
L 592.098206 216.286633 
L 595.491335 212.861049 
L 597.187899 223.809277 
L 598.884463 225.754653 
L 600.581028 223.798681 
L 602.277592 224.32376 
L 603.974156 224.316793 
L 605.670721 224.949407 
L 607.367285 226.219237 
L 609.063849 224.424339 
L 610.760413 224.225813 
L 612.456978 224.889365 
L 614.153542 221.288713 
L 615.850106 217.967054 
L 617.546671 218.218019 
L 619.243235 217.023138 
L 620.939799 216.439799 
L 622.636364 215.550874 
L 622.636364 215.550874 
" clip-path="url(#pe5bd4ecde6)" style="fill: none; stroke: #ff7f0e; stroke-opacity: 0.8; stroke-width: 1.8; stroke-linecap: square"/>
   </g>
   <g id="line2d_19">
    <path d="M 115.363636 212.500664 
L 117.060201 199.799029 
L 118.756765 196.651569 
L 120.453329 225.201268 
L 122.149894 225.124222 
L 123.846458 228.761598 
L 125.543022 229.32444 
L 127.239587 234.339837 
L 128.936151 238.070784 
L 130.632715 233.729895 
L 132.329279 228.104268 
L 134.025844 228.015087 
L 135.722408 228.603391 
L 137.418972 212.781467 
L 139.115537 203.269266 
L 140.812101 218.759708 
L 142.508665 212.323148 
L 144.20523 226.53647 
L 145.901794 229.102267 
L 147.598358 228.500787 
L 149.294922 227.731583 
L 150.991487 227.988906 
L 152.688051 228.05748 
L 154.384615 218.523696 
L 156.08118 220.370595 
L 159.474308 226.787052 
L 161.170873 227.15821 
L 162.867437 230.124802 
L 164.564001 235.821263 
L 166.260566 228.297785 
L 167.95713 228.715064 
L 169.653694 228.342601 
L 171.350258 235.097727 
L 173.046823 170.840798 
L 174.743387 135.785503 
L 176.439951 153.841084 
L 178.136516 170.077926 
L 179.83308 198.890482 
L 181.529644 196.420036 
L 183.226209 192.688308 
L 184.922773 161.501156 
L 186.619337 180.114604 
L 188.315901 197.224101 
L 190.012466 206.599919 
L 191.70903 223.413151 
L 193.405594 228.176205 
L 195.102159 226.505784 
L 196.798723 222.910111 
L 198.495287 221.62911 
L 200.191852 225.828109 
L 201.888416 228.016194 
L 203.58498 231.319146 
L 205.281545 237.320891 
L 206.978109 225.535775 
L 208.674673 220.354214 
L 210.371237 200.251936 
L 212.067802 167.047204 
L 213.764366 165.890437 
L 215.46093 157.798009 
L 217.157495 150.715049 
L 218.854059 179.185034 
L 220.550623 45.844742 
L 222.247188 174.640048 
L 223.943752 191.619187 
L 225.640316 189.237824 
L 227.336881 192.236853 
L 229.033445 202.343324 
L 230.730009 201.741955 
L 232.426573 189.682463 
L 234.123138 163.012385 
L 235.819702 155.143978 
L 237.516266 193.722379 
L 239.212831 208.245286 
L 240.909395 236.353939 
L 242.605959 237.308632 
L 244.302524 183.43478 
L 245.999088 204.903409 
L 247.695652 221.333579 
L 249.392216 210.797843 
L 251.088781 219.134506 
L 252.785345 211.639346 
L 254.481909 198.236794 
L 256.178474 230.981129 
L 257.875038 229.064733 
L 259.571602 230.139723 
L 261.268167 197.611463 
L 262.964731 145.341011 
L 264.661295 146.374187 
L 266.35786 166.469722 
L 268.054424 212.320781 
L 269.750988 203.554538 
L 271.447552 213.564673 
L 273.144117 229.137158 
L 274.840681 178.079559 
L 276.537245 160.346481 
L 278.23381 164.095482 
L 279.930374 186.553151 
L 281.626938 186.329441 
L 285.020067 154.615369 
L 286.716631 174.690224 
L 288.413196 175.472418 
L 290.10976 193.474489 
L 291.806324 209.025141 
L 293.502888 223.046045 
L 295.199453 222.405928 
L 296.896017 225.332476 
L 298.592581 221.574186 
L 300.289146 209.468049 
L 301.98571 184.895361 
L 303.682274 196.828969 
L 305.378839 191.482252 
L 307.075403 195.814817 
L 308.771967 194.638516 
L 310.468531 198.544474 
L 312.165096 185.472384 
L 313.86166 193.900218 
L 315.558224 192.654769 
L 317.254789 195.823258 
L 318.951353 207.664782 
L 320.647917 217.312011 
L 322.344482 225.459595 
L 324.041046 227.509409 
L 325.73761 227.901455 
L 329.130739 228.016971 
L 330.827303 228.435841 
L 332.523867 228.264855 
L 334.220432 228.332486 
L 335.916996 228.217743 
L 337.61356 228.226859 
L 339.310125 228.455153 
L 341.006689 228.137456 
L 342.703253 227.650314 
L 344.399818 226.288196 
L 346.096382 204.955119 
L 347.792946 202.973742 
L 349.48951 221.837262 
L 351.186075 214.225384 
L 352.882639 217.420819 
L 354.579203 206.876297 
L 356.275768 224.534808 
L 357.972332 227.977523 
L 359.668896 226.559507 
L 361.365461 225.613353 
L 363.062025 227.320882 
L 364.758589 220.536348 
L 366.455154 225.623862 
L 368.151718 228.738492 
L 369.848282 228.210103 
L 371.544846 228.396507 
L 373.241411 228.88477 
L 374.937975 225.798779 
L 376.634539 223.813365 
L 378.331104 220.436259 
L 380.027668 220.111037 
L 381.724232 219.248517 
L 383.420797 217.465809 
L 385.117361 218.422487 
L 386.813925 228.070932 
L 388.51049 228.33471 
L 390.207054 228.046155 
L 391.903618 221.572722 
L 393.600182 223.069615 
L 395.296747 222.230286 
L 396.993311 223.738572 
L 398.689875 227.16666 
L 400.38644 229.92933 
L 402.083004 246.24 
L 403.779568 231.816384 
L 405.476133 234.35427 
L 407.172697 229.580857 
L 408.869261 228.385242 
L 410.565825 228.127936 
L 413.958954 230.475952 
L 415.655518 230.916143 
L 417.352083 228.10449 
L 419.048647 228.124729 
L 420.745211 227.113352 
L 424.13834 223.248127 
L 425.834904 223.75605 
L 427.531469 221.475111 
L 429.228033 219.817034 
L 430.924597 218.631151 
L 432.621161 221.185895 
L 434.317726 226.83057 
L 436.01429 227.032992 
L 437.710854 227.090879 
L 439.407419 227.496859 
L 441.103983 227.240491 
L 442.800547 227.445741 
L 444.497112 219.604263 
L 446.193676 219.542721 
L 449.586804 217.109513 
L 451.283369 226.043915 
L 452.979933 226.664192 
L 454.676497 226.731535 
L 456.373062 226.429315 
L 461.462755 226.648866 
L 463.159319 226.336661 
L 464.855883 226.586945 
L 466.552448 226.395636 
L 468.249012 226.370592 
L 469.945576 222.532949 
L 471.64214 220.055042 
L 473.338705 220.077234 
L 475.035269 217.957525 
L 476.731833 214.269779 
L 478.428398 213.807214 
L 480.124962 213.639911 
L 481.821526 214.756743 
L 483.518091 225.828317 
L 485.214655 225.9045 
L 488.607784 226.548482 
L 490.304348 226.876513 
L 493.697476 226.553924 
L 500.483734 226.563204 
L 502.180298 226.926749 
L 503.876862 226.918497 
L 507.269991 226.406565 
L 508.966555 222.668232 
L 510.663119 219.860969 
L 512.359684 218.872489 
L 514.056248 216.694607 
L 515.752812 213.338371 
L 517.449377 213.192385 
L 520.842505 213.953933 
L 522.53907 215.749 
L 524.235634 225.418825 
L 527.628763 225.503408 
L 529.325327 225.835243 
L 531.021891 225.559668 
L 534.41502 225.639282 
L 536.111584 225.888948 
L 537.808148 225.877006 
L 539.504713 216.374674 
L 542.897841 215.601201 
L 544.594406 214.722151 
L 546.29097 213.977401 
L 547.987534 214.826194 
L 549.684099 225.834426 
L 551.380663 226.145422 
L 553.077227 226.597539 
L 554.773791 227.252205 
L 556.470356 228.594331 
L 558.16692 227.124557 
L 559.863484 225.963086 
L 561.560049 226.02877 
L 563.256613 219.719387 
L 564.953177 216.620653 
L 566.649742 214.718715 
L 568.346306 213.938319 
L 570.04287 212.003657 
L 571.739434 209.721209 
L 573.435999 207.663012 
L 575.132563 212.263785 
L 576.829127 227.601097 
L 578.525692 226.632416 
L 580.222256 227.545488 
L 581.91882 227.827332 
L 583.615385 224.737339 
L 585.311949 222.410731 
L 587.008513 220.967528 
L 592.098206 217.943947 
L 593.79477 215.596051 
L 595.491335 214.24896 
L 597.187899 226.795123 
L 598.884463 227.356538 
L 600.581028 226.84595 
L 602.277592 227.62476 
L 603.974156 227.649126 
L 605.670721 228.219614 
L 607.367285 229.68032 
L 609.063849 227.575748 
L 610.760413 227.011127 
L 612.456978 227.666057 
L 614.153542 223.413022 
L 615.850106 220.551315 
L 617.546671 220.633085 
L 619.243235 218.636693 
L 620.939799 216.955902 
L 622.636364 214.505788 
L 622.636364 214.505788 
" clip-path="url(#pe5bd4ecde6)" style="fill: none; stroke: #2ca02c; stroke-opacity: 0.6; stroke-width: 1.5; stroke-linecap: square"/>
   </g>
   <g id="patch_3">
    <path d="M 90 256.32 
L 90 34.56 
" style="fill: none; stroke: #000000; stroke-width: 0.8; stroke-linejoin: miter; stroke-linecap: square"/>
   </g>
   <g id="patch_4">
    <path d="M 648 256.32 
L 648 34.56 
" style="fill: none; stroke: #000000; stroke-width: 0.8; stroke-linejoin: miter; stroke-linecap: square"/>
   </g>
   <g id="patch_5">
    <path d="M 90 256.32 
L 648 256.32 
" style="fill: none; stroke: #000000; stroke-width: 0.8; stroke-linejoin: miter; stroke-linecap: square"/>
   </g>
   <g id="patch_6">
    <path d="M 90 34.56 
L 648 34.56 
" style="fill: none; stroke: #000000; stroke-width: 0.8; stroke-linejoin: miter; stroke-linecap: square"/>
   </g>
   <g id="legend_1">
    <g id="patch_7">
     <path d="M 529.315625 86.594375 
L 641 86.594375 
Q 643 86.594375 643 84.594375 
L 643 41.56 
Q 643 39.56 641 39.56 
L 529.315625 39.56 
Q 527.315625 39.56 527.315625 41.56 
L 527.315625 84.594375 
Q 527.315625 86.594375 529.315625 86.594375 
z
" style="fill: #ffffff; opacity: 0.8; stroke: #cccccc; stroke-linejoin: miter"/>
    </g>
    <g id="line2d_20">
     <path d="M 531.315625 47.658438 
L 541.315625 47.658438 
L 551.315625 47.658438 
" style="fill: none; stroke: #1f77b4; stroke-opacity: 0.6; stroke-width: 1.5; stroke-linecap: square"/>
    </g>
    <g id="text_19">
     <!-- Observed -->
     <g transform="translate(559.315625 51.158438) scale(0.1 -0.1)">
      <defs>
       <path id="DejaVuSans-4f" d="M 2522 4238 
Q 1834 4238 1429 3725 
Q 1025 3213 1025 2328 
Q 1025 1447 1429 934 
Q 1834 422 2522 422 
Q 3209 422 3611 934 
Q 4013 1447 4013 2328 
Q 4013 3213 3611 3725 
Q 3209 4238 2522 4238 
z
M 2522 4750 
Q 3503 4750 4090 4092 
Q 4678 3434 4678 2328 
Q 4678 1225 4090 567 
Q 3503 -91 2522 -91 
Q 1538 -91 948 565 
Q 359 1222 359 2328 
Q 359 3434 948 4092 
Q 1538 4750 2522 4750 
z
" transform="scale(0.015625)"/>
       <path id="DejaVuSans-62" d="M 3116 1747 
Q 3116 2381 2855 2742 
Q 2594 3103 2138 3103 
Q 1681 3103 1420 2742 
Q 1159 2381 1159 1747 
Q 1159 1113 1420 752 
Q 1681 391 2138 391 
Q 2594 391 2855 752 
Q 3116 1113 3116 1747 
z
M 1159 2969 
Q 1341 3281 1617 3432 
Q 1894 3584 2278 3584 
Q 2916 3584 3314 3078 
Q 3713 2572 3713 1747 
Q 3713 922 3314 415 
Q 2916 -91 2278 -91 
Q 1894 -91 1617 61 
Q 1341 213 1159 525 
L 1159 0 
L 581 0 
L 581 4863 
L 1159 4863 
L 1159 2969 
z
" transform="scale(0.015625)"/>
       <path id="DejaVuSans-72" d="M 2631 2963 
Q 2534 3019 2420 3045 
Q 2306 3072 2169 3072 
Q 1681 3072 1420 2755 
Q 1159 2438 1159 1844 
L 1159 0 
L 581 0 
L 581 3500 
L 1159 3500 
L 1159 2956 
Q 1341 3275 1631 3429 
Q 1922 3584 2338 3584 
Q 2397 3584 2469 3576 
Q 2541 3569 2628 3553 
L 2631 2963 
z
" transform="scale(0.015625)"/>
       <path id="DejaVuSans-76" d="M 191 3500 
L 800 3500 
L 1894 563 
L 2988 3500 
L 3597 3500 
L 2284 0 
L 1503 0 
L 191 3500 
z
" transform="scale(0.015625)"/>
       <path id="DejaVuSans-64" d="M 2906 2969 
L 2906 4863 
L 3481 4863 
L 3481 0 
L 2906 0 
L 2906 525 
Q 2725 213 2448 61 
Q 2172 -91 1784 -91 
Q 1150 -91 751 415 
Q 353 922 353 1747 
Q 353 2572 751 3078 
Q 1150 3584 1784 3584 
Q 2172 3584 2448 3432 
Q 2725 3281 2906 2969 
z
M 947 1747 
Q 947 1113 1208 752 
Q 1469 391 1925 391 
Q 2381 391 2643 752 
Q 2906 1113 2906 1747 
Q 2906 2381 2643 2742 
Q 2381 3103 1925 3103 
Q 1469 3103 1208 2742 
Q 947 2381 947 1747 
z
" transform="scale(0.015625)"/>
      </defs>
      <use xlink:href="#DejaVuSans-4f"/>
      <use xlink:href="#DejaVuSans-62" x="78.710938"/>
      <use xlink:href="#DejaVuSans-73" x="142.1875"/>
      <use xlink:href="#DejaVuSans-65" x="194.287109"/>
      <use xlink:href="#DejaVuSans-72" x="255.810547"/>
      <use xlink:href="#DejaVuSans-76" x="296.923828"/>
      <use xlink:href="#DejaVuSans-65" x="356.103516"/>
      <use xlink:href="#DejaVuSans-64" x="417.626953"/>
     </g>
    </g>
    <g id="line2d_21">
     <path d="M 531.315625 62.336563 
L 541.315625 62.336563 
L 551.315625 62.336563 
" style="fill: none; stroke: #ff7f0e; stroke-opacity: 0.8; stroke-width: 1.8; stroke-linecap: square"/>
    </g>
    <g id="text_20">
     <!-- Hybrid Model -->
     <g transform="translate(559.315625 65.836563) scale(0.1 -0.1)">
      <defs>
       <path id="DejaVuSans-48" d="M 628 4666 
L 1259 4666 
L 1259 2753 
L 3553 2753 
L 3553 4666 
L 4184 4666 
L 4184 0 
L 3553 0 
L 3553 2222 
L 1259 2222 
L 1259 0 
L 628 0 
L 628 4666 
z
" transform="scale(0.015625)"/>
       <path id="DejaVuSans-79" d="M 2059 -325 
Q 1816 -950 1584 -1140 
Q 1353 -1331 966 -1331 
L 506 -1331 
L 506 -850 
L 844 -850 
Q 1081 -850 1212 -737 
Q 1344 -625 1503 -206 
L 1606 56 
L 191 3500 
L 800 3500 
L 1894 763 
L 2988 3500 
L 3597 3500 
L 2059 -325 
z
" transform="scale(0.015625)"/>
       <path id="DejaVuSans-4d" d="M 628 4666 
L 1569 4666 
L 2759 1491 
L 3956 4666 
L 4897 4666 
L 4897 0 
L 4281 0 
L 4281 4097 
L 3078 897 
L 2444 897 
L 1241 4097 
L 1241 0 
L 628 0 
L 628 4666 
z
" transform="scale(0.015625)"/>
       <path id="DejaVuSans-6f" d="M 1959 3097 
Q 1497 3097 1228 2736 
Q 959 2375 959 1747 
Q 959 1119 1226 758 
Q 1494 397 1959 397 
Q 2419 397 2687 759 
Q 2956 1122 2956 1747 
Q 2956 2369 2687 2733 
Q 2419 3097 1959 3097 
z
M 1959 3584 
Q 2709 3584 3137 3096 
Q 3566 2609 3566 1747 
Q 3566 888 3137 398 
Q 2709 -91 1959 -91 
Q 1206 -91 779 398 
Q 353 888 353 1747 
Q 353 2609 779 3096 
Q 1206 3584 1959 3584 
z
" transform="scale(0.015625)"/>
       <path id="DejaVuSans-6c" d="M 603 4863 
L 1178 4863 
L 1178 0 
L 603 0 
L 603 4863 
z
" transform="scale(0.015625)"/>
      </defs>
      <use xlink:href="#DejaVuSans-48"/>
      <use xlink:href="#DejaVuSans-79" x="75.195312"/>
      <use xlink:href="#DejaVuSans-62" x="134.375"/>
      <use xlink:href="#DejaVuSans-72" x="197.851562"/>
      <use xlink:href="#DejaVuSans-69" x="238.964844"/>
      <use xlink:href="#DejaVuSans-64" x="266.748047"/>
      <use xlink:href="#DejaVuSans-20" x="330.224609"/>
      <use xlink:href="#DejaVuSans-4d" x="362.011719"/>
      <use xlink:href="#DejaVuSans-6f" x="448.291016"/>
      <use xlink:href="#DejaVuSans-64" x="509.472656"/>
      <use xlink:href="#DejaVuSans-65" x="572.949219"/>
      <use xlink:href="#DejaVuSans-6c" x="634.472656"/>
     </g>
    </g>
    <g id="line2d_22">
     <path d="M 531.315625 77.014688 
L 541.315625 77.014688 
L 551.315625 77.014688 
" style="fill: none; stroke: #2ca02c; stroke-opacity: 0.6; stroke-width: 1.5; stroke-linecap: square"/>
    </g>
    <g id="text_21">
     <!-- Empirical Model -->
     <g transform="translate(559.315625 80.514688) scale(0.1 -0.1)">
      <defs>
       <path id="DejaVuSans-63" d="M 3122 3366 
L 3122 2828 
Q 2878 2963 2633 3030 
Q 2388 3097 2138 3097 
Q 1578 3097 1268 2742 
Q 959 2388 959 1747 
Q 959 1106 1268 751 
Q 1578 397 2138 397 
Q 2388 397 2633 464 
Q 2878 531 3122 666 
L 3122 134 
Q 2881 22 2623 -34 
Q 2366 -91 2075 -91 
Q 1284 -91 818 406 
Q 353 903 353 1747 
Q 353 2603 823 3093 
Q 1294 3584 2113 3584 
Q 2378 3584 2631 3529 
Q 2884 3475 3122 3366 
z
" transform="scale(0.015625)"/>
       <path id="DejaVuSans-61" d="M 2194 1759 
Q 1497 1759 1228 1600 
Q 959 1441 959 1056 
Q 959 750 1161 570 
Q 1363 391 1709 391 
Q 2188 391 2477 730 
Q 2766 1069 2766 1631 
L 2766 1759 
L 2194 1759 
z
M 3341 1997 
L 3341 0 
L 2766 0 
L 2766 531 
Q 2569 213 2275 61 
Q 1981 -91 1556 -91 
Q 1019 -91 701 211 
Q 384 513 384 1019 
Q 384 1609 779 1909 
Q 1175 2209 1959 2209 
L 2766 2209 
L 2766 2266 
Q 2766 2663 2505 2880 
Q 2244 3097 1772 3097 
Q 1472 3097 1187 3025 
Q 903 2953 641 2809 
L 641 3341 
Q 956 3463 1253 3523 
Q 1550 3584 1831 3584 
Q 2591 3584 2966 3190 
Q 3341 2797 3341 1997 
z
" transform="scale(0.015625)"/>
      </defs>
      <use xlink:href="#DejaVuSans-45"/>
      <use xlink:href="#DejaVuSans-6d" x="63.183594"/>
      <use xlink:href="#DejaVuSans-70" x="160.595703"/>
      <use xlink:href="#DejaVuSans-69" x="224.072266"/>
      <use xlink:href="#DejaVuSans-72" x="251.855469"/>
      <use xlink:href="#DejaVuSans-69" x="292.96875"/>
      <use xlink:href="#DejaVuSans-63" x="320.751953"/>
      <use xlink:href="#DejaVuSans-61" x="375.732422"/>
      <use xlink:href="#DejaVuSans-6c" x="437.011719"/>
      <use xlink:href="#DejaVuSans-20" x="464.794922"/>
      <use xlink:href="#DejaVuSans-4d" x="496.582031"/>
      <use xlink:href="#DejaVuSans-6f" x="582.861328"/>
      <use xlink:href="#DejaVuSans-64" x="644.042969"/>
      <use xlink:href="#DejaVuSans-65" x="707.519531"/>
      <use xlink:href="#DejaVuSans-6c" x="769.042969"/>
     </g>
    </g>
   </g>
  </g>
 </g>
 <defs>
  <clipPath id="pe5bd4ecde6">
   <rect x="90" y="34.56" width="558" height="221.76"/>
  </clipPath>
 </defs>
</svg>
