<?xml version="1.0" encoding="utf-8" standalone="no"?>
<!DOCTYPE svg PUBLIC "-//W3C//DTD SVG 1.1//EN"
  "http://www.w3.org/Graphics/SVG/1.1/DTD/svg11.dtd">
<svg xmlns:xlink="http://www.w3.org/1999/xlink" width="720pt" height="288pt" viewBox="0 0 720 288" xmlns="http://www.w3.org/2000/svg" version="1.1">
 <metadata>
  <rdf:RDF xmlns:dc="http://purl.org/dc/elements/1.1/" xmlns:cc="http://creativecommons.org/ns#" xmlns:rdf="http://www.w3.org/1999/02/22-rdf-syntax-ns#">
   <cc:Work>
    <dc:type rdf:resource="http://purl.org/dc/dcmitype/StillImage"/>
    <dc:date>2025-01-06T16:17:07.725768</dc:date>
    <dc:format>image/svg+xml</dc:format>
    <dc:creator>
     <cc:Agent>
      <dc:title>Matplotlib v3.6.0, https://matplotlib.org/</dc:title>
     </cc:Agent>
    </dc:creator>
   </cc:Work>
  </rdf:RDF>
 </metadata>
 <defs>
  <style type="text/css">*{stroke-linejoin: round; stroke-linecap: butt}</style>
 </defs>
 <g id="figure_1">
  <g id="patch_1">
   <path d="M 0 288 
L 720 288 
L 720 0 
L 0 0 
z
" style="fill: #ffffff"/>
  </g>
  <g id="axes_1">
   <g id="patch_2">
    <path d="M 90 256.32 
L 648 256.32 
L 648 34.56 
L 90 34.56 
z
" style="fill: #ffffff"/>
   </g>
   <g id="matplotlib.axis_1">
    <g id="xtick_1">
     <g id="line2d_1">
      <defs>
       <path id="m865f9a6f85" d="M 0 0 
L 0 3.5 
" style="stroke: #000000; stroke-width: 0.8"/>
      </defs>
      <g>
       <use xlink:href="#m865f9a6f85" x="115.363636" y="256.32" style="stroke: #000000; stroke-width: 0.8"/>
      </g>
     </g>
     <g id="text_1">
      <!-- 0 -->
      <g transform="translate(112.182386 270.918437) scale(0.1 -0.1)">
       <defs>
        <path id="DejaVuSans-30" d="M 2034 4250 
Q 1547 4250 1301 3770 
Q 1056 3291 1056 2328 
Q 1056 1369 1301 889 
Q 1547 409 2034 409 
Q 2525 409 2770 889 
Q 3016 1369 3016 2328 
Q 3016 3291 2770 3770 
Q 2525 4250 2034 4250 
z
M 2034 4750 
Q 2819 4750 3233 4129 
Q 3647 3509 3647 2328 
Q 3647 1150 3233 529 
Q 2819 -91 2034 -91 
Q 1250 -91 836 529 
Q 422 1150 422 2328 
Q 422 3509 836 4129 
Q 1250 4750 2034 4750 
z
" transform="scale(0.015625)"/>
       </defs>
       <use xlink:href="#DejaVuSans-30"/>
      </g>
     </g>
    </g>
    <g id="xtick_2">
     <g id="line2d_2">
      <g>
       <use xlink:href="#m865f9a6f85" x="200.191852" y="256.32" style="stroke: #000000; stroke-width: 0.8"/>
      </g>
     </g>
     <g id="text_2">
      <!-- 50 -->
      <g transform="translate(193.829352 270.918437) scale(0.1 -0.1)">
       <defs>
        <path id="DejaVuSans-35" d="M 691 4666 
L 3169 4666 
L 3169 4134 
L 1269 4134 
L 1269 2991 
Q 1406 3038 1543 3061 
Q 1681 3084 1819 3084 
Q 2600 3084 3056 2656 
Q 3513 2228 3513 1497 
Q 3513 744 3044 326 
Q 2575 -91 1722 -91 
Q 1428 -91 1123 -41 
Q 819 9 494 109 
L 494 744 
Q 775 591 1075 516 
Q 1375 441 1709 441 
Q 2250 441 2565 725 
Q 2881 1009 2881 1497 
Q 2881 1984 2565 2268 
Q 2250 2553 1709 2553 
Q 1456 2553 1204 2497 
Q 953 2441 691 2322 
L 691 4666 
z
" transform="scale(0.015625)"/>
       </defs>
       <use xlink:href="#DejaVuSans-35"/>
       <use xlink:href="#DejaVuSans-30" x="63.623047"/>
      </g>
     </g>
    </g>
    <g id="xtick_3">
     <g id="line2d_3">
      <g>
       <use xlink:href="#m865f9a6f85" x="285.020067" y="256.32" style="stroke: #000000; stroke-width: 0.8"/>
      </g>
     </g>
     <g id="text_3">
      <!-- 100 -->
      <g transform="translate(275.476317 270.918437) scale(0.1 -0.1)">
       <defs>
        <path id="DejaVuSans-31" d="M 794 531 
L 1825 531 
L 1825 4091 
L 703 3866 
L 703 4441 
L 1819 4666 
L 2450 4666 
L 2450 531 
L 3481 531 
L 3481 0 
L 794 0 
L 794 531 
z
" transform="scale(0.015625)"/>
       </defs>
       <use xlink:href="#DejaVuSans-31"/>
       <use xlink:href="#DejaVuSans-30" x="63.623047"/>
       <use xlink:href="#DejaVuSans-30" x="127.246094"/>
      </g>
     </g>
    </g>
    <g id="xtick_4">
     <g id="line2d_4">
      <g>
       <use xlink:href="#m865f9a6f85" x="369.848282" y="256.32" style="stroke: #000000; stroke-width: 0.8"/>
      </g>
     </g>
     <g id="text_4">
      <!-- 150 -->
      <g transform="translate(360.304532 270.918437) scale(0.1 -0.1)">
       <use xlink:href="#DejaVuSans-31"/>
       <use xlink:href="#DejaVuSans-35" x="63.623047"/>
       <use xlink:href="#DejaVuSans-30" x="127.246094"/>
      </g>
     </g>
    </g>
    <g id="xtick_5">
     <g id="line2d_5">
      <g>
       <use xlink:href="#m865f9a6f85" x="454.676497" y="256.32" style="stroke: #000000; stroke-width: 0.8"/>
      </g>
     </g>
     <g id="text_5">
      <!-- 200 -->
      <g transform="translate(445.132747 270.918437) scale(0.1 -0.1)">
       <defs>
        <path id="DejaVuSans-32" d="M 1228 531 
L 3431 531 
L 3431 0 
L 469 0 
L 469 531 
Q 828 903 1448 1529 
Q 2069 2156 2228 2338 
Q 2531 2678 2651 2914 
Q 2772 3150 2772 3378 
Q 2772 3750 2511 3984 
Q 2250 4219 1831 4219 
Q 1534 4219 1204 4116 
Q 875 4013 500 3803 
L 500 4441 
Q 881 4594 1212 4672 
Q 1544 4750 1819 4750 
Q 2544 4750 2975 4387 
Q 3406 4025 3406 3419 
Q 3406 3131 3298 2873 
Q 3191 2616 2906 2266 
Q 2828 2175 2409 1742 
Q 1991 1309 1228 531 
z
" transform="scale(0.015625)"/>
       </defs>
       <use xlink:href="#DejaVuSans-32"/>
       <use xlink:href="#DejaVuSans-30" x="63.623047"/>
       <use xlink:href="#DejaVuSans-30" x="127.246094"/>
      </g>
     </g>
    </g>
    <g id="xtick_6">
     <g id="line2d_6">
      <g>
       <use xlink:href="#m865f9a6f85" x="539.504713" y="256.32" style="stroke: #000000; stroke-width: 0.8"/>
      </g>
     </g>
     <g id="text_6">
      <!-- 250 -->
      <g transform="translate(529.960963 270.918437) scale(0.1 -0.1)">
       <use xlink:href="#DejaVuSans-32"/>
       <use xlink:href="#DejaVuSans-35" x="63.623047"/>
       <use xlink:href="#DejaVuSans-30" x="127.246094"/>
      </g>
     </g>
    </g>
    <g id="xtick_7">
     <g id="line2d_7">
      <g>
       <use xlink:href="#m865f9a6f85" x="624.332928" y="256.32" style="stroke: #000000; stroke-width: 0.8"/>
      </g>
     </g>
     <g id="text_7">
      <!-- 300 -->
      <g transform="translate(614.789178 270.918437) scale(0.1 -0.1)">
       <defs>
        <path id="DejaVuSans-33" d="M 2597 2516 
Q 3050 2419 3304 2112 
Q 3559 1806 3559 1356 
Q 3559 666 3084 287 
Q 2609 -91 1734 -91 
Q 1441 -91 1130 -33 
Q 819 25 488 141 
L 488 750 
Q 750 597 1062 519 
Q 1375 441 1716 441 
Q 2309 441 2620 675 
Q 2931 909 2931 1356 
Q 2931 1769 2642 2001 
Q 2353 2234 1838 2234 
L 1294 2234 
L 1294 2753 
L 1863 2753 
Q 2328 2753 2575 2939 
Q 2822 3125 2822 3475 
Q 2822 3834 2567 4026 
Q 2313 4219 1838 4219 
Q 1578 4219 1281 4162 
Q 984 4106 628 3988 
L 628 4550 
Q 988 4650 1302 4700 
Q 1616 4750 1894 4750 
Q 2613 4750 3031 4423 
Q 3450 4097 3450 3541 
Q 3450 3153 3228 2886 
Q 3006 2619 2597 2516 
z
" transform="scale(0.015625)"/>
       </defs>
       <use xlink:href="#DejaVuSans-33"/>
       <use xlink:href="#DejaVuSans-30" x="63.623047"/>
       <use xlink:href="#DejaVuSans-30" x="127.246094"/>
      </g>
     </g>
    </g>
    <g id="text_8">
     <!-- Timestep -->
     <g transform="translate(345.950781 284.596563) scale(0.1 -0.1)">
      <defs>
       <path id="DejaVuSans-54" d="M -19 4666 
L 3928 4666 
L 3928 4134 
L 2272 4134 
L 2272 0 
L 1638 0 
L 1638 4134 
L -19 4134 
L -19 4666 
z
" transform="scale(0.015625)"/>
       <path id="DejaVuSans-69" d="M 603 3500 
L 1178 3500 
L 1178 0 
L 603 0 
L 603 3500 
z
M 603 4863 
L 1178 4863 
L 1178 4134 
L 603 4134 
L 603 4863 
z
" transform="scale(0.015625)"/>
       <path id="DejaVuSans-6d" d="M 3328 2828 
Q 3544 3216 3844 3400 
Q 4144 3584 4550 3584 
Q 5097 3584 5394 3201 
Q 5691 2819 5691 2113 
L 5691 0 
L 5113 0 
L 5113 2094 
Q 5113 2597 4934 2840 
Q 4756 3084 4391 3084 
Q 3944 3084 3684 2787 
Q 3425 2491 3425 1978 
L 3425 0 
L 2847 0 
L 2847 2094 
Q 2847 2600 2669 2842 
Q 2491 3084 2119 3084 
Q 1678 3084 1418 2786 
Q 1159 2488 1159 1978 
L 1159 0 
L 581 0 
L 581 3500 
L 1159 3500 
L 1159 2956 
Q 1356 3278 1631 3431 
Q 1906 3584 2284 3584 
Q 2666 3584 2933 3390 
Q 3200 3197 3328 2828 
z
" transform="scale(0.015625)"/>
       <path id="DejaVuSans-65" d="M 3597 1894 
L 3597 1613 
L 953 1613 
Q 991 1019 1311 708 
Q 1631 397 2203 397 
Q 2534 397 2845 478 
Q 3156 559 3463 722 
L 3463 178 
Q 3153 47 2828 -22 
Q 2503 -91 2169 -91 
Q 1331 -91 842 396 
Q 353 884 353 1716 
Q 353 2575 817 3079 
Q 1281 3584 2069 3584 
Q 2775 3584 3186 3129 
Q 3597 2675 3597 1894 
z
M 3022 2063 
Q 3016 2534 2758 2815 
Q 2500 3097 2075 3097 
Q 1594 3097 1305 2825 
Q 1016 2553 972 2059 
L 3022 2063 
z
" transform="scale(0.015625)"/>
       <path id="DejaVuSans-73" d="M 2834 3397 
L 2834 2853 
Q 2591 2978 2328 3040 
Q 2066 3103 1784 3103 
Q 1356 3103 1142 2972 
Q 928 2841 928 2578 
Q 928 2378 1081 2264 
Q 1234 2150 1697 2047 
L 1894 2003 
Q 2506 1872 2764 1633 
Q 3022 1394 3022 966 
Q 3022 478 2636 193 
Q 2250 -91 1575 -91 
Q 1294 -91 989 -36 
Q 684 19 347 128 
L 347 722 
Q 666 556 975 473 
Q 1284 391 1588 391 
Q 1994 391 2212 530 
Q 2431 669 2431 922 
Q 2431 1156 2273 1281 
Q 2116 1406 1581 1522 
L 1381 1569 
Q 847 1681 609 1914 
Q 372 2147 372 2553 
Q 372 3047 722 3315 
Q 1072 3584 1716 3584 
Q 2034 3584 2315 3537 
Q 2597 3491 2834 3397 
z
" transform="scale(0.015625)"/>
       <path id="DejaVuSans-74" d="M 1172 4494 
L 1172 3500 
L 2356 3500 
L 2356 3053 
L 1172 3053 
L 1172 1153 
Q 1172 725 1289 603 
Q 1406 481 1766 481 
L 2356 481 
L 2356 0 
L 1766 0 
Q 1100 0 847 248 
Q 594 497 594 1153 
L 594 3053 
L 172 3053 
L 172 3500 
L 594 3500 
L 594 4494 
L 1172 4494 
z
" transform="scale(0.015625)"/>
       <path id="DejaVuSans-70" d="M 1159 525 
L 1159 -1331 
L 581 -1331 
L 581 3500 
L 1159 3500 
L 1159 2969 
Q 1341 3281 1617 3432 
Q 1894 3584 2278 3584 
Q 2916 3584 3314 3078 
Q 3713 2572 3713 1747 
Q 3713 922 3314 415 
Q 2916 -91 2278 -91 
Q 1894 -91 1617 61 
Q 1341 213 1159 525 
z
M 3116 1747 
Q 3116 2381 2855 2742 
Q 2594 3103 2138 3103 
Q 1681 3103 1420 2742 
Q 1159 2381 1159 1747 
Q 1159 1113 1420 752 
Q 1681 391 2138 391 
Q 2594 391 2855 752 
Q 3116 1113 3116 1747 
z
" transform="scale(0.015625)"/>
      </defs>
      <use xlink:href="#DejaVuSans-54"/>
      <use xlink:href="#DejaVuSans-69" x="57.958984"/>
      <use xlink:href="#DejaVuSans-6d" x="85.742188"/>
      <use xlink:href="#DejaVuSans-65" x="183.154297"/>
      <use xlink:href="#DejaVuSans-73" x="244.677734"/>
      <use xlink:href="#DejaVuSans-74" x="296.777344"/>
      <use xlink:href="#DejaVuSans-65" x="335.986328"/>
      <use xlink:href="#DejaVuSans-70" x="397.509766"/>
     </g>
    </g>
   </g>
   <g id="matplotlib.axis_2">
    <g id="ytick_1">
     <g id="line2d_8">
      <defs>
       <path id="m6108fc28d5" d="M 0 0 
L -3.5 0 
" style="stroke: #000000; stroke-width: 0.8"/>
      </defs>
      <g>
       <use xlink:href="#m6108fc28d5" x="90" y="246.24" style="stroke: #000000; stroke-width: 0.8"/>
      </g>
     </g>
     <g id="text_9">
      <!-- 0 -->
      <g transform="translate(76.6375 250.039219) scale(0.1 -0.1)">
       <use xlink:href="#DejaVuSans-30"/>
      </g>
     </g>
    </g>
    <g id="ytick_2">
     <g id="line2d_9">
      <g>
       <use xlink:href="#m6108fc28d5" x="90" y="209.316923" style="stroke: #000000; stroke-width: 0.8"/>
      </g>
     </g>
     <g id="text_10">
      <!-- 100 -->
      <g transform="translate(63.9125 213.116142) scale(0.1 -0.1)">
       <use xlink:href="#DejaVuSans-31"/>
       <use xlink:href="#DejaVuSans-30" x="63.623047"/>
       <use xlink:href="#DejaVuSans-30" x="127.246094"/>
      </g>
     </g>
    </g>
    <g id="ytick_3">
     <g id="line2d_10">
      <g>
       <use xlink:href="#m6108fc28d5" x="90" y="172.393846" style="stroke: #000000; stroke-width: 0.8"/>
      </g>
     </g>
     <g id="text_11">
      <!-- 200 -->
      <g transform="translate(63.9125 176.193065) scale(0.1 -0.1)">
       <use xlink:href="#DejaVuSans-32"/>
       <use xlink:href="#DejaVuSans-30" x="63.623047"/>
       <use xlink:href="#DejaVuSans-30" x="127.246094"/>
      </g>
     </g>
    </g>
    <g id="ytick_4">
     <g id="line2d_11">
      <g>
       <use xlink:href="#m6108fc28d5" x="90" y="135.470769" style="stroke: #000000; stroke-width: 0.8"/>
      </g>
     </g>
     <g id="text_12">
      <!-- 300 -->
      <g transform="translate(63.9125 139.269988) scale(0.1 -0.1)">
       <use xlink:href="#DejaVuSans-33"/>
       <use xlink:href="#DejaVuSans-30" x="63.623047"/>
       <use xlink:href="#DejaVuSans-30" x="127.246094"/>
      </g>
     </g>
    </g>
    <g id="ytick_5">
     <g id="line2d_12">
      <g>
       <use xlink:href="#m6108fc28d5" x="90" y="98.547692" style="stroke: #000000; stroke-width: 0.8"/>
      </g>
     </g>
     <g id="text_13">
      <!-- 400 -->
      <g transform="translate(63.9125 102.346911) scale(0.1 -0.1)">
       <defs>
        <path id="DejaVuSans-34" d="M 2419 4116 
L 825 1625 
L 2419 1625 
L 2419 4116 
z
M 2253 4666 
L 3047 4666 
L 3047 1625 
L 3713 1625 
L 3713 1100 
L 3047 1100 
L 3047 0 
L 2419 0 
L 2419 1100 
L 313 1100 
L 313 1709 
L 2253 4666 
z
" transform="scale(0.015625)"/>
       </defs>
       <use xlink:href="#DejaVuSans-34"/>
       <use xlink:href="#DejaVuSans-30" x="63.623047"/>
       <use xlink:href="#DejaVuSans-30" x="127.246094"/>
      </g>
     </g>
    </g>
    <g id="ytick_6">
     <g id="line2d_13">
      <g>
       <use xlink:href="#m6108fc28d5" x="90" y="61.624615" style="stroke: #000000; stroke-width: 0.8"/>
      </g>
     </g>
     <g id="text_14">
      <!-- 500 -->
      <g transform="translate(63.9125 65.423834) scale(0.1 -0.1)">
       <use xlink:href="#DejaVuSans-35"/>
       <use xlink:href="#DejaVuSans-30" x="63.623047"/>
       <use xlink:href="#DejaVuSans-30" x="127.246094"/>
      </g>
     </g>
    </g>
    <g id="text_15">
     <!-- Q_LE [W/m²] -->
     <g transform="translate(57.554687 176.815) rotate(-90) scale(0.1 -0.1)">
      <defs>
       <path id="DejaVuSans-51" d="M 2522 4238 
Q 1834 4238 1429 3725 
Q 1025 3213 1025 2328 
Q 1025 1447 1429 934 
Q 1834 422 2522 422 
Q 3209 422 3611 934 
Q 4013 1447 4013 2328 
Q 4013 3213 3611 3725 
Q 3209 4238 2522 4238 
z
M 3406 84 
L 4238 -825 
L 3475 -825 
L 2784 -78 
Q 2681 -84 2626 -87 
Q 2572 -91 2522 -91 
Q 1538 -91 948 567 
Q 359 1225 359 2328 
Q 359 3434 948 4092 
Q 1538 4750 2522 4750 
Q 3503 4750 4090 4092 
Q 4678 3434 4678 2328 
Q 4678 1516 4351 937 
Q 4025 359 3406 84 
z
" transform="scale(0.015625)"/>
       <path id="DejaVuSans-5f" d="M 3263 -1063 
L 3263 -1509 
L -63 -1509 
L -63 -1063 
L 3263 -1063 
z
" transform="scale(0.015625)"/>
       <path id="DejaVuSans-4c" d="M 628 4666 
L 1259 4666 
L 1259 531 
L 3531 531 
L 3531 0 
L 628 0 
L 628 4666 
z
" transform="scale(0.015625)"/>
       <path id="DejaVuSans-45" d="M 628 4666 
L 3578 4666 
L 3578 4134 
L 1259 4134 
L 1259 2753 
L 3481 2753 
L 3481 2222 
L 1259 2222 
L 1259 531 
L 3634 531 
L 3634 0 
L 628 0 
L 628 4666 
z
" transform="scale(0.015625)"/>
       <path id="DejaVuSans-20" transform="scale(0.015625)"/>
       <path id="DejaVuSans-5b" d="M 550 4863 
L 1875 4863 
L 1875 4416 
L 1125 4416 
L 1125 -397 
L 1875 -397 
L 1875 -844 
L 550 -844 
L 550 4863 
z
" transform="scale(0.015625)"/>
       <path id="DejaVuSans-57" d="M 213 4666 
L 850 4666 
L 1831 722 
L 2809 4666 
L 3519 4666 
L 4500 722 
L 5478 4666 
L 6119 4666 
L 4947 0 
L 4153 0 
L 3169 4050 
L 2175 0 
L 1381 0 
L 213 4666 
z
" transform="scale(0.015625)"/>
       <path id="DejaVuSans-2f" d="M 1625 4666 
L 2156 4666 
L 531 -594 
L 0 -594 
L 1625 4666 
z
" transform="scale(0.015625)"/>
       <path id="DejaVuSans-b2" d="M 838 2444 
L 2163 2444 
L 2163 2088 
L 294 2088 
L 294 2431 
Q 400 2528 597 2703 
Q 1672 3656 1672 3950 
Q 1672 4156 1509 4282 
Q 1347 4409 1081 4409 
Q 919 4409 728 4354 
Q 538 4300 313 4191 
L 313 4575 
Q 553 4663 761 4706 
Q 969 4750 1147 4750 
Q 1600 4750 1872 4544 
Q 2144 4338 2144 4000 
Q 2144 3566 1109 2678 
Q 934 2528 838 2444 
z
" transform="scale(0.015625)"/>
       <path id="DejaVuSans-5d" d="M 1947 4863 
L 1947 -844 
L 622 -844 
L 622 -397 
L 1369 -397 
L 1369 4416 
L 622 4416 
L 622 4863 
L 1947 4863 
z
" transform="scale(0.015625)"/>
      </defs>
      <use xlink:href="#DejaVuSans-51"/>
      <use xlink:href="#DejaVuSans-5f" x="78.710938"/>
      <use xlink:href="#DejaVuSans-4c" x="128.710938"/>
      <use xlink:href="#DejaVuSans-45" x="184.423828"/>
      <use xlink:href="#DejaVuSans-20" x="247.607422"/>
      <use xlink:href="#DejaVuSans-5b" x="279.394531"/>
      <use xlink:href="#DejaVuSans-57" x="318.408203"/>
      <use xlink:href="#DejaVuSans-2f" x="417.285156"/>
      <use xlink:href="#DejaVuSans-6d" x="450.976562"/>
      <use xlink:href="#DejaVuSans-b2" x="548.388672"/>
      <use xlink:href="#DejaVuSans-5d" x="588.476562"/>
     </g>
    </g>
   </g>
   <g id="line2d_14">
    <path d="M 115.363636 243.84 
L 117.060201 226.486154 
L 118.756765 235.347692 
L 120.453329 239.04 
L 122.149894 239.409231 
L 123.846458 244.209231 
L 125.543022 237.378462 
L 127.239587 202.486154 
L 128.936151 178.670769 
L 130.632715 157.070769 
L 132.329279 172.947692 
L 134.025844 144.886154 
L 135.722408 168.332308 
L 137.418972 142.301538 
L 139.115537 156.332308 
L 140.812101 159.286154 
L 142.508665 228.886154 
L 144.20523 239.778462 
L 145.901794 234.609231 
L 147.598358 245.132308 
L 149.294922 231.470769 
L 150.991487 246.055385 
L 154.384615 240.332308 
L 156.08118 238.486154 
L 157.777744 229.624615 
L 159.474308 237.747692 
L 161.170873 237.563077 
L 162.867437 238.855385 
L 164.564001 230.732308 
L 166.260566 220.763077 
L 167.95713 189.932308 
L 169.653694 154.301538 
L 171.350258 139.163077 
L 173.046823 170.916923 
L 174.743387 172.578462 
L 176.439951 154.855385 
L 178.136516 195.470769 
L 179.83308 177.378462 
L 181.529644 206.547692 
L 183.226209 214.301538 
L 184.922773 232.763077 
L 186.619337 222.978462 
L 188.315901 225.563077 
L 190.012466 206.363077 
L 191.70903 208.393846 
L 193.405594 216.332308 
L 195.102159 221.316923 
L 196.798723 225.378462 
L 198.495287 213.193846 
L 200.191852 207.84 
L 201.888416 182.547692 
L 203.58498 211.483072 
L 205.281545 44.64 
L 206.978109 230.479311 
L 208.674673 212.763083 
L 210.371237 198.424615 
L 212.067802 188.889784 
L 213.764366 220.393846 
L 215.46093 229.769095 
L 217.157495 233.686154 
L 218.854059 215.04 
L 220.550623 155.04 
L 222.247188 200.270769 
L 223.943752 210.424615 
L 225.640316 228.886154 
L 227.336881 222.424615 
L 229.033445 227.409231 
L 230.730009 223.716923 
L 232.426573 210.609231 
L 234.123138 232.947692 
L 235.819702 241.624615 
L 237.516266 238.486154 
L 239.212831 241.44 
L 240.909395 240.332308 
L 242.605959 237.563077 
L 244.302524 236.824615 
L 245.999088 234.24 
L 247.695652 217.993846 
L 249.392216 161.501538 
L 251.088781 163.532308 
L 252.785345 197.686154 
L 254.481909 179.409231 
L 256.178474 174.609231 
L 257.875038 181.070769 
L 259.571602 216.886154 
L 261.268167 225.378462 
L 262.964731 222.978462 
L 264.661295 216.886154 
L 266.35786 239.963077 
L 268.054424 241.993846 
L 269.750988 246.055385 
L 271.447552 244.578462 
L 273.144117 244.578462 
L 274.840681 237.932308 
L 276.537245 244.209231 
L 278.23381 244.024615 
L 279.930374 242.732308 
L 281.626938 240.516923 
L 283.323503 241.624615 
L 285.020067 238.301538 
L 286.716631 230.178462 
L 288.413196 199.532308 
L 290.10976 156.701538 
L 291.806324 167.38283 
L 293.502888 200.64 
L 295.199453 118.670769 
L 296.896017 127.716923 
L 298.592581 105.932308 
L 300.289146 167.963077 
L 301.98571 186.24 
L 303.682274 223.716923 
L 305.378839 208.578462 
L 307.075403 244.947692 
L 308.771967 242.178462 
L 310.468531 242.547692 
L 312.165096 239.409231 
L 313.86166 237.378462 
L 315.558224 245.592517 
L 317.254789 227.963077 
L 318.951353 240.147692 
L 320.647917 246.24 
L 322.344482 223.532308 
L 324.041046 213.193846 
L 325.73761 178.486154 
L 327.434175 189.747692 
L 329.130739 117.932308 
L 330.827303 160.578462 
L 332.523867 112.763077 
L 334.220432 123.470769 
L 335.916996 163.163077 
L 337.61356 181.070769 
L 339.310125 232.578462 
L 341.006689 235.532308 
L 342.703253 220.393846 
L 344.399818 229.993846 
L 346.096382 229.255385 
L 347.792946 208.393846 
L 349.48951 232.024615 
L 351.186075 235.532308 
L 352.882639 236.086154 
L 354.579203 242.547692 
L 356.275768 241.070769 
L 357.972332 221.132308 
L 359.668896 214.670769 
L 361.365461 209.132308 
L 363.062025 216.332308 
L 364.758589 208.209231 
L 366.455154 193.44 
L 368.151718 199.347692 
L 369.848282 223.163077 
L 371.544846 225.435748 
L 373.241411 184.680313 
L 374.937975 226.238973 
L 376.634539 228.05339 
L 378.331104 230.308985 
L 380.027668 230.05451 
L 381.724232 230.115176 
L 383.420797 222.547699 
L 385.117361 213.563077 
L 386.813925 182.916923 
L 388.51049 211.347692 
L 390.207054 222.978462 
L 391.903618 227.963077 
L 393.600182 216.516923 
L 395.296747 218.916923 
L 396.993311 233.496793 
L 398.689875 136.841536 
L 400.38644 221.501538 
L 402.083004 217.45595 
L 403.779568 153.813599 
L 405.476133 214.017435 
L 407.172697 215.009224 
L 408.869261 209.300122 
L 410.565825 212.252307 
L 412.26239 167.224615 
L 413.958954 195.655385 
L 415.655518 206.732308 
L 417.352083 225.193846 
L 419.048647 219.101538 
L 420.745211 220.947692 
L 422.441776 235.532308 
L 424.13834 237.932308 
L 425.834904 232.024615 
L 427.531469 224.824615 
L 429.228033 223.901538 
L 432.621161 234.24 
L 434.317726 231.286154 
L 436.01429 228.886154 
L 437.710854 234.609231 
L 441.103983 230.178462 
L 442.800547 210.055385 
L 444.497112 183.655385 
L 446.193676 178.116923 
L 447.89024 131.409231 
L 449.586804 116.455385 
L 451.283369 70.116923 
L 452.979933 122.547692 
L 454.676497 124.770457 
L 456.373062 182.101664 
L 458.069626 195.919017 
L 459.76619 215.741539 
L 461.462755 229.255385 
L 463.159319 241.44 
L 464.855883 216.516923 
L 466.552448 233.677514 
L 468.249012 233.35763 
L 469.945576 233.191883 
L 471.64214 235.087587 
L 473.338705 238.710683 
L 475.035269 236.946757 
L 476.731833 242.773329 
L 478.428398 235.658381 
L 480.124962 235.084394 
L 481.821526 245.132308 
L 483.518091 222.055385 
L 485.214655 209.316923 
L 486.911219 224.824615 
L 488.607784 197.147632 
L 490.304348 147.84 
L 492.000912 91.716923 
L 493.697476 153.747692 
L 495.394041 233.299348 
L 497.090605 225.234867 
L 498.787169 210.912535 
L 500.483734 171.286154 
L 502.180298 229.63093 
L 503.876862 217.44 
L 505.573427 211.716923 
L 507.269991 214.855385 
L 508.966555 220.393846 
L 510.663119 230.732308 
L 512.359684 231.421735 
L 514.056248 234.793846 
L 515.752812 245.132308 
L 517.449377 234.310338 
L 519.145941 219.286154 
L 520.842505 223.347692 
L 522.53907 236.270769 
L 524.235634 230.916923 
L 525.932198 204.332308 
L 527.628763 205.624615 
L 529.325327 190.855385 
L 531.021891 212.64 
L 532.718455 145.624615 
L 534.41502 190.301538 
L 536.111584 179.593846 
L 537.808148 212.824615 
L 539.504713 227.04 
L 541.201277 232.578462 
L 542.897841 224.824615 
L 544.594406 241.993846 
L 546.29097 244.578462 
L 547.987534 243.655385 
L 549.684099 245.501538 
L 551.380663 244.947692 
L 553.077227 225.932308 
L 554.773791 242.178462 
L 556.470356 244.393846 
L 558.16692 243.101538 
L 559.863484 244.024615 
L 561.560049 244.578462 
L 563.256613 235.347692 
L 564.953177 211.901538 
L 566.649742 216.516923 
L 568.346306 201.747692 
L 570.04287 193.993846 
L 571.739434 194.916923 
L 573.435999 197.132308 
L 575.132563 201.932308 
L 576.829127 205.44 
L 578.525692 191.224615 
L 580.222256 209.316923 
L 581.91882 232.947692 
L 583.615385 244.578462 
L 585.311949 233.864493 
L 590.401642 236.480991 
L 592.098206 238.67616 
L 595.491335 238.241723 
L 597.187899 237.545945 
L 598.884463 229.662849 
L 600.581028 216.490542 
L 602.277592 220.229741 
L 603.974156 199.532308 
L 605.670721 187.347692 
L 607.367285 191.963077 
L 609.063849 167.593846 
L 610.760413 161.501538 
L 612.456978 179.593846 
L 614.153542 157.624615 
L 615.850106 193.070769 
L 617.546671 197.316923 
L 620.939799 244.578462 
L 622.636364 243.84 
L 622.636364 243.84 
" clip-path="url(#p14f5d08a61)" style="fill: none; stroke: #1f77b4; stroke-opacity: 0.6; stroke-width: 1.5; stroke-linecap: square"/>
   </g>
   <g id="line2d_15">
    <path d="M 115.363636 245.457621 
L 118.756765 245.101629 
L 122.149894 244.683308 
L 123.846458 244.755626 
L 125.543022 238.165128 
L 127.239587 226.544317 
L 128.936151 222.315952 
L 130.632715 210.696857 
L 132.329279 207.665892 
L 134.025844 204.269207 
L 135.722408 206.769532 
L 137.418972 207.207069 
L 139.115537 219.990583 
L 140.812101 205.446643 
L 142.508665 215.484822 
L 144.20523 231.963447 
L 145.901794 244.092685 
L 147.598358 244.312454 
L 149.294922 244.123479 
L 150.991487 244.294275 
L 152.688051 243.64863 
L 156.08118 243.183342 
L 157.777744 243.107999 
L 159.474308 243.293777 
L 161.170873 243.026277 
L 162.867437 243.135769 
L 164.564001 240.926197 
L 166.260566 236.842951 
L 167.95713 229.898367 
L 169.653694 221.682937 
L 171.350258 215.388109 
L 173.046823 211.470615 
L 174.743387 214.819048 
L 176.439951 230.30311 
L 178.136516 198.688648 
L 179.83308 200.158013 
L 181.529644 213.155977 
L 183.226209 234.448878 
L 184.922773 237.729392 
L 186.619337 244.235987 
L 188.315901 241.315774 
L 190.012466 239.152793 
L 191.70903 238.318666 
L 193.405594 238.383967 
L 195.102159 243.015941 
L 200.191852 243.436305 
L 201.888416 243.250726 
L 203.58498 239.850716 
L 205.281545 238.046308 
L 206.978109 240.648675 
L 208.674673 239.812161 
L 210.371237 238.09798 
L 212.067802 237.809762 
L 213.764366 244.015574 
L 215.46093 243.921834 
L 217.157495 243.127508 
L 218.854059 241.140435 
L 220.550623 223.109461 
L 222.247188 224.536021 
L 223.943752 235.407373 
L 225.640316 233.429532 
L 227.336881 235.584846 
L 229.033445 234.282659 
L 230.730009 235.215424 
L 232.426573 235.227819 
L 234.123138 234.626557 
L 237.516266 237.945206 
L 239.212831 237.492097 
L 242.605959 238.314759 
L 244.302524 234.445406 
L 245.999088 223.463092 
L 247.695652 217.226496 
L 249.392216 213.31849 
L 251.088781 201.160186 
L 252.785345 206.057482 
L 254.481909 205.391747 
L 256.178474 205.624514 
L 257.875038 208.601986 
L 259.571602 209.664052 
L 262.964731 213.808681 
L 264.661295 236.062247 
L 266.35786 237.083464 
L 268.054424 238.524019 
L 269.750988 238.888699 
L 271.447552 240.442898 
L 273.144117 241.234771 
L 274.840681 241.77561 
L 276.537245 241.574567 
L 278.23381 237.954748 
L 279.930374 240.020599 
L 281.626938 241.805243 
L 283.323503 242.411846 
L 285.020067 238.488131 
L 286.716631 223.528693 
L 288.413196 216.762451 
L 290.10976 210.619017 
L 291.806324 202.102083 
L 295.199453 197.628247 
L 296.896017 197.809792 
L 298.592581 194.451756 
L 301.98571 207.889222 
L 303.682274 226.366947 
L 305.378839 233.216012 
L 307.075403 236.095725 
L 310.468531 238.403172 
L 312.165096 241.259154 
L 313.86166 243.63035 
L 315.558224 243.580335 
L 317.254789 243.398607 
L 318.951353 240.566522 
L 320.647917 241.197143 
L 322.344482 232.980723 
L 324.041046 226.53898 
L 325.73761 222.459749 
L 327.434175 217.359515 
L 329.130739 217.289549 
L 330.827303 212.183079 
L 332.523867 208.435011 
L 334.220432 207.105029 
L 335.916996 211.366062 
L 337.61356 217.230322 
L 339.310125 238.612367 
L 341.006689 240.274891 
L 344.399818 241.684969 
L 346.096382 240.894526 
L 349.48951 240.382054 
L 351.186075 239.914186 
L 352.882639 239.767067 
L 354.579203 243.25961 
L 356.275768 243.766051 
L 357.972332 243.951078 
L 359.668896 244.271588 
L 361.365461 241.313153 
L 363.062025 225.841176 
L 364.758589 216.261581 
L 366.455154 214.763947 
L 368.151718 217.54819 
L 369.848282 234.169318 
L 371.544846 241.744484 
L 373.241411 245.116915 
L 374.937975 245.652076 
L 376.634539 245.849072 
L 378.331104 245.700588 
L 380.027668 245.886389 
L 385.117361 245.988862 
L 386.813925 245.621128 
L 388.51049 220.973493 
L 390.207054 237.544097 
L 391.903618 233.442452 
L 393.600182 241.761156 
L 395.296747 226.126954 
L 396.993311 238.460907 
L 398.689875 221.781645 
L 400.38644 237.133707 
L 402.083004 231.181508 
L 403.779568 239.162606 
L 407.172697 242.599782 
L 408.869261 240.24441 
L 410.565825 243.421018 
L 412.26239 236.251394 
L 413.958954 238.529876 
L 415.655518 233.467615 
L 417.352083 240.302532 
L 419.048647 238.010119 
L 420.745211 242.351848 
L 422.441776 238.240092 
L 424.13834 243.315465 
L 425.834904 237.543285 
L 427.531469 242.015523 
L 429.228033 238.181319 
L 430.924597 242.509803 
L 432.621161 239.261201 
L 434.317726 243.261622 
L 436.01429 239.918032 
L 437.710854 244.020279 
L 439.407419 237.975694 
L 441.103983 244.068467 
L 442.800547 234.762014 
L 444.497112 235.096226 
L 446.193676 218.822393 
L 447.89024 218.340732 
L 449.586804 209.010464 
L 451.283369 207.326254 
L 452.979933 202.105356 
L 454.676497 207.892991 
L 456.373062 202.999283 
L 458.069626 210.423894 
L 459.76619 216.304487 
L 461.462755 229.405686 
L 463.159319 239.191741 
L 464.855883 245.119261 
L 466.552448 245.324087 
L 468.249012 245.150429 
L 469.945576 245.447336 
L 471.64214 245.280883 
L 473.338705 243.526847 
L 475.035269 242.382397 
L 476.731833 241.720858 
L 478.428398 241.753118 
L 480.124962 240.743558 
L 481.821526 245.29717 
L 483.518091 244.181622 
L 486.911219 236.557198 
L 488.607784 230.196862 
L 490.304348 228.047017 
L 492.000912 220.415675 
L 493.697476 222.655141 
L 495.394041 242.920063 
L 497.090605 243.665337 
L 498.787169 243.244317 
L 500.483734 244.665136 
L 502.180298 245.226321 
L 503.876862 245.146841 
L 505.573427 240.473353 
L 507.269991 243.086908 
L 508.966555 243.830099 
L 510.663119 243.764527 
L 512.359684 243.573114 
L 514.056248 244.012225 
L 515.752812 242.741762 
L 517.449377 243.333809 
L 519.145941 244.071292 
L 520.842505 245.068933 
L 522.53907 244.474281 
L 524.235634 233.666464 
L 525.932198 228.304059 
L 527.628763 224.515714 
L 529.325327 221.926591 
L 531.021891 223.614616 
L 532.718455 215.589747 
L 534.41502 214.941343 
L 536.111584 215.681627 
L 537.808148 216.556246 
L 539.504713 228.138285 
L 541.201277 227.450844 
L 542.897841 239.423209 
L 544.594406 242.44956 
L 546.29097 242.679521 
L 547.987534 240.971529 
L 549.684099 237.585845 
L 551.380663 237.441277 
L 553.077227 238.195061 
L 554.773791 238.435294 
L 556.470356 242.466181 
L 558.16692 243.385984 
L 559.863484 245.102497 
L 563.256613 229.38738 
L 564.953177 224.872448 
L 566.649742 223.647963 
L 568.346306 224.887711 
L 570.04287 226.913763 
L 571.739434 226.81047 
L 573.435999 226.934219 
L 575.132563 224.269648 
L 576.829127 224.435873 
L 578.525692 220.234818 
L 580.222256 225.483849 
L 581.91882 241.568114 
L 583.615385 244.079142 
L 585.311949 239.3343 
L 587.008513 241.881813 
L 590.401642 241.491211 
L 592.098206 240.523279 
L 593.79477 241.474 
L 595.491335 242.191242 
L 597.187899 241.728045 
L 598.884463 245.333746 
L 600.581028 244.390323 
L 602.277592 240.579057 
L 603.974156 223.144155 
L 605.670721 215.100597 
L 607.367285 208.425504 
L 609.063849 209.491969 
L 610.760413 204.53418 
L 612.456978 210.192125 
L 614.153542 208.539618 
L 615.850106 207.418035 
L 617.546671 210.176305 
L 619.243235 218.66881 
L 620.939799 236.651411 
L 622.636364 239.975263 
L 622.636364 239.975263 
" clip-path="url(#p14f5d08a61)" style="fill: none; stroke: #ff7f0e; stroke-opacity: 0.8; stroke-width: 1.8; stroke-linecap: square"/>
   </g>
   <g id="line2d_16">
    <path d="M 115.363636 245.392705 
L 118.756765 245.192114 
L 122.149894 244.952264 
L 123.846458 245.010526 
L 125.543022 219.020564 
L 127.239587 204.151338 
L 128.936151 195.429607 
L 130.632715 174.823171 
L 132.329279 167.246385 
L 134.025844 160.336774 
L 135.722408 164.24905 
L 137.418972 158.773566 
L 139.115537 178.018688 
L 140.812101 170.493082 
L 142.508665 203.286277 
L 144.20523 225.65762 
L 145.901794 244.42531 
L 147.598358 244.567932 
L 149.294922 244.291645 
L 150.991487 244.527131 
L 152.688051 243.715445 
L 154.384615 243.321295 
L 156.08118 243.130758 
L 157.777744 243.062786 
L 159.474308 243.122146 
L 161.170873 242.79652 
L 162.867437 241.320735 
L 164.564001 231.937661 
L 166.260566 219.501728 
L 167.95713 207.933606 
L 169.653694 189.995459 
L 171.350258 176.914388 
L 173.046823 169.416343 
L 174.743387 177.556096 
L 176.439951 162.25617 
L 178.136516 197.189093 
L 179.83308 190.817468 
L 181.529644 214.900152 
L 183.226209 230.714141 
L 184.922773 242.887292 
L 186.619337 244.417866 
L 188.315901 241.646927 
L 190.012466 239.764388 
L 191.70903 238.850097 
L 193.405594 238.861095 
L 195.102159 243.498189 
L 198.495287 243.680041 
L 200.191852 244.089087 
L 201.888416 243.660612 
L 203.58498 238.78902 
L 205.281545 237.320094 
L 206.978109 232.402563 
L 208.674673 228.209785 
L 210.371237 224.815031 
L 212.067802 225.186678 
L 213.764366 237.288164 
L 215.46093 241.34977 
L 218.854059 232.956591 
L 220.550623 214.973555 
L 222.247188 224.593931 
L 223.943752 229.893662 
L 225.640316 234.533446 
L 227.336881 236.128329 
L 229.033445 234.81495 
L 230.730009 235.783254 
L 232.426573 235.796966 
L 234.123138 235.20716 
L 237.516266 238.420176 
L 239.212831 237.990716 
L 242.605959 238.854721 
L 244.302524 234.967784 
L 245.999088 224.215039 
L 247.695652 219.23769 
L 249.392216 215.287077 
L 251.088781 197.917915 
L 252.785345 195.864226 
L 254.481909 194.352924 
L 256.178474 188.67652 
L 257.875038 192.811616 
L 259.571602 195.533938 
L 261.268167 207.627195 
L 262.964731 214.046002 
L 264.661295 230.027209 
L 266.35786 237.673003 
L 268.054424 239.02177 
L 269.750988 239.351877 
L 271.447552 240.825442 
L 276.537245 243.221711 
L 278.23381 243.765149 
L 279.930374 243.658656 
L 281.626938 243.332342 
L 283.323503 242.833615 
L 285.020067 238.278488 
L 286.716631 221.394675 
L 288.413196 209.320436 
L 290.10976 196.079795 
L 291.806324 177.175907 
L 295.199453 157.321567 
L 296.896017 153.942201 
L 298.592581 144.699848 
L 300.289146 148.701373 
L 301.98571 158.479859 
L 305.378839 217.35816 
L 307.075403 236.225175 
L 308.771967 237.790866 
L 310.468531 239.105574 
L 312.165096 241.941079 
L 313.86166 244.081555 
L 315.558224 243.964004 
L 317.254789 243.966555 
L 318.951353 241.167981 
L 320.647917 241.844764 
L 322.344482 218.901559 
L 324.041046 211.599662 
L 325.73761 202.514423 
L 327.434175 191.371398 
L 329.130739 189.152983 
L 330.827303 179.551371 
L 332.523867 170.680525 
L 334.220432 164.705411 
L 335.916996 173.2028 
L 337.61356 184.751381 
L 339.310125 231.090179 
L 341.006689 240.727716 
L 342.703253 241.531653 
L 344.399818 242.1775 
L 346.096382 241.394273 
L 347.792946 241.23691 
L 349.48951 240.95155 
L 351.186075 240.525341 
L 352.882639 240.441533 
L 354.579203 243.94094 
L 356.275768 244.442621 
L 357.972332 244.567376 
L 359.668896 243.209974 
L 361.365461 238.430254 
L 363.062025 215.036544 
L 364.758589 195.085493 
L 366.455154 189.130469 
L 368.151718 190.871751 
L 369.848282 228.846938 
L 371.544846 235.369787 
L 373.241411 240.831135 
L 374.937975 243.853997 
L 376.634539 245.101549 
L 378.331104 245.681004 
L 380.027668 245.869605 
L 385.117361 245.935297 
L 386.813925 245.565668 
L 388.51049 221.014633 
L 390.207054 237.660028 
L 391.903618 233.580394 
L 393.600182 241.907838 
L 395.296747 226.341013 
L 396.993311 238.746693 
L 398.689875 222.07112 
L 400.38644 236.679201 
L 402.083004 228.081453 
L 403.779568 234.060921 
L 405.476133 239.140493 
L 407.172697 239.27382 
L 408.869261 238.168769 
L 410.565825 241.62853 
L 412.26239 230.339327 
L 413.958954 230.117199 
L 415.655518 225.689189 
L 417.352083 232.266841 
L 419.048647 230.210511 
L 420.745211 236.279234 
L 422.441776 237.82929 
L 424.13834 243.319278 
L 425.834904 237.55282 
L 427.531469 242.066135 
L 429.228033 238.32755 
L 430.924597 242.696388 
L 432.621161 239.323592 
L 434.317726 243.301599 
L 436.01429 239.951846 
L 437.710854 244.049207 
L 439.407419 237.966087 
L 441.103983 243.160374 
L 442.800547 227.937069 
L 444.497112 227.988895 
L 446.193676 199.842088 
L 447.89024 191.569738 
L 449.586804 177.225774 
L 451.283369 167.268617 
L 452.979933 156.25186 
L 454.676497 189.294746 
L 456.373062 185.302246 
L 458.069626 196.208166 
L 459.76619 206.212764 
L 461.462755 226.537359 
L 463.159319 239.137434 
L 464.855883 245.286066 
L 466.552448 245.499406 
L 468.249012 245.507472 
L 469.945576 245.766901 
L 471.64214 245.735132 
L 473.338705 245.242665 
L 480.124962 245.308377 
L 481.821526 244.566533 
L 483.518091 241.617982 
L 485.214655 235.969342 
L 486.911219 232.134473 
L 488.607784 229.36933 
L 490.304348 227.663969 
L 492.000912 216.831724 
L 493.697476 220.194723 
L 495.394041 240.614181 
L 497.090605 241.98298 
L 498.787169 241.702821 
L 502.180298 244.803394 
L 503.876862 244.782795 
L 505.573427 245.719669 
L 508.966555 245.28654 
L 510.663119 245.385389 
L 514.056248 245.101356 
L 515.752812 245.443619 
L 517.449377 245.476156 
L 519.145941 245.124586 
L 520.842505 245.576003 
L 522.53907 242.909802 
L 524.235634 237.768818 
L 527.628763 228.977211 
L 529.325327 226.162345 
L 531.021891 225.494143 
L 532.718455 214.116644 
L 534.41502 210.327003 
L 537.808148 213.17604 
L 539.504713 227.752159 
L 541.201277 230.929231 
L 542.897841 235.459421 
L 544.594406 242.03799 
L 546.29097 243.852152 
L 547.987534 244.468383 
L 549.684099 244.519568 
L 553.077227 245.171911 
L 554.773791 244.250482 
L 556.470356 244.67336 
L 558.16692 244.205145 
L 559.863484 245.45019 
L 563.256613 229.159516 
L 564.953177 226.928434 
L 566.649742 225.763746 
L 568.346306 226.580328 
L 570.04287 228.235496 
L 571.739434 225.256063 
L 573.435999 221.310337 
L 575.132563 221.512787 
L 576.829127 226.117505 
L 578.525692 215.581082 
L 580.222256 219.312093 
L 581.91882 242.100836 
L 583.615385 244.395006 
L 585.311949 244.898605 
L 587.008513 245.530088 
L 588.705078 245.580348 
L 590.401642 245.752466 
L 593.79477 245.454744 
L 595.491335 245.65551 
L 597.187899 245.565991 
L 598.884463 244.843819 
L 600.581028 243.128375 
L 602.277592 237.575758 
L 603.974156 223.992408 
L 605.670721 213.909648 
L 607.367285 199.266019 
L 609.063849 196.106241 
L 610.760413 187.341501 
L 612.456978 195.934122 
L 614.153542 187.781911 
L 615.850106 184.435104 
L 617.546671 188.28784 
L 619.243235 208.685747 
L 620.939799 233.565146 
L 622.636364 240.427957 
L 622.636364 240.427957 
" clip-path="url(#p14f5d08a61)" style="fill: none; stroke: #2ca02c; stroke-opacity: 0.6; stroke-width: 1.5; stroke-linecap: square"/>
   </g>
   <g id="patch_3">
    <path d="M 90 256.32 
L 90 34.56 
" style="fill: none; stroke: #000000; stroke-width: 0.8; stroke-linejoin: miter; stroke-linecap: square"/>
   </g>
   <g id="patch_4">
    <path d="M 648 256.32 
L 648 34.56 
" style="fill: none; stroke: #000000; stroke-width: 0.8; stroke-linejoin: miter; stroke-linecap: square"/>
   </g>
   <g id="patch_5">
    <path d="M 90 256.32 
L 648 256.32 
" style="fill: none; stroke: #000000; stroke-width: 0.8; stroke-linejoin: miter; stroke-linecap: square"/>
   </g>
   <g id="patch_6">
    <path d="M 90 34.56 
L 648 34.56 
" style="fill: none; stroke: #000000; stroke-width: 0.8; stroke-linejoin: miter; stroke-linecap: square"/>
   </g>
   <g id="legend_1">
    <g id="patch_7">
     <path d="M 529.315625 86.594375 
L 641 86.594375 
Q 643 86.594375 643 84.594375 
L 643 41.56 
Q 643 39.56 641 39.56 
L 529.315625 39.56 
Q 527.315625 39.56 527.315625 41.56 
L 527.315625 84.594375 
Q 527.315625 86.594375 529.315625 86.594375 
z
" style="fill: #ffffff; opacity: 0.8; stroke: #cccccc; stroke-linejoin: miter"/>
    </g>
    <g id="line2d_17">
     <path d="M 531.315625 47.658438 
L 541.315625 47.658438 
L 551.315625 47.658438 
" style="fill: none; stroke: #1f77b4; stroke-opacity: 0.6; stroke-width: 1.5; stroke-linecap: square"/>
    </g>
    <g id="text_16">
     <!-- Observed -->
     <g transform="translate(559.315625 51.158438) scale(0.1 -0.1)">
      <defs>
       <path id="DejaVuSans-4f" d="M 2522 4238 
Q 1834 4238 1429 3725 
Q 1025 3213 1025 2328 
Q 1025 1447 1429 934 
Q 1834 422 2522 422 
Q 3209 422 3611 934 
Q 4013 1447 4013 2328 
Q 4013 3213 3611 3725 
Q 3209 4238 2522 4238 
z
M 2522 4750 
Q 3503 4750 4090 4092 
Q 4678 3434 4678 2328 
Q 4678 1225 4090 567 
Q 3503 -91 2522 -91 
Q 1538 -91 948 565 
Q 359 1222 359 2328 
Q 359 3434 948 4092 
Q 1538 4750 2522 4750 
z
" transform="scale(0.015625)"/>
       <path id="DejaVuSans-62" d="M 3116 1747 
Q 3116 2381 2855 2742 
Q 2594 3103 2138 3103 
Q 1681 3103 1420 2742 
Q 1159 2381 1159 1747 
Q 1159 1113 1420 752 
Q 1681 391 2138 391 
Q 2594 391 2855 752 
Q 3116 1113 3116 1747 
z
M 1159 2969 
Q 1341 3281 1617 3432 
Q 1894 3584 2278 3584 
Q 2916 3584 3314 3078 
Q 3713 2572 3713 1747 
Q 3713 922 3314 415 
Q 2916 -91 2278 -91 
Q 1894 -91 1617 61 
Q 1341 213 1159 525 
L 1159 0 
L 581 0 
L 581 4863 
L 1159 4863 
L 1159 2969 
z
" transform="scale(0.015625)"/>
       <path id="DejaVuSans-72" d="M 2631 2963 
Q 2534 3019 2420 3045 
Q 2306 3072 2169 3072 
Q 1681 3072 1420 2755 
Q 1159 2438 1159 1844 
L 1159 0 
L 581 0 
L 581 3500 
L 1159 3500 
L 1159 2956 
Q 1341 3275 1631 3429 
Q 1922 3584 2338 3584 
Q 2397 3584 2469 3576 
Q 2541 3569 2628 3553 
L 2631 2963 
z
" transform="scale(0.015625)"/>
       <path id="DejaVuSans-76" d="M 191 3500 
L 800 3500 
L 1894 563 
L 2988 3500 
L 3597 3500 
L 2284 0 
L 1503 0 
L 191 3500 
z
" transform="scale(0.015625)"/>
       <path id="DejaVuSans-64" d="M 2906 2969 
L 2906 4863 
L 3481 4863 
L 3481 0 
L 2906 0 
L 2906 525 
Q 2725 213 2448 61 
Q 2172 -91 1784 -91 
Q 1150 -91 751 415 
Q 353 922 353 1747 
Q 353 2572 751 3078 
Q 1150 3584 1784 3584 
Q 2172 3584 2448 3432 
Q 2725 3281 2906 2969 
z
M 947 1747 
Q 947 1113 1208 752 
Q 1469 391 1925 391 
Q 2381 391 2643 752 
Q 2906 1113 2906 1747 
Q 2906 2381 2643 2742 
Q 2381 3103 1925 3103 
Q 1469 3103 1208 2742 
Q 947 2381 947 1747 
z
" transform="scale(0.015625)"/>
      </defs>
      <use xlink:href="#DejaVuSans-4f"/>
      <use xlink:href="#DejaVuSans-62" x="78.710938"/>
      <use xlink:href="#DejaVuSans-73" x="142.1875"/>
      <use xlink:href="#DejaVuSans-65" x="194.287109"/>
      <use xlink:href="#DejaVuSans-72" x="255.810547"/>
      <use xlink:href="#DejaVuSans-76" x="296.923828"/>
      <use xlink:href="#DejaVuSans-65" x="356.103516"/>
      <use xlink:href="#DejaVuSans-64" x="417.626953"/>
     </g>
    </g>
    <g id="line2d_18">
     <path d="M 531.315625 62.336563 
L 541.315625 62.336563 
L 551.315625 62.336563 
" style="fill: none; stroke: #ff7f0e; stroke-opacity: 0.8; stroke-width: 1.8; stroke-linecap: square"/>
    </g>
    <g id="text_17">
     <!-- Hybrid Model -->
     <g transform="translate(559.315625 65.836563) scale(0.1 -0.1)">
      <defs>
       <path id="DejaVuSans-48" d="M 628 4666 
L 1259 4666 
L 1259 2753 
L 3553 2753 
L 3553 4666 
L 4184 4666 
L 4184 0 
L 3553 0 
L 3553 2222 
L 1259 2222 
L 1259 0 
L 628 0 
L 628 4666 
z
" transform="scale(0.015625)"/>
       <path id="DejaVuSans-79" d="M 2059 -325 
Q 1816 -950 1584 -1140 
Q 1353 -1331 966 -1331 
L 506 -1331 
L 506 -850 
L 844 -850 
Q 1081 -850 1212 -737 
Q 1344 -625 1503 -206 
L 1606 56 
L 191 3500 
L 800 3500 
L 1894 763 
L 2988 3500 
L 3597 3500 
L 2059 -325 
z
" transform="scale(0.015625)"/>
       <path id="DejaVuSans-4d" d="M 628 4666 
L 1569 4666 
L 2759 1491 
L 3956 4666 
L 4897 4666 
L 4897 0 
L 4281 0 
L 4281 4097 
L 3078 897 
L 2444 897 
L 1241 4097 
L 1241 0 
L 628 0 
L 628 4666 
z
" transform="scale(0.015625)"/>
       <path id="DejaVuSans-6f" d="M 1959 3097 
Q 1497 3097 1228 2736 
Q 959 2375 959 1747 
Q 959 1119 1226 758 
Q 1494 397 1959 397 
Q 2419 397 2687 759 
Q 2956 1122 2956 1747 
Q 2956 2369 2687 2733 
Q 2419 3097 1959 3097 
z
M 1959 3584 
Q 2709 3584 3137 3096 
Q 3566 2609 3566 1747 
Q 3566 888 3137 398 
Q 2709 -91 1959 -91 
Q 1206 -91 779 398 
Q 353 888 353 1747 
Q 353 2609 779 3096 
Q 1206 3584 1959 3584 
z
" transform="scale(0.015625)"/>
       <path id="DejaVuSans-6c" d="M 603 4863 
L 1178 4863 
L 1178 0 
L 603 0 
L 603 4863 
z
" transform="scale(0.015625)"/>
      </defs>
      <use xlink:href="#DejaVuSans-48"/>
      <use xlink:href="#DejaVuSans-79" x="75.195312"/>
      <use xlink:href="#DejaVuSans-62" x="134.375"/>
      <use xlink:href="#DejaVuSans-72" x="197.851562"/>
      <use xlink:href="#DejaVuSans-69" x="238.964844"/>
      <use xlink:href="#DejaVuSans-64" x="266.748047"/>
      <use xlink:href="#DejaVuSans-20" x="330.224609"/>
      <use xlink:href="#DejaVuSans-4d" x="362.011719"/>
      <use xlink:href="#DejaVuSans-6f" x="448.291016"/>
      <use xlink:href="#DejaVuSans-64" x="509.472656"/>
      <use xlink:href="#DejaVuSans-65" x="572.949219"/>
      <use xlink:href="#DejaVuSans-6c" x="634.472656"/>
     </g>
    </g>
    <g id="line2d_19">
     <path d="M 531.315625 77.014688 
L 541.315625 77.014688 
L 551.315625 77.014688 
" style="fill: none; stroke: #2ca02c; stroke-opacity: 0.6; stroke-width: 1.5; stroke-linecap: square"/>
    </g>
    <g id="text_18">
     <!-- Empirical Model -->
     <g transform="translate(559.315625 80.514688) scale(0.1 -0.1)">
      <defs>
       <path id="DejaVuSans-63" d="M 3122 3366 
L 3122 2828 
Q 2878 2963 2633 3030 
Q 2388 3097 2138 3097 
Q 1578 3097 1268 2742 
Q 959 2388 959 1747 
Q 959 1106 1268 751 
Q 1578 397 2138 397 
Q 2388 397 2633 464 
Q 2878 531 3122 666 
L 3122 134 
Q 2881 22 2623 -34 
Q 2366 -91 2075 -91 
Q 1284 -91 818 406 
Q 353 903 353 1747 
Q 353 2603 823 3093 
Q 1294 3584 2113 3584 
Q 2378 3584 2631 3529 
Q 2884 3475 3122 3366 
z
" transform="scale(0.015625)"/>
       <path id="DejaVuSans-61" d="M 2194 1759 
Q 1497 1759 1228 1600 
Q 959 1441 959 1056 
Q 959 750 1161 570 
Q 1363 391 1709 391 
Q 2188 391 2477 730 
Q 2766 1069 2766 1631 
L 2766 1759 
L 2194 1759 
z
M 3341 1997 
L 3341 0 
L 2766 0 
L 2766 531 
Q 2569 213 2275 61 
Q 1981 -91 1556 -91 
Q 1019 -91 701 211 
Q 384 513 384 1019 
Q 384 1609 779 1909 
Q 1175 2209 1959 2209 
L 2766 2209 
L 2766 2266 
Q 2766 2663 2505 2880 
Q 2244 3097 1772 3097 
Q 1472 3097 1187 3025 
Q 903 2953 641 2809 
L 641 3341 
Q 956 3463 1253 3523 
Q 1550 3584 1831 3584 
Q 2591 3584 2966 3190 
Q 3341 2797 3341 1997 
z
" transform="scale(0.015625)"/>
      </defs>
      <use xlink:href="#DejaVuSans-45"/>
      <use xlink:href="#DejaVuSans-6d" x="63.183594"/>
      <use xlink:href="#DejaVuSans-70" x="160.595703"/>
      <use xlink:href="#DejaVuSans-69" x="224.072266"/>
      <use xlink:href="#DejaVuSans-72" x="251.855469"/>
      <use xlink:href="#DejaVuSans-69" x="292.96875"/>
      <use xlink:href="#DejaVuSans-63" x="320.751953"/>
      <use xlink:href="#DejaVuSans-61" x="375.732422"/>
      <use xlink:href="#DejaVuSans-6c" x="437.011719"/>
      <use xlink:href="#DejaVuSans-20" x="464.794922"/>
      <use xlink:href="#DejaVuSans-4d" x="496.582031"/>
      <use xlink:href="#DejaVuSans-6f" x="582.861328"/>
      <use xlink:href="#DejaVuSans-64" x="644.042969"/>
      <use xlink:href="#DejaVuSans-65" x="707.519531"/>
      <use xlink:href="#DejaVuSans-6c" x="769.042969"/>
     </g>
    </g>
   </g>
  </g>
 </g>
 <defs>
  <clipPath id="p14f5d08a61">
   <rect x="90" y="34.56" width="558" height="221.76"/>
  </clipPath>
 </defs>
</svg>
