<?xml version="1.0" encoding="utf-8" standalone="no"?>
<!DOCTYPE svg PUBLIC "-//W3C//DTD SVG 1.1//EN"
  "http://www.w3.org/Graphics/SVG/1.1/DTD/svg11.dtd">
<svg xmlns:xlink="http://www.w3.org/1999/xlink" width="720pt" height="288pt" viewBox="0 0 720 288" xmlns="http://www.w3.org/2000/svg" version="1.1">
 <metadata>
  <rdf:RDF xmlns:dc="http://purl.org/dc/elements/1.1/" xmlns:cc="http://creativecommons.org/ns#" xmlns:rdf="http://www.w3.org/1999/02/22-rdf-syntax-ns#">
   <cc:Work>
    <dc:type rdf:resource="http://purl.org/dc/dcmitype/StillImage"/>
    <dc:date>2025-01-06T16:19:26.352935</dc:date>
    <dc:format>image/svg+xml</dc:format>
    <dc:creator>
     <cc:Agent>
      <dc:title>Matplotlib v3.6.0, https://matplotlib.org/</dc:title>
     </cc:Agent>
    </dc:creator>
   </cc:Work>
  </rdf:RDF>
 </metadata>
 <defs>
  <style type="text/css">*{stroke-linejoin: round; stroke-linecap: butt}</style>
 </defs>
 <g id="figure_1">
  <g id="patch_1">
   <path d="M 0 288 
L 720 288 
L 720 0 
L 0 0 
z
" style="fill: #ffffff"/>
  </g>
  <g id="axes_1">
   <g id="patch_2">
    <path d="M 90 256.32 
L 648 256.32 
L 648 34.56 
L 90 34.56 
z
" style="fill: #ffffff"/>
   </g>
   <g id="matplotlib.axis_1">
    <g id="xtick_1">
     <g id="line2d_1">
      <defs>
       <path id="mb06038b9d6" d="M 0 0 
L 0 3.5 
" style="stroke: #000000; stroke-width: 0.8"/>
      </defs>
      <g>
       <use xlink:href="#mb06038b9d6" x="115.363636" y="256.32" style="stroke: #000000; stroke-width: 0.8"/>
      </g>
     </g>
     <g id="text_1">
      <!-- 0 -->
      <g transform="translate(112.182386 270.918437) scale(0.1 -0.1)">
       <defs>
        <path id="DejaVuSans-30" d="M 2034 4250 
Q 1547 4250 1301 3770 
Q 1056 3291 1056 2328 
Q 1056 1369 1301 889 
Q 1547 409 2034 409 
Q 2525 409 2770 889 
Q 3016 1369 3016 2328 
Q 3016 3291 2770 3770 
Q 2525 4250 2034 4250 
z
M 2034 4750 
Q 2819 4750 3233 4129 
Q 3647 3509 3647 2328 
Q 3647 1150 3233 529 
Q 2819 -91 2034 -91 
Q 1250 -91 836 529 
Q 422 1150 422 2328 
Q 422 3509 836 4129 
Q 1250 4750 2034 4750 
z
" transform="scale(0.015625)"/>
       </defs>
       <use xlink:href="#DejaVuSans-30"/>
      </g>
     </g>
    </g>
    <g id="xtick_2">
     <g id="line2d_2">
      <g>
       <use xlink:href="#mb06038b9d6" x="200.191852" y="256.32" style="stroke: #000000; stroke-width: 0.8"/>
      </g>
     </g>
     <g id="text_2">
      <!-- 50 -->
      <g transform="translate(193.829352 270.918437) scale(0.1 -0.1)">
       <defs>
        <path id="DejaVuSans-35" d="M 691 4666 
L 3169 4666 
L 3169 4134 
L 1269 4134 
L 1269 2991 
Q 1406 3038 1543 3061 
Q 1681 3084 1819 3084 
Q 2600 3084 3056 2656 
Q 3513 2228 3513 1497 
Q 3513 744 3044 326 
Q 2575 -91 1722 -91 
Q 1428 -91 1123 -41 
Q 819 9 494 109 
L 494 744 
Q 775 591 1075 516 
Q 1375 441 1709 441 
Q 2250 441 2565 725 
Q 2881 1009 2881 1497 
Q 2881 1984 2565 2268 
Q 2250 2553 1709 2553 
Q 1456 2553 1204 2497 
Q 953 2441 691 2322 
L 691 4666 
z
" transform="scale(0.015625)"/>
       </defs>
       <use xlink:href="#DejaVuSans-35"/>
       <use xlink:href="#DejaVuSans-30" x="63.623047"/>
      </g>
     </g>
    </g>
    <g id="xtick_3">
     <g id="line2d_3">
      <g>
       <use xlink:href="#mb06038b9d6" x="285.020067" y="256.32" style="stroke: #000000; stroke-width: 0.8"/>
      </g>
     </g>
     <g id="text_3">
      <!-- 100 -->
      <g transform="translate(275.476317 270.918437) scale(0.1 -0.1)">
       <defs>
        <path id="DejaVuSans-31" d="M 794 531 
L 1825 531 
L 1825 4091 
L 703 3866 
L 703 4441 
L 1819 4666 
L 2450 4666 
L 2450 531 
L 3481 531 
L 3481 0 
L 794 0 
L 794 531 
z
" transform="scale(0.015625)"/>
       </defs>
       <use xlink:href="#DejaVuSans-31"/>
       <use xlink:href="#DejaVuSans-30" x="63.623047"/>
       <use xlink:href="#DejaVuSans-30" x="127.246094"/>
      </g>
     </g>
    </g>
    <g id="xtick_4">
     <g id="line2d_4">
      <g>
       <use xlink:href="#mb06038b9d6" x="369.848282" y="256.32" style="stroke: #000000; stroke-width: 0.8"/>
      </g>
     </g>
     <g id="text_4">
      <!-- 150 -->
      <g transform="translate(360.304532 270.918437) scale(0.1 -0.1)">
       <use xlink:href="#DejaVuSans-31"/>
       <use xlink:href="#DejaVuSans-35" x="63.623047"/>
       <use xlink:href="#DejaVuSans-30" x="127.246094"/>
      </g>
     </g>
    </g>
    <g id="xtick_5">
     <g id="line2d_5">
      <g>
       <use xlink:href="#mb06038b9d6" x="454.676497" y="256.32" style="stroke: #000000; stroke-width: 0.8"/>
      </g>
     </g>
     <g id="text_5">
      <!-- 200 -->
      <g transform="translate(445.132747 270.918437) scale(0.1 -0.1)">
       <defs>
        <path id="DejaVuSans-32" d="M 1228 531 
L 3431 531 
L 3431 0 
L 469 0 
L 469 531 
Q 828 903 1448 1529 
Q 2069 2156 2228 2338 
Q 2531 2678 2651 2914 
Q 2772 3150 2772 3378 
Q 2772 3750 2511 3984 
Q 2250 4219 1831 4219 
Q 1534 4219 1204 4116 
Q 875 4013 500 3803 
L 500 4441 
Q 881 4594 1212 4672 
Q 1544 4750 1819 4750 
Q 2544 4750 2975 4387 
Q 3406 4025 3406 3419 
Q 3406 3131 3298 2873 
Q 3191 2616 2906 2266 
Q 2828 2175 2409 1742 
Q 1991 1309 1228 531 
z
" transform="scale(0.015625)"/>
       </defs>
       <use xlink:href="#DejaVuSans-32"/>
       <use xlink:href="#DejaVuSans-30" x="63.623047"/>
       <use xlink:href="#DejaVuSans-30" x="127.246094"/>
      </g>
     </g>
    </g>
    <g id="xtick_6">
     <g id="line2d_6">
      <g>
       <use xlink:href="#mb06038b9d6" x="539.504713" y="256.32" style="stroke: #000000; stroke-width: 0.8"/>
      </g>
     </g>
     <g id="text_6">
      <!-- 250 -->
      <g transform="translate(529.960963 270.918437) scale(0.1 -0.1)">
       <use xlink:href="#DejaVuSans-32"/>
       <use xlink:href="#DejaVuSans-35" x="63.623047"/>
       <use xlink:href="#DejaVuSans-30" x="127.246094"/>
      </g>
     </g>
    </g>
    <g id="xtick_7">
     <g id="line2d_7">
      <g>
       <use xlink:href="#mb06038b9d6" x="624.332928" y="256.32" style="stroke: #000000; stroke-width: 0.8"/>
      </g>
     </g>
     <g id="text_7">
      <!-- 300 -->
      <g transform="translate(614.789178 270.918437) scale(0.1 -0.1)">
       <defs>
        <path id="DejaVuSans-33" d="M 2597 2516 
Q 3050 2419 3304 2112 
Q 3559 1806 3559 1356 
Q 3559 666 3084 287 
Q 2609 -91 1734 -91 
Q 1441 -91 1130 -33 
Q 819 25 488 141 
L 488 750 
Q 750 597 1062 519 
Q 1375 441 1716 441 
Q 2309 441 2620 675 
Q 2931 909 2931 1356 
Q 2931 1769 2642 2001 
Q 2353 2234 1838 2234 
L 1294 2234 
L 1294 2753 
L 1863 2753 
Q 2328 2753 2575 2939 
Q 2822 3125 2822 3475 
Q 2822 3834 2567 4026 
Q 2313 4219 1838 4219 
Q 1578 4219 1281 4162 
Q 984 4106 628 3988 
L 628 4550 
Q 988 4650 1302 4700 
Q 1616 4750 1894 4750 
Q 2613 4750 3031 4423 
Q 3450 4097 3450 3541 
Q 3450 3153 3228 2886 
Q 3006 2619 2597 2516 
z
" transform="scale(0.015625)"/>
       </defs>
       <use xlink:href="#DejaVuSans-33"/>
       <use xlink:href="#DejaVuSans-30" x="63.623047"/>
       <use xlink:href="#DejaVuSans-30" x="127.246094"/>
      </g>
     </g>
    </g>
    <g id="text_8">
     <!-- Timestep -->
     <g transform="translate(345.950781 284.596563) scale(0.1 -0.1)">
      <defs>
       <path id="DejaVuSans-54" d="M -19 4666 
L 3928 4666 
L 3928 4134 
L 2272 4134 
L 2272 0 
L 1638 0 
L 1638 4134 
L -19 4134 
L -19 4666 
z
" transform="scale(0.015625)"/>
       <path id="DejaVuSans-69" d="M 603 3500 
L 1178 3500 
L 1178 0 
L 603 0 
L 603 3500 
z
M 603 4863 
L 1178 4863 
L 1178 4134 
L 603 4134 
L 603 4863 
z
" transform="scale(0.015625)"/>
       <path id="DejaVuSans-6d" d="M 3328 2828 
Q 3544 3216 3844 3400 
Q 4144 3584 4550 3584 
Q 5097 3584 5394 3201 
Q 5691 2819 5691 2113 
L 5691 0 
L 5113 0 
L 5113 2094 
Q 5113 2597 4934 2840 
Q 4756 3084 4391 3084 
Q 3944 3084 3684 2787 
Q 3425 2491 3425 1978 
L 3425 0 
L 2847 0 
L 2847 2094 
Q 2847 2600 2669 2842 
Q 2491 3084 2119 3084 
Q 1678 3084 1418 2786 
Q 1159 2488 1159 1978 
L 1159 0 
L 581 0 
L 581 3500 
L 1159 3500 
L 1159 2956 
Q 1356 3278 1631 3431 
Q 1906 3584 2284 3584 
Q 2666 3584 2933 3390 
Q 3200 3197 3328 2828 
z
" transform="scale(0.015625)"/>
       <path id="DejaVuSans-65" d="M 3597 1894 
L 3597 1613 
L 953 1613 
Q 991 1019 1311 708 
Q 1631 397 2203 397 
Q 2534 397 2845 478 
Q 3156 559 3463 722 
L 3463 178 
Q 3153 47 2828 -22 
Q 2503 -91 2169 -91 
Q 1331 -91 842 396 
Q 353 884 353 1716 
Q 353 2575 817 3079 
Q 1281 3584 2069 3584 
Q 2775 3584 3186 3129 
Q 3597 2675 3597 1894 
z
M 3022 2063 
Q 3016 2534 2758 2815 
Q 2500 3097 2075 3097 
Q 1594 3097 1305 2825 
Q 1016 2553 972 2059 
L 3022 2063 
z
" transform="scale(0.015625)"/>
       <path id="DejaVuSans-73" d="M 2834 3397 
L 2834 2853 
Q 2591 2978 2328 3040 
Q 2066 3103 1784 3103 
Q 1356 3103 1142 2972 
Q 928 2841 928 2578 
Q 928 2378 1081 2264 
Q 1234 2150 1697 2047 
L 1894 2003 
Q 2506 1872 2764 1633 
Q 3022 1394 3022 966 
Q 3022 478 2636 193 
Q 2250 -91 1575 -91 
Q 1294 -91 989 -36 
Q 684 19 347 128 
L 347 722 
Q 666 556 975 473 
Q 1284 391 1588 391 
Q 1994 391 2212 530 
Q 2431 669 2431 922 
Q 2431 1156 2273 1281 
Q 2116 1406 1581 1522 
L 1381 1569 
Q 847 1681 609 1914 
Q 372 2147 372 2553 
Q 372 3047 722 3315 
Q 1072 3584 1716 3584 
Q 2034 3584 2315 3537 
Q 2597 3491 2834 3397 
z
" transform="scale(0.015625)"/>
       <path id="DejaVuSans-74" d="M 1172 4494 
L 1172 3500 
L 2356 3500 
L 2356 3053 
L 1172 3053 
L 1172 1153 
Q 1172 725 1289 603 
Q 1406 481 1766 481 
L 2356 481 
L 2356 0 
L 1766 0 
Q 1100 0 847 248 
Q 594 497 594 1153 
L 594 3053 
L 172 3053 
L 172 3500 
L 594 3500 
L 594 4494 
L 1172 4494 
z
" transform="scale(0.015625)"/>
       <path id="DejaVuSans-70" d="M 1159 525 
L 1159 -1331 
L 581 -1331 
L 581 3500 
L 1159 3500 
L 1159 2969 
Q 1341 3281 1617 3432 
Q 1894 3584 2278 3584 
Q 2916 3584 3314 3078 
Q 3713 2572 3713 1747 
Q 3713 922 3314 415 
Q 2916 -91 2278 -91 
Q 1894 -91 1617 61 
Q 1341 213 1159 525 
z
M 3116 1747 
Q 3116 2381 2855 2742 
Q 2594 3103 2138 3103 
Q 1681 3103 1420 2742 
Q 1159 2381 1159 1747 
Q 1159 1113 1420 752 
Q 1681 391 2138 391 
Q 2594 391 2855 752 
Q 3116 1113 3116 1747 
z
" transform="scale(0.015625)"/>
      </defs>
      <use xlink:href="#DejaVuSans-54"/>
      <use xlink:href="#DejaVuSans-69" x="57.958984"/>
      <use xlink:href="#DejaVuSans-6d" x="85.742188"/>
      <use xlink:href="#DejaVuSans-65" x="183.154297"/>
      <use xlink:href="#DejaVuSans-73" x="244.677734"/>
      <use xlink:href="#DejaVuSans-74" x="296.777344"/>
      <use xlink:href="#DejaVuSans-65" x="335.986328"/>
      <use xlink:href="#DejaVuSans-70" x="397.509766"/>
     </g>
    </g>
   </g>
   <g id="matplotlib.axis_2">
    <g id="ytick_1">
     <g id="line2d_8">
      <defs>
       <path id="m3939a4ff29" d="M 0 0 
L -3.5 0 
" style="stroke: #000000; stroke-width: 0.8"/>
      </defs>
      <g>
       <use xlink:href="#m3939a4ff29" x="90" y="245.618794" style="stroke: #000000; stroke-width: 0.8"/>
      </g>
     </g>
     <g id="text_9">
      <!-- 0 -->
      <g transform="translate(76.6375 249.418013) scale(0.1 -0.1)">
       <use xlink:href="#DejaVuSans-30"/>
      </g>
     </g>
    </g>
    <g id="ytick_2">
     <g id="line2d_9">
      <g>
       <use xlink:href="#m3939a4ff29" x="90" y="197.304085" style="stroke: #000000; stroke-width: 0.8"/>
      </g>
     </g>
     <g id="text_10">
      <!-- 100 -->
      <g transform="translate(63.9125 201.103304) scale(0.1 -0.1)">
       <use xlink:href="#DejaVuSans-31"/>
       <use xlink:href="#DejaVuSans-30" x="63.623047"/>
       <use xlink:href="#DejaVuSans-30" x="127.246094"/>
      </g>
     </g>
    </g>
    <g id="ytick_3">
     <g id="line2d_10">
      <g>
       <use xlink:href="#m3939a4ff29" x="90" y="148.989376" style="stroke: #000000; stroke-width: 0.8"/>
      </g>
     </g>
     <g id="text_11">
      <!-- 200 -->
      <g transform="translate(63.9125 152.788595) scale(0.1 -0.1)">
       <use xlink:href="#DejaVuSans-32"/>
       <use xlink:href="#DejaVuSans-30" x="63.623047"/>
       <use xlink:href="#DejaVuSans-30" x="127.246094"/>
      </g>
     </g>
    </g>
    <g id="ytick_4">
     <g id="line2d_11">
      <g>
       <use xlink:href="#m3939a4ff29" x="90" y="100.674667" style="stroke: #000000; stroke-width: 0.8"/>
      </g>
     </g>
     <g id="text_12">
      <!-- 300 -->
      <g transform="translate(63.9125 104.473886) scale(0.1 -0.1)">
       <use xlink:href="#DejaVuSans-33"/>
       <use xlink:href="#DejaVuSans-30" x="63.623047"/>
       <use xlink:href="#DejaVuSans-30" x="127.246094"/>
      </g>
     </g>
    </g>
    <g id="ytick_5">
     <g id="line2d_12">
      <g>
       <use xlink:href="#m3939a4ff29" x="90" y="52.359959" style="stroke: #000000; stroke-width: 0.8"/>
      </g>
     </g>
     <g id="text_13">
      <!-- 400 -->
      <g transform="translate(63.9125 56.159177) scale(0.1 -0.1)">
       <defs>
        <path id="DejaVuSans-34" d="M 2419 4116 
L 825 1625 
L 2419 1625 
L 2419 4116 
z
M 2253 4666 
L 3047 4666 
L 3047 1625 
L 3713 1625 
L 3713 1100 
L 3047 1100 
L 3047 0 
L 2419 0 
L 2419 1100 
L 313 1100 
L 313 1709 
L 2253 4666 
z
" transform="scale(0.015625)"/>
       </defs>
       <use xlink:href="#DejaVuSans-34"/>
       <use xlink:href="#DejaVuSans-30" x="63.623047"/>
       <use xlink:href="#DejaVuSans-30" x="127.246094"/>
      </g>
     </g>
    </g>
    <g id="text_14">
     <!-- Q_LE [W/m²] -->
     <g transform="translate(57.554687 176.815) rotate(-90) scale(0.1 -0.1)">
      <defs>
       <path id="DejaVuSans-51" d="M 2522 4238 
Q 1834 4238 1429 3725 
Q 1025 3213 1025 2328 
Q 1025 1447 1429 934 
Q 1834 422 2522 422 
Q 3209 422 3611 934 
Q 4013 1447 4013 2328 
Q 4013 3213 3611 3725 
Q 3209 4238 2522 4238 
z
M 3406 84 
L 4238 -825 
L 3475 -825 
L 2784 -78 
Q 2681 -84 2626 -87 
Q 2572 -91 2522 -91 
Q 1538 -91 948 567 
Q 359 1225 359 2328 
Q 359 3434 948 4092 
Q 1538 4750 2522 4750 
Q 3503 4750 4090 4092 
Q 4678 3434 4678 2328 
Q 4678 1516 4351 937 
Q 4025 359 3406 84 
z
" transform="scale(0.015625)"/>
       <path id="DejaVuSans-5f" d="M 3263 -1063 
L 3263 -1509 
L -63 -1509 
L -63 -1063 
L 3263 -1063 
z
" transform="scale(0.015625)"/>
       <path id="DejaVuSans-4c" d="M 628 4666 
L 1259 4666 
L 1259 531 
L 3531 531 
L 3531 0 
L 628 0 
L 628 4666 
z
" transform="scale(0.015625)"/>
       <path id="DejaVuSans-45" d="M 628 4666 
L 3578 4666 
L 3578 4134 
L 1259 4134 
L 1259 2753 
L 3481 2753 
L 3481 2222 
L 1259 2222 
L 1259 531 
L 3634 531 
L 3634 0 
L 628 0 
L 628 4666 
z
" transform="scale(0.015625)"/>
       <path id="DejaVuSans-20" transform="scale(0.015625)"/>
       <path id="DejaVuSans-5b" d="M 550 4863 
L 1875 4863 
L 1875 4416 
L 1125 4416 
L 1125 -397 
L 1875 -397 
L 1875 -844 
L 550 -844 
L 550 4863 
z
" transform="scale(0.015625)"/>
       <path id="DejaVuSans-57" d="M 213 4666 
L 850 4666 
L 1831 722 
L 2809 4666 
L 3519 4666 
L 4500 722 
L 5478 4666 
L 6119 4666 
L 4947 0 
L 4153 0 
L 3169 4050 
L 2175 0 
L 1381 0 
L 213 4666 
z
" transform="scale(0.015625)"/>
       <path id="DejaVuSans-2f" d="M 1625 4666 
L 2156 4666 
L 531 -594 
L 0 -594 
L 1625 4666 
z
" transform="scale(0.015625)"/>
       <path id="DejaVuSans-b2" d="M 838 2444 
L 2163 2444 
L 2163 2088 
L 294 2088 
L 294 2431 
Q 400 2528 597 2703 
Q 1672 3656 1672 3950 
Q 1672 4156 1509 4282 
Q 1347 4409 1081 4409 
Q 919 4409 728 4354 
Q 538 4300 313 4191 
L 313 4575 
Q 553 4663 761 4706 
Q 969 4750 1147 4750 
Q 1600 4750 1872 4544 
Q 2144 4338 2144 4000 
Q 2144 3566 1109 2678 
Q 934 2528 838 2444 
z
" transform="scale(0.015625)"/>
       <path id="DejaVuSans-5d" d="M 1947 4863 
L 1947 -844 
L 622 -844 
L 622 -397 
L 1369 -397 
L 1369 4416 
L 622 4416 
L 622 4863 
L 1947 4863 
z
" transform="scale(0.015625)"/>
      </defs>
      <use xlink:href="#DejaVuSans-51"/>
      <use xlink:href="#DejaVuSans-5f" x="78.710938"/>
      <use xlink:href="#DejaVuSans-4c" x="128.710938"/>
      <use xlink:href="#DejaVuSans-45" x="184.423828"/>
      <use xlink:href="#DejaVuSans-20" x="247.607422"/>
      <use xlink:href="#DejaVuSans-5b" x="279.394531"/>
      <use xlink:href="#DejaVuSans-57" x="318.408203"/>
      <use xlink:href="#DejaVuSans-2f" x="417.285156"/>
      <use xlink:href="#DejaVuSans-6d" x="450.976562"/>
      <use xlink:href="#DejaVuSans-b2" x="548.388672"/>
      <use xlink:href="#DejaVuSans-5d" x="588.476562"/>
     </g>
    </g>
   </g>
   <g id="line2d_13">
    <path d="M 115.363636 228.936426 
L 117.060201 230.485105 
L 118.756765 229.362175 
L 120.453329 230.61739 
L 122.149894 228.858783 
L 123.846458 234.2272 
L 125.543022 242.531267 
L 127.239587 245.028342 
L 135.722408 244.977641 
L 147.598358 244.554786 
L 149.294922 242.166002 
L 150.991487 232.710384 
L 152.688051 230.773158 
L 154.384615 231.006155 
L 156.08118 231.06348 
L 157.777744 229.558816 
L 159.474308 229.45721 
L 161.170873 226.654425 
L 162.867437 228.251637 
L 164.564001 232.213709 
L 166.260566 244.276355 
L 167.95713 244.614075 
L 183.226209 243.863318 
L 184.922773 243.220966 
L 186.619337 244.423444 
L 188.315901 244.366612 
L 190.012466 237.773586 
L 191.70903 226.166423 
L 193.405594 225.007909 
L 195.102159 228.868301 
L 196.798723 230.994318 
L 198.495287 230.687713 
L 200.191852 229.766737 
L 201.888416 229.833436 
L 203.58498 231.991413 
L 205.281545 227.090271 
L 206.978109 238.060417 
L 208.674673 244.39274 
L 215.46093 244.388018 
L 227.336881 244.302706 
L 229.033445 244.19401 
L 230.730009 232.115847 
L 232.426573 228.142325 
L 234.123138 227.039976 
L 235.819702 227.096094 
L 237.516266 229.048589 
L 239.212831 228.071834 
L 240.909395 228.571384 
L 242.605959 229.60114 
L 244.302524 229.318763 
L 245.999088 228.682847 
L 247.695652 240.661188 
L 249.392216 244.332168 
L 259.571602 244.260411 
L 262.964731 244.106203 
L 268.054424 244.013463 
L 269.750988 243.828541 
L 271.447552 232.736522 
L 273.144117 220.363029 
L 274.840681 225.288762 
L 276.537245 228.800226 
L 278.23381 228.525895 
L 279.930374 229.068566 
L 281.626938 232.279127 
L 283.323503 228.910577 
L 285.020067 226.336781 
L 286.716631 228.085797 
L 288.413196 238.637091 
L 290.10976 244.090829 
L 293.502888 244.164236 
L 298.592581 244.243673 
L 305.378839 244.606649 
L 310.468531 244.372117 
L 312.165096 237.76877 
L 313.86166 219.747451 
L 315.558224 226.322309 
L 317.254789 230.903679 
L 318.951353 230.254934 
L 320.647917 225.205877 
L 322.344482 225.205877 
L 324.041046 231.352233 
L 325.73761 230.256287 
L 327.434175 231.235095 
L 329.130739 236.816603 
L 330.827303 244.557745 
L 332.523867 244.847399 
L 334.220432 244.965854 
L 351.186075 244.737159 
L 352.882639 239.617049 
L 354.579203 224.359452 
L 356.275768 229.735938 
L 357.972332 231.004874 
L 359.668896 229.175463 
L 361.365461 229.389255 
L 363.062025 223.032851 
L 364.758589 227.454735 
L 366.455154 229.871991 
L 371.544846 244.884681 
L 376.634539 245.026815 
L 390.207054 244.975604 
L 391.903618 244.848483 
L 393.600182 242.601134 
L 395.296747 234.503246 
L 396.993311 235.068456 
L 398.689875 226.900951 
L 400.38644 230.839542 
L 402.083004 223.871933 
L 403.779568 227.552813 
L 407.172697 229.975191 
L 408.869261 233.498324 
L 410.565825 240.996134 
L 412.26239 244.948867 
L 415.655518 245.024569 
L 425.834904 244.853593 
L 430.924597 244.629231 
L 432.621161 244.371308 
L 434.317726 235.163418 
L 436.01429 219.478434 
L 437.710854 230.495927 
L 439.407419 227.036692 
L 441.103983 228.913646 
L 442.800547 213.34836 
L 444.497112 206.507021 
L 446.193676 229.99691 
L 447.89024 220.939761 
L 449.586804 226.996686 
L 451.283369 234.724866 
L 452.979933 244.614075 
L 468.249012 243.863318 
L 469.945576 243.220966 
L 471.64214 244.156404 
L 473.338705 241.466961 
L 475.035269 233.262935 
L 476.731833 231.056475 
L 478.428398 226.867759 
L 480.124962 227.973779 
L 481.821526 212.103749 
L 483.518091 199.532385 
L 485.214655 226.968399 
L 488.607784 228.164259 
L 490.304348 231.158105 
L 492.000912 242.893112 
L 493.697476 243.967271 
L 508.966555 244.128169 
L 512.359684 244.13917 
L 514.056248 244.017835 
L 517.449377 222.368934 
L 519.145941 224.997739 
L 520.842505 227.377164 
L 522.53907 228.379357 
L 524.235634 219.316074 
L 525.932198 226.982821 
L 527.628763 226.930592 
L 529.325327 227.893916 
L 531.021891 238.194569 
L 532.718455 242.793693 
L 534.41502 243.917788 
L 537.808148 244.022647 
L 542.897841 244.066894 
L 553.077227 243.983401 
L 554.773791 243.88798 
L 556.470356 237.961217 
L 558.16692 221.939054 
L 559.863484 227.363951 
L 561.560049 222.633434 
L 563.256613 223.756677 
L 564.953177 224.322563 
L 566.649742 214.241533 
L 568.346306 224.935993 
L 570.04287 225.035134 
L 571.739434 230.287039 
L 573.435999 242.758768 
L 575.132563 243.817766 
L 578.525692 243.85156 
L 583.615385 243.88531 
L 593.79477 244.093361 
L 595.491335 243.988238 
L 597.187899 243.423248 
L 598.884463 235.120322 
L 600.581028 222.717863 
L 602.277592 212.784044 
L 603.974156 210.090353 
L 605.670721 209.648808 
L 607.367285 212.662823 
L 609.063849 219.521435 
L 610.760413 221.002232 
L 614.153542 243.628605 
L 615.850106 244.106676 
L 617.546671 243.386466 
L 619.243235 244.426128 
L 620.939799 244.804809 
L 622.636364 244.969637 
L 622.636364 244.969637 
" clip-path="url(#p4d96ed2178)" style="fill: none; stroke: #1f77b4; stroke-opacity: 0.6; stroke-width: 1.5; stroke-linecap: square"/>
   </g>
   <g id="line2d_14">
    <path d="M 115.363636 222.353855 
L 117.060201 224.464289 
L 118.756765 224.810311 
L 122.149894 221.952818 
L 123.846458 218.566344 
L 125.543022 220.994388 
L 127.239587 245.167789 
L 130.632715 245.381721 
L 139.115537 245.468367 
L 147.598358 245.437195 
L 149.294922 244.529073 
L 150.991487 236.955389 
L 152.688051 231.431702 
L 154.384615 225.275506 
L 156.08118 220.713376 
L 157.777744 218.365714 
L 159.474308 217.390809 
L 161.170873 215.72514 
L 162.867437 222.539493 
L 164.564001 220.584521 
L 166.260566 242.567295 
L 167.95713 245.226234 
L 169.653694 245.350305 
L 173.046823 245.381569 
L 178.136516 245.603962 
L 179.83308 245.490222 
L 188.315901 245.448395 
L 190.012466 241.341014 
L 191.70903 238.847246 
L 193.405594 228.893656 
L 195.102159 220.768005 
L 196.798723 213.544904 
L 200.191852 191.064332 
L 201.888416 179.728541 
L 203.58498 157.393375 
L 205.281545 183.998251 
L 206.978109 239.909905 
L 208.674673 245.081097 
L 212.067802 245.355113 
L 225.640316 245.608421 
L 229.033445 245.504629 
L 230.730009 244.585457 
L 232.426573 242.922059 
L 234.123138 227.644207 
L 235.819702 206.132058 
L 237.516266 202.265646 
L 239.212831 221.766046 
L 240.909395 210.061436 
L 244.302524 226.122492 
L 245.999088 232.575733 
L 247.695652 232.697985 
L 249.392216 245.046505 
L 251.088781 245.312873 
L 256.178474 245.485183 
L 259.571602 245.456258 
L 261.268167 245.307055 
L 266.35786 245.613888 
L 269.750988 245.61307 
L 271.447552 238.520737 
L 273.144117 240.992295 
L 274.840681 231.618609 
L 276.537245 223.431794 
L 278.23381 222.698509 
L 279.930374 220.03439 
L 281.626938 210.036912 
L 283.323503 163.397261 
L 285.020067 194.025031 
L 286.716631 230.884593 
L 288.413196 240.33182 
L 290.10976 244.656722 
L 291.806324 245.219428 
L 295.199453 245.412201 
L 303.682274 245.606867 
L 310.468531 245.525396 
L 312.165096 244.909215 
L 313.86166 243.352262 
L 315.558224 233.120167 
L 317.254789 205.174415 
L 318.951353 213.500438 
L 320.647917 215.717573 
L 322.344482 218.374294 
L 324.041046 225.392279 
L 329.130739 240.610208 
L 330.827303 244.785927 
L 332.523867 245.244653 
L 335.916996 245.421999 
L 337.61356 245.437687 
L 341.006689 245.608518 
L 344.399818 245.534138 
L 349.48951 245.547478 
L 351.186075 244.376322 
L 352.882639 244.145058 
L 354.579203 228.339085 
L 356.275768 224.284084 
L 357.972332 216.099169 
L 359.668896 203.52606 
L 361.365461 227.676381 
L 363.062025 217.620877 
L 364.758589 144.959975 
L 366.455154 176.577351 
L 368.151718 238.737467 
L 369.848282 240.896033 
L 371.544846 245.232755 
L 374.937975 245.449649 
L 386.813925 245.598636 
L 390.207054 245.574418 
L 391.903618 245.149156 
L 393.600182 245.17033 
L 395.296747 231.603998 
L 396.993311 236.348948 
L 398.689875 238.060102 
L 400.38644 223.225732 
L 402.083004 228.373037 
L 403.779568 222.189881 
L 405.476133 221.881277 
L 407.172697 221.454657 
L 408.869261 220.009993 
L 410.565825 224.989342 
L 412.26239 245.205314 
L 417.352083 245.608113 
L 419.048647 245.609582 
L 420.745211 245.986542 
L 422.441776 245.575719 
L 429.228033 245.616078 
L 432.621161 245.614549 
L 436.01429 226.14144 
L 437.710854 219.75439 
L 439.407419 215.007176 
L 441.103983 211.72556 
L 442.800547 212.196009 
L 444.497112 209.166914 
L 447.89024 198.277704 
L 449.586804 188.135994 
L 451.283369 212.511895 
L 452.979933 245.212882 
L 456.373062 245.456873 
L 459.76619 245.477884 
L 461.462755 245.606252 
L 464.855883 245.469342 
L 466.552448 245.613944 
L 473.338705 245.603197 
L 475.035269 238.10561 
L 476.731833 242.646349 
L 478.428398 239.462677 
L 480.124962 159.276341 
L 481.821526 96.653583 
L 483.518091 81.150102 
L 485.214655 130.559699 
L 486.911219 215.481792 
L 488.607784 232.056869 
L 490.304348 226.780536 
L 492.000912 243.218717 
L 493.697476 245.238837 
L 497.090605 245.360284 
L 503.876862 245.457134 
L 505.573427 245.317476 
L 510.663119 245.529928 
L 512.359684 245.605507 
L 514.056248 246.0591 
L 515.752812 231.164221 
L 517.449377 238.975754 
L 519.145941 224.827241 
L 520.842505 214.600793 
L 522.53907 198.503342 
L 524.235634 209.236744 
L 525.932198 209.477975 
L 527.628763 216.788092 
L 529.325327 233.052205 
L 531.021891 241.522597 
L 532.718455 243.905723 
L 534.41502 245.322206 
L 537.808148 245.466773 
L 544.594406 245.531307 
L 546.29097 245.489109 
L 549.684099 245.574691 
L 554.773791 245.596726 
L 556.470356 244.960478 
L 558.16692 242.264179 
L 559.863484 240.169865 
L 561.560049 230.545759 
L 563.256613 229.196788 
L 564.953177 229.473482 
L 566.649742 224.406478 
L 568.346306 237.498721 
L 570.04287 239.581647 
L 571.739434 242.255382 
L 573.435999 244.066736 
L 575.132563 245.281022 
L 578.525692 245.40293 
L 593.79477 245.499031 
L 595.491335 245.267896 
L 597.187899 245.163702 
L 598.884463 244.831915 
L 600.581028 243.989092 
L 602.277592 242.54903 
L 603.974156 241.946991 
L 605.670721 239.017909 
L 607.367285 234.127828 
L 609.063849 220.022922 
L 610.760413 216.042899 
L 612.456978 220.963382 
L 614.153542 242.650455 
L 615.850106 245.354798 
L 620.939799 245.497249 
L 622.636364 245.501047 
L 622.636364 245.501047 
" clip-path="url(#p4d96ed2178)" style="fill: none; stroke: #ff7f0e; stroke-opacity: 0.8; stroke-width: 1.8; stroke-linecap: square"/>
   </g>
   <g id="line2d_15">
    <path d="M 115.363636 156.450731 
L 117.060201 125.143536 
L 118.756765 125.052149 
L 120.453329 119.16796 
L 122.149894 133.36996 
L 123.846458 188.651247 
L 125.543022 231.29343 
L 127.239587 243.9205 
L 128.936151 244.365138 
L 132.329279 244.869061 
L 134.025844 245.04412 
L 147.598358 244.89917 
L 149.294922 238.808404 
L 150.991487 213.14016 
L 152.688051 201.348267 
L 154.384615 165.286788 
L 156.08118 154.23112 
L 157.777744 137.534331 
L 159.474308 133.686531 
L 161.170873 162.533986 
L 162.867437 198.099553 
L 164.564001 225.055366 
L 166.260566 239.867709 
L 167.95713 244.126144 
L 169.653694 244.540685 
L 171.350258 244.544012 
L 174.743387 244.933817 
L 176.439951 245.348335 
L 178.136516 245.60276 
L 179.83308 245.256009 
L 183.226209 245.129092 
L 186.619337 245.214368 
L 188.315901 244.976929 
L 190.012466 236.975261 
L 191.70903 209.301509 
L 193.405594 167.326856 
L 195.102159 128.275359 
L 196.798723 116.377759 
L 198.495287 102.272925 
L 200.191852 176.07668 
L 201.888416 180.19628 
L 203.58498 209.585912 
L 205.281545 218.71676 
L 206.978109 237.222108 
L 208.674673 243.764154 
L 210.371237 244.342922 
L 212.067802 244.67502 
L 215.46093 245.017225 
L 217.157495 245.040911 
L 218.854059 245.599856 
L 227.336881 245.609706 
L 229.033445 245.389951 
L 230.730009 242.1253 
L 232.426573 236.229246 
L 234.123138 221.3188 
L 235.819702 219.437419 
L 237.516266 219.604839 
L 239.212831 224.630168 
L 240.909395 221.155547 
L 242.605959 221.68062 
L 244.302524 224.344614 
L 245.999088 232.276524 
L 247.695652 237.459299 
L 249.392216 243.719408 
L 251.088781 244.474348 
L 254.481909 245.230346 
L 257.875038 245.345935 
L 259.571602 245.246429 
L 262.964731 245.434559 
L 268.054424 245.61524 
L 269.750988 245.612666 
L 271.447552 236.502342 
L 273.144117 235.285482 
L 274.840681 230.892737 
L 276.537245 228.58129 
L 278.23381 226.548371 
L 281.626938 217.570891 
L 283.323503 222.71237 
L 285.020067 226.944255 
L 286.716631 230.208065 
L 288.413196 235.848538 
L 290.10976 243.179796 
L 291.806324 244.206289 
L 293.502888 244.656999 
L 295.199453 244.974455 
L 300.289146 245.466833 
L 301.98571 245.366637 
L 303.682274 245.605511 
L 305.378839 245.609946 
L 307.075403 245.397033 
L 308.771967 245.611602 
L 310.468531 245.294144 
L 312.165096 243.195672 
L 313.86166 238.341449 
L 315.558224 229.010368 
L 317.254789 209.229058 
L 318.951353 202.425654 
L 320.647917 196.443826 
L 322.344482 192.098392 
L 324.041046 201.083408 
L 327.434175 223.002062 
L 329.130739 233.408653 
L 330.827303 243.048095 
L 332.523867 244.103937 
L 334.220432 244.586261 
L 337.61356 245.009364 
L 339.310125 245.566699 
L 341.006689 245.607635 
L 342.703253 245.27515 
L 347.792946 245.479528 
L 349.48951 245.34476 
L 351.186075 243.911748 
L 352.882639 237.401295 
L 354.579203 206.656759 
L 356.275768 206.766918 
L 357.972332 200.921363 
L 359.668896 194.12515 
L 361.365461 196.893908 
L 363.062025 170.389506 
L 364.758589 189.673504 
L 366.455154 212.365736 
L 368.151718 232.024463 
L 371.544846 243.960197 
L 373.241411 244.658375 
L 374.937975 245.089956 
L 378.331104 245.300069 
L 381.724232 245.341916 
L 383.420797 245.520548 
L 386.813925 245.571557 
L 388.51049 245.489473 
L 390.207054 245.538449 
L 391.903618 244.909603 
L 393.600182 242.742057 
L 395.296747 211.372036 
L 396.993311 217.056069 
L 400.38644 175.277839 
L 402.083004 147.158481 
L 403.779568 95.09922 
L 405.476133 117.061593 
L 407.172697 143.995937 
L 408.869261 189.666467 
L 410.565825 224.105112 
L 412.26239 243.951392 
L 413.958954 244.875238 
L 415.655518 245.60492 
L 419.048647 245.608776 
L 420.745211 245.958908 
L 422.441776 245.497799 
L 425.834904 245.614814 
L 432.621161 245.614207 
L 434.317726 220.965804 
L 436.01429 160.94445 
L 439.407419 102.137099 
L 441.103983 44.64 
L 442.800547 55.732699 
L 444.497112 73.840689 
L 446.193676 109.611045 
L 447.89024 128.467192 
L 449.586804 169.493108 
L 451.283369 225.934398 
L 452.979933 243.771222 
L 454.676497 244.475122 
L 456.373062 244.859775 
L 458.069626 244.907544 
L 461.462755 245.605162 
L 464.855883 245.457551 
L 466.552448 245.613558 
L 473.338705 245.601826 
L 475.035269 233.509501 
L 476.731833 235.083701 
L 478.428398 227.729419 
L 480.124962 207.850877 
L 481.821526 185.89348 
L 483.518091 177.474773 
L 485.214655 205.022783 
L 486.911219 219.535095 
L 488.607784 229.374169 
L 490.304348 235.416367 
L 492.000912 239.437402 
L 493.697476 243.965283 
L 495.394041 244.394302 
L 498.787169 244.752812 
L 503.876862 245.442897 
L 505.573427 245.292589 
L 508.966555 245.420962 
L 512.359684 245.584461 
L 514.056248 246.24 
L 515.752812 230.807977 
L 517.449377 233.29729 
L 520.842505 220.583216 
L 522.53907 224.724949 
L 524.235634 226.731669 
L 525.932198 231.967425 
L 527.628763 232.621118 
L 529.325327 233.829773 
L 532.718455 239.789483 
L 534.41502 244.215117 
L 536.111584 244.742578 
L 537.808148 245.003205 
L 542.897841 245.327854 
L 544.594406 245.283123 
L 546.29097 245.478132 
L 549.684099 245.501795 
L 551.380663 245.497755 
L 553.077227 245.615102 
L 554.773791 245.52955 
L 556.470356 243.263018 
L 558.16692 236.235146 
L 559.863484 235.296693 
L 561.560049 231.281171 
L 563.256613 230.454726 
L 564.953177 229.872298 
L 566.649742 226.777698 
L 568.346306 231.537096 
L 570.04287 233.669182 
L 573.435999 240.103515 
L 575.132563 244.122781 
L 576.829127 244.526261 
L 581.91882 244.689796 
L 585.311949 244.745289 
L 587.008513 244.949097 
L 593.79477 245.188024 
L 595.491335 244.756855 
L 597.187899 243.79843 
L 598.884463 242.389952 
L 600.581028 239.246287 
L 602.277592 233.461621 
L 603.974156 231.282407 
L 605.670721 229.433541 
L 607.367285 202.175008 
L 609.063849 162.200651 
L 610.760413 175.771602 
L 612.456978 221.999202 
L 614.153542 240.557812 
L 615.850106 244.401861 
L 617.546671 244.784714 
L 622.636364 245.183435 
L 622.636364 245.183435 
" clip-path="url(#p4d96ed2178)" style="fill: none; stroke: #2ca02c; stroke-opacity: 0.6; stroke-width: 1.5; stroke-linecap: square"/>
   </g>
   <g id="patch_3">
    <path d="M 90 256.32 
L 90 34.56 
" style="fill: none; stroke: #000000; stroke-width: 0.8; stroke-linejoin: miter; stroke-linecap: square"/>
   </g>
   <g id="patch_4">
    <path d="M 648 256.32 
L 648 34.56 
" style="fill: none; stroke: #000000; stroke-width: 0.8; stroke-linejoin: miter; stroke-linecap: square"/>
   </g>
   <g id="patch_5">
    <path d="M 90 256.32 
L 648 256.32 
" style="fill: none; stroke: #000000; stroke-width: 0.8; stroke-linejoin: miter; stroke-linecap: square"/>
   </g>
   <g id="patch_6">
    <path d="M 90 34.56 
L 648 34.56 
" style="fill: none; stroke: #000000; stroke-width: 0.8; stroke-linejoin: miter; stroke-linecap: square"/>
   </g>
   <g id="legend_1">
    <g id="patch_7">
     <path d="M 529.315625 86.594375 
L 641 86.594375 
Q 643 86.594375 643 84.594375 
L 643 41.56 
Q 643 39.56 641 39.56 
L 529.315625 39.56 
Q 527.315625 39.56 527.315625 41.56 
L 527.315625 84.594375 
Q 527.315625 86.594375 529.315625 86.594375 
z
" style="fill: #ffffff; opacity: 0.8; stroke: #cccccc; stroke-linejoin: miter"/>
    </g>
    <g id="line2d_16">
     <path d="M 531.315625 47.658438 
L 541.315625 47.658438 
L 551.315625 47.658438 
" style="fill: none; stroke: #1f77b4; stroke-opacity: 0.6; stroke-width: 1.5; stroke-linecap: square"/>
    </g>
    <g id="text_15">
     <!-- Observed -->
     <g transform="translate(559.315625 51.158438) scale(0.1 -0.1)">
      <defs>
       <path id="DejaVuSans-4f" d="M 2522 4238 
Q 1834 4238 1429 3725 
Q 1025 3213 1025 2328 
Q 1025 1447 1429 934 
Q 1834 422 2522 422 
Q 3209 422 3611 934 
Q 4013 1447 4013 2328 
Q 4013 3213 3611 3725 
Q 3209 4238 2522 4238 
z
M 2522 4750 
Q 3503 4750 4090 4092 
Q 4678 3434 4678 2328 
Q 4678 1225 4090 567 
Q 3503 -91 2522 -91 
Q 1538 -91 948 565 
Q 359 1222 359 2328 
Q 359 3434 948 4092 
Q 1538 4750 2522 4750 
z
" transform="scale(0.015625)"/>
       <path id="DejaVuSans-62" d="M 3116 1747 
Q 3116 2381 2855 2742 
Q 2594 3103 2138 3103 
Q 1681 3103 1420 2742 
Q 1159 2381 1159 1747 
Q 1159 1113 1420 752 
Q 1681 391 2138 391 
Q 2594 391 2855 752 
Q 3116 1113 3116 1747 
z
M 1159 2969 
Q 1341 3281 1617 3432 
Q 1894 3584 2278 3584 
Q 2916 3584 3314 3078 
Q 3713 2572 3713 1747 
Q 3713 922 3314 415 
Q 2916 -91 2278 -91 
Q 1894 -91 1617 61 
Q 1341 213 1159 525 
L 1159 0 
L 581 0 
L 581 4863 
L 1159 4863 
L 1159 2969 
z
" transform="scale(0.015625)"/>
       <path id="DejaVuSans-72" d="M 2631 2963 
Q 2534 3019 2420 3045 
Q 2306 3072 2169 3072 
Q 1681 3072 1420 2755 
Q 1159 2438 1159 1844 
L 1159 0 
L 581 0 
L 581 3500 
L 1159 3500 
L 1159 2956 
Q 1341 3275 1631 3429 
Q 1922 3584 2338 3584 
Q 2397 3584 2469 3576 
Q 2541 3569 2628 3553 
L 2631 2963 
z
" transform="scale(0.015625)"/>
       <path id="DejaVuSans-76" d="M 191 3500 
L 800 3500 
L 1894 563 
L 2988 3500 
L 3597 3500 
L 2284 0 
L 1503 0 
L 191 3500 
z
" transform="scale(0.015625)"/>
       <path id="DejaVuSans-64" d="M 2906 2969 
L 2906 4863 
L 3481 4863 
L 3481 0 
L 2906 0 
L 2906 525 
Q 2725 213 2448 61 
Q 2172 -91 1784 -91 
Q 1150 -91 751 415 
Q 353 922 353 1747 
Q 353 2572 751 3078 
Q 1150 3584 1784 3584 
Q 2172 3584 2448 3432 
Q 2725 3281 2906 2969 
z
M 947 1747 
Q 947 1113 1208 752 
Q 1469 391 1925 391 
Q 2381 391 2643 752 
Q 2906 1113 2906 1747 
Q 2906 2381 2643 2742 
Q 2381 3103 1925 3103 
Q 1469 3103 1208 2742 
Q 947 2381 947 1747 
z
" transform="scale(0.015625)"/>
      </defs>
      <use xlink:href="#DejaVuSans-4f"/>
      <use xlink:href="#DejaVuSans-62" x="78.710938"/>
      <use xlink:href="#DejaVuSans-73" x="142.1875"/>
      <use xlink:href="#DejaVuSans-65" x="194.287109"/>
      <use xlink:href="#DejaVuSans-72" x="255.810547"/>
      <use xlink:href="#DejaVuSans-76" x="296.923828"/>
      <use xlink:href="#DejaVuSans-65" x="356.103516"/>
      <use xlink:href="#DejaVuSans-64" x="417.626953"/>
     </g>
    </g>
    <g id="line2d_17">
     <path d="M 531.315625 62.336563 
L 541.315625 62.336563 
L 551.315625 62.336563 
" style="fill: none; stroke: #ff7f0e; stroke-opacity: 0.8; stroke-width: 1.8; stroke-linecap: square"/>
    </g>
    <g id="text_16">
     <!-- Hybrid Model -->
     <g transform="translate(559.315625 65.836563) scale(0.1 -0.1)">
      <defs>
       <path id="DejaVuSans-48" d="M 628 4666 
L 1259 4666 
L 1259 2753 
L 3553 2753 
L 3553 4666 
L 4184 4666 
L 4184 0 
L 3553 0 
L 3553 2222 
L 1259 2222 
L 1259 0 
L 628 0 
L 628 4666 
z
" transform="scale(0.015625)"/>
       <path id="DejaVuSans-79" d="M 2059 -325 
Q 1816 -950 1584 -1140 
Q 1353 -1331 966 -1331 
L 506 -1331 
L 506 -850 
L 844 -850 
Q 1081 -850 1212 -737 
Q 1344 -625 1503 -206 
L 1606 56 
L 191 3500 
L 800 3500 
L 1894 763 
L 2988 3500 
L 3597 3500 
L 2059 -325 
z
" transform="scale(0.015625)"/>
       <path id="DejaVuSans-4d" d="M 628 4666 
L 1569 4666 
L 2759 1491 
L 3956 4666 
L 4897 4666 
L 4897 0 
L 4281 0 
L 4281 4097 
L 3078 897 
L 2444 897 
L 1241 4097 
L 1241 0 
L 628 0 
L 628 4666 
z
" transform="scale(0.015625)"/>
       <path id="DejaVuSans-6f" d="M 1959 3097 
Q 1497 3097 1228 2736 
Q 959 2375 959 1747 
Q 959 1119 1226 758 
Q 1494 397 1959 397 
Q 2419 397 2687 759 
Q 2956 1122 2956 1747 
Q 2956 2369 2687 2733 
Q 2419 3097 1959 3097 
z
M 1959 3584 
Q 2709 3584 3137 3096 
Q 3566 2609 3566 1747 
Q 3566 888 3137 398 
Q 2709 -91 1959 -91 
Q 1206 -91 779 398 
Q 353 888 353 1747 
Q 353 2609 779 3096 
Q 1206 3584 1959 3584 
z
" transform="scale(0.015625)"/>
       <path id="DejaVuSans-6c" d="M 603 4863 
L 1178 4863 
L 1178 0 
L 603 0 
L 603 4863 
z
" transform="scale(0.015625)"/>
      </defs>
      <use xlink:href="#DejaVuSans-48"/>
      <use xlink:href="#DejaVuSans-79" x="75.195312"/>
      <use xlink:href="#DejaVuSans-62" x="134.375"/>
      <use xlink:href="#DejaVuSans-72" x="197.851562"/>
      <use xlink:href="#DejaVuSans-69" x="238.964844"/>
      <use xlink:href="#DejaVuSans-64" x="266.748047"/>
      <use xlink:href="#DejaVuSans-20" x="330.224609"/>
      <use xlink:href="#DejaVuSans-4d" x="362.011719"/>
      <use xlink:href="#DejaVuSans-6f" x="448.291016"/>
      <use xlink:href="#DejaVuSans-64" x="509.472656"/>
      <use xlink:href="#DejaVuSans-65" x="572.949219"/>
      <use xlink:href="#DejaVuSans-6c" x="634.472656"/>
     </g>
    </g>
    <g id="line2d_18">
     <path d="M 531.315625 77.014688 
L 541.315625 77.014688 
L 551.315625 77.014688 
" style="fill: none; stroke: #2ca02c; stroke-opacity: 0.6; stroke-width: 1.5; stroke-linecap: square"/>
    </g>
    <g id="text_17">
     <!-- Empirical Model -->
     <g transform="translate(559.315625 80.514688) scale(0.1 -0.1)">
      <defs>
       <path id="DejaVuSans-63" d="M 3122 3366 
L 3122 2828 
Q 2878 2963 2633 3030 
Q 2388 3097 2138 3097 
Q 1578 3097 1268 2742 
Q 959 2388 959 1747 
Q 959 1106 1268 751 
Q 1578 397 2138 397 
Q 2388 397 2633 464 
Q 2878 531 3122 666 
L 3122 134 
Q 2881 22 2623 -34 
Q 2366 -91 2075 -91 
Q 1284 -91 818 406 
Q 353 903 353 1747 
Q 353 2603 823 3093 
Q 1294 3584 2113 3584 
Q 2378 3584 2631 3529 
Q 2884 3475 3122 3366 
z
" transform="scale(0.015625)"/>
       <path id="DejaVuSans-61" d="M 2194 1759 
Q 1497 1759 1228 1600 
Q 959 1441 959 1056 
Q 959 750 1161 570 
Q 1363 391 1709 391 
Q 2188 391 2477 730 
Q 2766 1069 2766 1631 
L 2766 1759 
L 2194 1759 
z
M 3341 1997 
L 3341 0 
L 2766 0 
L 2766 531 
Q 2569 213 2275 61 
Q 1981 -91 1556 -91 
Q 1019 -91 701 211 
Q 384 513 384 1019 
Q 384 1609 779 1909 
Q 1175 2209 1959 2209 
L 2766 2209 
L 2766 2266 
Q 2766 2663 2505 2880 
Q 2244 3097 1772 3097 
Q 1472 3097 1187 3025 
Q 903 2953 641 2809 
L 641 3341 
Q 956 3463 1253 3523 
Q 1550 3584 1831 3584 
Q 2591 3584 2966 3190 
Q 3341 2797 3341 1997 
z
" transform="scale(0.015625)"/>
      </defs>
      <use xlink:href="#DejaVuSans-45"/>
      <use xlink:href="#DejaVuSans-6d" x="63.183594"/>
      <use xlink:href="#DejaVuSans-70" x="160.595703"/>
      <use xlink:href="#DejaVuSans-69" x="224.072266"/>
      <use xlink:href="#DejaVuSans-72" x="251.855469"/>
      <use xlink:href="#DejaVuSans-69" x="292.96875"/>
      <use xlink:href="#DejaVuSans-63" x="320.751953"/>
      <use xlink:href="#DejaVuSans-61" x="375.732422"/>
      <use xlink:href="#DejaVuSans-6c" x="437.011719"/>
      <use xlink:href="#DejaVuSans-20" x="464.794922"/>
      <use xlink:href="#DejaVuSans-4d" x="496.582031"/>
      <use xlink:href="#DejaVuSans-6f" x="582.861328"/>
      <use xlink:href="#DejaVuSans-64" x="644.042969"/>
      <use xlink:href="#DejaVuSans-65" x="707.519531"/>
      <use xlink:href="#DejaVuSans-6c" x="769.042969"/>
     </g>
    </g>
   </g>
  </g>
 </g>
 <defs>
  <clipPath id="p4d96ed2178">
   <rect x="90" y="34.56" width="558" height="221.76"/>
  </clipPath>
 </defs>
</svg>
