<?xml version="1.0" encoding="utf-8" standalone="no"?>
<!DOCTYPE svg PUBLIC "-//W3C//DTD SVG 1.1//EN"
  "http://www.w3.org/Graphics/SVG/1.1/DTD/svg11.dtd">
<svg xmlns:xlink="http://www.w3.org/1999/xlink" width="720pt" height="288pt" viewBox="0 0 720 288" xmlns="http://www.w3.org/2000/svg" version="1.1">
 <metadata>
  <rdf:RDF xmlns:dc="http://purl.org/dc/elements/1.1/" xmlns:cc="http://creativecommons.org/ns#" xmlns:rdf="http://www.w3.org/1999/02/22-rdf-syntax-ns#">
   <cc:Work>
    <dc:type rdf:resource="http://purl.org/dc/dcmitype/StillImage"/>
    <dc:date>2025-01-06T16:18:59.674083</dc:date>
    <dc:format>image/svg+xml</dc:format>
    <dc:creator>
     <cc:Agent>
      <dc:title>Matplotlib v3.6.0, https://matplotlib.org/</dc:title>
     </cc:Agent>
    </dc:creator>
   </cc:Work>
  </rdf:RDF>
 </metadata>
 <defs>
  <style type="text/css">*{stroke-linejoin: round; stroke-linecap: butt}</style>
 </defs>
 <g id="figure_1">
  <g id="patch_1">
   <path d="M 0 288 
L 720 288 
L 720 0 
L 0 0 
z
" style="fill: #ffffff"/>
  </g>
  <g id="axes_1">
   <g id="patch_2">
    <path d="M 90 256.32 
L 648 256.32 
L 648 34.56 
L 90 34.56 
z
" style="fill: #ffffff"/>
   </g>
   <g id="matplotlib.axis_1">
    <g id="xtick_1">
     <g id="line2d_1">
      <defs>
       <path id="m14a0363c00" d="M 0 0 
L 0 3.5 
" style="stroke: #000000; stroke-width: 0.8"/>
      </defs>
      <g>
       <use xlink:href="#m14a0363c00" x="115.363636" y="256.32" style="stroke: #000000; stroke-width: 0.8"/>
      </g>
     </g>
     <g id="text_1">
      <!-- 0 -->
      <g transform="translate(112.182386 270.918437) scale(0.1 -0.1)">
       <defs>
        <path id="DejaVuSans-30" d="M 2034 4250 
Q 1547 4250 1301 3770 
Q 1056 3291 1056 2328 
Q 1056 1369 1301 889 
Q 1547 409 2034 409 
Q 2525 409 2770 889 
Q 3016 1369 3016 2328 
Q 3016 3291 2770 3770 
Q 2525 4250 2034 4250 
z
M 2034 4750 
Q 2819 4750 3233 4129 
Q 3647 3509 3647 2328 
Q 3647 1150 3233 529 
Q 2819 -91 2034 -91 
Q 1250 -91 836 529 
Q 422 1150 422 2328 
Q 422 3509 836 4129 
Q 1250 4750 2034 4750 
z
" transform="scale(0.015625)"/>
       </defs>
       <use xlink:href="#DejaVuSans-30"/>
      </g>
     </g>
    </g>
    <g id="xtick_2">
     <g id="line2d_2">
      <g>
       <use xlink:href="#m14a0363c00" x="200.191852" y="256.32" style="stroke: #000000; stroke-width: 0.8"/>
      </g>
     </g>
     <g id="text_2">
      <!-- 50 -->
      <g transform="translate(193.829352 270.918437) scale(0.1 -0.1)">
       <defs>
        <path id="DejaVuSans-35" d="M 691 4666 
L 3169 4666 
L 3169 4134 
L 1269 4134 
L 1269 2991 
Q 1406 3038 1543 3061 
Q 1681 3084 1819 3084 
Q 2600 3084 3056 2656 
Q 3513 2228 3513 1497 
Q 3513 744 3044 326 
Q 2575 -91 1722 -91 
Q 1428 -91 1123 -41 
Q 819 9 494 109 
L 494 744 
Q 775 591 1075 516 
Q 1375 441 1709 441 
Q 2250 441 2565 725 
Q 2881 1009 2881 1497 
Q 2881 1984 2565 2268 
Q 2250 2553 1709 2553 
Q 1456 2553 1204 2497 
Q 953 2441 691 2322 
L 691 4666 
z
" transform="scale(0.015625)"/>
       </defs>
       <use xlink:href="#DejaVuSans-35"/>
       <use xlink:href="#DejaVuSans-30" x="63.623047"/>
      </g>
     </g>
    </g>
    <g id="xtick_3">
     <g id="line2d_3">
      <g>
       <use xlink:href="#m14a0363c00" x="285.020067" y="256.32" style="stroke: #000000; stroke-width: 0.8"/>
      </g>
     </g>
     <g id="text_3">
      <!-- 100 -->
      <g transform="translate(275.476317 270.918437) scale(0.1 -0.1)">
       <defs>
        <path id="DejaVuSans-31" d="M 794 531 
L 1825 531 
L 1825 4091 
L 703 3866 
L 703 4441 
L 1819 4666 
L 2450 4666 
L 2450 531 
L 3481 531 
L 3481 0 
L 794 0 
L 794 531 
z
" transform="scale(0.015625)"/>
       </defs>
       <use xlink:href="#DejaVuSans-31"/>
       <use xlink:href="#DejaVuSans-30" x="63.623047"/>
       <use xlink:href="#DejaVuSans-30" x="127.246094"/>
      </g>
     </g>
    </g>
    <g id="xtick_4">
     <g id="line2d_4">
      <g>
       <use xlink:href="#m14a0363c00" x="369.848282" y="256.32" style="stroke: #000000; stroke-width: 0.8"/>
      </g>
     </g>
     <g id="text_4">
      <!-- 150 -->
      <g transform="translate(360.304532 270.918437) scale(0.1 -0.1)">
       <use xlink:href="#DejaVuSans-31"/>
       <use xlink:href="#DejaVuSans-35" x="63.623047"/>
       <use xlink:href="#DejaVuSans-30" x="127.246094"/>
      </g>
     </g>
    </g>
    <g id="xtick_5">
     <g id="line2d_5">
      <g>
       <use xlink:href="#m14a0363c00" x="454.676497" y="256.32" style="stroke: #000000; stroke-width: 0.8"/>
      </g>
     </g>
     <g id="text_5">
      <!-- 200 -->
      <g transform="translate(445.132747 270.918437) scale(0.1 -0.1)">
       <defs>
        <path id="DejaVuSans-32" d="M 1228 531 
L 3431 531 
L 3431 0 
L 469 0 
L 469 531 
Q 828 903 1448 1529 
Q 2069 2156 2228 2338 
Q 2531 2678 2651 2914 
Q 2772 3150 2772 3378 
Q 2772 3750 2511 3984 
Q 2250 4219 1831 4219 
Q 1534 4219 1204 4116 
Q 875 4013 500 3803 
L 500 4441 
Q 881 4594 1212 4672 
Q 1544 4750 1819 4750 
Q 2544 4750 2975 4387 
Q 3406 4025 3406 3419 
Q 3406 3131 3298 2873 
Q 3191 2616 2906 2266 
Q 2828 2175 2409 1742 
Q 1991 1309 1228 531 
z
" transform="scale(0.015625)"/>
       </defs>
       <use xlink:href="#DejaVuSans-32"/>
       <use xlink:href="#DejaVuSans-30" x="63.623047"/>
       <use xlink:href="#DejaVuSans-30" x="127.246094"/>
      </g>
     </g>
    </g>
    <g id="xtick_6">
     <g id="line2d_6">
      <g>
       <use xlink:href="#m14a0363c00" x="539.504713" y="256.32" style="stroke: #000000; stroke-width: 0.8"/>
      </g>
     </g>
     <g id="text_6">
      <!-- 250 -->
      <g transform="translate(529.960963 270.918437) scale(0.1 -0.1)">
       <use xlink:href="#DejaVuSans-32"/>
       <use xlink:href="#DejaVuSans-35" x="63.623047"/>
       <use xlink:href="#DejaVuSans-30" x="127.246094"/>
      </g>
     </g>
    </g>
    <g id="xtick_7">
     <g id="line2d_7">
      <g>
       <use xlink:href="#m14a0363c00" x="624.332928" y="256.32" style="stroke: #000000; stroke-width: 0.8"/>
      </g>
     </g>
     <g id="text_7">
      <!-- 300 -->
      <g transform="translate(614.789178 270.918437) scale(0.1 -0.1)">
       <defs>
        <path id="DejaVuSans-33" d="M 2597 2516 
Q 3050 2419 3304 2112 
Q 3559 1806 3559 1356 
Q 3559 666 3084 287 
Q 2609 -91 1734 -91 
Q 1441 -91 1130 -33 
Q 819 25 488 141 
L 488 750 
Q 750 597 1062 519 
Q 1375 441 1716 441 
Q 2309 441 2620 675 
Q 2931 909 2931 1356 
Q 2931 1769 2642 2001 
Q 2353 2234 1838 2234 
L 1294 2234 
L 1294 2753 
L 1863 2753 
Q 2328 2753 2575 2939 
Q 2822 3125 2822 3475 
Q 2822 3834 2567 4026 
Q 2313 4219 1838 4219 
Q 1578 4219 1281 4162 
Q 984 4106 628 3988 
L 628 4550 
Q 988 4650 1302 4700 
Q 1616 4750 1894 4750 
Q 2613 4750 3031 4423 
Q 3450 4097 3450 3541 
Q 3450 3153 3228 2886 
Q 3006 2619 2597 2516 
z
" transform="scale(0.015625)"/>
       </defs>
       <use xlink:href="#DejaVuSans-33"/>
       <use xlink:href="#DejaVuSans-30" x="63.623047"/>
       <use xlink:href="#DejaVuSans-30" x="127.246094"/>
      </g>
     </g>
    </g>
    <g id="text_8">
     <!-- Timestep -->
     <g transform="translate(345.950781 284.596563) scale(0.1 -0.1)">
      <defs>
       <path id="DejaVuSans-54" d="M -19 4666 
L 3928 4666 
L 3928 4134 
L 2272 4134 
L 2272 0 
L 1638 0 
L 1638 4134 
L -19 4134 
L -19 4666 
z
" transform="scale(0.015625)"/>
       <path id="DejaVuSans-69" d="M 603 3500 
L 1178 3500 
L 1178 0 
L 603 0 
L 603 3500 
z
M 603 4863 
L 1178 4863 
L 1178 4134 
L 603 4134 
L 603 4863 
z
" transform="scale(0.015625)"/>
       <path id="DejaVuSans-6d" d="M 3328 2828 
Q 3544 3216 3844 3400 
Q 4144 3584 4550 3584 
Q 5097 3584 5394 3201 
Q 5691 2819 5691 2113 
L 5691 0 
L 5113 0 
L 5113 2094 
Q 5113 2597 4934 2840 
Q 4756 3084 4391 3084 
Q 3944 3084 3684 2787 
Q 3425 2491 3425 1978 
L 3425 0 
L 2847 0 
L 2847 2094 
Q 2847 2600 2669 2842 
Q 2491 3084 2119 3084 
Q 1678 3084 1418 2786 
Q 1159 2488 1159 1978 
L 1159 0 
L 581 0 
L 581 3500 
L 1159 3500 
L 1159 2956 
Q 1356 3278 1631 3431 
Q 1906 3584 2284 3584 
Q 2666 3584 2933 3390 
Q 3200 3197 3328 2828 
z
" transform="scale(0.015625)"/>
       <path id="DejaVuSans-65" d="M 3597 1894 
L 3597 1613 
L 953 1613 
Q 991 1019 1311 708 
Q 1631 397 2203 397 
Q 2534 397 2845 478 
Q 3156 559 3463 722 
L 3463 178 
Q 3153 47 2828 -22 
Q 2503 -91 2169 -91 
Q 1331 -91 842 396 
Q 353 884 353 1716 
Q 353 2575 817 3079 
Q 1281 3584 2069 3584 
Q 2775 3584 3186 3129 
Q 3597 2675 3597 1894 
z
M 3022 2063 
Q 3016 2534 2758 2815 
Q 2500 3097 2075 3097 
Q 1594 3097 1305 2825 
Q 1016 2553 972 2059 
L 3022 2063 
z
" transform="scale(0.015625)"/>
       <path id="DejaVuSans-73" d="M 2834 3397 
L 2834 2853 
Q 2591 2978 2328 3040 
Q 2066 3103 1784 3103 
Q 1356 3103 1142 2972 
Q 928 2841 928 2578 
Q 928 2378 1081 2264 
Q 1234 2150 1697 2047 
L 1894 2003 
Q 2506 1872 2764 1633 
Q 3022 1394 3022 966 
Q 3022 478 2636 193 
Q 2250 -91 1575 -91 
Q 1294 -91 989 -36 
Q 684 19 347 128 
L 347 722 
Q 666 556 975 473 
Q 1284 391 1588 391 
Q 1994 391 2212 530 
Q 2431 669 2431 922 
Q 2431 1156 2273 1281 
Q 2116 1406 1581 1522 
L 1381 1569 
Q 847 1681 609 1914 
Q 372 2147 372 2553 
Q 372 3047 722 3315 
Q 1072 3584 1716 3584 
Q 2034 3584 2315 3537 
Q 2597 3491 2834 3397 
z
" transform="scale(0.015625)"/>
       <path id="DejaVuSans-74" d="M 1172 4494 
L 1172 3500 
L 2356 3500 
L 2356 3053 
L 1172 3053 
L 1172 1153 
Q 1172 725 1289 603 
Q 1406 481 1766 481 
L 2356 481 
L 2356 0 
L 1766 0 
Q 1100 0 847 248 
Q 594 497 594 1153 
L 594 3053 
L 172 3053 
L 172 3500 
L 594 3500 
L 594 4494 
L 1172 4494 
z
" transform="scale(0.015625)"/>
       <path id="DejaVuSans-70" d="M 1159 525 
L 1159 -1331 
L 581 -1331 
L 581 3500 
L 1159 3500 
L 1159 2969 
Q 1341 3281 1617 3432 
Q 1894 3584 2278 3584 
Q 2916 3584 3314 3078 
Q 3713 2572 3713 1747 
Q 3713 922 3314 415 
Q 2916 -91 2278 -91 
Q 1894 -91 1617 61 
Q 1341 213 1159 525 
z
M 3116 1747 
Q 3116 2381 2855 2742 
Q 2594 3103 2138 3103 
Q 1681 3103 1420 2742 
Q 1159 2381 1159 1747 
Q 1159 1113 1420 752 
Q 1681 391 2138 391 
Q 2594 391 2855 752 
Q 3116 1113 3116 1747 
z
" transform="scale(0.015625)"/>
      </defs>
      <use xlink:href="#DejaVuSans-54"/>
      <use xlink:href="#DejaVuSans-69" x="57.958984"/>
      <use xlink:href="#DejaVuSans-6d" x="85.742188"/>
      <use xlink:href="#DejaVuSans-65" x="183.154297"/>
      <use xlink:href="#DejaVuSans-73" x="244.677734"/>
      <use xlink:href="#DejaVuSans-74" x="296.777344"/>
      <use xlink:href="#DejaVuSans-65" x="335.986328"/>
      <use xlink:href="#DejaVuSans-70" x="397.509766"/>
     </g>
    </g>
   </g>
   <g id="matplotlib.axis_2">
    <g id="ytick_1">
     <g id="line2d_8">
      <defs>
       <path id="m094eed1fb2" d="M 0 0 
L -3.5 0 
" style="stroke: #000000; stroke-width: 0.8"/>
      </defs>
      <g>
       <use xlink:href="#m094eed1fb2" x="90" y="246.24" style="stroke: #000000; stroke-width: 0.8"/>
      </g>
     </g>
     <g id="text_9">
      <!-- 0 -->
      <g transform="translate(76.6375 250.039219) scale(0.1 -0.1)">
       <use xlink:href="#DejaVuSans-30"/>
      </g>
     </g>
    </g>
    <g id="ytick_2">
     <g id="line2d_9">
      <g>
       <use xlink:href="#m094eed1fb2" x="90" y="213.811502" style="stroke: #000000; stroke-width: 0.8"/>
      </g>
     </g>
     <g id="text_10">
      <!-- 100 -->
      <g transform="translate(63.9125 217.610721) scale(0.1 -0.1)">
       <use xlink:href="#DejaVuSans-31"/>
       <use xlink:href="#DejaVuSans-30" x="63.623047"/>
       <use xlink:href="#DejaVuSans-30" x="127.246094"/>
      </g>
     </g>
    </g>
    <g id="ytick_3">
     <g id="line2d_10">
      <g>
       <use xlink:href="#m094eed1fb2" x="90" y="181.383004" style="stroke: #000000; stroke-width: 0.8"/>
      </g>
     </g>
     <g id="text_11">
      <!-- 200 -->
      <g transform="translate(63.9125 185.182223) scale(0.1 -0.1)">
       <use xlink:href="#DejaVuSans-32"/>
       <use xlink:href="#DejaVuSans-30" x="63.623047"/>
       <use xlink:href="#DejaVuSans-30" x="127.246094"/>
      </g>
     </g>
    </g>
    <g id="ytick_4">
     <g id="line2d_11">
      <g>
       <use xlink:href="#m094eed1fb2" x="90" y="148.954506" style="stroke: #000000; stroke-width: 0.8"/>
      </g>
     </g>
     <g id="text_12">
      <!-- 300 -->
      <g transform="translate(63.9125 152.753725) scale(0.1 -0.1)">
       <use xlink:href="#DejaVuSans-33"/>
       <use xlink:href="#DejaVuSans-30" x="63.623047"/>
       <use xlink:href="#DejaVuSans-30" x="127.246094"/>
      </g>
     </g>
    </g>
    <g id="ytick_5">
     <g id="line2d_12">
      <g>
       <use xlink:href="#m094eed1fb2" x="90" y="116.526008" style="stroke: #000000; stroke-width: 0.8"/>
      </g>
     </g>
     <g id="text_13">
      <!-- 400 -->
      <g transform="translate(63.9125 120.325226) scale(0.1 -0.1)">
       <defs>
        <path id="DejaVuSans-34" d="M 2419 4116 
L 825 1625 
L 2419 1625 
L 2419 4116 
z
M 2253 4666 
L 3047 4666 
L 3047 1625 
L 3713 1625 
L 3713 1100 
L 3047 1100 
L 3047 0 
L 2419 0 
L 2419 1100 
L 313 1100 
L 313 1709 
L 2253 4666 
z
" transform="scale(0.015625)"/>
       </defs>
       <use xlink:href="#DejaVuSans-34"/>
       <use xlink:href="#DejaVuSans-30" x="63.623047"/>
       <use xlink:href="#DejaVuSans-30" x="127.246094"/>
      </g>
     </g>
    </g>
    <g id="ytick_6">
     <g id="line2d_13">
      <g>
       <use xlink:href="#m094eed1fb2" x="90" y="84.09751" style="stroke: #000000; stroke-width: 0.8"/>
      </g>
     </g>
     <g id="text_14">
      <!-- 500 -->
      <g transform="translate(63.9125 87.896728) scale(0.1 -0.1)">
       <use xlink:href="#DejaVuSans-35"/>
       <use xlink:href="#DejaVuSans-30" x="63.623047"/>
       <use xlink:href="#DejaVuSans-30" x="127.246094"/>
      </g>
     </g>
    </g>
    <g id="ytick_7">
     <g id="line2d_14">
      <g>
       <use xlink:href="#m094eed1fb2" x="90" y="51.669012" style="stroke: #000000; stroke-width: 0.8"/>
      </g>
     </g>
     <g id="text_15">
      <!-- 600 -->
      <g transform="translate(63.9125 55.46823) scale(0.1 -0.1)">
       <defs>
        <path id="DejaVuSans-36" d="M 2113 2584 
Q 1688 2584 1439 2293 
Q 1191 2003 1191 1497 
Q 1191 994 1439 701 
Q 1688 409 2113 409 
Q 2538 409 2786 701 
Q 3034 994 3034 1497 
Q 3034 2003 2786 2293 
Q 2538 2584 2113 2584 
z
M 3366 4563 
L 3366 3988 
Q 3128 4100 2886 4159 
Q 2644 4219 2406 4219 
Q 1781 4219 1451 3797 
Q 1122 3375 1075 2522 
Q 1259 2794 1537 2939 
Q 1816 3084 2150 3084 
Q 2853 3084 3261 2657 
Q 3669 2231 3669 1497 
Q 3669 778 3244 343 
Q 2819 -91 2113 -91 
Q 1303 -91 875 529 
Q 447 1150 447 2328 
Q 447 3434 972 4092 
Q 1497 4750 2381 4750 
Q 2619 4750 2861 4703 
Q 3103 4656 3366 4563 
z
" transform="scale(0.015625)"/>
       </defs>
       <use xlink:href="#DejaVuSans-36"/>
       <use xlink:href="#DejaVuSans-30" x="63.623047"/>
       <use xlink:href="#DejaVuSans-30" x="127.246094"/>
      </g>
     </g>
    </g>
    <g id="text_16">
     <!-- Q_LE [W/m²] -->
     <g transform="translate(57.554687 176.815) rotate(-90) scale(0.1 -0.1)">
      <defs>
       <path id="DejaVuSans-51" d="M 2522 4238 
Q 1834 4238 1429 3725 
Q 1025 3213 1025 2328 
Q 1025 1447 1429 934 
Q 1834 422 2522 422 
Q 3209 422 3611 934 
Q 4013 1447 4013 2328 
Q 4013 3213 3611 3725 
Q 3209 4238 2522 4238 
z
M 3406 84 
L 4238 -825 
L 3475 -825 
L 2784 -78 
Q 2681 -84 2626 -87 
Q 2572 -91 2522 -91 
Q 1538 -91 948 567 
Q 359 1225 359 2328 
Q 359 3434 948 4092 
Q 1538 4750 2522 4750 
Q 3503 4750 4090 4092 
Q 4678 3434 4678 2328 
Q 4678 1516 4351 937 
Q 4025 359 3406 84 
z
" transform="scale(0.015625)"/>
       <path id="DejaVuSans-5f" d="M 3263 -1063 
L 3263 -1509 
L -63 -1509 
L -63 -1063 
L 3263 -1063 
z
" transform="scale(0.015625)"/>
       <path id="DejaVuSans-4c" d="M 628 4666 
L 1259 4666 
L 1259 531 
L 3531 531 
L 3531 0 
L 628 0 
L 628 4666 
z
" transform="scale(0.015625)"/>
       <path id="DejaVuSans-45" d="M 628 4666 
L 3578 4666 
L 3578 4134 
L 1259 4134 
L 1259 2753 
L 3481 2753 
L 3481 2222 
L 1259 2222 
L 1259 531 
L 3634 531 
L 3634 0 
L 628 0 
L 628 4666 
z
" transform="scale(0.015625)"/>
       <path id="DejaVuSans-20" transform="scale(0.015625)"/>
       <path id="DejaVuSans-5b" d="M 550 4863 
L 1875 4863 
L 1875 4416 
L 1125 4416 
L 1125 -397 
L 1875 -397 
L 1875 -844 
L 550 -844 
L 550 4863 
z
" transform="scale(0.015625)"/>
       <path id="DejaVuSans-57" d="M 213 4666 
L 850 4666 
L 1831 722 
L 2809 4666 
L 3519 4666 
L 4500 722 
L 5478 4666 
L 6119 4666 
L 4947 0 
L 4153 0 
L 3169 4050 
L 2175 0 
L 1381 0 
L 213 4666 
z
" transform="scale(0.015625)"/>
       <path id="DejaVuSans-2f" d="M 1625 4666 
L 2156 4666 
L 531 -594 
L 0 -594 
L 1625 4666 
z
" transform="scale(0.015625)"/>
       <path id="DejaVuSans-b2" d="M 838 2444 
L 2163 2444 
L 2163 2088 
L 294 2088 
L 294 2431 
Q 400 2528 597 2703 
Q 1672 3656 1672 3950 
Q 1672 4156 1509 4282 
Q 1347 4409 1081 4409 
Q 919 4409 728 4354 
Q 538 4300 313 4191 
L 313 4575 
Q 553 4663 761 4706 
Q 969 4750 1147 4750 
Q 1600 4750 1872 4544 
Q 2144 4338 2144 4000 
Q 2144 3566 1109 2678 
Q 934 2528 838 2444 
z
" transform="scale(0.015625)"/>
       <path id="DejaVuSans-5d" d="M 1947 4863 
L 1947 -844 
L 622 -844 
L 622 -397 
L 1369 -397 
L 1369 4416 
L 622 4416 
L 622 4863 
L 1947 4863 
z
" transform="scale(0.015625)"/>
      </defs>
      <use xlink:href="#DejaVuSans-51"/>
      <use xlink:href="#DejaVuSans-5f" x="78.710938"/>
      <use xlink:href="#DejaVuSans-4c" x="128.710938"/>
      <use xlink:href="#DejaVuSans-45" x="184.423828"/>
      <use xlink:href="#DejaVuSans-20" x="247.607422"/>
      <use xlink:href="#DejaVuSans-5b" x="279.394531"/>
      <use xlink:href="#DejaVuSans-57" x="318.408203"/>
      <use xlink:href="#DejaVuSans-2f" x="417.285156"/>
      <use xlink:href="#DejaVuSans-6d" x="450.976562"/>
      <use xlink:href="#DejaVuSans-b2" x="548.388672"/>
      <use xlink:href="#DejaVuSans-5d" x="588.476562"/>
     </g>
    </g>
   </g>
   <g id="line2d_15">
    <path d="M 115.363636 246.24 
L 117.060201 246.24 
L 118.756765 240.565013 
L 120.453329 241.05144 
L 122.149894 242.186438 
L 123.846458 243.483578 
L 125.543022 245.59143 
L 127.239587 246.077858 
L 128.936151 246.24 
L 130.632715 241.862153 
L 132.329279 239.916443 
L 134.025844 239.267873 
L 135.722408 245.37717 
L 137.418972 246.077858 
L 139.115537 245.915715 
L 140.812101 242.186438 
L 142.508665 241.537868 
L 144.20523 242.024295 
L 145.901794 245.429288 
L 147.598358 246.24 
L 150.991487 246.24 
L 152.688051 241.375725 
L 154.384615 242.835008 
L 156.08118 242.970126 
L 157.777744 245.753573 
L 159.474308 246.056239 
L 161.170873 245.59143 
L 162.867437 246.24 
L 164.564001 246.200129 
L 166.260566 242.024295 
L 167.95713 243.64572 
L 169.653694 243.483578 
L 171.350258 245.429288 
L 173.046823 245.59143 
L 174.743387 244.420615 
L 176.439951 242.470755 
L 178.136516 241.794593 
L 179.83308 238.610612 
L 181.529644 243.037686 
L 183.226209 241.555879 
L 186.619337 241.406273 
L 188.315901 241.062709 
L 190.012466 240.194274 
L 191.70903 235.322395 
L 193.405594 243.92947 
L 195.102159 242.672865 
L 196.798723 221.918626 
L 198.495287 239.288854 
L 200.191852 239.252177 
L 201.888416 239.344971 
L 203.58498 239.678677 
L 205.281545 238.99763 
L 206.978109 242.899865 
L 208.674673 241.821617 
L 210.371237 239.402987 
L 212.067802 235.001726 
L 213.764366 239.77713 
L 215.46093 238.862517 
L 217.157495 236.835736 
L 218.854059 234.565741 
L 220.550623 218.729769 
L 222.247188 235.376453 
L 223.943752 238.943588 
L 225.640316 241.862153 
L 227.336881 239.798522 
L 229.033445 244.618575 
L 230.730009 243.483578 
L 232.426573 239.592158 
L 234.123138 238.673345 
L 235.819702 243.321435 
L 237.516266 243.64572 
L 240.909395 245.881321 
L 242.605959 244.456433 
L 244.302524 244.456433 
L 245.999088 244.618575 
L 247.695652 240.240728 
L 249.392216 242.99715 
L 251.088781 245.105003 
L 252.785345 245.753573 
L 254.481909 244.29429 
L 256.178474 245.915715 
L 257.875038 243.807863 
L 259.571602 242.99715 
L 261.268167 242.34858 
L 262.964731 244.618575 
L 264.661295 243.970005 
L 266.35786 245.75652 
L 268.054424 245.753573 
L 269.750988 244.618575 
L 271.447552 243.64572 
L 273.144117 236.781693 
L 274.840681 245.105003 
L 276.537245 245.429288 
L 278.23381 245.59143 
L 279.930374 245.267145 
L 281.626938 246.077858 
L 283.323503 246.077858 
L 285.020067 240.40287 
L 286.716631 243.970005 
L 288.413196 245.59143 
L 290.10976 246.077858 
L 291.806324 245.633237 
L 293.502888 245.683979 
L 295.199453 243.483578 
L 296.896017 243.483578 
L 298.592581 243.970005 
L 300.289146 246.077858 
L 301.98571 245.59143 
L 303.682274 233.349672 
L 305.378839 239.842741 
L 307.075403 238.45716 
L 308.771967 243.483578 
L 310.468531 245.429288 
L 312.165096 245.59143 
L 313.86166 246.077858 
L 315.558224 246.077858 
L 317.254789 242.835008 
L 318.951353 243.807863 
L 320.647917 241.70001 
L 322.344482 244.456433 
L 324.041046 245.267145 
L 325.73761 245.59143 
L 327.434175 243.159293 
L 329.130739 243.159293 
L 330.827303 245.267145 
L 332.523867 246.24 
L 335.916996 246.24 
L 337.61356 242.835008 
L 339.310125 244.94286 
L 341.006689 245.267145 
L 344.399818 246.24 
L 346.096382 246.24 
L 347.792946 241.537868 
L 349.48951 244.574359 
L 351.186075 243.993175 
L 352.882639 245.753573 
L 354.579203 246.073353 
L 356.275768 244.74158 
L 357.972332 246.24 
L 359.668896 245.94628 
L 361.365461 243.559245 
L 363.062025 242.513291 
L 364.758589 242.753936 
L 366.455154 246.143728 
L 368.151718 245.179906 
L 369.848282 246.207572 
L 371.544846 241.862153 
L 373.241411 240.730755 
L 374.937975 243.367761 
L 376.634539 245.220125 
L 378.331104 244.776834 
L 380.027668 244.94286 
L 381.724232 243.321435 
L 383.420797 237.484306 
L 385.117361 244.429408 
L 386.813925 242.672865 
L 388.51049 246.077858 
L 390.207054 244.94286 
L 391.903618 244.456433 
L 393.600182 245.915715 
L 395.296747 245.753573 
L 396.993311 244.780718 
L 398.689875 244.357265 
L 400.38644 244.901165 
L 403.779568 243.289007 
L 405.476133 241.70001 
L 407.172697 244.953096 
L 408.869261 246.24 
L 410.565825 243.65856 
L 412.26239 244.538196 
L 413.958954 237.611701 
L 415.655518 200.02939 
L 417.352083 230.836463 
L 419.048647 236.511451 
L 420.745211 240.565013 
L 422.441776 240.565013 
L 424.13834 242.186438 
L 425.834904 235.862881 
L 427.531469 233.430743 
L 429.228033 241.375725 
L 430.924597 241.213583 
L 432.621161 243.64572 
L 434.317726 243.807863 
L 436.01429 243.807863 
L 437.710854 242.99715 
L 439.407419 238.943588 
L 441.103983 231.809318 
L 442.800547 244.780718 
L 444.497112 245.59143 
L 446.193676 245.533417 
L 447.89024 244.132148 
L 449.586804 245.59143 
L 451.283369 245.753573 
L 452.979933 243.159293 
L 454.676497 242.510723 
L 458.069626 236.997878 
L 459.76619 246.077858 
L 461.462755 246.24 
L 463.159319 246.077858 
L 464.855883 243.64572 
L 466.552448 244.926646 
L 468.249012 242.024295 
L 469.945576 241.70001 
L 471.64214 245.915715 
L 473.338705 243.970005 
L 475.035269 233.268601 
L 476.731833 245.59143 
L 478.428398 246.24 
L 480.124962 245.990813 
L 481.821526 244.618575 
L 483.518091 242.099124 
L 485.214655 242.99715 
L 486.911219 244.132148 
L 488.607784 245.753573 
L 490.304348 246.24 
L 492.000912 243.710577 
L 493.697476 242.883018 
L 495.394041 243.159293 
L 497.090605 244.618575 
L 498.787169 245.753573 
L 500.483734 232.282774 
L 502.180298 246.24 
L 503.876862 244.80002 
L 505.573427 242.672865 
L 507.269991 221.026843 
L 508.966555 241.134279 
L 510.663119 243.211088 
L 512.359684 238.931116 
L 514.056248 242.835008 
L 515.752812 245.899546 
L 517.449377 236.511451 
L 519.145941 236.812566 
L 520.842505 236.511451 
L 522.53907 241.05144 
L 524.235634 246.170851 
L 525.932198 244.618575 
L 527.628763 245.915715 
L 529.325327 246.077858 
L 531.021891 243.321435 
L 532.718455 242.34858 
L 534.41502 244.94286 
L 536.111584 245.429288 
L 537.808148 246.077858 
L 539.504713 246.24 
L 541.201277 245.267145 
L 542.897841 241.375725 
L 544.594406 244.108987 
L 546.29097 245.105003 
L 547.987534 246.24 
L 549.684099 246.24 
L 551.380663 246.077858 
L 553.077227 245.429288 
L 554.773791 241.213583 
L 556.470356 244.132148 
L 558.16692 244.618575 
L 559.863484 246.24 
L 561.560049 246.077858 
L 563.256613 244.29429 
L 564.953177 244.618575 
L 568.346306 246.24 
L 570.04287 245.915715 
L 571.739434 245.753573 
L 573.435999 245.429288 
L 575.132563 244.132148 
L 576.829127 243.970005 
L 578.525692 244.659111 
L 580.222256 245.59143 
L 583.615385 245.59143 
L 585.311949 246.077858 
L 587.008513 243.943754 
L 588.705078 242.186438 
L 590.401642 246.077858 
L 592.098206 244.456433 
L 593.79477 246.24 
L 595.491335 243.159293 
L 597.187899 245.429288 
L 600.581028 244.456433 
L 602.277592 245.59143 
L 603.974156 246.037322 
L 607.367285 245.753573 
L 609.063849 246.24 
L 610.760413 245.59143 
L 612.456978 243.483578 
L 614.153542 244.29429 
L 615.850106 244.29429 
L 617.546671 244.94286 
L 619.243235 245.915715 
L 620.939799 246.24 
L 622.636364 246.24 
L 622.636364 246.24 
" clip-path="url(#pef2e122dbb)" style="fill: none; stroke: #1f77b4; stroke-opacity: 0.6; stroke-width: 1.5; stroke-linecap: square"/>
   </g>
   <g id="line2d_16">
    <path d="M 115.363636 242.634561 
L 117.060201 243.409234 
L 118.756765 240.511976 
L 120.453329 238.921476 
L 122.149894 239.894666 
L 123.846458 242.80328 
L 125.543022 240.775413 
L 127.239587 242.888982 
L 128.936151 233.462017 
L 130.632715 212.974636 
L 132.329279 206.920629 
L 134.025844 228.974857 
L 135.722408 235.772738 
L 137.418972 232.50146 
L 139.115537 243.48511 
L 140.812101 240.337014 
L 142.508665 238.491731 
L 144.20523 240.435685 
L 145.901794 242.656901 
L 147.598358 242.372388 
L 149.294922 242.408926 
L 150.991487 242.789377 
L 152.688051 242.488083 
L 154.384615 242.472375 
L 156.08118 242.813085 
L 157.777744 243.446962 
L 159.474308 239.934549 
L 161.170873 242.342732 
L 162.867437 232.780383 
L 164.564001 231.34732 
L 166.260566 238.290729 
L 167.95713 241.480702 
L 169.653694 241.378908 
L 171.350258 242.623619 
L 173.046823 238.626384 
L 174.743387 232.93447 
L 176.439951 243.922479 
L 178.136516 241.119112 
L 179.83308 241.052033 
L 181.529644 242.46938 
L 183.226209 242.107772 
L 184.922773 226.129654 
L 186.619337 242.205693 
L 190.012466 244.081846 
L 191.70903 241.72048 
L 193.405594 240.024805 
L 196.798723 241.567436 
L 198.495287 242.875464 
L 200.191852 235.752547 
L 201.888416 237.903081 
L 203.58498 238.455315 
L 205.281545 226.8669 
L 206.978109 225.260928 
L 208.674673 227.434988 
L 210.371237 233.517481 
L 212.067802 230.919928 
L 213.764366 235.879697 
L 215.46093 240.220917 
L 217.157495 244.03618 
L 218.854059 243.454795 
L 220.550623 237.338178 
L 222.247188 239.927467 
L 223.943752 241.463676 
L 225.640316 242.321012 
L 230.730009 244.071895 
L 232.426573 242.099795 
L 234.123138 240.66301 
L 235.819702 241.29055 
L 237.516266 242.063413 
L 239.212831 238.975725 
L 240.909395 241.972246 
L 242.605959 230.320078 
L 244.302524 231.233724 
L 245.999088 227.66392 
L 247.695652 236.661917 
L 249.392216 240.518692 
L 251.088781 241.879129 
L 252.785345 237.089009 
L 254.481909 228.080479 
L 256.178474 231.130365 
L 257.875038 241.96583 
L 259.571602 239.830653 
L 261.268167 241.424524 
L 262.964731 242.54413 
L 264.661295 242.316033 
L 266.35786 242.277116 
L 268.054424 243.429832 
L 269.750988 243.58351 
L 271.447552 241.449652 
L 273.144117 241.188311 
L 274.840681 242.110513 
L 276.537245 239.272683 
L 278.23381 242.295979 
L 279.930374 235.934196 
L 281.626938 231.041261 
L 283.323503 225.604104 
L 285.020067 236.772681 
L 288.413196 242.562046 
L 290.10976 232.805697 
L 291.806324 233.574074 
L 293.502888 242.475915 
L 295.199453 241.457795 
L 296.896017 241.694539 
L 298.592581 242.287763 
L 300.289146 243.415386 
L 301.98571 243.076887 
L 303.682274 242.287498 
L 305.378839 241.107653 
L 308.771967 243.230186 
L 310.468531 240.01934 
L 312.165096 242.312677 
L 313.86166 231.369476 
L 315.558224 231.068082 
L 317.254789 224.4703 
L 318.951353 234.469647 
L 320.647917 240.71714 
L 322.344482 242.251358 
L 324.041046 239.125891 
L 325.73761 241.079326 
L 327.434175 241.244177 
L 329.130739 242.265875 
L 330.827303 243.133172 
L 332.523867 242.153236 
L 334.220432 242.329854 
L 335.916996 242.845941 
L 337.61356 242.125353 
L 339.310125 242.398665 
L 341.006689 243.372595 
L 342.703253 239.919671 
L 344.399818 242.227629 
L 346.096382 231.814698 
L 347.792946 225.5576 
L 349.48951 239.251274 
L 351.186075 240.808361 
L 352.882639 242.572396 
L 354.579203 242.261788 
L 356.275768 239.63237 
L 357.972332 235.870758 
L 359.668896 242.979989 
L 361.365461 241.247432 
L 363.062025 240.960301 
L 364.758589 241.706085 
L 366.455154 243.042359 
L 369.848282 242.100531 
L 371.544846 241.922019 
L 373.241411 241.941025 
L 374.937975 241.243959 
L 376.634539 239.367029 
L 378.331104 241.983409 
L 380.027668 229.670586 
L 381.724232 232.070203 
L 383.420797 237.887323 
L 385.117361 238.751096 
L 386.813925 238.295427 
L 388.51049 242.309659 
L 390.207054 243.966764 
L 391.903618 241.649607 
L 393.600182 243.372957 
L 395.296747 239.371365 
L 396.993311 241.972472 
L 398.689875 242.780771 
L 400.38644 242.703024 
L 402.083004 244.007327 
L 403.779568 244.352714 
L 405.476133 240.099438 
L 407.172697 238.490996 
L 408.869261 241.966969 
L 410.565825 235.155146 
L 412.26239 243.611403 
L 413.958954 203.681476 
L 415.655518 214.680801 
L 417.352083 223.951479 
L 419.048647 226.625646 
L 420.745211 229.926072 
L 422.441776 232.585663 
L 424.13834 244.022359 
L 425.834904 239.820842 
L 427.531469 233.164372 
L 429.228033 239.399252 
L 430.924597 241.976986 
L 432.621161 242.452541 
L 434.317726 243.521054 
L 436.01429 244.106588 
L 437.710854 244.125489 
L 439.407419 241.965563 
L 441.103983 240.352935 
L 442.800547 241.678906 
L 444.497112 243.17221 
L 446.193676 239.681645 
L 447.89024 242.197018 
L 449.586804 231.076899 
L 451.283369 230.96446 
L 452.979933 225.377574 
L 454.676497 230.805275 
L 456.373062 239.263407 
L 458.069626 242.413771 
L 459.76619 234.077292 
L 461.462755 230.224493 
L 463.159319 243.791837 
L 464.855883 241.131405 
L 466.552448 240.664216 
L 469.945576 243.145781 
L 471.64214 242.597294 
L 473.338705 241.522113 
L 475.035269 241.622986 
L 476.731833 243.313492 
L 478.428398 242.106783 
L 480.124962 229.662108 
L 481.821526 230.224741 
L 483.518091 241.508797 
L 486.911219 242.683434 
L 488.607784 241.615657 
L 490.304348 235.575111 
L 492.000912 241.795081 
L 495.394041 242.766193 
L 497.090605 243.46165 
L 498.787169 243.207137 
L 500.483734 242.077863 
L 502.180298 239.773285 
L 503.876862 226.877063 
L 505.573427 238.829958 
L 507.269991 240.48053 
L 508.966555 225.063556 
L 510.663119 222.580502 
L 512.359684 224.224088 
L 514.056248 229.323544 
L 515.752812 242.748018 
L 517.449377 240.844171 
L 519.145941 240.891502 
L 522.53907 243.162891 
L 525.932198 242.096493 
L 527.628763 242.226941 
L 529.325327 243.149926 
L 531.021891 241.354939 
L 532.718455 241.587099 
L 534.41502 243.30172 
L 536.111584 239.182134 
L 537.808148 230.18592 
L 541.201277 231.672966 
L 542.897841 240.154076 
L 544.594406 241.96333 
L 546.29097 242.910885 
L 547.987534 239.501877 
L 549.684099 231.574811 
L 551.380663 233.401967 
L 553.077227 241.683569 
L 554.773791 242.435481 
L 556.470356 243.510927 
L 558.16692 242.79734 
L 559.863484 242.589928 
L 561.560049 243.167586 
L 563.256613 241.485315 
L 564.953177 241.366504 
L 568.346306 243.183416 
L 570.04287 239.162741 
L 571.739434 242.093056 
L 573.435999 231.079102 
L 575.132563 229.204981 
L 576.829127 237.36749 
L 578.525692 241.514438 
L 580.222256 242.705551 
L 583.615385 235.501363 
L 585.311949 232.628129 
L 587.008513 241.693375 
L 588.705078 242.379728 
L 593.79477 242.276701 
L 595.491335 241.551823 
L 597.187899 241.737571 
L 598.884463 242.303847 
L 600.581028 228.136716 
L 602.277592 228.456521 
L 603.974156 237.978549 
L 605.670721 240.246199 
L 607.367285 234.279972 
L 609.063849 231.296871 
L 610.760413 243.161646 
L 612.456978 241.054097 
L 614.153542 240.452898 
L 617.546671 243.1837 
L 619.243235 242.283283 
L 620.939799 242.353683 
L 622.636364 243.10151 
L 622.636364 243.10151 
" clip-path="url(#pef2e122dbb)" style="fill: none; stroke: #ff7f0e; stroke-opacity: 0.8; stroke-width: 1.8; stroke-linecap: square"/>
   </g>
   <g id="line2d_17">
    <path d="M 115.363636 241.374715 
L 117.060201 242.550618 
L 118.756765 234.31008 
L 120.453329 223.315331 
L 122.149894 219.256141 
L 123.846458 231.762611 
L 125.543022 232.115891 
L 127.239587 227.908616 
L 128.936151 205.83931 
L 130.632715 130.478555 
L 132.329279 44.64 
L 134.025844 73.440223 
L 135.722408 205.691665 
L 137.418972 203.961553 
L 139.115537 242.750613 
L 140.812101 238.239747 
L 142.508665 232.162497 
L 144.20523 230.113432 
L 147.598358 239.068545 
L 149.294922 241.123363 
L 150.991487 241.732322 
L 152.688051 234.401616 
L 154.384615 228.695195 
L 156.08118 227.316139 
L 157.777744 230.945147 
L 159.474308 223.403964 
L 161.170873 221.64841 
L 162.867437 179.812046 
L 164.564001 182.724351 
L 166.260566 150.517651 
L 167.95713 152.764112 
L 169.653694 161.395359 
L 171.350258 180.77443 
L 173.046823 175.72301 
L 174.743387 188.670069 
L 176.439951 242.54911 
L 178.136516 237.834425 
L 179.83308 231.369122 
L 181.529644 229.737657 
L 183.226209 237.825516 
L 184.922773 225.002553 
L 186.619337 241.321317 
L 188.315901 242.252577 
L 190.012466 243.575566 
L 191.70903 240.712209 
L 193.405594 236.409432 
L 195.102159 234.798562 
L 196.798723 238.402034 
L 198.495287 241.704598 
L 200.191852 236.705225 
L 201.888416 219.256618 
L 203.58498 216.777292 
L 205.281545 182.841885 
L 206.978109 138.581137 
L 208.674673 175.710852 
L 210.371237 205.14086 
L 212.067802 205.245368 
L 213.764366 220.038453 
L 215.46093 226.404638 
L 217.157495 243.69444 
L 218.854059 242.785285 
L 220.550623 233.285311 
L 222.247188 234.198489 
L 225.640316 240.230512 
L 227.336881 241.121832 
L 229.033445 242.175477 
L 230.730009 243.41775 
L 232.426573 239.674687 
L 234.123138 236.547833 
L 235.819702 236.557993 
L 237.516266 239.291744 
L 239.212831 234.196369 
L 240.909395 232.330426 
L 242.605959 199.843066 
L 244.302524 197.376346 
L 245.999088 155.15891 
L 247.695652 136.333854 
L 249.392216 146.362967 
L 251.088781 171.299901 
L 252.785345 180.120041 
L 254.481909 200.055408 
L 256.178474 207.608565 
L 257.875038 239.027075 
L 259.571602 232.310185 
L 261.268167 229.745159 
L 262.964731 235.744527 
L 264.661295 238.881218 
L 266.35786 239.743293 
L 268.054424 241.619607 
L 269.750988 242.206341 
L 271.447552 238.283369 
L 273.144117 230.287157 
L 274.840681 230.300601 
L 276.537245 228.089457 
L 278.23381 226.771184 
L 279.930374 187.749818 
L 281.626938 186.114637 
L 283.323503 154.817317 
L 285.020067 115.161572 
L 286.716631 139.030166 
L 288.413196 183.450256 
L 290.10976 178.505821 
L 291.806324 179.299561 
L 293.502888 240.467154 
L 295.199453 235.101426 
L 296.896017 228.683172 
L 298.592581 227.965813 
L 300.289146 233.211907 
L 301.98571 235.935399 
L 303.682274 239.541952 
L 305.378839 230.959417 
L 307.075403 229.828146 
L 308.771967 231.607086 
L 310.468531 226.766589 
L 312.165096 225.202818 
L 313.86166 185.80253 
L 315.558224 189.186245 
L 317.254789 151.923008 
L 318.951353 125.341249 
L 320.647917 141.63651 
L 322.344482 170.064777 
L 324.041046 176.866548 
L 325.73761 237.209018 
L 327.434175 231.360602 
L 329.130739 229.688199 
L 330.827303 233.264391 
L 332.523867 239.329796 
L 335.916996 241.43717 
L 337.61356 235.015247 
L 339.310125 226.928979 
L 341.006689 231.973487 
L 342.703253 226.016977 
L 344.399818 224.819826 
L 346.096382 184.145409 
L 347.792946 151.697994 
L 349.48951 128.799345 
L 351.186075 146.860014 
L 352.882639 182.700085 
L 354.579203 183.196567 
L 356.275768 189.02094 
L 357.972332 194.237952 
L 359.668896 241.597108 
L 361.365461 232.107738 
L 363.062025 223.856281 
L 364.758589 222.788537 
L 366.455154 235.780651 
L 369.848282 239.436958 
L 371.544846 234.94812 
L 373.241411 227.954801 
L 374.937975 235.592519 
L 376.634539 229.093344 
L 378.331104 225.712324 
L 380.027668 195.616633 
L 381.724232 192.267561 
L 383.420797 156.272502 
L 385.117361 123.729443 
L 386.813925 140.834437 
L 388.51049 194.187387 
L 390.207054 216.61753 
L 391.903618 215.875778 
L 393.600182 241.2984 
L 395.296747 230.081609 
L 396.993311 227.952058 
L 398.689875 240.353645 
L 400.38644 240.376648 
L 402.083004 242.696874 
L 403.779568 243.328452 
L 405.476133 234.258396 
L 407.172697 233.189425 
L 408.869261 232.311319 
L 410.565825 206.39448 
L 412.26239 223.034187 
L 413.958954 138.160877 
L 415.655518 136.037299 
L 419.048647 194.535571 
L 420.745211 208.446539 
L 422.441776 213.924593 
L 424.13834 243.528546 
L 425.834904 237.15985 
L 427.531469 225.120416 
L 429.228033 231.636407 
L 430.924597 237.243871 
L 432.621161 239.80779 
L 434.317726 241.516272 
L 436.01429 242.602839 
L 437.710854 242.834404 
L 439.407419 239.299544 
L 441.103983 233.838105 
L 442.800547 231.756569 
L 444.497112 235.832172 
L 446.193676 228.074107 
L 447.89024 224.77595 
L 449.586804 184.876608 
L 451.283369 188.670455 
L 452.979933 156.14465 
L 454.676497 125.832654 
L 456.373062 138.516266 
L 458.069626 172.838444 
L 459.76619 183.405703 
L 461.462755 191.035732 
L 463.159319 242.773523 
L 464.855883 237.892788 
L 466.552448 232.326954 
L 468.249012 230.249376 
L 469.945576 233.363148 
L 471.64214 237.457277 
L 473.338705 238.528563 
L 475.035269 232.622478 
L 476.731833 233.760599 
L 478.428398 226.899108 
L 480.124962 183.293577 
L 481.821526 155.624585 
L 483.518091 154.861722 
L 485.214655 169.094871 
L 486.911219 179.756319 
L 488.607784 173.600704 
L 490.304348 172.887065 
L 492.000912 236.780394 
L 493.697476 230.567168 
L 495.394041 229.288444 
L 497.090605 231.295046 
L 498.787169 235.286896 
L 500.483734 232.287656 
L 502.180298 225.380095 
L 503.876862 158.669329 
L 505.573427 155.321736 
L 507.269991 165.260707 
L 508.966555 177.595051 
L 510.663119 188.141186 
L 512.359684 188.322631 
L 514.056248 204.097208 
L 515.752812 240.820056 
L 517.449377 237.40572 
L 519.145941 233.563225 
L 520.842505 231.8351 
L 524.235634 236.991914 
L 525.932198 238.669146 
L 527.628763 240.007662 
L 529.325327 241.576163 
L 531.021891 237.341883 
L 532.718455 232.802065 
L 534.41502 234.098286 
L 536.111584 227.402156 
L 537.808148 184.703486 
L 539.504713 182.612794 
L 541.201277 154.056294 
L 542.897841 149.223272 
L 544.594406 160.963946 
L 546.29097 181.086557 
L 547.987534 164.532639 
L 549.684099 171.982995 
L 551.380663 184.490812 
L 553.077227 229.545583 
L 554.773791 228.022293 
L 556.470356 234.111347 
L 558.16692 237.538016 
L 559.863484 240.491584 
L 561.560049 241.518825 
L 563.256613 238.861381 
L 564.953177 233.397917 
L 566.649742 231.396882 
L 568.346306 235.003822 
L 570.04287 228.952119 
L 571.739434 229.715166 
L 573.435999 189.922962 
L 575.132563 157.433784 
L 576.829127 142.783699 
L 578.525692 154.368406 
L 580.222256 175.038001 
L 581.91882 166.795499 
L 583.615385 177.06978 
L 585.311949 186.064383 
L 587.008513 229.398968 
L 588.705078 227.387702 
L 590.401642 238.631837 
L 592.098206 239.291565 
L 593.79477 240.79097 
L 595.491335 236.951637 
L 597.187899 231.73432 
L 598.884463 231.089275 
L 600.581028 168.056017 
L 602.277592 135.028144 
L 603.974156 139.883057 
L 605.670721 168.260897 
L 607.367285 172.074863 
L 609.063849 197.09269 
L 610.760413 242.416819 
L 612.456978 238.376645 
L 614.153542 233.023405 
L 615.850106 230.857561 
L 617.546671 236.270115 
L 619.243235 238.892179 
L 620.939799 241.031691 
L 622.636364 242.284302 
L 622.636364 242.284302 
" clip-path="url(#pef2e122dbb)" style="fill: none; stroke: #2ca02c; stroke-opacity: 0.6; stroke-width: 1.5; stroke-linecap: square"/>
   </g>
   <g id="patch_3">
    <path d="M 90 256.32 
L 90 34.56 
" style="fill: none; stroke: #000000; stroke-width: 0.8; stroke-linejoin: miter; stroke-linecap: square"/>
   </g>
   <g id="patch_4">
    <path d="M 648 256.32 
L 648 34.56 
" style="fill: none; stroke: #000000; stroke-width: 0.8; stroke-linejoin: miter; stroke-linecap: square"/>
   </g>
   <g id="patch_5">
    <path d="M 90 256.32 
L 648 256.32 
" style="fill: none; stroke: #000000; stroke-width: 0.8; stroke-linejoin: miter; stroke-linecap: square"/>
   </g>
   <g id="patch_6">
    <path d="M 90 34.56 
L 648 34.56 
" style="fill: none; stroke: #000000; stroke-width: 0.8; stroke-linejoin: miter; stroke-linecap: square"/>
   </g>
   <g id="legend_1">
    <g id="patch_7">
     <path d="M 529.315625 86.594375 
L 641 86.594375 
Q 643 86.594375 643 84.594375 
L 643 41.56 
Q 643 39.56 641 39.56 
L 529.315625 39.56 
Q 527.315625 39.56 527.315625 41.56 
L 527.315625 84.594375 
Q 527.315625 86.594375 529.315625 86.594375 
z
" style="fill: #ffffff; opacity: 0.8; stroke: #cccccc; stroke-linejoin: miter"/>
    </g>
    <g id="line2d_18">
     <path d="M 531.315625 47.658438 
L 541.315625 47.658438 
L 551.315625 47.658438 
" style="fill: none; stroke: #1f77b4; stroke-opacity: 0.6; stroke-width: 1.5; stroke-linecap: square"/>
    </g>
    <g id="text_17">
     <!-- Observed -->
     <g transform="translate(559.315625 51.158438) scale(0.1 -0.1)">
      <defs>
       <path id="DejaVuSans-4f" d="M 2522 4238 
Q 1834 4238 1429 3725 
Q 1025 3213 1025 2328 
Q 1025 1447 1429 934 
Q 1834 422 2522 422 
Q 3209 422 3611 934 
Q 4013 1447 4013 2328 
Q 4013 3213 3611 3725 
Q 3209 4238 2522 4238 
z
M 2522 4750 
Q 3503 4750 4090 4092 
Q 4678 3434 4678 2328 
Q 4678 1225 4090 567 
Q 3503 -91 2522 -91 
Q 1538 -91 948 565 
Q 359 1222 359 2328 
Q 359 3434 948 4092 
Q 1538 4750 2522 4750 
z
" transform="scale(0.015625)"/>
       <path id="DejaVuSans-62" d="M 3116 1747 
Q 3116 2381 2855 2742 
Q 2594 3103 2138 3103 
Q 1681 3103 1420 2742 
Q 1159 2381 1159 1747 
Q 1159 1113 1420 752 
Q 1681 391 2138 391 
Q 2594 391 2855 752 
Q 3116 1113 3116 1747 
z
M 1159 2969 
Q 1341 3281 1617 3432 
Q 1894 3584 2278 3584 
Q 2916 3584 3314 3078 
Q 3713 2572 3713 1747 
Q 3713 922 3314 415 
Q 2916 -91 2278 -91 
Q 1894 -91 1617 61 
Q 1341 213 1159 525 
L 1159 0 
L 581 0 
L 581 4863 
L 1159 4863 
L 1159 2969 
z
" transform="scale(0.015625)"/>
       <path id="DejaVuSans-72" d="M 2631 2963 
Q 2534 3019 2420 3045 
Q 2306 3072 2169 3072 
Q 1681 3072 1420 2755 
Q 1159 2438 1159 1844 
L 1159 0 
L 581 0 
L 581 3500 
L 1159 3500 
L 1159 2956 
Q 1341 3275 1631 3429 
Q 1922 3584 2338 3584 
Q 2397 3584 2469 3576 
Q 2541 3569 2628 3553 
L 2631 2963 
z
" transform="scale(0.015625)"/>
       <path id="DejaVuSans-76" d="M 191 3500 
L 800 3500 
L 1894 563 
L 2988 3500 
L 3597 3500 
L 2284 0 
L 1503 0 
L 191 3500 
z
" transform="scale(0.015625)"/>
       <path id="DejaVuSans-64" d="M 2906 2969 
L 2906 4863 
L 3481 4863 
L 3481 0 
L 2906 0 
L 2906 525 
Q 2725 213 2448 61 
Q 2172 -91 1784 -91 
Q 1150 -91 751 415 
Q 353 922 353 1747 
Q 353 2572 751 3078 
Q 1150 3584 1784 3584 
Q 2172 3584 2448 3432 
Q 2725 3281 2906 2969 
z
M 947 1747 
Q 947 1113 1208 752 
Q 1469 391 1925 391 
Q 2381 391 2643 752 
Q 2906 1113 2906 1747 
Q 2906 2381 2643 2742 
Q 2381 3103 1925 3103 
Q 1469 3103 1208 2742 
Q 947 2381 947 1747 
z
" transform="scale(0.015625)"/>
      </defs>
      <use xlink:href="#DejaVuSans-4f"/>
      <use xlink:href="#DejaVuSans-62" x="78.710938"/>
      <use xlink:href="#DejaVuSans-73" x="142.1875"/>
      <use xlink:href="#DejaVuSans-65" x="194.287109"/>
      <use xlink:href="#DejaVuSans-72" x="255.810547"/>
      <use xlink:href="#DejaVuSans-76" x="296.923828"/>
      <use xlink:href="#DejaVuSans-65" x="356.103516"/>
      <use xlink:href="#DejaVuSans-64" x="417.626953"/>
     </g>
    </g>
    <g id="line2d_19">
     <path d="M 531.315625 62.336563 
L 541.315625 62.336563 
L 551.315625 62.336563 
" style="fill: none; stroke: #ff7f0e; stroke-opacity: 0.8; stroke-width: 1.8; stroke-linecap: square"/>
    </g>
    <g id="text_18">
     <!-- Hybrid Model -->
     <g transform="translate(559.315625 65.836563) scale(0.1 -0.1)">
      <defs>
       <path id="DejaVuSans-48" d="M 628 4666 
L 1259 4666 
L 1259 2753 
L 3553 2753 
L 3553 4666 
L 4184 4666 
L 4184 0 
L 3553 0 
L 3553 2222 
L 1259 2222 
L 1259 0 
L 628 0 
L 628 4666 
z
" transform="scale(0.015625)"/>
       <path id="DejaVuSans-79" d="M 2059 -325 
Q 1816 -950 1584 -1140 
Q 1353 -1331 966 -1331 
L 506 -1331 
L 506 -850 
L 844 -850 
Q 1081 -850 1212 -737 
Q 1344 -625 1503 -206 
L 1606 56 
L 191 3500 
L 800 3500 
L 1894 763 
L 2988 3500 
L 3597 3500 
L 2059 -325 
z
" transform="scale(0.015625)"/>
       <path id="DejaVuSans-4d" d="M 628 4666 
L 1569 4666 
L 2759 1491 
L 3956 4666 
L 4897 4666 
L 4897 0 
L 4281 0 
L 4281 4097 
L 3078 897 
L 2444 897 
L 1241 4097 
L 1241 0 
L 628 0 
L 628 4666 
z
" transform="scale(0.015625)"/>
       <path id="DejaVuSans-6f" d="M 1959 3097 
Q 1497 3097 1228 2736 
Q 959 2375 959 1747 
Q 959 1119 1226 758 
Q 1494 397 1959 397 
Q 2419 397 2687 759 
Q 2956 1122 2956 1747 
Q 2956 2369 2687 2733 
Q 2419 3097 1959 3097 
z
M 1959 3584 
Q 2709 3584 3137 3096 
Q 3566 2609 3566 1747 
Q 3566 888 3137 398 
Q 2709 -91 1959 -91 
Q 1206 -91 779 398 
Q 353 888 353 1747 
Q 353 2609 779 3096 
Q 1206 3584 1959 3584 
z
" transform="scale(0.015625)"/>
       <path id="DejaVuSans-6c" d="M 603 4863 
L 1178 4863 
L 1178 0 
L 603 0 
L 603 4863 
z
" transform="scale(0.015625)"/>
      </defs>
      <use xlink:href="#DejaVuSans-48"/>
      <use xlink:href="#DejaVuSans-79" x="75.195312"/>
      <use xlink:href="#DejaVuSans-62" x="134.375"/>
      <use xlink:href="#DejaVuSans-72" x="197.851562"/>
      <use xlink:href="#DejaVuSans-69" x="238.964844"/>
      <use xlink:href="#DejaVuSans-64" x="266.748047"/>
      <use xlink:href="#DejaVuSans-20" x="330.224609"/>
      <use xlink:href="#DejaVuSans-4d" x="362.011719"/>
      <use xlink:href="#DejaVuSans-6f" x="448.291016"/>
      <use xlink:href="#DejaVuSans-64" x="509.472656"/>
      <use xlink:href="#DejaVuSans-65" x="572.949219"/>
      <use xlink:href="#DejaVuSans-6c" x="634.472656"/>
     </g>
    </g>
    <g id="line2d_20">
     <path d="M 531.315625 77.014688 
L 541.315625 77.014688 
L 551.315625 77.014688 
" style="fill: none; stroke: #2ca02c; stroke-opacity: 0.6; stroke-width: 1.5; stroke-linecap: square"/>
    </g>
    <g id="text_19">
     <!-- Empirical Model -->
     <g transform="translate(559.315625 80.514688) scale(0.1 -0.1)">
      <defs>
       <path id="DejaVuSans-63" d="M 3122 3366 
L 3122 2828 
Q 2878 2963 2633 3030 
Q 2388 3097 2138 3097 
Q 1578 3097 1268 2742 
Q 959 2388 959 1747 
Q 959 1106 1268 751 
Q 1578 397 2138 397 
Q 2388 397 2633 464 
Q 2878 531 3122 666 
L 3122 134 
Q 2881 22 2623 -34 
Q 2366 -91 2075 -91 
Q 1284 -91 818 406 
Q 353 903 353 1747 
Q 353 2603 823 3093 
Q 1294 3584 2113 3584 
Q 2378 3584 2631 3529 
Q 2884 3475 3122 3366 
z
" transform="scale(0.015625)"/>
       <path id="DejaVuSans-61" d="M 2194 1759 
Q 1497 1759 1228 1600 
Q 959 1441 959 1056 
Q 959 750 1161 570 
Q 1363 391 1709 391 
Q 2188 391 2477 730 
Q 2766 1069 2766 1631 
L 2766 1759 
L 2194 1759 
z
M 3341 1997 
L 3341 0 
L 2766 0 
L 2766 531 
Q 2569 213 2275 61 
Q 1981 -91 1556 -91 
Q 1019 -91 701 211 
Q 384 513 384 1019 
Q 384 1609 779 1909 
Q 1175 2209 1959 2209 
L 2766 2209 
L 2766 2266 
Q 2766 2663 2505 2880 
Q 2244 3097 1772 3097 
Q 1472 3097 1187 3025 
Q 903 2953 641 2809 
L 641 3341 
Q 956 3463 1253 3523 
Q 1550 3584 1831 3584 
Q 2591 3584 2966 3190 
Q 3341 2797 3341 1997 
z
" transform="scale(0.015625)"/>
      </defs>
      <use xlink:href="#DejaVuSans-45"/>
      <use xlink:href="#DejaVuSans-6d" x="63.183594"/>
      <use xlink:href="#DejaVuSans-70" x="160.595703"/>
      <use xlink:href="#DejaVuSans-69" x="224.072266"/>
      <use xlink:href="#DejaVuSans-72" x="251.855469"/>
      <use xlink:href="#DejaVuSans-69" x="292.96875"/>
      <use xlink:href="#DejaVuSans-63" x="320.751953"/>
      <use xlink:href="#DejaVuSans-61" x="375.732422"/>
      <use xlink:href="#DejaVuSans-6c" x="437.011719"/>
      <use xlink:href="#DejaVuSans-20" x="464.794922"/>
      <use xlink:href="#DejaVuSans-4d" x="496.582031"/>
      <use xlink:href="#DejaVuSans-6f" x="582.861328"/>
      <use xlink:href="#DejaVuSans-64" x="644.042969"/>
      <use xlink:href="#DejaVuSans-65" x="707.519531"/>
      <use xlink:href="#DejaVuSans-6c" x="769.042969"/>
     </g>
    </g>
   </g>
  </g>
 </g>
 <defs>
  <clipPath id="pef2e122dbb">
   <rect x="90" y="34.56" width="558" height="221.76"/>
  </clipPath>
 </defs>
</svg>
