<?xml version="1.0" encoding="utf-8" standalone="no"?>
<!DOCTYPE svg PUBLIC "-//W3C//DTD SVG 1.1//EN"
  "http://www.w3.org/Graphics/SVG/1.1/DTD/svg11.dtd">
<svg xmlns:xlink="http://www.w3.org/1999/xlink" width="720pt" height="288pt" viewBox="0 0 720 288" xmlns="http://www.w3.org/2000/svg" version="1.1">
 <metadata>
  <rdf:RDF xmlns:dc="http://purl.org/dc/elements/1.1/" xmlns:cc="http://creativecommons.org/ns#" xmlns:rdf="http://www.w3.org/1999/02/22-rdf-syntax-ns#">
   <cc:Work>
    <dc:type rdf:resource="http://purl.org/dc/dcmitype/StillImage"/>
    <dc:date>2025-01-06T16:16:31.012873</dc:date>
    <dc:format>image/svg+xml</dc:format>
    <dc:creator>
     <cc:Agent>
      <dc:title>Matplotlib v3.6.0, https://matplotlib.org/</dc:title>
     </cc:Agent>
    </dc:creator>
   </cc:Work>
  </rdf:RDF>
 </metadata>
 <defs>
  <style type="text/css">*{stroke-linejoin: round; stroke-linecap: butt}</style>
 </defs>
 <g id="figure_1">
  <g id="patch_1">
   <path d="M 0 288 
L 720 288 
L 720 0 
L 0 0 
z
" style="fill: #ffffff"/>
  </g>
  <g id="axes_1">
   <g id="patch_2">
    <path d="M 90 256.32 
L 648 256.32 
L 648 34.56 
L 90 34.56 
z
" style="fill: #ffffff"/>
   </g>
   <g id="matplotlib.axis_1">
    <g id="xtick_1">
     <g id="line2d_1">
      <defs>
       <path id="m0a292e5335" d="M 0 0 
L 0 3.5 
" style="stroke: #000000; stroke-width: 0.8"/>
      </defs>
      <g>
       <use xlink:href="#m0a292e5335" x="115.363636" y="256.32" style="stroke: #000000; stroke-width: 0.8"/>
      </g>
     </g>
     <g id="text_1">
      <!-- 0 -->
      <g transform="translate(112.182386 270.918437) scale(0.1 -0.1)">
       <defs>
        <path id="DejaVuSans-30" d="M 2034 4250 
Q 1547 4250 1301 3770 
Q 1056 3291 1056 2328 
Q 1056 1369 1301 889 
Q 1547 409 2034 409 
Q 2525 409 2770 889 
Q 3016 1369 3016 2328 
Q 3016 3291 2770 3770 
Q 2525 4250 2034 4250 
z
M 2034 4750 
Q 2819 4750 3233 4129 
Q 3647 3509 3647 2328 
Q 3647 1150 3233 529 
Q 2819 -91 2034 -91 
Q 1250 -91 836 529 
Q 422 1150 422 2328 
Q 422 3509 836 4129 
Q 1250 4750 2034 4750 
z
" transform="scale(0.015625)"/>
       </defs>
       <use xlink:href="#DejaVuSans-30"/>
      </g>
     </g>
    </g>
    <g id="xtick_2">
     <g id="line2d_2">
      <g>
       <use xlink:href="#m0a292e5335" x="200.191852" y="256.32" style="stroke: #000000; stroke-width: 0.8"/>
      </g>
     </g>
     <g id="text_2">
      <!-- 50 -->
      <g transform="translate(193.829352 270.918437) scale(0.1 -0.1)">
       <defs>
        <path id="DejaVuSans-35" d="M 691 4666 
L 3169 4666 
L 3169 4134 
L 1269 4134 
L 1269 2991 
Q 1406 3038 1543 3061 
Q 1681 3084 1819 3084 
Q 2600 3084 3056 2656 
Q 3513 2228 3513 1497 
Q 3513 744 3044 326 
Q 2575 -91 1722 -91 
Q 1428 -91 1123 -41 
Q 819 9 494 109 
L 494 744 
Q 775 591 1075 516 
Q 1375 441 1709 441 
Q 2250 441 2565 725 
Q 2881 1009 2881 1497 
Q 2881 1984 2565 2268 
Q 2250 2553 1709 2553 
Q 1456 2553 1204 2497 
Q 953 2441 691 2322 
L 691 4666 
z
" transform="scale(0.015625)"/>
       </defs>
       <use xlink:href="#DejaVuSans-35"/>
       <use xlink:href="#DejaVuSans-30" x="63.623047"/>
      </g>
     </g>
    </g>
    <g id="xtick_3">
     <g id="line2d_3">
      <g>
       <use xlink:href="#m0a292e5335" x="285.020067" y="256.32" style="stroke: #000000; stroke-width: 0.8"/>
      </g>
     </g>
     <g id="text_3">
      <!-- 100 -->
      <g transform="translate(275.476317 270.918437) scale(0.1 -0.1)">
       <defs>
        <path id="DejaVuSans-31" d="M 794 531 
L 1825 531 
L 1825 4091 
L 703 3866 
L 703 4441 
L 1819 4666 
L 2450 4666 
L 2450 531 
L 3481 531 
L 3481 0 
L 794 0 
L 794 531 
z
" transform="scale(0.015625)"/>
       </defs>
       <use xlink:href="#DejaVuSans-31"/>
       <use xlink:href="#DejaVuSans-30" x="63.623047"/>
       <use xlink:href="#DejaVuSans-30" x="127.246094"/>
      </g>
     </g>
    </g>
    <g id="xtick_4">
     <g id="line2d_4">
      <g>
       <use xlink:href="#m0a292e5335" x="369.848282" y="256.32" style="stroke: #000000; stroke-width: 0.8"/>
      </g>
     </g>
     <g id="text_4">
      <!-- 150 -->
      <g transform="translate(360.304532 270.918437) scale(0.1 -0.1)">
       <use xlink:href="#DejaVuSans-31"/>
       <use xlink:href="#DejaVuSans-35" x="63.623047"/>
       <use xlink:href="#DejaVuSans-30" x="127.246094"/>
      </g>
     </g>
    </g>
    <g id="xtick_5">
     <g id="line2d_5">
      <g>
       <use xlink:href="#m0a292e5335" x="454.676497" y="256.32" style="stroke: #000000; stroke-width: 0.8"/>
      </g>
     </g>
     <g id="text_5">
      <!-- 200 -->
      <g transform="translate(445.132747 270.918437) scale(0.1 -0.1)">
       <defs>
        <path id="DejaVuSans-32" d="M 1228 531 
L 3431 531 
L 3431 0 
L 469 0 
L 469 531 
Q 828 903 1448 1529 
Q 2069 2156 2228 2338 
Q 2531 2678 2651 2914 
Q 2772 3150 2772 3378 
Q 2772 3750 2511 3984 
Q 2250 4219 1831 4219 
Q 1534 4219 1204 4116 
Q 875 4013 500 3803 
L 500 4441 
Q 881 4594 1212 4672 
Q 1544 4750 1819 4750 
Q 2544 4750 2975 4387 
Q 3406 4025 3406 3419 
Q 3406 3131 3298 2873 
Q 3191 2616 2906 2266 
Q 2828 2175 2409 1742 
Q 1991 1309 1228 531 
z
" transform="scale(0.015625)"/>
       </defs>
       <use xlink:href="#DejaVuSans-32"/>
       <use xlink:href="#DejaVuSans-30" x="63.623047"/>
       <use xlink:href="#DejaVuSans-30" x="127.246094"/>
      </g>
     </g>
    </g>
    <g id="xtick_6">
     <g id="line2d_6">
      <g>
       <use xlink:href="#m0a292e5335" x="539.504713" y="256.32" style="stroke: #000000; stroke-width: 0.8"/>
      </g>
     </g>
     <g id="text_6">
      <!-- 250 -->
      <g transform="translate(529.960963 270.918437) scale(0.1 -0.1)">
       <use xlink:href="#DejaVuSans-32"/>
       <use xlink:href="#DejaVuSans-35" x="63.623047"/>
       <use xlink:href="#DejaVuSans-30" x="127.246094"/>
      </g>
     </g>
    </g>
    <g id="xtick_7">
     <g id="line2d_7">
      <g>
       <use xlink:href="#m0a292e5335" x="624.332928" y="256.32" style="stroke: #000000; stroke-width: 0.8"/>
      </g>
     </g>
     <g id="text_7">
      <!-- 300 -->
      <g transform="translate(614.789178 270.918437) scale(0.1 -0.1)">
       <defs>
        <path id="DejaVuSans-33" d="M 2597 2516 
Q 3050 2419 3304 2112 
Q 3559 1806 3559 1356 
Q 3559 666 3084 287 
Q 2609 -91 1734 -91 
Q 1441 -91 1130 -33 
Q 819 25 488 141 
L 488 750 
Q 750 597 1062 519 
Q 1375 441 1716 441 
Q 2309 441 2620 675 
Q 2931 909 2931 1356 
Q 2931 1769 2642 2001 
Q 2353 2234 1838 2234 
L 1294 2234 
L 1294 2753 
L 1863 2753 
Q 2328 2753 2575 2939 
Q 2822 3125 2822 3475 
Q 2822 3834 2567 4026 
Q 2313 4219 1838 4219 
Q 1578 4219 1281 4162 
Q 984 4106 628 3988 
L 628 4550 
Q 988 4650 1302 4700 
Q 1616 4750 1894 4750 
Q 2613 4750 3031 4423 
Q 3450 4097 3450 3541 
Q 3450 3153 3228 2886 
Q 3006 2619 2597 2516 
z
" transform="scale(0.015625)"/>
       </defs>
       <use xlink:href="#DejaVuSans-33"/>
       <use xlink:href="#DejaVuSans-30" x="63.623047"/>
       <use xlink:href="#DejaVuSans-30" x="127.246094"/>
      </g>
     </g>
    </g>
    <g id="text_8">
     <!-- Timestep -->
     <g transform="translate(345.950781 284.596563) scale(0.1 -0.1)">
      <defs>
       <path id="DejaVuSans-54" d="M -19 4666 
L 3928 4666 
L 3928 4134 
L 2272 4134 
L 2272 0 
L 1638 0 
L 1638 4134 
L -19 4134 
L -19 4666 
z
" transform="scale(0.015625)"/>
       <path id="DejaVuSans-69" d="M 603 3500 
L 1178 3500 
L 1178 0 
L 603 0 
L 603 3500 
z
M 603 4863 
L 1178 4863 
L 1178 4134 
L 603 4134 
L 603 4863 
z
" transform="scale(0.015625)"/>
       <path id="DejaVuSans-6d" d="M 3328 2828 
Q 3544 3216 3844 3400 
Q 4144 3584 4550 3584 
Q 5097 3584 5394 3201 
Q 5691 2819 5691 2113 
L 5691 0 
L 5113 0 
L 5113 2094 
Q 5113 2597 4934 2840 
Q 4756 3084 4391 3084 
Q 3944 3084 3684 2787 
Q 3425 2491 3425 1978 
L 3425 0 
L 2847 0 
L 2847 2094 
Q 2847 2600 2669 2842 
Q 2491 3084 2119 3084 
Q 1678 3084 1418 2786 
Q 1159 2488 1159 1978 
L 1159 0 
L 581 0 
L 581 3500 
L 1159 3500 
L 1159 2956 
Q 1356 3278 1631 3431 
Q 1906 3584 2284 3584 
Q 2666 3584 2933 3390 
Q 3200 3197 3328 2828 
z
" transform="scale(0.015625)"/>
       <path id="DejaVuSans-65" d="M 3597 1894 
L 3597 1613 
L 953 1613 
Q 991 1019 1311 708 
Q 1631 397 2203 397 
Q 2534 397 2845 478 
Q 3156 559 3463 722 
L 3463 178 
Q 3153 47 2828 -22 
Q 2503 -91 2169 -91 
Q 1331 -91 842 396 
Q 353 884 353 1716 
Q 353 2575 817 3079 
Q 1281 3584 2069 3584 
Q 2775 3584 3186 3129 
Q 3597 2675 3597 1894 
z
M 3022 2063 
Q 3016 2534 2758 2815 
Q 2500 3097 2075 3097 
Q 1594 3097 1305 2825 
Q 1016 2553 972 2059 
L 3022 2063 
z
" transform="scale(0.015625)"/>
       <path id="DejaVuSans-73" d="M 2834 3397 
L 2834 2853 
Q 2591 2978 2328 3040 
Q 2066 3103 1784 3103 
Q 1356 3103 1142 2972 
Q 928 2841 928 2578 
Q 928 2378 1081 2264 
Q 1234 2150 1697 2047 
L 1894 2003 
Q 2506 1872 2764 1633 
Q 3022 1394 3022 966 
Q 3022 478 2636 193 
Q 2250 -91 1575 -91 
Q 1294 -91 989 -36 
Q 684 19 347 128 
L 347 722 
Q 666 556 975 473 
Q 1284 391 1588 391 
Q 1994 391 2212 530 
Q 2431 669 2431 922 
Q 2431 1156 2273 1281 
Q 2116 1406 1581 1522 
L 1381 1569 
Q 847 1681 609 1914 
Q 372 2147 372 2553 
Q 372 3047 722 3315 
Q 1072 3584 1716 3584 
Q 2034 3584 2315 3537 
Q 2597 3491 2834 3397 
z
" transform="scale(0.015625)"/>
       <path id="DejaVuSans-74" d="M 1172 4494 
L 1172 3500 
L 2356 3500 
L 2356 3053 
L 1172 3053 
L 1172 1153 
Q 1172 725 1289 603 
Q 1406 481 1766 481 
L 2356 481 
L 2356 0 
L 1766 0 
Q 1100 0 847 248 
Q 594 497 594 1153 
L 594 3053 
L 172 3053 
L 172 3500 
L 594 3500 
L 594 4494 
L 1172 4494 
z
" transform="scale(0.015625)"/>
       <path id="DejaVuSans-70" d="M 1159 525 
L 1159 -1331 
L 581 -1331 
L 581 3500 
L 1159 3500 
L 1159 2969 
Q 1341 3281 1617 3432 
Q 1894 3584 2278 3584 
Q 2916 3584 3314 3078 
Q 3713 2572 3713 1747 
Q 3713 922 3314 415 
Q 2916 -91 2278 -91 
Q 1894 -91 1617 61 
Q 1341 213 1159 525 
z
M 3116 1747 
Q 3116 2381 2855 2742 
Q 2594 3103 2138 3103 
Q 1681 3103 1420 2742 
Q 1159 2381 1159 1747 
Q 1159 1113 1420 752 
Q 1681 391 2138 391 
Q 2594 391 2855 752 
Q 3116 1113 3116 1747 
z
" transform="scale(0.015625)"/>
      </defs>
      <use xlink:href="#DejaVuSans-54"/>
      <use xlink:href="#DejaVuSans-69" x="57.958984"/>
      <use xlink:href="#DejaVuSans-6d" x="85.742188"/>
      <use xlink:href="#DejaVuSans-65" x="183.154297"/>
      <use xlink:href="#DejaVuSans-73" x="244.677734"/>
      <use xlink:href="#DejaVuSans-74" x="296.777344"/>
      <use xlink:href="#DejaVuSans-65" x="335.986328"/>
      <use xlink:href="#DejaVuSans-70" x="397.509766"/>
     </g>
    </g>
   </g>
   <g id="matplotlib.axis_2">
    <g id="ytick_1">
     <g id="line2d_8">
      <defs>
       <path id="ma014b3413d" d="M 0 0 
L -3.5 0 
" style="stroke: #000000; stroke-width: 0.8"/>
      </defs>
      <g>
       <use xlink:href="#ma014b3413d" x="90" y="246.24" style="stroke: #000000; stroke-width: 0.8"/>
      </g>
     </g>
     <g id="text_9">
      <!-- 0 -->
      <g transform="translate(76.6375 250.039219) scale(0.1 -0.1)">
       <use xlink:href="#DejaVuSans-30"/>
      </g>
     </g>
    </g>
    <g id="ytick_2">
     <g id="line2d_9">
      <g>
       <use xlink:href="#ma014b3413d" x="90" y="197.764465" style="stroke: #000000; stroke-width: 0.8"/>
      </g>
     </g>
     <g id="text_10">
      <!-- 50 -->
      <g transform="translate(70.275 201.563683) scale(0.1 -0.1)">
       <use xlink:href="#DejaVuSans-35"/>
       <use xlink:href="#DejaVuSans-30" x="63.623047"/>
      </g>
     </g>
    </g>
    <g id="ytick_3">
     <g id="line2d_10">
      <g>
       <use xlink:href="#ma014b3413d" x="90" y="149.288929" style="stroke: #000000; stroke-width: 0.8"/>
      </g>
     </g>
     <g id="text_11">
      <!-- 100 -->
      <g transform="translate(63.9125 153.088148) scale(0.1 -0.1)">
       <use xlink:href="#DejaVuSans-31"/>
       <use xlink:href="#DejaVuSans-30" x="63.623047"/>
       <use xlink:href="#DejaVuSans-30" x="127.246094"/>
      </g>
     </g>
    </g>
    <g id="ytick_4">
     <g id="line2d_11">
      <g>
       <use xlink:href="#ma014b3413d" x="90" y="100.813394" style="stroke: #000000; stroke-width: 0.8"/>
      </g>
     </g>
     <g id="text_12">
      <!-- 150 -->
      <g transform="translate(63.9125 104.612612) scale(0.1 -0.1)">
       <use xlink:href="#DejaVuSans-31"/>
       <use xlink:href="#DejaVuSans-35" x="63.623047"/>
       <use xlink:href="#DejaVuSans-30" x="127.246094"/>
      </g>
     </g>
    </g>
    <g id="ytick_5">
     <g id="line2d_12">
      <g>
       <use xlink:href="#ma014b3413d" x="90" y="52.337858" style="stroke: #000000; stroke-width: 0.8"/>
      </g>
     </g>
     <g id="text_13">
      <!-- 200 -->
      <g transform="translate(63.9125 56.137077) scale(0.1 -0.1)">
       <use xlink:href="#DejaVuSans-32"/>
       <use xlink:href="#DejaVuSans-30" x="63.623047"/>
       <use xlink:href="#DejaVuSans-30" x="127.246094"/>
      </g>
     </g>
    </g>
    <g id="text_14">
     <!-- Q_LE [W/m²] -->
     <g transform="translate(57.554687 176.815) rotate(-90) scale(0.1 -0.1)">
      <defs>
       <path id="DejaVuSans-51" d="M 2522 4238 
Q 1834 4238 1429 3725 
Q 1025 3213 1025 2328 
Q 1025 1447 1429 934 
Q 1834 422 2522 422 
Q 3209 422 3611 934 
Q 4013 1447 4013 2328 
Q 4013 3213 3611 3725 
Q 3209 4238 2522 4238 
z
M 3406 84 
L 4238 -825 
L 3475 -825 
L 2784 -78 
Q 2681 -84 2626 -87 
Q 2572 -91 2522 -91 
Q 1538 -91 948 567 
Q 359 1225 359 2328 
Q 359 3434 948 4092 
Q 1538 4750 2522 4750 
Q 3503 4750 4090 4092 
Q 4678 3434 4678 2328 
Q 4678 1516 4351 937 
Q 4025 359 3406 84 
z
" transform="scale(0.015625)"/>
       <path id="DejaVuSans-5f" d="M 3263 -1063 
L 3263 -1509 
L -63 -1509 
L -63 -1063 
L 3263 -1063 
z
" transform="scale(0.015625)"/>
       <path id="DejaVuSans-4c" d="M 628 4666 
L 1259 4666 
L 1259 531 
L 3531 531 
L 3531 0 
L 628 0 
L 628 4666 
z
" transform="scale(0.015625)"/>
       <path id="DejaVuSans-45" d="M 628 4666 
L 3578 4666 
L 3578 4134 
L 1259 4134 
L 1259 2753 
L 3481 2753 
L 3481 2222 
L 1259 2222 
L 1259 531 
L 3634 531 
L 3634 0 
L 628 0 
L 628 4666 
z
" transform="scale(0.015625)"/>
       <path id="DejaVuSans-20" transform="scale(0.015625)"/>
       <path id="DejaVuSans-5b" d="M 550 4863 
L 1875 4863 
L 1875 4416 
L 1125 4416 
L 1125 -397 
L 1875 -397 
L 1875 -844 
L 550 -844 
L 550 4863 
z
" transform="scale(0.015625)"/>
       <path id="DejaVuSans-57" d="M 213 4666 
L 850 4666 
L 1831 722 
L 2809 4666 
L 3519 4666 
L 4500 722 
L 5478 4666 
L 6119 4666 
L 4947 0 
L 4153 0 
L 3169 4050 
L 2175 0 
L 1381 0 
L 213 4666 
z
" transform="scale(0.015625)"/>
       <path id="DejaVuSans-2f" d="M 1625 4666 
L 2156 4666 
L 531 -594 
L 0 -594 
L 1625 4666 
z
" transform="scale(0.015625)"/>
       <path id="DejaVuSans-b2" d="M 838 2444 
L 2163 2444 
L 2163 2088 
L 294 2088 
L 294 2431 
Q 400 2528 597 2703 
Q 1672 3656 1672 3950 
Q 1672 4156 1509 4282 
Q 1347 4409 1081 4409 
Q 919 4409 728 4354 
Q 538 4300 313 4191 
L 313 4575 
Q 553 4663 761 4706 
Q 969 4750 1147 4750 
Q 1600 4750 1872 4544 
Q 2144 4338 2144 4000 
Q 2144 3566 1109 2678 
Q 934 2528 838 2444 
z
" transform="scale(0.015625)"/>
       <path id="DejaVuSans-5d" d="M 1947 4863 
L 1947 -844 
L 622 -844 
L 622 -397 
L 1369 -397 
L 1369 4416 
L 622 4416 
L 622 4863 
L 1947 4863 
z
" transform="scale(0.015625)"/>
      </defs>
      <use xlink:href="#DejaVuSans-51"/>
      <use xlink:href="#DejaVuSans-5f" x="78.710938"/>
      <use xlink:href="#DejaVuSans-4c" x="128.710938"/>
      <use xlink:href="#DejaVuSans-45" x="184.423828"/>
      <use xlink:href="#DejaVuSans-20" x="247.607422"/>
      <use xlink:href="#DejaVuSans-5b" x="279.394531"/>
      <use xlink:href="#DejaVuSans-57" x="318.408203"/>
      <use xlink:href="#DejaVuSans-2f" x="417.285156"/>
      <use xlink:href="#DejaVuSans-6d" x="450.976562"/>
      <use xlink:href="#DejaVuSans-b2" x="548.388672"/>
      <use xlink:href="#DejaVuSans-5d" x="588.476562"/>
     </g>
    </g>
   </g>
   <g id="line2d_13">
    <path d="M 115.363636 153.123346 
L 117.060201 175.814743 
L 118.756765 183.900458 
L 120.453329 201.739457 
L 122.149894 232.778344 
L 123.846458 243.0697 
L 125.543022 245.827958 
L 127.239587 246.225457 
L 132.329279 245.731007 
L 134.025844 238.028244 
L 135.722408 207.832832 
L 137.418972 189.223074 
L 139.115537 189.126124 
L 140.812101 177.293248 
L 142.508665 162.50821 
L 144.20523 145.420583 
L 145.901794 172.692917 
L 147.598358 160.258945 
L 149.294922 154.950868 
L 150.991487 205.457533 
L 152.688051 213.838954 
L 154.384615 238.004007 
L 156.08118 243.433267 
L 157.777744 244.330064 
L 161.170873 245.735854 
L 162.867437 246.143049 
L 164.564001 246.017013 
L 166.260566 246.235152 
L 169.653694 245.905519 
L 171.350258 238.944432 
L 173.046823 213.940752 
L 174.743387 155.450173 
L 176.439951 89.387706 
L 178.136516 125.17235 
L 179.83308 112.961362 
L 181.529644 138.784281 
L 183.226209 153.108804 
L 184.922773 145.386647 
L 186.619337 152.231398 
L 188.315901 185.76677 
L 190.012466 205.442988 
L 191.70903 217.494008 
L 193.405594 236.394619 
L 195.102159 243.341163 
L 196.798723 245.997622 
L 198.495287 245.958842 
L 200.191852 244.010125 
L 201.888416 241.886897 
L 203.58498 232.308131 
L 205.281545 234.029012 
L 206.978109 236.477027 
L 208.674673 214.726053 
L 210.371237 209.815483 
L 212.067802 190.105328 
L 213.764366 161.068486 
L 215.46093 167.190941 
L 217.157495 133.238679 
L 218.854059 172.067586 
L 220.550623 151.625453 
L 222.247188 158.479894 
L 223.943752 193.740994 
L 225.640316 207.726189 
L 227.336881 224.813813 
L 229.033445 236.05529 
L 230.730009 241.678452 
L 232.426573 241.799641 
L 234.123138 244.404634 
L 235.819702 212.400669 
L 237.516266 242.170328 
L 239.212831 239.564919 
L 240.909395 237.936141 
L 242.605959 241.460312 
L 244.302524 235.478431 
L 245.999088 239.865467 
L 247.695652 240.069065 
L 249.392216 232.948008 
L 251.088781 211.953252 
L 252.785345 165.702746 
L 254.481909 145.895642 
L 256.178474 97.798215 
L 257.875038 114.149018 
L 259.571602 221.396288 
L 261.268167 138.057148 
L 262.964731 192.121913 
L 264.661295 185.04933 
L 266.35786 232.574746 
L 268.054424 218.187208 
L 269.750988 238.459677 
L 271.447552 246.084878 
L 273.144117 246.24 
L 274.840681 244.048906 
L 276.537245 246.235152 
L 278.23381 246.24 
L 279.930374 241.651277 
L 281.626938 236.268583 
L 283.323503 206.160427 
L 285.020067 156.502091 
L 286.716631 161.465981 
L 288.413196 145.8811 
L 290.10976 141.125651 
L 291.806324 144.494699 
L 293.502888 152.066575 
L 295.199453 139.254495 
L 296.896017 167.30244 
L 298.592581 185.374119 
L 300.289146 216.781417 
L 301.98571 242.497689 
L 303.682274 243.661101 
L 305.378839 246.186677 
L 307.075403 244.577289 
L 308.771967 244.276741 
L 310.468531 245.003874 
L 312.165096 246.118811 
L 313.86166 245.774635 
L 317.254789 245.634056 
L 318.951353 227.664175 
L 320.647917 205.20061 
L 322.344482 173.778772 
L 324.041046 173.686667 
L 325.73761 155.842824 
L 327.434175 148.232166 
L 329.130739 172.557186 
L 330.827303 141.145038 
L 332.523867 167.88899 
L 334.220432 167.021281 
L 335.916996 195.81575 
L 337.61356 203.04345 
L 339.310125 222.327017 
L 341.006689 238.49361 
L 342.703253 237.679221 
L 344.399818 240.408393 
L 346.096382 246.20122 
L 347.792946 245.07174 
L 349.48951 244.868142 
L 351.186075 232.133619 
L 352.882639 195.951481 
L 354.579203 169.764998 
L 356.275768 149.099875 
L 357.972332 130.451336 
L 359.668896 189.974446 
L 361.365461 148.978686 
L 363.062025 130.121706 
L 364.758589 151.242493 
L 366.455154 145.105488 
L 369.848282 200.396686 
L 371.544846 210.445666 
L 373.241411 238.31425 
L 374.937975 244.087686 
L 376.634539 243.50598 
L 378.331104 245.236556 
L 380.027668 245.905519 
L 381.724232 245.449849 
L 383.420797 245.120215 
L 385.117361 216.868673 
L 386.813925 177.026631 
L 388.51049 150.360242 
L 390.207054 148.547254 
L 391.903618 101.501753 
L 393.600182 119.738247 
L 395.296747 132.695755 
L 396.993311 164.927134 
L 398.689875 171.514965 
L 400.38644 192.296425 
L 402.083004 164.965915 
L 403.779568 185.679513 
L 405.476133 225.957836 
L 407.172697 237.616202 
L 408.869261 230.674505 
L 410.565825 228.367071 
L 412.26239 244.65485 
L 413.958954 238.134891 
L 415.655518 230.024933 
L 417.352083 234.193829 
L 419.048647 245.658294 
L 420.745211 239.952723 
L 424.13834 184.370675 
L 425.834904 169.745604 
L 427.531469 122.714637 
L 429.228033 110.450332 
L 430.924597 83.168302 
L 432.621161 112.03064 
L 434.317726 71.757157 
L 436.01429 87.87042 
L 437.710854 147.887986 
L 439.407419 165.334334 
L 441.103983 197.032483 
L 442.800547 234.969438 
L 444.497112 238.672969 
L 446.193676 244.984484 
L 447.89024 233.515172 
L 449.586804 241.585258 
L 451.283369 238.55178 
L 452.979933 231.978497 
L 454.676497 238.546933 
L 456.373062 231.886394 
L 458.069626 228.318594 
L 459.76619 232.482643 
L 461.462755 238.081567 
L 463.159319 219.045225 
L 464.855883 202.117569 
L 466.552448 188.592894 
L 468.249012 132.62789 
L 469.945576 113.829078 
L 471.64214 102.616684 
L 473.338705 86.464632 
L 475.035269 114.488338 
L 476.731833 147.631067 
L 478.428398 147.761953 
L 480.124962 167.089146 
L 481.821526 193.508313 
L 483.518091 213.611118 
L 485.214655 240.922234 
L 486.911219 231.440419 
L 488.607784 240.994947 
L 490.304348 245.415916 
L 492.000912 243.733815 
L 493.697476 243.079395 
L 495.394041 230.950816 
L 497.090605 225.075581 
L 498.787169 239.550376 
L 500.483734 212.176243 
L 502.180298 191.792279 
L 503.876862 143.854818 
L 505.573427 115.200929 
L 507.269991 135.04197 
L 508.966555 107.958683 
L 510.663119 108.142892 
L 512.359684 107.420612 
L 514.056248 105.462196 
L 515.752812 130.89731 
L 517.449377 139.642301 
L 519.145941 134.499046 
L 520.842505 176.798795 
L 522.53907 188.675302 
L 524.235634 225.39552 
L 525.932198 235.216663 
L 527.628763 228.672465 
L 529.325327 213.989227 
L 531.021891 225.443995 
L 532.718455 240.320133 
L 534.41502 234.416817 
L 536.111584 242.250464 
L 537.808148 230.897493 
L 539.504713 223.155951 
L 541.201277 202.481136 
L 542.897841 168.359203 
L 544.594406 156.220932 
L 546.29097 145.95381 
L 547.987534 132.492159 
L 549.684099 159.866294 
L 551.380663 205.36058 
L 553.077227 111.162923 
L 554.773791 217.014099 
L 556.470356 199.107235 
L 558.16692 221.992537 
L 559.863484 230.810237 
L 561.560049 242.245616 
L 563.256613 212.21502 
L 564.953177 196.935533 
L 566.649742 237.363412 
L 568.346306 196.470169 
L 570.04287 226.631646 
L 571.739434 222.317324 
L 573.435999 240.422936 
L 575.132563 230.490298 
L 576.829127 222.356103 
L 578.525692 212.782187 
L 580.222256 195.083768 
L 581.91882 134.959562 
L 583.615385 131.997707 
L 585.311949 94.312823 
L 587.008513 110.993256 
L 588.705078 111.890056 
L 590.401642 142.211498 
L 592.098206 168.71308 
L 593.79477 184.971771 
L 598.884463 228.313747 
L 600.581028 234.843402 
L 602.277592 237.629257 
L 603.974156 230.042127 
L 605.670721 228.556125 
L 607.367285 231.803985 
L 609.063849 236.355839 
L 610.760413 241.862659 
L 612.456978 246.215762 
L 614.153542 243.830766 
L 615.850106 243.428419 
L 617.546671 232.579594 
L 619.243235 229.249325 
L 620.939799 204.463783 
L 622.636364 176.600044 
L 622.636364 176.600044 
" clip-path="url(#p946ec14ad8)" style="fill: none; stroke: #1f77b4; stroke-opacity: 0.6; stroke-width: 1.5; stroke-linecap: square"/>
   </g>
   <g id="line2d_14">
    <path d="M 115.363636 129.687574 
L 117.060201 136.191 
L 118.756765 150.529702 
L 120.453329 176.892527 
L 122.149894 220.066965 
L 123.846458 233.877005 
L 125.543022 238.031738 
L 127.239587 240.439952 
L 128.936151 240.887644 
L 130.632715 242.816722 
L 132.329279 221.153509 
L 134.025844 221.628244 
L 135.722408 177.942626 
L 137.418972 169.600915 
L 139.115537 142.615799 
L 140.812101 129.256874 
L 142.508665 119.033925 
L 144.20523 118.543711 
L 145.901794 121.687831 
L 147.598358 122.990293 
L 149.294922 139.67512 
L 150.991487 151.498924 
L 152.688051 169.552733 
L 154.384615 215.183692 
L 156.08118 235.332609 
L 157.777744 236.263756 
L 159.474308 239.647036 
L 162.867437 240.437462 
L 164.564001 240.550234 
L 166.260566 240.448398 
L 167.95713 240.704589 
L 169.653694 241.767348 
L 171.350258 238.698084 
L 173.046823 192.818238 
L 174.743387 156.968495 
L 176.439951 138.542207 
L 178.136516 127.025754 
L 179.83308 126.586933 
L 183.226209 136.810332 
L 184.922773 147.259948 
L 186.619337 156.207611 
L 188.315901 166.301582 
L 190.012466 172.580856 
L 191.70903 210.919205 
L 193.405594 225.734625 
L 195.102159 241.923459 
L 196.798723 240.904906 
L 198.495287 232.622724 
L 200.191852 235.48394 
L 201.888416 235.681902 
L 203.58498 236.695393 
L 205.281545 237.333366 
L 206.978109 215.782515 
L 208.674673 202.850583 
L 212.067802 174.615961 
L 213.764366 165.669334 
L 215.46093 164.38461 
L 217.157495 164.29326 
L 218.854059 175.296406 
L 220.550623 167.053597 
L 222.247188 174.963351 
L 223.943752 189.580534 
L 225.640316 191.714409 
L 227.336881 203.170235 
L 229.033445 227.016217 
L 230.730009 234.165534 
L 232.426573 234.860953 
L 234.123138 235.358708 
L 235.819702 230.883365 
L 237.516266 233.148754 
L 239.212831 230.634319 
L 240.909395 230.714551 
L 242.605959 231.808107 
L 244.302524 235.78099 
L 245.999088 234.644532 
L 247.695652 235.197582 
L 249.392216 224.301845 
L 251.088781 212.29475 
L 252.785345 177.154018 
L 254.481909 164.32781 
L 256.178474 148.723157 
L 257.875038 155.525738 
L 259.571602 177.804173 
L 261.268167 162.030481 
L 262.964731 163.88552 
L 264.661295 171.795695 
L 266.35786 187.347428 
L 268.054424 196.244034 
L 269.750988 215.913296 
L 271.447552 237.647081 
L 273.144117 242.349047 
L 274.840681 242.839056 
L 276.537245 244.783967 
L 278.23381 243.527515 
L 279.930374 243.560599 
L 281.626938 238.237022 
L 283.323503 188.206009 
L 285.020067 159.923213 
L 286.716631 152.966283 
L 288.413196 134.684712 
L 290.10976 131.73319 
L 291.806324 130.947038 
L 295.199453 154.367847 
L 296.896017 167.421683 
L 298.592581 169.741491 
L 300.289146 179.975964 
L 301.98571 218.699224 
L 303.682274 239.827525 
L 305.378839 240.595619 
L 307.075403 237.38772 
L 308.771967 241.125596 
L 315.558224 242.262246 
L 317.254789 226.429362 
L 318.951353 198.667977 
L 320.647917 180.339116 
L 322.344482 168.363996 
L 324.041046 161.970619 
L 325.73761 157.396332 
L 327.434175 156.305929 
L 329.130739 157.824953 
L 330.827303 159.747643 
L 332.523867 167.267357 
L 334.220432 171.712777 
L 335.916996 176.876432 
L 337.61356 180.313146 
L 339.310125 200.627266 
L 341.006689 232.628415 
L 342.703253 235.719754 
L 344.399818 239.744526 
L 346.096382 240.368575 
L 347.792946 241.29567 
L 349.48951 241.703513 
L 351.186075 224.33001 
L 352.882639 196.45056 
L 354.579203 189.012672 
L 356.275768 178.602855 
L 357.972332 170.157612 
L 359.668896 182.016247 
L 361.365461 177.494145 
L 363.062025 172.272114 
L 364.758589 184.452303 
L 366.455154 190.373551 
L 368.151718 194.631133 
L 369.848282 201.398151 
L 371.544846 208.820457 
L 373.241411 225.91038 
L 374.937975 241.463407 
L 376.634539 243.876435 
L 380.027668 244.30377 
L 381.724232 244.128033 
L 383.420797 222.422636 
L 385.117361 218.55424 
L 386.813925 186.312792 
L 388.51049 173.347303 
L 390.207054 167.39845 
L 391.903618 165.337678 
L 393.600182 165.236394 
L 395.296747 163.851931 
L 396.993311 175.669285 
L 398.689875 179.665684 
L 400.38644 180.665728 
L 402.083004 180.338295 
L 403.779568 187.568533 
L 405.476133 209.930029 
L 407.172697 239.560412 
L 408.869261 240.108979 
L 410.565825 239.424378 
L 412.26239 244.103754 
L 413.958954 244.183913 
L 415.655518 240.512035 
L 417.352083 238.410974 
L 419.048647 243.113548 
L 420.745211 228.824293 
L 422.441776 216.643121 
L 424.13834 205.465063 
L 425.834904 193.067857 
L 427.531469 193.683436 
L 429.228033 189.119856 
L 430.924597 185.859669 
L 432.621161 183.417101 
L 434.317726 184.79183 
L 436.01429 187.721505 
L 437.710854 191.78959 
L 439.407419 194.490998 
L 441.103983 198.035153 
L 442.800547 209.943466 
L 444.497112 238.81911 
L 447.89024 236.673784 
L 449.586804 236.719599 
L 451.283369 237.868473 
L 452.979933 236.677426 
L 454.676497 237.033503 
L 456.373062 239.355303 
L 458.069626 239.986717 
L 459.76619 241.893156 
L 461.462755 222.592985 
L 463.159319 214.145569 
L 464.855883 187.397146 
L 466.552448 174.242779 
L 468.249012 166.796108 
L 469.945576 171.029411 
L 471.64214 173.169713 
L 473.338705 171.268001 
L 476.731833 179.995218 
L 478.428398 182.459507 
L 481.821526 193.733859 
L 483.518091 208.749662 
L 485.214655 237.290342 
L 486.911219 239.021706 
L 488.607784 242.87649 
L 490.304348 241.043254 
L 492.000912 240.440534 
L 493.697476 240.606198 
L 495.394041 241.132938 
L 497.090605 242.157893 
L 498.787169 243.32452 
L 500.483734 240.352325 
L 502.180298 204.454212 
L 503.876862 194.057602 
L 505.573427 189.190084 
L 507.269991 184.972977 
L 508.966555 183.115756 
L 510.663119 182.44634 
L 512.359684 182.570081 
L 514.056248 184.040901 
L 515.752812 183.108892 
L 517.449377 186.295943 
L 519.145941 188.008016 
L 520.842505 192.054236 
L 522.53907 195.313782 
L 524.235634 214.836583 
L 525.932198 238.737215 
L 527.628763 238.048898 
L 529.325327 237.111975 
L 531.021891 236.523799 
L 532.718455 236.380318 
L 534.41502 238.239347 
L 536.111584 228.731649 
L 537.808148 217.526567 
L 539.504713 212.654474 
L 541.201277 206.471262 
L 542.897841 198.46613 
L 544.594406 195.466052 
L 546.29097 193.854826 
L 547.987534 194.363233 
L 549.684099 199.481579 
L 551.380663 208.745639 
L 553.077227 205.49397 
L 554.773791 210.386932 
L 556.470356 210.5769 
L 558.16692 226.304647 
L 559.863484 238.693736 
L 561.560049 238.161968 
L 563.256613 232.244752 
L 564.953177 227.421267 
L 566.649742 228.355791 
L 568.346306 234.716955 
L 570.04287 235.837924 
L 571.739434 235.915471 
L 573.435999 233.859109 
L 575.132563 228.090087 
L 576.829127 241.688026 
L 578.525692 225.665118 
L 580.222256 219.508282 
L 581.91882 206.60176 
L 583.615385 215.161076 
L 585.311949 204.867333 
L 587.008513 181.597612 
L 588.705078 182.421679 
L 590.401642 175.676297 
L 592.098206 192.718104 
L 593.79477 200.997652 
L 595.491335 203.483351 
L 597.187899 212.158683 
L 598.884463 236.52598 
L 600.581028 236.498803 
L 602.277592 234.342386 
L 603.974156 238.181645 
L 605.670721 239.801354 
L 607.367285 240.546624 
L 609.063849 241.100016 
L 610.760413 240.925285 
L 612.456978 239.994212 
L 614.153542 240.057547 
L 615.850106 240.728066 
L 617.546671 230.922866 
L 619.243235 224.736548 
L 620.939799 217.754572 
L 622.636364 212.209151 
L 622.636364 212.209151 
" clip-path="url(#p946ec14ad8)" style="fill: none; stroke: #ff7f0e; stroke-opacity: 0.8; stroke-width: 1.8; stroke-linecap: square"/>
   </g>
   <g id="line2d_15">
    <path d="M 115.363636 95.620766 
L 117.060201 99.819089 
L 118.756765 115.687667 
L 120.453329 152.509317 
L 122.149894 207.86115 
L 123.846458 234.32988 
L 125.543022 238.614721 
L 127.239587 241.06016 
L 128.936151 241.523272 
L 130.632715 243.47838 
L 132.329279 228.051278 
L 134.025844 224.348017 
L 135.722408 180.75429 
L 137.418972 164.812011 
L 139.115537 130.737022 
L 142.508665 80.367437 
L 144.20523 65.960744 
L 145.901794 60.328688 
L 147.598358 45.579716 
L 150.991487 91.987319 
L 152.688051 124.113294 
L 154.384615 198.873131 
L 156.08118 234.536893 
L 157.777744 235.886911 
L 159.474308 239.438735 
L 161.170873 239.952081 
L 162.867437 240.264557 
L 166.260566 240.426545 
L 167.95713 240.811747 
L 169.653694 241.444862 
L 171.350258 238.294361 
L 173.046823 178.891973 
L 174.743387 127.386776 
L 176.439951 86.107738 
L 178.136516 59.656676 
L 179.83308 47.297278 
L 181.529644 44.64 
L 183.226209 45.714663 
L 184.922773 64.59876 
L 186.619337 85.268114 
L 188.315901 108.686378 
L 191.70903 201.709703 
L 193.405594 225.377547 
L 195.102159 241.770448 
L 196.798723 240.934917 
L 198.495287 233.193756 
L 200.191852 236.406335 
L 201.888416 237.177333 
L 203.58498 238.814845 
L 205.281545 239.285644 
L 206.978109 230.193593 
L 210.371237 205.251855 
L 212.067802 189.99731 
L 213.764366 178.942486 
L 215.46093 175.529893 
L 217.157495 168.337309 
L 218.854059 182.320048 
L 220.550623 173.196719 
L 222.247188 182.826513 
L 223.943752 199.251421 
L 225.640316 201.656413 
L 227.336881 214.156649 
L 229.033445 231.154209 
L 230.730009 238.926551 
L 232.426573 238.736362 
L 234.123138 240.27468 
L 235.819702 244.069075 
L 237.516266 244.689475 
L 239.212831 245.875423 
L 245.999088 245.652821 
L 249.392216 238.881449 
L 251.088781 232.287956 
L 252.785345 201.390033 
L 254.481909 185.246783 
L 256.178474 161.677995 
L 257.875038 162.804281 
L 259.571602 201.678519 
L 261.268167 178.217705 
L 262.964731 169.913192 
L 264.661295 177.563741 
L 266.35786 202.60238 
L 268.054424 218.347004 
L 269.750988 227.761361 
L 271.447552 238.349421 
L 273.144117 245.176088 
L 274.840681 245.135608 
L 276.537245 245.230587 
L 278.23381 244.779965 
L 279.930374 244.786452 
L 281.626938 238.888382 
L 285.020067 173.615798 
L 286.716631 151.501602 
L 288.413196 120.313435 
L 290.10976 102.900824 
L 291.806324 89.089749 
L 293.502888 88.67948 
L 295.199453 103.631241 
L 296.896017 122.104684 
L 298.592581 118.807909 
L 300.289146 145.192104 
L 301.98571 206.451002 
L 303.682274 239.101271 
L 305.378839 240.156415 
L 307.075403 237.274501 
L 308.771967 240.99562 
L 312.165096 241.611923 
L 313.86166 242.047263 
L 315.558224 242.255736 
L 317.254789 228.851157 
L 318.951353 194.96066 
L 320.647917 171.777277 
L 322.344482 150.31214 
L 324.041046 135.44664 
L 325.73761 117.687135 
L 327.434175 102.735684 
L 330.827303 83.547076 
L 332.523867 84.013694 
L 334.220432 90.935616 
L 335.916996 106.483262 
L 337.61356 127.447356 
L 339.310125 189.073859 
L 341.006689 231.441181 
L 342.703253 234.72433 
L 344.399818 238.770814 
L 346.096382 239.512583 
L 347.792946 240.676422 
L 349.48951 241.378783 
L 351.186075 220.783437 
L 352.882639 196.965583 
L 354.579203 181.645439 
L 357.972332 143.923512 
L 359.668896 154.185701 
L 363.062025 117.322577 
L 364.758589 143.52848 
L 366.455154 157.950233 
L 368.151718 171.074938 
L 369.848282 186.938138 
L 371.544846 204.417487 
L 373.241411 227.04774 
L 374.937975 243.023734 
L 376.634539 245.065025 
L 378.331104 244.608647 
L 380.027668 244.555316 
L 381.724232 244.28722 
L 383.420797 226.462392 
L 385.117361 207.001323 
L 386.813925 162.707457 
L 388.51049 138.829528 
L 390.207054 120.016573 
L 391.903618 107.878724 
L 393.600182 94.052057 
L 395.296747 79.11386 
L 396.993311 92.474471 
L 398.689875 99.494829 
L 400.38644 102.081705 
L 402.083004 102.149237 
L 403.779568 138.079731 
L 405.476133 193.762744 
L 407.172697 239.583873 
L 408.869261 240.191231 
L 410.565825 239.555639 
L 412.26239 244.45825 
L 413.958954 244.630056 
L 415.655518 241.168102 
L 417.352083 239.237461 
L 419.048647 244.400178 
L 420.745211 233.50552 
L 422.441776 216.782769 
L 424.13834 202.931688 
L 425.834904 183.736649 
L 427.531469 179.414985 
L 429.228033 163.614117 
L 430.924597 148.862638 
L 432.621161 137.317936 
L 434.317726 135.880335 
L 436.01429 141.79304 
L 437.710854 145.03172 
L 439.407419 153.744564 
L 441.103983 178.509996 
L 442.800547 218.63411 
L 444.497112 240.108595 
L 446.193676 239.574355 
L 447.89024 238.126776 
L 449.586804 237.870447 
L 451.283369 240.41401 
L 452.979933 239.586043 
L 456.373062 241.587744 
L 458.069626 242.804974 
L 459.76619 245.141021 
L 461.462755 237.422915 
L 463.159319 232.465096 
L 464.855883 208.575746 
L 466.552448 191.810534 
L 468.249012 176.734155 
L 469.945576 177.257063 
L 471.64214 175.082069 
L 473.338705 165.907666 
L 475.035269 165.743539 
L 476.731833 166.329312 
L 478.428398 161.958126 
L 480.124962 166.55552 
L 481.821526 179.42108 
L 485.214655 237.500833 
L 486.911219 239.347238 
L 488.607784 243.21232 
L 490.304348 241.526148 
L 492.000912 240.890591 
L 493.697476 241.02687 
L 495.394041 241.466589 
L 497.090605 242.494302 
L 498.787169 243.765667 
L 500.483734 240.738422 
L 502.180298 206.625444 
L 503.876862 185.949577 
L 508.966555 144.328471 
L 510.663119 138.239435 
L 512.359684 133.265463 
L 514.056248 132.405358 
L 515.752812 128.369105 
L 517.449377 133.677463 
L 519.145941 141.23442 
L 520.842505 154.736332 
L 522.53907 170.302988 
L 524.235634 211.5923 
L 525.932198 239.462024 
L 529.325327 237.462708 
L 531.021891 236.8882 
L 532.718455 236.736765 
L 534.41502 238.820185 
L 536.111584 233.967436 
L 537.808148 232.59767 
L 539.504713 229.33581 
L 541.201277 224.695662 
L 542.897841 216.495032 
L 544.594406 211.647462 
L 546.29097 207.218296 
L 547.987534 205.308621 
L 549.684099 211.889041 
L 551.380663 219.950281 
L 553.077227 216.277151 
L 554.773791 221.018024 
L 556.470356 223.494655 
L 558.16692 234.184281 
L 559.863484 240.837866 
L 561.560049 240.950317 
L 563.256613 242.901429 
L 564.953177 243.390638 
L 566.649742 243.086578 
L 568.346306 245.616828 
L 571.739434 245.546821 
L 573.435999 245.60321 
L 575.132563 245.907915 
L 576.829127 243.626162 
L 578.525692 239.941033 
L 580.222256 237.910902 
L 581.91882 230.400149 
L 583.615385 233.13257 
L 585.311949 227.280772 
L 587.008513 211.059348 
L 588.705078 207.38023 
L 590.401642 196.912185 
L 592.098206 215.439014 
L 593.79477 221.276098 
L 595.491335 222.0353 
L 597.187899 230.042667 
L 598.884463 237.479124 
L 600.581028 245.515079 
L 602.277592 245.634797 
L 607.367285 245.265358 
L 609.063849 245.136563 
L 610.760413 245.22594 
L 612.456978 245.525124 
L 614.153542 245.596538 
L 615.850106 245.411368 
L 617.546671 240.246485 
L 619.243235 237.165304 
L 622.636364 226.44214 
L 622.636364 226.44214 
" clip-path="url(#p946ec14ad8)" style="fill: none; stroke: #2ca02c; stroke-opacity: 0.6; stroke-width: 1.5; stroke-linecap: square"/>
   </g>
   <g id="patch_3">
    <path d="M 90 256.32 
L 90 34.56 
" style="fill: none; stroke: #000000; stroke-width: 0.8; stroke-linejoin: miter; stroke-linecap: square"/>
   </g>
   <g id="patch_4">
    <path d="M 648 256.32 
L 648 34.56 
" style="fill: none; stroke: #000000; stroke-width: 0.8; stroke-linejoin: miter; stroke-linecap: square"/>
   </g>
   <g id="patch_5">
    <path d="M 90 256.32 
L 648 256.32 
" style="fill: none; stroke: #000000; stroke-width: 0.8; stroke-linejoin: miter; stroke-linecap: square"/>
   </g>
   <g id="patch_6">
    <path d="M 90 34.56 
L 648 34.56 
" style="fill: none; stroke: #000000; stroke-width: 0.8; stroke-linejoin: miter; stroke-linecap: square"/>
   </g>
   <g id="legend_1">
    <g id="patch_7">
     <path d="M 529.315625 86.594375 
L 641 86.594375 
Q 643 86.594375 643 84.594375 
L 643 41.56 
Q 643 39.56 641 39.56 
L 529.315625 39.56 
Q 527.315625 39.56 527.315625 41.56 
L 527.315625 84.594375 
Q 527.315625 86.594375 529.315625 86.594375 
z
" style="fill: #ffffff; opacity: 0.8; stroke: #cccccc; stroke-linejoin: miter"/>
    </g>
    <g id="line2d_16">
     <path d="M 531.315625 47.658438 
L 541.315625 47.658438 
L 551.315625 47.658438 
" style="fill: none; stroke: #1f77b4; stroke-opacity: 0.6; stroke-width: 1.5; stroke-linecap: square"/>
    </g>
    <g id="text_15">
     <!-- Observed -->
     <g transform="translate(559.315625 51.158438) scale(0.1 -0.1)">
      <defs>
       <path id="DejaVuSans-4f" d="M 2522 4238 
Q 1834 4238 1429 3725 
Q 1025 3213 1025 2328 
Q 1025 1447 1429 934 
Q 1834 422 2522 422 
Q 3209 422 3611 934 
Q 4013 1447 4013 2328 
Q 4013 3213 3611 3725 
Q 3209 4238 2522 4238 
z
M 2522 4750 
Q 3503 4750 4090 4092 
Q 4678 3434 4678 2328 
Q 4678 1225 4090 567 
Q 3503 -91 2522 -91 
Q 1538 -91 948 565 
Q 359 1222 359 2328 
Q 359 3434 948 4092 
Q 1538 4750 2522 4750 
z
" transform="scale(0.015625)"/>
       <path id="DejaVuSans-62" d="M 3116 1747 
Q 3116 2381 2855 2742 
Q 2594 3103 2138 3103 
Q 1681 3103 1420 2742 
Q 1159 2381 1159 1747 
Q 1159 1113 1420 752 
Q 1681 391 2138 391 
Q 2594 391 2855 752 
Q 3116 1113 3116 1747 
z
M 1159 2969 
Q 1341 3281 1617 3432 
Q 1894 3584 2278 3584 
Q 2916 3584 3314 3078 
Q 3713 2572 3713 1747 
Q 3713 922 3314 415 
Q 2916 -91 2278 -91 
Q 1894 -91 1617 61 
Q 1341 213 1159 525 
L 1159 0 
L 581 0 
L 581 4863 
L 1159 4863 
L 1159 2969 
z
" transform="scale(0.015625)"/>
       <path id="DejaVuSans-72" d="M 2631 2963 
Q 2534 3019 2420 3045 
Q 2306 3072 2169 3072 
Q 1681 3072 1420 2755 
Q 1159 2438 1159 1844 
L 1159 0 
L 581 0 
L 581 3500 
L 1159 3500 
L 1159 2956 
Q 1341 3275 1631 3429 
Q 1922 3584 2338 3584 
Q 2397 3584 2469 3576 
Q 2541 3569 2628 3553 
L 2631 2963 
z
" transform="scale(0.015625)"/>
       <path id="DejaVuSans-76" d="M 191 3500 
L 800 3500 
L 1894 563 
L 2988 3500 
L 3597 3500 
L 2284 0 
L 1503 0 
L 191 3500 
z
" transform="scale(0.015625)"/>
       <path id="DejaVuSans-64" d="M 2906 2969 
L 2906 4863 
L 3481 4863 
L 3481 0 
L 2906 0 
L 2906 525 
Q 2725 213 2448 61 
Q 2172 -91 1784 -91 
Q 1150 -91 751 415 
Q 353 922 353 1747 
Q 353 2572 751 3078 
Q 1150 3584 1784 3584 
Q 2172 3584 2448 3432 
Q 2725 3281 2906 2969 
z
M 947 1747 
Q 947 1113 1208 752 
Q 1469 391 1925 391 
Q 2381 391 2643 752 
Q 2906 1113 2906 1747 
Q 2906 2381 2643 2742 
Q 2381 3103 1925 3103 
Q 1469 3103 1208 2742 
Q 947 2381 947 1747 
z
" transform="scale(0.015625)"/>
      </defs>
      <use xlink:href="#DejaVuSans-4f"/>
      <use xlink:href="#DejaVuSans-62" x="78.710938"/>
      <use xlink:href="#DejaVuSans-73" x="142.1875"/>
      <use xlink:href="#DejaVuSans-65" x="194.287109"/>
      <use xlink:href="#DejaVuSans-72" x="255.810547"/>
      <use xlink:href="#DejaVuSans-76" x="296.923828"/>
      <use xlink:href="#DejaVuSans-65" x="356.103516"/>
      <use xlink:href="#DejaVuSans-64" x="417.626953"/>
     </g>
    </g>
    <g id="line2d_17">
     <path d="M 531.315625 62.336563 
L 541.315625 62.336563 
L 551.315625 62.336563 
" style="fill: none; stroke: #ff7f0e; stroke-opacity: 0.8; stroke-width: 1.8; stroke-linecap: square"/>
    </g>
    <g id="text_16">
     <!-- Hybrid Model -->
     <g transform="translate(559.315625 65.836563) scale(0.1 -0.1)">
      <defs>
       <path id="DejaVuSans-48" d="M 628 4666 
L 1259 4666 
L 1259 2753 
L 3553 2753 
L 3553 4666 
L 4184 4666 
L 4184 0 
L 3553 0 
L 3553 2222 
L 1259 2222 
L 1259 0 
L 628 0 
L 628 4666 
z
" transform="scale(0.015625)"/>
       <path id="DejaVuSans-79" d="M 2059 -325 
Q 1816 -950 1584 -1140 
Q 1353 -1331 966 -1331 
L 506 -1331 
L 506 -850 
L 844 -850 
Q 1081 -850 1212 -737 
Q 1344 -625 1503 -206 
L 1606 56 
L 191 3500 
L 800 3500 
L 1894 763 
L 2988 3500 
L 3597 3500 
L 2059 -325 
z
" transform="scale(0.015625)"/>
       <path id="DejaVuSans-4d" d="M 628 4666 
L 1569 4666 
L 2759 1491 
L 3956 4666 
L 4897 4666 
L 4897 0 
L 4281 0 
L 4281 4097 
L 3078 897 
L 2444 897 
L 1241 4097 
L 1241 0 
L 628 0 
L 628 4666 
z
" transform="scale(0.015625)"/>
       <path id="DejaVuSans-6f" d="M 1959 3097 
Q 1497 3097 1228 2736 
Q 959 2375 959 1747 
Q 959 1119 1226 758 
Q 1494 397 1959 397 
Q 2419 397 2687 759 
Q 2956 1122 2956 1747 
Q 2956 2369 2687 2733 
Q 2419 3097 1959 3097 
z
M 1959 3584 
Q 2709 3584 3137 3096 
Q 3566 2609 3566 1747 
Q 3566 888 3137 398 
Q 2709 -91 1959 -91 
Q 1206 -91 779 398 
Q 353 888 353 1747 
Q 353 2609 779 3096 
Q 1206 3584 1959 3584 
z
" transform="scale(0.015625)"/>
       <path id="DejaVuSans-6c" d="M 603 4863 
L 1178 4863 
L 1178 0 
L 603 0 
L 603 4863 
z
" transform="scale(0.015625)"/>
      </defs>
      <use xlink:href="#DejaVuSans-48"/>
      <use xlink:href="#DejaVuSans-79" x="75.195312"/>
      <use xlink:href="#DejaVuSans-62" x="134.375"/>
      <use xlink:href="#DejaVuSans-72" x="197.851562"/>
      <use xlink:href="#DejaVuSans-69" x="238.964844"/>
      <use xlink:href="#DejaVuSans-64" x="266.748047"/>
      <use xlink:href="#DejaVuSans-20" x="330.224609"/>
      <use xlink:href="#DejaVuSans-4d" x="362.011719"/>
      <use xlink:href="#DejaVuSans-6f" x="448.291016"/>
      <use xlink:href="#DejaVuSans-64" x="509.472656"/>
      <use xlink:href="#DejaVuSans-65" x="572.949219"/>
      <use xlink:href="#DejaVuSans-6c" x="634.472656"/>
     </g>
    </g>
    <g id="line2d_18">
     <path d="M 531.315625 77.014688 
L 541.315625 77.014688 
L 551.315625 77.014688 
" style="fill: none; stroke: #2ca02c; stroke-opacity: 0.6; stroke-width: 1.5; stroke-linecap: square"/>
    </g>
    <g id="text_17">
     <!-- Empirical Model -->
     <g transform="translate(559.315625 80.514688) scale(0.1 -0.1)">
      <defs>
       <path id="DejaVuSans-63" d="M 3122 3366 
L 3122 2828 
Q 2878 2963 2633 3030 
Q 2388 3097 2138 3097 
Q 1578 3097 1268 2742 
Q 959 2388 959 1747 
Q 959 1106 1268 751 
Q 1578 397 2138 397 
Q 2388 397 2633 464 
Q 2878 531 3122 666 
L 3122 134 
Q 2881 22 2623 -34 
Q 2366 -91 2075 -91 
Q 1284 -91 818 406 
Q 353 903 353 1747 
Q 353 2603 823 3093 
Q 1294 3584 2113 3584 
Q 2378 3584 2631 3529 
Q 2884 3475 3122 3366 
z
" transform="scale(0.015625)"/>
       <path id="DejaVuSans-61" d="M 2194 1759 
Q 1497 1759 1228 1600 
Q 959 1441 959 1056 
Q 959 750 1161 570 
Q 1363 391 1709 391 
Q 2188 391 2477 730 
Q 2766 1069 2766 1631 
L 2766 1759 
L 2194 1759 
z
M 3341 1997 
L 3341 0 
L 2766 0 
L 2766 531 
Q 2569 213 2275 61 
Q 1981 -91 1556 -91 
Q 1019 -91 701 211 
Q 384 513 384 1019 
Q 384 1609 779 1909 
Q 1175 2209 1959 2209 
L 2766 2209 
L 2766 2266 
Q 2766 2663 2505 2880 
Q 2244 3097 1772 3097 
Q 1472 3097 1187 3025 
Q 903 2953 641 2809 
L 641 3341 
Q 956 3463 1253 3523 
Q 1550 3584 1831 3584 
Q 2591 3584 2966 3190 
Q 3341 2797 3341 1997 
z
" transform="scale(0.015625)"/>
      </defs>
      <use xlink:href="#DejaVuSans-45"/>
      <use xlink:href="#DejaVuSans-6d" x="63.183594"/>
      <use xlink:href="#DejaVuSans-70" x="160.595703"/>
      <use xlink:href="#DejaVuSans-69" x="224.072266"/>
      <use xlink:href="#DejaVuSans-72" x="251.855469"/>
      <use xlink:href="#DejaVuSans-69" x="292.96875"/>
      <use xlink:href="#DejaVuSans-63" x="320.751953"/>
      <use xlink:href="#DejaVuSans-61" x="375.732422"/>
      <use xlink:href="#DejaVuSans-6c" x="437.011719"/>
      <use xlink:href="#DejaVuSans-20" x="464.794922"/>
      <use xlink:href="#DejaVuSans-4d" x="496.582031"/>
      <use xlink:href="#DejaVuSans-6f" x="582.861328"/>
      <use xlink:href="#DejaVuSans-64" x="644.042969"/>
      <use xlink:href="#DejaVuSans-65" x="707.519531"/>
      <use xlink:href="#DejaVuSans-6c" x="769.042969"/>
     </g>
    </g>
   </g>
  </g>
 </g>
 <defs>
  <clipPath id="p946ec14ad8">
   <rect x="90" y="34.56" width="558" height="221.76"/>
  </clipPath>
 </defs>
</svg>
